<svg xmlns="http://www.w3.org/2000/svg" xml:space="preserve" viewBox="0 0 512 512">
    <path fill="#75a324" d="M374.287 151.75H123.823c-18.578 0-31.402 18.606-24.788 35.967l21.37 56.097a26.525 26.525 0 0 0 24.788 17.083h207.723a26.526 26.526 0 0 0 24.788-17.083l21.37-56.097c6.614-17.36-6.208-35.967-24.787-35.967zM268.163 62.44H190.78c-11.95 0-21.54 9.87-21.198 21.815l.492 17.122c.33 11.47 9.723 20.597 21.198 20.597h106.672c12.638 0 20.854-13.302 15.197-24.604l-5.181-10.349a44.504 44.504 0 0 0-39.797-24.582z"/>
    <path fill="#688c1b" d="m197.86 101.377-.492-17.122c-.343-11.946 9.247-21.816 21.198-21.816h-27.784c-11.95 0-21.54 9.87-21.198 21.816l.492 17.122c.33 11.47 9.723 20.597 21.198 20.597h27.784c-11.476 0-20.869-9.127-21.198-20.597z"/>
    <path fill="#75a324" d="M351.257 151.75H136.93v-11.365c0-10.168 8.243-18.412 18.412-18.412h177.504c10.168 0 18.412 8.243 18.412 18.412v11.365h-.001z"/>
    <path fill="#688c1b" d="M155.342 121.974c-10.168 0-18.412 8.243-18.412 18.412v11.365h48.953v-11.365c0-10.168 8.243-18.412 18.412-18.412h-48.953z"/>
    <path fill="#75a324" d="M502.078 72.37H472.31c-9.863 0-17.86 6.22-17.86 13.891 0 7.672 7.997 13.891 17.86 13.891h29.768V72.37z"/>
    <path fill="#ccc" d="M52.848 260.894h392.408v45.643H52.848z"/>
    <path fill="#b3b3b3" d="M9.923 306.54h478.262v182.04H9.923z"/>
    <path fill="#f7b239" d="M176.18 365.813h145.749v63.504h-145.75z"/>
    <path fill="#333" d="M502.078 61.786H472.31c-11.185 0-20.822 5.706-25.223 13.892h-133.92c-10.047-14.846-26.707-23.822-45.003-23.822H219.26l-11.499-31.204c-1.895-5.141-7.6-7.773-12.742-5.88-5.143 1.896-7.774 7.6-5.88 12.742l8.97 24.343h-7.327c-8.485 0-16.413 3.351-22.327 9.436-5.913 6.085-9.035 14.106-8.792 22.587l.492 17.122c.106 3.668.83 7.163 2.07 10.39h-6.885c-15.624 0-28.335 12.711-28.335 28.335v1.442h-3.185a36.448 36.448 0 0 0-34.06 49.425l21.37 56.097a35.45 35.45 0 0 0 1.646 3.627H52.848c-5.48 0-9.923 4.443-9.923 9.924v35.72H9.923c-5.48 0-9.923 4.443-9.923 9.923V487.92c0 5.48 4.443 9.923 9.923 9.923h478.264c5.481 0 9.923-4.443 9.923-9.923V305.88c0-5.48-4.442-9.923-9.923-9.923h-33.002v-35.72c0-5.48-4.442-9.924-9.923-9.924H385.33a35.45 35.45 0 0 0 1.646-3.627l21.37-56.097a36.442 36.442 0 0 0-4.05-33.659 36.445 36.445 0 0 0-30.011-15.766h-13.108v-1.442c0-15.624-12.71-28.335-28.333-28.335h-8.925a26.635 26.635 0 0 0-.531-15.866h123.697c4.4 8.184 14.038 13.892 25.223 13.892h29.768c5.481 0 9.923-4.443 9.923-9.923V71.71c.001-5.48-4.44-9.924-9.922-9.924zM388.624 172.92c0 4.444-3.616 8.06-8.061 8.06s-8.06-3.616-8.06-8.06c0-4.444 3.615-8.06 8.06-8.06s8.06 3.614 8.06 8.06zm-33.262-11.908c-1.716 3.617-2.706 7.645-2.706 11.908 0 15.387 12.519 27.906 27.906 27.906.912 0 1.81-.052 2.699-.138l-6.577 17.265c-5.83-12.709-18.666-21.563-33.538-21.563-20.338 0-36.886 16.546-36.886 36.886a36.64 36.64 0 0 0 4.188 17.038H281.75a36.64 36.64 0 0 0 4.188-17.038c0-20.339-16.548-36.886-36.887-36.886s-36.884 16.546-36.884 36.886a36.652 36.652 0 0 0 4.187 17.038h-28.697a36.64 36.64 0 0 0 4.187-17.038c0-20.339-16.546-36.886-36.884-36.886-14.873 0-27.709 8.854-33.538 21.563l-6.56-17.222c.625.042 1.248.095 1.884.095 15.387 0 27.907-12.519 27.907-27.906 0-4.263-.99-8.289-2.706-11.908h213.414zm-29.254 72.263c0-9.396 7.643-17.04 17.04-17.04 9.395 0 17.038 7.643 17.038 17.04 0 9.395-7.643 17.038-17.038 17.038-9.397.001-17.04-7.642-17.04-17.038zm-94.093 0c0-9.396 7.643-17.04 17.038-17.04 9.397 0 17.04 7.643 17.04 17.04 0 9.395-7.642 17.038-17.04 17.038-9.393.001-17.038-7.642-17.038-17.038zm-94.09 0c0-9.396 7.642-17.04 17.037-17.04S172 223.877 172 233.274c0 9.395-7.643 17.038-17.038 17.038-9.395.001-17.038-7.642-17.038-17.038zm-29.238-60.355c0-4.444 3.616-8.06 8.061-8.06s8.061 3.615 8.061 8.06-3.616 8.06-8.06 8.06-8.062-3.616-8.062-8.06zm369.577 305.077H19.846V315.803h458.417v162.193zm-42.925-182.04H62.77V270.16h372.567v25.797zm-94.005-156.233v1.442h-194.48v-1.442c0-4.68 3.807-8.489 8.488-8.489h177.506c4.678.002 8.486 3.81 8.486 8.49zM191.272 111.39a11.227 11.227 0 0 1-11.279-10.959l-.492-17.122a11.192 11.192 0 0 1 3.186-8.187 11.192 11.192 0 0 1 8.093-3.42h77.382c13.176 0 25.026 7.32 30.925 19.102l5.18 10.348c1.594 3.183.316 5.874-.306 6.883-.624 1.01-2.457 3.355-6.017 3.355H191.272zm300.883-21.82H472.31c-4.846 0-7.937-2.607-7.937-3.97s3.09-3.969 7.937-3.969h19.845v7.938z"/>
    <path fill="#333" d="M321.933 355.225H176.178c-5.48 0-9.923 4.443-9.923 9.923v63.504c0 5.48 4.443 9.923 9.923 9.923h145.755c5.48 0 9.923-4.443 9.923-9.923v-63.504c-.001-5.48-4.443-9.923-9.923-9.923zm-9.923 63.504H186.1V375.07h125.91v43.658z"/>
</svg>
