<svg xmlns="http://www.w3.org/2000/svg" viewBox="0 0 512 512">
    <rect width="192" height="42.667" x="42.667" y="21.333" fill="#5b2c06" rx="21.333" ry="21.333"/>
    <rect width="192" height="42.667" x="277.333" y="21.333" fill="#3d180b" rx="21.333" ry="21.333"/>
    <rect width="42.667" height="298.667" x="192" y="21.333" fill="#5b2c06" rx="21.333" ry="21.333"/>
    <rect width="128" height="21.333" x="85.333" y="42.667" fill="#4d2100" rx="10.667" ry="10.667"/>
    <rect width="42.667" height="298.667" x="277.333" y="21.333" fill="#4d2100" rx="21.333" ry="21.333"/>
    <rect width="42.667" height="298.667" x="426.667" y="21.333" fill="#3d180b" rx="21.333" ry="21.333"/>
    <rect width="42.667" height="298.667" x="42.667" y="21.333" fill="#764126" rx="21.333" ry="21.333"/>
    <rect width="42.667" height="42.667" x="42.667" y="64" fill="#5b2c06" rx="21.333" ry="21.333"/>
    <rect width="42.667" height="42.667" x="192" y="64" fill="#4d2100" rx="21.333" ry="21.333"/>
    <rect width="42.667" height="42.667" x="277.333" y="64" fill="#3d180b" rx="21.333" ry="21.333"/>
    <path fill="#97623f" d="M352 384a10.667 10.667 0 0 1-7.542-18.208l21.334-21.334a10.666 10.666 0 1 1 15.083 15.084l-21.333 21.333A10.632 10.632 0 0 1 352 384Z"/>
    <path fill="#97623f" d="M373.333 426.667a10.632 10.632 0 0 1-7.541-3.125l-21.334-21.334a10.666 10.666 0 1 1 15.084-15.083l21.333 21.333a10.667 10.667 0 0 1-7.542 18.209Z"/>
    <path fill="#97623f" d="M309.333 426.667a10.667 10.667 0 0 1-7.541-18.209l21.333-21.333a10.666 10.666 0 0 1 15.083 15.083l-21.333 21.334a10.632 10.632 0 0 1-7.542 3.125Z"/>
    <path fill="#97623f" d="M330.667 384a10.632 10.632 0 0 1-7.542-3.125l-21.333-21.333a10.666 10.666 0 0 1 15.083-15.084l21.333 21.334A10.667 10.667 0 0 1 330.667 384Z"/>
    <rect width="213.333" height="42.667" x="149.333" y="362.667" fill="#4d2100" rx="21.333" ry="21.333"/>
    <path fill="#4d2100" d="M341.333 277.333A106.667 106.667 0 1 0 448 384a106.667 106.667 0 0 0-106.667-106.667Zm0 170.667a64 64 0 1 1 64-64 64 64 0 0 1-64 64Z"/>
    <circle cx="277.333" cy="384" r="21.333" fill="#3d180b"/>
    <circle cx="256" cy="426.667" r="21.333" fill="#3d180b"/>
    <path fill="#5b2c06" d="M42.667 85.333h426.667v277.333H42.667z"/>
    <rect width="213.333" height="42.667" x="64" y="170.667" fill="#4d2100" rx="21.333" ry="21.333"/>
    <rect width="213.333" height="42.667" x="64" y="234.667" fill="#4d2100" rx="21.333" ry="21.333"/>
    <rect width="213.333" height="42.667" x="64" y="106.667" fill="#4d2100" rx="21.333" ry="21.333"/>
    <path fill="#4d2100" d="M298.667 85.333h170.667v277.333H298.667z"/>
    <rect width="42.667" height="234.667" x="298.667" y="106.667" fill="#3d180b" rx="21.333" ry="21.333"/>
    <rect width="128" height="42.667" x="320" y="106.667" fill="#3d180b" rx="21.333" ry="21.333"/>
    <rect width="128" height="42.667" x="320" y="170.667" fill="#3d180b" rx="21.333" ry="21.333"/>
    <rect width="128" height="42.667" x="320" y="234.667" fill="#3d180b" rx="21.333" ry="21.333"/>
    <rect width="469.333" height="42.667" x="21.333" y="85.333" fill="#97623f" rx="21.333" ry="21.333"/>
    <rect width="213.333" height="42.667" x="277.333" y="85.333" fill="#764126" rx="21.333" ry="21.333"/>
    <rect width="469.333" height="42.667" x="21.333" y="320" fill="#97623f" rx="21.333" ry="21.333"/>
    <rect width="213.333" height="42.667" x="277.333" y="320" fill="#764126" rx="21.333" ry="21.333"/>
    <rect width="256" height="42.667" x="42.667" y="149.333" fill="#764126" rx="21.333" ry="21.333"/>
    <rect width="170.667" height="42.667" x="298.667" y="149.333" fill="#5b2c06" rx="21.333" ry="21.333"/>
    <rect width="170.667" height="42.667" x="298.667" y="213.333" fill="#5b2c06" rx="21.333" ry="21.333"/>
    <rect width="170.667" height="42.667" x="298.667" y="277.333" fill="#5b2c06" rx="21.333" ry="21.333"/>
    <rect width="256" height="42.667" x="42.667" y="213.333" fill="#764126" rx="21.333" ry="21.333"/>
    <rect width="256" height="42.667" x="42.667" y="277.333" fill="#764126" rx="21.333" ry="21.333"/>
    <path fill="#69341c" d="M74.667 320a10.667 10.667 0 1 1 0-21.333c49.395 0 65.479-4.625 82.52-9.521 20.188-5.813 41.063-11.813 109.48-11.813a10.667 10.667 0 0 1 0 21.334c-65.417 0-84.813 5.583-103.584 10.979-18.52 5.333-36 10.354-88.416 10.354Z"/>
    <path fill="#764126" d="M53.333 362.667a10.669 10.669 0 0 1-2.583-21.021c87.146-21.75 109.563-21.771 218-.104a10.64 10.64 0 0 1 8.375 12.541 10.772 10.772 0 0 1-12.542 8.375c-105.333-21.041-124.812-21.062-208.666-.104a10.951 10.951 0 0 1-2.584.313Z"/>
    <path fill="#5b2c06" d="M170.667 277.333A106.667 106.667 0 1 0 277.333 384a106.667 106.667 0 0 0-106.666-106.667Zm0 170.667a64 64 0 1 1 64-64 64 64 0 0 1-64 64Z"/>
    <path fill="#c28d5f" d="M181.333 384a10.667 10.667 0 0 1-7.541-18.208l21.333-21.334a10.666 10.666 0 0 1 15.083 15.084l-21.333 21.333a10.632 10.632 0 0 1-7.542 3.125Z"/>
    <path fill="#c28d5f" d="M202.667 426.667a10.632 10.632 0 0 1-7.542-3.125l-21.333-21.334a10.666 10.666 0 1 1 15.083-15.083l21.333 21.333a10.667 10.667 0 0 1-7.541 18.209Z"/>
    <path fill="#764126" d="M266.667 128c-68.084 0-94.604-5.917-120.25-11.646-22.292-4.979-43.354-9.687-93.084-9.687a10.667 10.667 0 0 1 0-21.334c52.084 0 74.25 4.959 97.73 10.188 24.52 5.479 49.875 11.146 115.604 11.146a10.667 10.667 0 0 1 0 21.333Z"/>
    <path fill="#69341c" d="M74.667 192a10.667 10.667 0 1 1 0-21.333c49.395 0 65.479-4.625 82.52-9.521 20.188-5.813 41.063-11.813 109.48-11.813a10.667 10.667 0 0 1 0 21.334c-65.417 0-84.813 5.583-103.584 10.979-18.52 5.333-36 10.354-88.416 10.354Zm0 64a10.667 10.667 0 1 1 0-21.333c49.395 0 65.479-4.625 82.52-9.521 20.188-5.813 41.063-11.813 109.48-11.813a10.667 10.667 0 0 1 0 21.334c-65.417 0-84.813 5.583-103.584 10.979-18.52 5.333-36 10.354-88.416 10.354Zm234.666-128a10.667 10.667 0 0 1-7.541-18.208C326.25 85.333 370.5 85.333 458.667 85.333a10.667 10.667 0 0 1 0 21.334c-79.688 0-123.584 0-141.792 18.208a10.632 10.632 0 0 1-7.542 3.125ZM396 360.27c-15.458 0-27.042-4.395-38.958-8.895-13-4.938-26.459-10.042-47.709-10.042a10.667 10.667 0 0 1 0-21.333c25.167 0 41.146 6.063 55.271 11.417 22.709 8.625 39.104 14.791 89.292-10.292a10.668 10.668 0 1 1 9.541 19.083c-30.187 15.104-51 20.063-67.437 20.063Z"/>
    <path fill="#4d2100" d="M437.333 192c-21.27 0-33.541-5-45.396-9.854-13.833-5.646-28.125-11.48-61.27-11.48a10.667 10.667 0 0 1 0-21.333c37.333 0 54.333 6.938 69.333 13.063 11.313 4.625 20.25 8.27 37.333 8.27a10.667 10.667 0 1 1 0 21.334Zm0 64c-21.27 0-33.541-5-45.396-9.854-13.833-5.646-28.125-11.48-61.27-11.48a10.667 10.667 0 0 1 0-21.333c37.333 0 54.333 6.938 69.333 13.063 11.313 4.625 20.25 8.27 37.333 8.27a10.667 10.667 0 1 1 0 21.334Zm0 64c-21.27 0-33.541-5-45.396-9.854-13.833-5.646-28.125-11.48-61.27-11.48a10.667 10.667 0 0 1 0-21.333c37.333 0 54.333 6.938 69.333 13.063 11.313 4.625 20.25 8.27 37.333 8.27a10.667 10.667 0 1 1 0 21.334Z"/>
    <rect width="42.667" height="21.333" x="405.333" y="277.333" fill="#764126" rx="10.667" ry="10.667"/>
    <rect width="42.667" height="21.333" x="405.333" y="213.333" fill="#764126" rx="10.667" ry="10.667"/>
    <rect width="42.667" height="21.333" x="405.333" y="149.333" fill="#764126" rx="10.667" ry="10.667"/>
    <path fill="#c28d5f" d="M138.667 426.667a10.667 10.667 0 0 1-7.542-18.209l21.333-21.333a10.666 10.666 0 1 1 15.084 15.083l-21.334 21.334a10.632 10.632 0 0 1-7.541 3.125Z"/>
    <path fill="#c28d5f" d="M160 384a10.632 10.632 0 0 1-7.542-3.125l-21.333-21.333a10.666 10.666 0 0 1 15.083-15.084l21.334 21.334A10.667 10.667 0 0 1 160 384Z"/>
    <circle cx="170.667" cy="384" r="21.333" fill="#e2c09c"/>
</svg>
