<svg xmlns="http://www.w3.org/2000/svg" viewBox="0 0 512 512">
    <g data-name="Farmer man">
        <path fill="#edb996" d="M320 291.093v39.574l-15.36 18.026a64 64 0 0 1-97.28 0L192 330.667v-39.574a85.333 85.333 0 0 0 128 0Z"/>
        <path fill="#f6ccaf" d="M304.64 348.693a64 64 0 0 1-84.587 11.2l-6.72-7.893a22.507 22.507 0 0 1 32-20.16 80.107 80.107 0 0 0 32 9.493c40.214 0 58.454-29.226 27.307 7.36Z"/>
        <path fill="#dad7e5" d="M501.333 470.187v31.146H10.667v-31.146A106.667 106.667 0 0 1 81.813 369.6L192 330.667l15.36 18.026a64 64 0 0 0 97.28 0L320 330.667 430.187 369.6a106.667 106.667 0 0 1 71.146 100.587Z"/>
        <path fill="#edebf2" d="M106.667 360.853v56.534a42.667 42.667 0 0 0-32 41.28V480c-47.254 0-36.907-67.84-3.414-103.68 13.014-8.32 6.187-5.12 35.414-15.467Zm197.973-12.16L320 330.667V416H149.333v-70.293L192 330.667l15.36 18.026a64 64 0 0 0 97.28 0Zm196.693 121.494V480H394.667v-21.333a42.667 42.667 0 0 0-32-41.28v-71.68l67.52 23.893a106.667 106.667 0 0 1 71.146 100.587Z"/>
        <path fill="#df8761" d="M416 458.667v42.666H96v-42.666a42.667 42.667 0 0 1 32-41.28v-64l42.667-15.04V416h170.666v-77.76L384 353.28v64a42.667 42.667 0 0 1 32 41.387Z"/>
        <path fill="#f6ccaf" d="M341.333 181.333c0 50.027 5.12 79.68-21.333 109.76a85.333 85.333 0 0 1-128 0c-26.667-30.293-21.333-59.84-21.333-109.76Z"/>
        <path fill="#ffdec7" d="M341.333 202.667c0 33.066 5.654 78.293-42.666 106.026a85.333 85.333 0 0 1-70.827-24.32c18.133-7.04 17.493-7.04 19.2-5.866 28.907 9.6 27.84 9.493 30.293 9.493a10.667 10.667 0 0 0 9.494-15.467l-3.52-7.04a26.56 26.56 0 0 0-35.627-11.946 5.227 5.227 0 0 1-4.693 0 26.56 26.56 0 0 0-32 6.72c-6.614-13.867-13.44-40-1.814-51.307 8.64-9.067 6.827-6.293 132.16-6.293Z"/>
        <path fill="#f6ccaf" d="M362.667 224h-21.334v-42.667h21.334a21.333 21.333 0 0 1 0 42.667Zm-213.334 0h21.334v-42.667h-21.334A21.333 21.333 0 0 0 128 202.667 21.333 21.333 0 0 0 149.333 224Z"/>
        <path fill="#df8761" d="M405.333 181.333H106.667a42.667 42.667 0 0 1 42.666-42.666h213.334a42.667 42.667 0 0 1 42.666 42.666Z"/>
        <path fill="#f29b75" d="M399.573 160H153.387a12.053 12.053 0 0 1-11.307-16.533c2.88-6.934-10.667-4.8 220.587-4.8A42.667 42.667 0 0 1 399.573 160Z"/>
        <path fill="#df8761" d="M362.667 117.333v21.334H149.333v-21.334a106.667 106.667 0 0 1 213.334 0Z"/>
        <path fill="#f29b75" d="M362.667 117.333H205.333A21.333 21.333 0 0 1 184 91.733a106.667 106.667 0 0 1 87.36-79.786 106.667 106.667 0 0 1 91.307 105.386Z"/>
        <path fill="#7c7d7d" d="M257.707 267.84c-2.454-.853-2.134 0-30.294 8.96a10.667 10.667 0 0 1-12.906-14.933l3.52-7.04a26.453 26.453 0 0 1 35.626-11.947 5.227 5.227 0 0 0 4.694 0 26.453 26.453 0 0 1 35.626 11.947c3.2 6.293 7.68 12.48 2.027 18.88s-11.947 2.88-38.293-5.867Z"/>
        <path fill="#f29b75" d="M384 417.387v-64l-42.667-15.04V416H170.667v-77.76l-32 11.307v87.786A42.667 42.667 0 0 0 181.333 480H416v-21.333a42.667 42.667 0 0 0-32-41.28Z"/>
    </g>
</svg>
