<svg xmlns="http://www.w3.org/2000/svg" viewBox="0 0 512 512">
    <g data-name="Farm House">
        <circle cx="373.333" cy="117.333" r="96" fill="#cc3c00"/>
        <path fill="#ae2b00" d="M277.333 117.333a96 96 0 0 0 192 0v-.489l-.001-.037v-.129l-.001-.033v-.08l-.001-.062v-.021l-.001-.082v-.08l-.001-.031v-.052l-.001-.03v-.05l-.001-.033v-.05l-.001-.033v-.045l-.001-.04v-.042l-.001-.04-.001-.04v-.04l-.001-.047v-.034l-.002-.045v-.036l-.001-.063v-.018l-.002-.082v-.016l-.002-.064v-.031l-.001-.05-.001-.038-.001-.041-.001-.038-.001-.045v-.038l-.002-.043v-.036l-.002-.047v-.035l-.002-.05v-.029l-.002-.054v-.03l-.002-.047v-.034l-.002-.029-.002-.094-.001-.037-.001-.038-.002-.042v-.038l-.002-.045-.001-.034-.002-.047v-.034l-.002-.049-.001-.033-.002-.047v-.034l-.002-.048-.002-.034-.001-.045-.001-.036-.002-.047-.001-.035-.003-.064v-.015l-.003-.081v-.02l-.003-.062-.001-.028-.002-.051-.002-.035-.001-.045-.002-.04-.002-.04-.001-.04-.002-.04-.002-.044-.001-.034-.002-.045-.002-.036-.002-.046-.001-.036-.002-.04-.002-.05-.002-.032-.007-.16-.001-.029-.003-.052-.001-.034-.003-.045-.001-.038-.003-.044-.001-.035-.003-.046-.001-.035-.003-.045-.002-.039-.002-.037-.002-.044-.002-.039-.002-.04-.002-.041-.002-.04-.002-.036-.01-.173-.001-.027-.003-.042-.002-.04-.002-.04-.003-.04-.002-.043-.002-.034-.003-.048-.002-.033-.002-.042-.003-.04-.002-.042-.003-.037-.002-.042-.002-.037-.003-.044-.003-.041-.002-.037-.003-.048-.005-.072-.002-.038-.004-.054-.001-.024-.004-.05-.002-.032-.003-.045-.002-.033-.003-.046-.002-.035-.004-.045-.002-.032-.003-.048-.002-.034-.004-.046-.002-.03-.003-.05-.002-.03-.004-.049-.002-.025-.014-.194-.001-.013-.004-.052-.002-.03-.003-.044-.003-.035-.004-.048-.002-.03-.004-.047-.002-.033-.004-.048-.002-.03-.004-.048-.003-.03-.004-.051-.002-.027-.004-.05-.002-.03-.004-.051-.001-.01-.018-.213v-.007l-.005-.059-.002-.02-.004-.052-.003-.03-.004-.048-.003-.028-.004-.053-.003-.027-.004-.05-.003-.03-.004-.048-.003-.03-.004-.05-.002-.02-.006-.061v-.001a88.586 88.586 0 0 0-.026-.29l-.002-.015-.005-.054-.002-.027-.005-.046-.003-.034-.004-.047-.003-.031-.005-.048-.003-.028-.005-.054-.002-.023-.005-.053-.003-.028-.005-.051-.002-.023-.006-.055-.002-.016-.01-.108-.003-.03-.005-.04-.003-.037-.006-.052-.002-.026-.006-.056-.002-.02-.006-.055-.003-.026-.005-.053-.003-.022-.005-.056-.003-.023-.006-.055-.002-.021-.006-.057-.002-.018-.048-.437v-.003l-.008-.069-.001-.009-.008-.062-.002-.017-.007-.063-.001-.012-.008-.064v-.012l-.009-.067v-.005l-.009-.07v-.004l-.054-.448v-.001l-.009-.072v-.005l-.009-.067v-.011l-.01-.068v-.005l-.009-.072a61.101 61.101 0 0 0-.097-.748v-.005l-.103-.745v-.002c-.05-.348-.1-.695-.154-1.043v-.002a95.804 95.804 0 0 0-29.92-56.05v-.001l-.104-.095-.004-.004-.05-.045-.004-.004-.047-.043-.009-.008-.047-.043-.003-.003-.104-.095-.003-.003-.05-.045-.01-.01-.143-.13-.009-.007-.039-.035-.017-.016-.039-.035-.016-.014-.038-.035-.017-.015-.038-.034-.02-.018-.03-.028-.03-.026-.028-.025-.027-.024-.028-.026-.03-.026-.027-.025-.037-.033-.018-.016-.056-.05-.016-.014-.042-.037-.02-.018-.034-.03-.024-.021-.037-.033-.018-.016-.037-.033-.02-.018-.039-.034-.02-.017-.036-.032-.02-.019-.042-.036-.014-.012-.051-.046-.005-.004a95.003 95.003 0 0 0-.295-.258l-.002-.002-.054-.047-.01-.009-.049-.043-.008-.007-.052-.045-.006-.005-.117-.101A21.333 21.333 0 1 0 408.2 76.973a53.334 53.334 0 1 1-88.2 40.36 21.333 21.333 0 0 0-42.667 0Z"/>
        <path fill="#f4920b" d="M426.13 64.536a74.667 74.667 0 0 0-105.594 105.595l.024.024a21.333 21.333 0 0 0 30.146-30.194 32 32 0 0 1 45.255-45.255 21.333 21.333 0 0 0 30.194-30.145l-.024-.025Z"/>
        <path fill="#ffd432" d="M373.333 42.667h-.373l-.092.001h-.031l-.097.001h-.011l-.11.001h-.025l-.086.001h-.028l-.108.002h-.015l-.095.001h-.028l-.091.002h-.02l-.107.002h-.025l-.085.002h-.031l-.107.003h-.004l-.104.002h-.029l-.087.003h-.024l-.106.003h-.026l-.084.003h-.031l-.094.003h-.015l-.106.004h-.03l-.082.003-.029.001-.106.004h-.019l-.089.003-.032.001-.09.004h-.017l-.105.004-.033.001-.077.003-.034.002-.105.004h-.01l-.095.004-.035.002-.079.003-.03.002-.104.004-.027.001-.079.004-.037.002-.085.004-.023.001-.1.005-.037.002-.074.004-.033.002-.103.005-.025.001-.082.005-.036.002-.08.004-.027.002-.102.006-.033.002-.075.004-.036.002-.102.007h-.02l-.084.006-.04.003-.074.004-.031.002-.102.007-.032.002-.074.005-.037.003-.086.006-.029.002-.093.006-.035.003-.076.005-.031.002-.102.008-.03.002-.075.006-.04.003-.077.006-.027.002-.1.008-.038.003-.07.005-.039.003-.098.008-.028.003-.076.006-.041.003-.069.006-.038.004-.097.008-.037.003-.067.006-.043.004-.08.007-.037.003-.085.008-.04.004-.068.006-.038.004-.096.009-.04.004-.065.006-.044.004-.066.007-.043.004-.089.009-.044.004-.06.006-.047.005-.094.01-.034.003-.069.007-.044.005-.066.007-.038.004-.095.01-.042.004-.065.007-.04.005-.078.008-.05.006-.071.008-.046.005-.059.007-.045.005-.093.01-.042.006-.06.007-.047.005-.07.009-.033.003-.093.012-.046.005-.058.007-.046.006-.09.01-.043.006-.062.008-.046.006-.06.007-.044.006-.092.012-.045.005-.058.008-.046.006-.072.01-.058.007-.065.009-.047.006-.057.008-.046.006-.091.012-.044.006-.06.008-.046.007-.062.009-.062.008-.068.01-.048.007-.057.008-.046.006-.092.014-.038.005-.065.01-.043.006-.065.01-.039.005-.092.014-.045.007-.057.008-.047.007-.061.01-.076.011-.054.008-.05.008-.052.008-.05.008-.088.014-.05.008-.05.008-.053.008-.053.008-.076.013-.058.009-.052.008-.051.009-.05.008-.084.014-.051.008-.053.01-.05.008-.054.009-.067.01-.069.013-.05.008-.048.008-.053.01-.057.01-.078.013-.052.009-.054.01-.044.007-.196.035-.043.008-.056.01-.04.007-.1.018-.042.008-.055.01-.045.008-.056.01-.038.008-.102.019-.041.008-.057.01-.041.008-.108.02-.032.007-.061.011-.035.007-.061.012-.031.006-.115.022-.032.006-.063.013-.031.006-.21.042-.03.006-.065.013-.022.004-.132.027-.018.004-.067.014-.028.005a89.2 89.2 0 0 0-.213.044l-.026.006-.066.014-.027.005-.126.027-.021.004-.063.014-.033.007-.063.013-.02.005-.125.027-.029.006-.066.014-.024.006-.21.046-.034.007-.063.014-.02.005-.131.03-.02.004-.066.015-.027.006-.214.049-.024.005-.067.016-.022.005-.139.032-.009.002-.068.016-.026.006-.067.016h-.002l-.146.035-.021.005-.069.016-.02.005-.217.053-.022.005-.072.017-.152.038-.012.003-.071.017-.02.005-.222.056-.013.003-.075.02h-.004l-.234.06-.012.003-.225.058-.016.004-.072.019-.01.002a71.7 71.7 0 0 0-.226.06l-.017.004-.23.061-.004.002-.074.02-.014.003-.226.062-.01.003-.076.02-.003.001-.233.064-.011.004c-.077.02-.155.043-.232.064l-.003.001-.315.09-.007.002-.313.09-.008.003-.23.067-.006.002q-.158.046-.315.094c-.186.055-.37.111-.554.168h-.003a74.313 74.313 0 0 0-18.341 8.546 21.333 21.333 0 1 0 23.106 35.868 31.822 31.822 0 0 1 17.275-5.053 21.333 21.333 0 0 0 .035-42.666h-.035Z"/>
        <path fill="#f4920b" d="m488.05 272.098-35.456-70.912a24.806 24.806 0 0 0-14.337-12.435l-37.303-12.433A24.795 24.795 0 0 1 384 152.796v-.002A24.795 24.795 0 0 0 359.204 128h-209.87C128 128 128 143.441 128 149.333v5.957l-41.03 13.676a42.392 42.392 0 0 0-24.67 21.397l-36.46 72.925a42.87 42.87 0 0 0-4.506 19.082v46.027q0 .295.016.586c-.01.194-.016.39-.016.587v1.173A10.667 10.667 0 0 0 32 341.41c.135 0 .246-.071.38-.077h433.491a24.796 24.796 0 0 0 24.796-24.795v-33.352a24.796 24.796 0 0 0-2.618-11.088Z"/>
        <path fill="#cc3c00" d="m467.081 272.829-36.463-72.925a21.333 21.333 0 0 0-12.334-10.698l-41.03-13.677a21.333 21.333 0 0 1-14.587-20.239v-5.957A21.333 21.333 0 0 0 341.333 128 21.333 21.333 0 0 0 320 149.333v5.957a21.333 21.333 0 0 1-14.587 20.239l-41.03 13.677a21.333 21.333 0 0 0-12.335 10.698l-36.462 72.925a21.333 21.333 0 0 0-2.253 9.54V448A42.667 42.667 0 0 0 256 490.667h170.667A42.667 42.667 0 0 0 469.333 448V282.37a21.333 21.333 0 0 0-2.252-9.541Z"/>
        <rect width="149.333" height="42.667" x="320" y="320" fill="#ae2b00" rx="21.333" ry="21.333"/>
        <path fill="#e45e00" d="m296.414 272.828-36.462-72.924a21.33 21.33 0 0 0-12.335-10.698l-41.03-13.677A21.334 21.334 0 0 1 192 155.29v-5.957a21.333 21.333 0 0 0-42.667 0v5.957a21.334 21.334 0 0 1-14.587 20.239l-41.03 13.677A21.038 21.038 0 0 0 88.814 192a20.965 20.965 0 0 0-7.432 7.904l-36.463 72.924a21.326 21.326 0 0 0-2.252 9.54V448a42.667 42.667 0 0 0 42.666 42.667H256A42.667 42.667 0 0 0 298.667 448V282.368a21.326 21.326 0 0 0-2.253-9.54Z"/>
        <rect width="213.333" height="42.667" x="64" y="384" fill="#f47b00" rx="21.333" ry="21.333"/>
        <rect width="149.333" height="42.667" x="320" y="384" fill="#e45e00" rx="21.333" ry="21.333"/>
        <rect width="149.333" height="42.667" x="298.667" y="448" fill="#ae2b00" rx="21.333" ry="21.333"/>
        <rect width="192" height="42.667" x="64" y="448" fill="#cc3c00" rx="21.333" ry="21.333"/>
        <rect width="213.333" height="42.667" x="64" y="320" fill="#f47b00" rx="21.333" ry="21.333"/>
        <rect width="149.333" height="42.667" x="85.333" y="256" fill="#f47b00" rx="21.333" ry="21.333"/>
        <rect width="42.667" height="149.333" x="213.333" y="341.333" fill="#ae2b00" rx="21.333" ry="21.333"/>
        <path fill="#cc3c00" d="M172.405 128.069q-.86-.068-1.738-.069h-.19a.202.202 0 0 1-.029.001h-.055c-.013 0-.026 0-.039.002h-.058a.14.14 0 0 0-.024 0h-.053l-.016.002h-.041l-.026.002h-.067l-.027.002h-.019l-.022.001h-.018l-.022.002h-.033a.12.12 0 0 1-.022.001l-.02.001h-.019l-.02.002h-.021a.26.26 0 0 1-.033 0l-.02.002a.127.127 0 0 0-.023.002h-.039l-.018.002a.193.193 0 0 0-.028.001.202.202 0 0 0-.028.002h-.024l-.014.001-.025.001-.014.002-.086.004h-.01l-.028.002h-.008l-.13.008h-.004q-.746.047-1.476.146a21.487 21.487 0 0 0-18.485 21.144v5.957a21.531 21.531 0 0 1-14.587 20.239s-.64.213-1.763.587l-4.647 1.55-6.572 2.19-7.532 2.511-7.533 2.51a18644.073 18644.073 0 0 1-11.22 3.74l-1.763.589a21.33 21.33 0 0 0-12.334 10.698l-36.463 72.924a21.326 21.326 0 0 0-2.252 9.54v44.3l.018.004c-.014 2.773-.018 4.818-.018 4.818a10.667 10.667 0 1 0 21.333 0v-49.12l36.462-72.926 41.03-13.677a42.611 42.611 0 0 0 29.175-40.477l-.028-5.955.028-.002a11.208 11.208 0 0 0 10.657-11.104 10.137 10.137 0 0 0-8.919-10.16Z"/>
        <path fill="#ffd432" d="M490.667 316.538v-33.351a24.795 24.795 0 0 0-2.618-11.09l-35.456-70.91a24.795 24.795 0 0 0-14.336-12.435l-37.303-12.434A24.795 24.795 0 0 1 384 152.795 24.795 24.795 0 0 0 359.205 128H195.462a24.795 24.795 0 0 0-24.795 24.795 24.795 24.795 0 0 0 16.954 23.523l37.302 12.434a24.795 24.795 0 0 1 14.337 12.434l35.456 70.912a24.795 24.795 0 0 1 2.617 11.089v33.351a24.795 24.795 0 0 0 24.796 24.795H465.87a24.795 24.795 0 0 0 24.796-24.795Z"/>
        <path fill="#cc3c00" d="M162.441 163.675a21.333 21.333 0 0 0-15.27 36.228 67.74 67.74 0 0 0 26.958 16.892l30.279 10.093 25.225 50.45q.13.262.268.52c.083.177.168.353.256.53l4.51 9.018v29.132a67.435 67.435 0 0 0 9.606 34.704 21.333 21.333 0 1 0 36.582-21.96 24.893 24.893 0 0 1-.272-.464l-.003-.005-.016-.029-.003-.005-.05-.088-.006-.011-.015-.026-.006-.01-.027-.05-.005-.008-.014-.025-.008-.015-.013-.022-.014-.026-.012-.022-.015-.027-.008-.015-.015-.027-.007-.014-.022-.04-.002-.003-.02-.037-.005-.01-.021-.039-.001-.002-.023-.043-.003-.005-.02-.038-.003-.006a19.965 19.965 0 0 1-.07-.132v-.001a24.632 24.632 0 0 1-2.715-9.177v-.001l-.015-.158v-.004a23.947 23.947 0 0 1-.013-.157v-.002l-.008-.106-.004-.052v-.003l-.008-.102v-.01l-.004-.045v-.004l-.003-.052v-.002l-.004-.049v-.007l-.003-.049v-.002l-.003-.05v-.007l-.003-.044v-.01l-.006-.1v-.01l-.002-.042-.001-.009-.005-.1v-.01l-.002-.042v-.01l-.003-.05v-.005l-.002-.043v-.013l-.001-.041v-.009l-.002-.047-.001-.016-.001-.035v-.014l-.002-.041v-.009l-.002-.047v-.015l-.001-.036v-.014l-.002-.048v-.049l-.001-.015v-.036l-.001-.014v-.047l-.001-.013v-.037l-.001-.016v-.048l-.001-.049v-.065l-.001-.042v-33.52a24.792 24.792 0 0 0-2.619-11.089l-.272-.546-.005-.008-.311-.624-.003-.005-.19-.379-.005-.012-.05-.098-.026-.052v-.002l-.013-.025-.003-.006-.005-.01-.01-.022-.006-.01-.007-.014-.006-.013-.007-.012-.02-.04-.01-.023-.002-.002-.013-.025v-.001l-.013-.025-.003-.007-.038-.075-.003-.007-.024-.048-.006-.011-.011-.024-.002-.003-.012-.025-.002-.003-.013-.027-.017-.033-.012-.023-.048-.097-.01-.019-.007-.016-.055-.11-.012-.023-.007-.014-.009-.017-.02-.04-.012-.026-.004-.007-.025-.05-.02-.042-.026-.05-.008-.017-.007-.012-.011-.023-.025-.05-.004-.007-.207-.415-.002-.004-.013-.026-.007-.014-.009-.017-.005-.011-4.722-9.445q-.132-.263-.27-.521-.124-.265-.255-.529l-25.756-51.51-.009-.019-.295-.59-.01-.02-.016-.032-.008-.016-.018-.036-.006-.011-.02-.04-.003-.007-.022-.044-.002-.004-.017-.034-.012-.023-.014-.028-.013-.027-.005-.01-.02-.04-.009-.018-.01-.02-.012-.023-.012-.025-.019-.037-.001-.003-.017-.034-.016-.032-.05-.101-.057-.114-.136-.27-.012-.024-.131-.264-.021-.042-.038-.074-.025-.05-.039-.079-.036-.073-.002-.003-.027-.054-.007-.014-.05-.101-.147-.292-.039-.079-.01-.02-.1-.2-.06-.12-.015-.03-.004-.007-.078-.156-.03-.063-.028-.055-.003-.005-.083-.165-.012-.024-.007-.015-.123-.246v-.001l-.028-.056-.005-.008-.082-.165-.01-.02-.153-.307-.001-.002-.047-.092-.004-.008-.043-.087-.004-.007-.361-.723-.01-.018-.075-.153a24.794 24.794 0 0 0-14.337-12.434s-.583-.194-1.603-.534l-4.225-1.409c-1.75-.582-3.789-1.262-5.975-1.991l-6.38-2.127-.03-.01-.407-.135-.031-.01-.874-.292-.872-.29v-.001l-5.102-1.7-.119-.04-.011-.004-5.845-1.948-4.2-1.4-.025-.009-.94-.313-.636-.212-.027-.009-.053-.018-.017-.005-.04-.014-.014-.005-.053-.018-.056-.019-.01-.004-.046-.015-.012-.004-.052-.018-.002-.001-.057-.02-.005-.002-.05-.018-.009-.003-.054-.02-.06-.02-.054-.02-.008-.003-.054-.02-.115-.043-.004-.001-.171-.065h-.003l-.056-.022-.116-.045-.057-.022h-.001l-.115-.046a24.758 24.758 0 0 1-4.94-2.65v-.001l-.098-.069h-.001l-.047-.033-.004-.002a22.45 22.45 0 0 1-.143-.102l-.005-.004-.141-.101-.007-.005-.044-.033h-.001a16.445 16.445 0 0 1-.095-.07l-.005-.004-.043-.03-.004-.004-.092-.069-.007-.005-.04-.03-.007-.005-.09-.068-.01-.007-.034-.027-.011-.009-.088-.067-.01-.008-.033-.025-.014-.01-.036-.03-.007-.004-.042-.033-.013-.01-.03-.025-.014-.01-.033-.026-.01-.009-.042-.032-.014-.011-.028-.023-.016-.013-.028-.022-.015-.012-.04-.031-.016-.014-.025-.02-.019-.016-.022-.018-.02-.016-.035-.029-.021-.017-.022-.018-.021-.017-.02-.017-.02-.017-.025-.02-.034-.028-.018-.015-.023-.02-.018-.014-.023-.02-.017-.015-.042-.035-.015-.012-.025-.022-.014-.012-.026-.022-.01-.007-.06-.053h-.001l-.03-.026-.008-.007-.03-.026-.003-.003-.099-.086-.003-.002q-.741-.65-1.426-1.353a21.268 21.268 0 0 0-15.263-6.426Z"/>
        <path fill="#f4ac03" d="M191.566 128.54a10.682 10.682 0 0 0-2.94.414 24.84 24.84 0 0 0-17.221 17.813v.001l-.046.184v.001l-.044.184v.003l-.043.184v.001l-.04.185-.001.002-.026.122v.003l-.014.06v.002l-.038.186v.002l-.025.122v.004l-.012.06v.002l-.023.122-.002.005-.01.06-.001.002-.022.122-.001.005-.011.06v.001l-.011.062v.002l-.01.06-.002.006-.01.058v.005l-.01.058v.003l-.01.059-.002.008-.01.058v.002l-.009.06v.004l-.01.059-.001.007-.018.12v.005l-.01.058-.001.009-.017.118v.007l-.01.058v.008l-.017.119v.007l-.008.058-.001.008-.015.118-.002.01-.007.057v.007l-.015.119-.001.01-.007.056-.001.009-.007.058v.001l-.006.06-.001.008-.007.059v.006l-.006.056-.001.006-.006.059v.007l-.007.06v.005l-.006.057v.006l-.006.058-.001.01-.006.059v.004l-.005.056v.008l-.006.057v.012l-.006.056v.008l-.005.053v.01l-.005.056v.012l-.01.117v.01l-.005.057v.01l-.009.118v.012l-.004.056v.01l-.004.057v.003l-.004.058v.012l-.004.057v.01l-.003.056v.004l-.003.059v.01l-.004.058v.01l-.003.053v.008l-.002.056v.014l-.003.056v.01l-.002.052v.01l-.003.055v.014l-.002.057v.009l-.002.053v.009l-.002.058v.01l-.001.06v.006l-.002.053v.012l-.001.057v.012l-.001.057v.007l-.001.055v.01l-.001.057v.013l-.001.058v.199a24.795 24.795 0 0 0 16.954 23.523l.026.009h.001l.636.212.94.313.025.009 4.2 1.4 5.845 1.948.011.004.119.04 5.101 1.7h.001l.872.29.874.292.031.01.406.136.032.01 6.38 2.127 5.974 1.991 4.225 1.409 1.603.534a24.794 24.794 0 0 1 14.337 12.434l.019.039.001.003.014.026.003.007.006.013.002.002.009.018.001.003.005.009.002.004.011.023.008.015.017.034.002.004.005.011.002.003.014.029.001.002.007.015h.001l.007.014.003.007.02.041.006.011.006.012.004.007.03.06.014.028.025.05.018.037.011.022.003.005.021.043 12.03 24.06q.127.252.265.494.116.267.248.531l22.615 45.23a24.792 24.792 0 0 1 2.617 11.089v33.492l.001.06v.061l.001.012v.069l.002.06v.062l.001.01.001.057v.014l.002.058v.006l.001.057v.009l.002.058v.011l.002.059v.01l.002.054v.008l.003.057v.013l.002.058.001.01.002.055v.007l.003.059v.01l.003.059v.01l.007.12v.012l.004.057v.01l.004.059v.005l.003.056.001.012.003.057.001.012.004.058v.005l.004.056v.01l.005.057.001.013.004.058v.005l.005.057v.008l.005.058.001.012.005.058v.007l.005.054v.01l.006.057v.01l.006.06v.007l.006.058v.004l.006.06v.01l.006.058.001.006.013.123v.008l.007.059v.009l.014.12v.009l.007.06.001.006.015.122v.007l.008.06v.008l.016.12v.009l.008.057.002.01.008.059v.004l.008.058.001.006.008.059.001.009.009.06v.002l.008.06.001.004.009.06v.007l.01.06v.005l.02.122v.008l.01.059v.005l.01.059v.003l.01.06.001.007.01.059.001.006.02.12.002.009.01.057.001.008.022.121v.004l.01.06.002.007.023.121v.005l.012.06.001.005.012.06v.001l.012.063v.001l.012.062.001.003.038.188v.003l.014.062.026.124.001.005.041.187v.002l.014.061v.003l.03.124.014.063.03.125v.002l.015.061v.002l.031.124.016.062v.002l.047.185.001.003a24.849 24.849 0 0 0 12.429 15.682l.056.03.11.057.003.002.055.028.11.056.005.003.052.027.005.002.104.053.01.004.05.025.006.003.052.026.002.001.05.025.009.004.049.024.01.005.051.025h.001l.05.025.01.004.049.023.01.005.049.023.011.006.04.018.013.007.045.02.016.008.045.021.015.007.034.016.02.01.04.018.021.01.04.018.022.01.028.012.026.012.033.015.025.011.037.017.025.01.025.012.036.016.025.011.026.011.037.017.026.011.022.01.038.016.025.01.025.012.038.016.026.011.021.01.042.017.022.01.04.016.022.01.03.012.017.007.048.02.014.006.06.024.005.003.03.012.015.006.054.022.01.004.17.068.003.001.174.068h.001a24.577 24.577 0 0 0 2.696.87 10.667 10.667 0 0 0 5.36-20.65 3.46 3.46 0 0 1-2.568-3.35v-33.351a46.358 46.358 0 0 0-4.87-20.63l-22.615-45.23q-.132-.264-.277-.517-.116-.268-.248-.532l-12.316-24.632a45.824 45.824 0 0 0-26.672-23.132l-37.302-12.435a3.466 3.466 0 0 1 .13-6.615 10.668 10.668 0 0 0-2.93-20.924Z"/>
        <rect width="42.667" height="64" x="106.667" y="234.667" fill="#5b2c06" rx="21.333" ry="21.333"/>
        <rect width="42.667" height="64" x="192" y="234.667" fill="#5b2c06" rx="21.333" ry="21.333"/>
        <rect width="128" height="149.333" x="106.667" y="341.333" fill="#5b2c06" rx="21.333" ry="21.333"/>
        <path fill="#69341c" d="M138.656 469.333a10.668 10.668 0 0 1-8.52-17.062l64-85.334a10.662 10.662 0 1 1 17.062 12.792l-64 85.334a10.62 10.62 0 0 1-8.542 4.27Z"/>
        <path fill="#764126" d="M202.677 469.333a10.62 10.62 0 0 1-8.542-4.27l-64-85.334a10.662 10.662 0 1 1 17.063-12.791l64 85.333a10.668 10.668 0 0 1-8.52 17.062Z"/>
        <rect width="42.667" height="85.333" x="341.333" y="362.667" fill="#4d2100" rx="21.333" ry="21.333"/>
        <rect width="42.667" height="85.333" x="405.333" y="362.667" fill="#4d2100" rx="21.333" ry="21.333"/>
        <circle cx="117.333" cy="266.667" r="10.667" fill="#4d2100"/>
        <circle cx="202.667" cy="266.667" r="10.667" fill="#4d2100"/>
        <rect width="21.333" height="106.667" x="213.333" y="362.667" fill="#4d2100" rx="10.667" ry="10.667"/>
        <rect width="21.333" height="42.667" x="341.333" y="384" fill="#3d180b" rx="10.667" ry="10.667"/>
        <rect width="21.333" height="42.667" x="405.333" y="384" fill="#3d180b" rx="10.667" ry="10.667"/>
        <rect width="170.667" height="42.667" x="277.333" y="192" fill="#ffef7d" rx="21.333" ry="21.333"/>
        <rect width="192" height="42.667" x="298.667" y="277.333" fill="#f4ac03" rx="21.333" ry="21.333"/>
        <rect width="149.333" height="21.333" x="234.667" y="149.333" fill="#ffef7d" rx="10.667" ry="10.667"/>
        <rect width="149.333" height="21.333" x="320" y="320" fill="#df8d00" rx="10.667" ry="10.667"/>
        <path fill="#ffef7d" d="M245.323 170.667a10.678 10.678 0 0 1-4.76-1.125l-42.667-21.334a10.668 10.668 0 0 1 9.542-19.083l42.666 21.333a10.667 10.667 0 0 1-4.781 20.209Zm64 0a10.678 10.678 0 0 1-4.76-1.125l-42.667-21.334a10.668 10.668 0 0 1 9.541-19.083l42.667 21.333a10.667 10.667 0 0 1-4.781 20.209Zm64 0a10.678 10.678 0 0 1-4.76-1.125l-42.667-21.334a10.668 10.668 0 0 1 9.541-19.083l42.667 21.333a10.667 10.667 0 0 1-4.781 20.209Zm-85.313 64a10.668 10.668 0 0 1-9.552-5.896l-21.333-42.667a10.668 10.668 0 0 1 19.083-9.542l21.334 42.667a10.666 10.666 0 0 1-9.532 15.438Zm64 0a10.668 10.668 0 0 1-9.552-5.896l-21.333-42.667a10.668 10.668 0 0 1 19.083-9.542l21.334 42.667a10.666 10.666 0 0 1-9.532 15.438Zm64 0a10.668 10.668 0 0 1-9.552-5.896l-21.333-42.667a10.668 10.668 0 0 1 19.083-9.542l21.334 42.667a10.666 10.666 0 0 1-9.532 15.438Z"/>
        <path fill="#ffef7d" d="M330.677 277.333a10.668 10.668 0 0 1-9.552-5.896l-21.333-42.666a10.668 10.668 0 1 1 19.083-9.542l21.333 42.667a10.666 10.666 0 0 1-9.53 15.437Zm64 0a10.668 10.668 0 0 1-9.552-5.896l-21.333-42.666a10.668 10.668 0 1 1 19.083-9.542l21.333 42.667a10.666 10.666 0 0 1-9.53 15.437Zm-21.333 64a10.668 10.668 0 0 1-9.552-5.896l-21.334-42.666a10.668 10.668 0 0 1 19.084-9.542l21.333 42.667a10.666 10.666 0 0 1-9.531 15.437Zm85.333-64a10.668 10.668 0 0 1-9.552-5.896l-21.333-42.666a10.668 10.668 0 1 1 19.083-9.542l21.333 42.667a10.666 10.666 0 0 1-9.53 15.437Z"/>
        <path fill="#ffef7d" d="M416.01 341.333a10.668 10.668 0 0 1-9.552-5.896l-21.333-42.666a10.668 10.668 0 1 1 19.083-9.542l21.334 42.667a10.666 10.666 0 0 1-9.532 15.437Zm42.667 0a10.668 10.668 0 0 1-9.552-5.896l-21.333-42.666a10.668 10.668 0 1 1 19.083-9.542l21.333 42.667a10.666 10.666 0 0 1-9.53 15.437Z"/>
        <circle cx="458.667" cy="330.667" r="10.667" fill="#ffe754"/>
        <circle cx="416" cy="330.667" r="10.667" fill="#ffe754"/>
        <circle cx="373.333" cy="330.667" r="10.667" fill="#ffe754"/>
        <path fill="#fff8c6" d="M288.01 234.667a10.668 10.668 0 0 1-9.552-5.896l-10.666-21.333a10.668 10.668 0 0 1 19.083-9.542l10.667 21.333a10.666 10.666 0 0 1-9.532 15.438Zm64 0a10.668 10.668 0 0 1-9.552-5.896l-10.666-21.333a10.668 10.668 0 0 1 19.083-9.542l10.667 21.333a10.666 10.666 0 0 1-9.532 15.438Zm64 0a10.668 10.668 0 0 1-9.552-5.896l-10.666-21.333a10.668 10.668 0 0 1 19.083-9.542l10.667 21.333a10.666 10.666 0 0 1-9.532 15.438Z"/>
        <circle cx="373.333" cy="224" r="10.667" fill="#fff8c6"/>
        <circle cx="309.333" cy="224" r="10.667" fill="#fff8c6"/>
        <circle cx="437.333" cy="224" r="10.667" fill="#fff8c6"/>
        <path fill="#fff8c6" d="M245.323 170.667a10.678 10.678 0 0 1-4.76-1.125l-23.146-11.573a10.668 10.668 0 1 1 9.541-19.084l23.146 11.573a10.667 10.667 0 0 1-4.781 20.209Zm64 0a10.678 10.678 0 0 1-4.76-1.125l-23.146-11.573a10.668 10.668 0 1 1 9.541-19.084l23.146 11.573a10.667 10.667 0 0 1-4.781 20.209Zm64 0a10.678 10.678 0 0 1-4.76-1.125l-23.146-11.573a10.668 10.668 0 1 1 9.541-19.084l23.146 11.573a10.667 10.667 0 0 1-4.781 20.209Z"/>
        <rect width="21.333" height="42.667" x="234.667" y="384" fill="#cc3c00" rx="10.667" ry="10.667"/>
        <rect width="21.333" height="42.667" x="234.667" y="448" fill="#cc3c00" rx="10.667" ry="10.667"/>
    </g>
</svg>
