<svg xmlns="http://www.w3.org/2000/svg" fill="none" viewBox="0 0 512 512">
    <g transform="translate(0 39.497) scale(2.92571)">
        <mask id="a" fill="#fff">
            <path d="M57.5 146.462A113.833 113.833 0 0 0 73 147.95S87.002 114.956 85.5 93c-1.465-21.418-19-51.586-19-51.586a108.578 108.578 0 0 0-14 2.084S65.289 72.947 66.5 93c1.276 21.134-9 53.462-9 53.462Z"/>
            <path d="M103.5 93c1.507 22.162-15 54.867-15 54.867 2.168-.054 4.047-.07 5.778-.085 4.575-.038 8.117-.068 13.222-.782 0 0 16.676-32.178 15-54-1.713-22.305-24-52.014-24-52.014-5-.26-6.857-.207-9.85-.123a276.53 276.53 0 0 1-7.15.123s20.504 30.01 22 52.014Z"/>
            <path fill-rule="evenodd" d="m124.983 141.721.517-.221s13.354-29.965 12-50C136.192 72.141 120 45 120 45c-8.6-3.213-11.774-3.509-21.5-4.014 0 0 22.287 29.71 24 52.014 1.676 21.822-15 54-15 54 7.657-1.071 11.159-2.57 17.483-5.279ZM76.5 41c1.682 0 3.349-.006 5-.014 0 0 20.504 30.01 22 52.014 1.507 22.162-15 54.867-15 54.867-3.927.099-7.936.133-12 .133-1.175 0-2.342-.017-3.5-.05 0 0 14.002-32.994 12.5-54.95-1.465-21.418-19-51.586-19-51.586a119.47 119.47 0 0 1 10-.414Zm-19 105.462C23.196 140.73 0 119.64 0 94.5c0-23.898 20.961-44.137 52.5-51.002 0 0 12.789 29.449 14 49.502 1.276 21.134-9 53.462-9 53.462Z" clip-rule="evenodd"/>
            <path d="M157 94.5c-.999-28.707-20.202-43.224-37-49.5 0 0 16.192 27.141 17.5 46.5 1.354 20.035-12 50-12 50 16.836-7.206 32.394-21.303 31.5-47Z"/>
        </mask>
        <path fill="#1E1E1E" d="M57.5 146.462A113.833 113.833 0 0 0 73 147.95S87.002 114.956 85.5 93c-1.465-21.418-19-51.586-19-51.586a108.578 108.578 0 0 0-14 2.084S65.289 72.947 66.5 93c1.276 21.134-9 53.462-9 53.462Z"/>
        <path fill="#1E1E1E" d="M103.5 93c1.507 22.162-15 54.867-15 54.867 2.168-.054 4.047-.07 5.778-.085 4.575-.038 8.117-.068 13.222-.782 0 0 16.676-32.178 15-54-1.713-22.305-24-52.014-24-52.014-5-.26-6.857-.207-9.85-.123a276.53 276.53 0 0 1-7.15.123s20.504 30.01 22 52.014Z"/>
        <path fill="#CBC271" fill-rule="evenodd" d="m124.983 141.721.517-.221s13.354-29.965 12-50C136.192 72.141 120 45 120 45c-8.6-3.213-11.774-3.509-21.5-4.014 0 0 22.287 29.71 24 52.014 1.676 21.822-15 54-15 54 7.657-1.071 11.159-2.57 17.483-5.279ZM76.5 41c1.682 0 3.349-.006 5-.014 0 0 20.504 30.01 22 52.014 1.507 22.162-15 54.867-15 54.867-3.927.099-7.936.133-12 .133-1.175 0-2.342-.017-3.5-.05 0 0 14.002-32.994 12.5-54.95-1.465-21.418-19-51.586-19-51.586a119.47 119.47 0 0 1 10-.414Zm-19 105.462C23.196 140.73 0 119.64 0 94.5c0-23.898 20.961-44.137 52.5-51.002 0 0 12.789 29.449 14 49.502 1.276 21.134-9 53.462-9 53.462Z" clip-rule="evenodd"/>
        <path fill="#1E1E1E" d="M157 94.5c-.999-28.707-20.202-43.224-37-49.5 0 0 16.192 27.141 17.5 46.5 1.354 20.035-12 50-12 50 16.836-7.206 32.394-21.303 31.5-47Z"/>
        <path fill="#000" d="m103.5 93 1.497-.102L103.5 93Zm-18 0-1.496.102L85.5 93Zm-19 0 1.497-.09L66.5 93Zm56 0-1.496.115L122.5 93Zm3 48.5.59 1.379.541-.231.239-.537-1.37-.611Zm12-50-1.497.101 1.497-.101ZM27.588 114.942a1.5 1.5 0 1 0 .824-2.884l-.824 2.884ZM88.5 147.867l1.34.675v-.001l.003-.005.01-.02.037-.074c.032-.065.08-.16.14-.285.124-.25.303-.617.53-1.091a172.34 172.34 0 0 0 1.865-4.043 201.75 201.75 0 0 0 5.551-13.771c3.949-10.974 7.796-24.942 7.021-36.354l-2.994.204c.731 10.75-2.921 24.216-6.85 35.135a198.557 198.557 0 0 1-5.467 13.562 171.222 171.222 0 0 1-1.833 3.973c-.221.463-.396.82-.514 1.06l-.134.272-.034.067-.008.016-.002.004 1.339.676Zm16.497-54.969c-.771-11.33-6.4-24.567-11.726-34.846a201.395 201.395 0 0 0-7.267-12.82 171.43 171.43 0 0 0-2.364-3.733 109.128 109.128 0 0 0-.885-1.334l-.012-.018-.003-.005-.001-.001-1.239.845-1.239.847.003.004.01.014.042.062.168.25a165.092 165.092 0 0 1 2.966 4.643 198.385 198.385 0 0 1 7.157 12.626c5.3 10.227 10.671 22.996 11.396 33.67l2.994-.204ZM73 147.95c1.38.586 1.38.586 1.381.585v-.001l.003-.005.008-.02.032-.074.119-.287a189.629 189.629 0 0 0 2.026-5.169 223.712 223.712 0 0 0 4.68-13.838c3.321-11.019 6.518-24.977 5.748-36.243l-2.993.204c.73 10.691-2.322 24.207-5.627 35.174a220.7 220.7 0 0 1-4.617 13.649c-.64 1.706-1.177 3.07-1.553 4.005a119.21 119.21 0 0 1-.579 1.413l-.007.017-.001.003v.001l1.38.586Zm13.996-55.052c-.751-10.99-5.598-24.09-10.176-34.335a222.9 222.9 0 0 0-6.23-12.8A187.727 187.727 0 0 0 68 41.016a89.319 89.319 0 0 0-.15-.263l-.039-.068-.01-.018-.003-.004v-.002l-1.298.753-1.297.754.003.004a1 1 0 0 0 .008.015l.036.063.144.25c.126.223.313.553.552.982.477.858 1.162 2.11 1.99 3.68a219.93 219.93 0 0 1 6.145 12.625c4.556 10.194 9.21 22.887 9.922 33.315l2.993-.204ZM57.5 146.462l1.43.454v-.001l.002-.006a.923.923 0 0 0 .006-.018l.023-.073.087-.28a223.63 223.63 0 0 0 1.482-5.052c.949-3.38 2.2-8.108 3.412-13.501 2.415-10.747 4.707-24.286 4.055-35.075l-2.994.18c.624 10.344-1.584 23.536-3.988 34.237a264.855 264.855 0 0 1-3.373 13.348 221.199 221.199 0 0 1-1.46 4.975l-.084.27c-.01.03-.016.052-.02.067l-.006.016-.001.004v.001l1.429.454ZM67.997 92.91c-.618-10.238-4.175-22.773-7.53-32.663a266.967 266.967 0 0 0-4.555-12.387 221.645 221.645 0 0 0-1.888-4.614 88.109 88.109 0 0 0-.11-.256l-.028-.066-.007-.017-.002-.004V42.9l-1.377.597-1.376.598.002.004.006.015.027.061.105.245c.092.218.229.54.403.959.35.837.85 2.057 1.456 3.585a264.082 264.082 0 0 1 4.502 12.246c3.342 9.847 6.785 22.064 7.378 31.88l2.994-.181ZM98.5 40.986l-1.2.9v.001l.003.003.011.015.045.061.182.247c.16.218.398.544.7.967a163.57 163.57 0 0 1 2.525 3.636c2.1 3.11 4.917 7.487 7.786 12.552 5.771 10.19 11.623 22.946 12.452 33.747l2.992-.23c-.884-11.505-7.033-24.754-12.833-34.995a193.797 193.797 0 0 0-7.911-12.753 167.433 167.433 0 0 0-2.571-3.704 106.745 106.745 0 0 0-.912-1.255l-.05-.067-.014-.018a.098.098 0 0 0-.005-.006l-1.2.9Zm22.504 52.129c.812 10.567-2.834 23.807-6.783 34.551a190.526 190.526 0 0 1-5.505 13.341 167.302 167.302 0 0 1-1.849 3.907 110.198 110.198 0 0 1-.688 1.376l-.009.016-.001.003-.001.001 1.332.69 1.332.689.001-.001.003-.005a.181.181 0 0 1 .01-.02l.037-.073.143-.28c.124-.246.305-.608.534-1.074.458-.934 1.109-2.288 1.883-3.98a193.322 193.322 0 0 0 5.594-13.555c3.969-10.8 7.823-24.561 6.959-35.816l-2.992.23ZM120 45l-1.288.769.002.003.008.013.033.056.132.225a163.608 163.608 0 0 1 2.344 4.19 193.437 193.437 0 0 1 5.664 11.359c4.2 9.18 8.474 20.595 9.108 29.986l2.994-.202c-.674-9.968-5.15-21.802-9.374-31.033a196.691 196.691 0 0 0-5.753-11.536 167.267 167.267 0 0 0-1.869-3.37 83.942 83.942 0 0 0-.712-1.227c-.001-.001-.001-.002-1.289.767Zm16.003 46.601c.657 9.719-2.264 21.99-5.425 31.959a195.48 195.48 0 0 1-4.408 12.395 163.67 163.67 0 0 1-1.896 4.606l-.109.248-.027.062a.114.114 0 0 0-.006.014l-.002.004 1.37.611 1.37.61.001-.002.002-.004.008-.018.03-.068.114-.262c.1-.229.245-.565.428-.999.367-.869.888-2.129 1.508-3.702a198.373 198.373 0 0 0 4.477-12.589c3.177-10.022 6.256-22.751 5.559-33.067l-2.994.202Zm-10.43 51.499.517-.221-1.18-2.758-.518.221 1.181 2.758Zm-97.16-31.042-24.5-7-.825 2.884 24.5 7 .824-2.884ZM157 94.5l2.998-.104L157 94.5Zm-99.5 51.962.494-2.959-.494 2.959Zm-5-102.964.638 2.931-.638-2.93ZM73 147.95l-.086 2.999.086-2.999ZM66.5 41.414l.251 2.99-.251-2.99Zm22 106.453.076 2.999-.076-2.999Zm-7-106.88-.014-3 .014 3Zm17 0 .156-2.997-.156 2.996Zm9 106.013-.415-2.971.415 2.971ZM120 45l1.05-2.81L120 45Zm5.5 96.5-1.18-2.758h-.001l1.181 2.758ZM88.65 40.863l-.084-2.999.084 2.999Zm5.628 106.919.026 3-.026-3Zm30.705-6.061-1.181-2.757 1.181 2.757Zm-66.989 1.782C24.4 137.89 3 117.536 3 94.5h-6c0 27.244 24.991 49.071 60.006 54.921l.988-5.918ZM3 94.5c0-21.907 19.318-41.362 50.138-48.07l-1.276-5.863C19.604 47.588-3 68.61-3 94.5h6ZM76.5 145c-1.147 0-2.285-.016-3.414-.049l-.172 5.998c1.187.034 2.382.051 3.586.051v-6Zm-3.414-.049a110.79 110.79 0 0 1-15.092-1.448l-.988 5.918c5.086.85 10.401 1.37 15.908 1.528l.172-5.998ZM53.138 46.429c4.334-.943 8.88-1.628 13.613-2.025l-.502-5.98a111.6 111.6 0 0 0-14.387 2.143l1.276 5.862Zm13.613-2.025c3.17-.267 6.422-.404 9.749-.404v-6c-3.492 0-6.912.144-10.251.425l.502 5.979Zm21.673 100.464c-3.894.098-7.875.132-11.924.132v6c4.08 0 8.115-.034 12.076-.134l-.152-5.998ZM76.5 44c1.689 0 3.36-.006 5.014-.014l-.028-6c-1.649.008-3.31.014-4.986.014v6Zm21.844-.018c4.891.254 7.936.449 10.812.95 2.83.495 5.581 1.304 9.794 2.878l2.1-5.62c-4.387-1.64-7.523-2.585-10.862-3.168-3.292-.575-6.697-.78-11.532-1.032l-.312 5.992Zm20.606 3.828c16.127 6.025 34.11 19.73 35.052 46.794l5.996-.208c-1.055-30.35-21.478-45.68-38.948-52.206l-2.1 5.62Zm35.052 46.794c.423 12.171-3.035 21.431-8.48 28.5-5.483 7.118-13.106 12.173-21.202 15.638l2.36 5.516c8.74-3.741 17.314-9.338 23.596-17.493 6.319-8.206 10.193-18.843 9.722-32.37l-5.996.21ZM98.655 37.99c-5.101-.264-7.041-.212-10.09-.126l.169 5.998c2.938-.083 4.712-.134 9.61.12l.312-5.992Zm-10.09-.126c-1.72.048-3.801.107-7.08.122l.03 6c3.347-.016 5.482-.076 7.219-.124l-.168-5.998Zm.01 113.002c2.14-.054 3.996-.069 5.729-.084l-.05-6c-1.731.015-3.634.031-5.83.086l.152 5.998Zm5.729-.084c4.584-.039 8.296-.068 13.611-.811l-.83-5.942c-4.895.684-8.267.715-12.832.753l.05 6Zm13.611-.811c8.059-1.127 11.854-2.753 18.249-5.492l-2.362-5.515c-6.254 2.678-9.462 4.05-16.717 5.065l.83 5.942Zm16.404-11.229-.517.222 2.362 5.515.517-.221-2.362-5.516Z" mask="url(#a)"/>
        <circle cx="27" cy="77" r="4" fill="#000"/>
        <path fill="#3F3E3E" stroke="#000" stroke-width="2" d="m173.236 99.518-17.879 6.898-.089-13.56 17.968 6.662Z"/>
        <path fill="#B6B6B6" stroke="#000" stroke-width="2" d="M150 15.5C155.163-26.764 61.5 42 61.5 42s2.834.663 14.5 0c12.501-.71 32 2 32 2s39.13-5.008 42-28.5Z"/>
        <path fill="#D9D9D9" stroke="#000" stroke-width="2" d="M173.198 28.045C175.103-14.491 72.42 67.393 72.42 67.393s17.448-5.693 29.029-7.249c12.41-1.667 32.059-.46 32.059-.46s38.631-7.997 39.69-31.64Z"/>
    </g>
</svg>
