<svg xmlns="http://www.w3.org/2000/svg" xml:space="preserve" viewBox="0 0 512 512">
    <g transform="scale(2)">
        <style>
            .st0{fill:#f98fa6}.st2{fill:#dae6f1}.st3{fill:#5290db}.st8{fill:#edf4fc}.st9{fill:#9be5f9}.st10{fill:#b2e26d}.st11{fill:#f9c1a8}.st12{fill:#414344}.st13{fill:#e1fbff}.st14{fill:#ffe3ec}.st15{fill:#fcbecf}.st16{fill:#ef4460}.st17{fill:#80c2f9}.st18{fill:#3a70bf}.st19{fill:#fca265}.st20{fill:#5b5d60}.st21{fill:#818182}.st22{fill:#c7d7e5}.st23{fill:#f9d0b4}.st24{fill:#aa6f59}.st25{fill:#d1856d}.st26{fill:#fcc29a}.st27{fill:#29589f}.st28{fill:#f7b386}.st29{fill:#fc8c48}.st31{fill:#57af12}.st32{fill:#3caadc}.st34{fill:#231f20}
        </style>
        <g id="Layer_69">
            <path fill="#f5c84c" d="m253.124 223.324-1.364-5.092-68.745 18.42 1.364 5.092c1.554 5.8 7.516 9.242 13.316 7.688l47.741-12.792c5.801-1.554 9.242-7.515 7.688-13.316zM4.237 218.233l-1.364 5.092c-1.554 5.8 1.888 11.762 7.688 13.316l47.741 12.792c5.8 1.554 11.762-1.888 13.316-7.688l1.364-5.092-68.745-18.42z"/>
            <path fill="#edb311" d="M99.52 147.47c-4.073 0-7.405-3.332-7.405-7.405V120.16c-.317-.012-.621-.03-.962-.03-9.207 0-9.207 4.557-18.413 4.557-9.208 0-9.208-4.557-18.416-4.557-9.207 0-9.207 4.557-18.413 4.557-5.476 0-7.7-1.61-10.536-2.917-.013.619-.039 1.237-.044 1.857-.088 11.42-1.845 22.767-4.801 33.798L4.237 218.233l68.745 18.42 16.533-61.702a134.604 134.604 0 0 1 2.683-8.77 7.495 7.495 0 0 1-.084-1.055c0-2.236.995-4.235 2.561-5.593a134.39 134.39 0 0 1 5.583-12.102 6.904 6.904 0 0 1-.738.039z"/>
            <path fill="#fcdd86" d="M109.569 124.687a22.49 22.49 0 0 1-2.644-.154v10.136a133.582 133.582 0 0 0 4.162-10.03c-.479.029-.98.048-1.518.048z"/>
            <path fill="#edb311" d="M235.467 157.425c-2.956-11.032-4.713-22.378-4.801-33.798-.005-.62-.03-1.239-.044-1.859-2.841 1.307-5.065 2.919-10.548 2.919-9.211 0-9.211-4.557-18.422-4.557-4.971 0-7.26 1.327-9.762 2.549.299.804.47 1.67.47 2.578a7.405 7.405 0 0 1-14.81 0c0-.448.047-.885.123-1.312-4.249-1.291-6.004-3.815-12.861-3.815-.755 0-1.429.04-2.071.096v.473c0 4.073-3.332 7.405-7.405 7.405-2.669 0-5.013-1.436-6.317-3.569-.791.092-1.645.152-2.621.152-.528 0-1.019-.019-1.49-.047 2.391 6.497 5.256 12.812 8.676 18.84a134.184 134.184 0 0 1 12.895 31.471l16.533 61.702 68.745-18.42-16.29-60.808z"/>
            <path fill="#fff0cc" d="M147.934 120.7V79.76l-8.939 2.395a5.889 5.889 0 0 0-4.164 7.211l6.014 22.445a147.721 147.721 0 0 0 4.066 12.828c.471.029.962.047 1.49.047.976 0 1.83-.06 2.621-.152a7.327 7.327 0 0 1-1.088-3.834zm78.164-30.775-6.253-23.338a5.889 5.889 0 0 0-7.211-4.164l-20.272 5.432v32.339c0 4.073-3.332 7.405-7.405 7.405s-7.405-3.332-7.405-7.405V92.22c0-4.072-3.332-7.404-7.405-7.404s-7.404 3.332-7.404 7.404v28.006a23.36 23.36 0 0 1 2.071-.096c6.857 0 8.613 2.524 12.861 3.815.62-3.463 3.641-6.093 7.282-6.093 3.181 0 5.886 2.01 6.934 4.827 2.501-1.222 4.791-2.549 9.762-2.549 9.211 0 9.211 4.557 18.422 4.557 5.483 0 7.707-1.612 10.548-2.919a134.166 134.166 0 0 0-4.525-31.843zm-141.387.587c-4.073 0-7.404 3.332-7.404 7.405v4.557c0 4.073-3.332 7.405-7.405 7.405s-7.405-3.332-7.405-7.405V67.55l-19.133-5.127a5.888 5.888 0 0 0-7.212 4.164L29.9 89.925a134.182 134.182 0 0 0-4.525 31.845c2.837 1.306 5.06 2.917 10.536 2.917 9.207 0 9.207-4.557 18.413-4.557 9.208 0 9.208 4.557 18.416 4.557 9.206 0 9.206-4.557 18.413-4.557.341 0 .645.018.962.03V97.917c0-4.073-3.332-7.405-7.404-7.405zm32.291-8.357-10.078-2.7v45.078a22.49 22.49 0 0 0 2.644.154c.538 0 1.039-.019 1.518-.048a148.148 148.148 0 0 0 4.065-12.827l6.014-22.445a5.886 5.886 0 0 0-4.163-7.212z"/>
            <circle cx="99.52" cy="165.127" r="7.405" fill="#fcdd86"/>
            <path fill="#f5c84c" d="M47.688 174.81a5.696 5.696 0 1 0 0 11.392 5.696 5.696 0 0 0 0-11.392z"/>
            <circle cx="66.484" cy="158.292" r="9.683" fill="#f5c84c"/>
            <circle cx="185.526" cy="153.166" r="5.696" fill="#f5c84c"/>
            <path fill="#f5c84c" d="M207.74 161.14c-5.348 0-9.683 4.335-9.683 9.683s4.335 9.683 9.683 9.683 9.683-4.335 9.683-9.683-4.335-9.683-9.683-9.683z"/>
            <path fill="#fcdd86" d="M100.928 70.974 68.81 62.368c-3.185-.854-6.313 1.546-6.313 4.844v34.983c0 3.759 2.683 7.123 6.409 7.616 4.511.597 8.4-2.938 8.4-7.338v-4.279c0-3.759 2.683-7.123 6.409-7.616 4.51-.597 8.4 2.939 8.4 7.339v41.871c0 3.759 2.683 7.123 6.409 7.616 4.511.597 8.4-2.938 8.4-7.338V78.789a8.09 8.09 0 0 0-5.996-7.815zm85.121-8.301-32.118 8.606a8.09 8.09 0 0 0-5.996 7.814v41.328c0 3.759 2.682 7.123 6.409 7.616 4.51.597 8.4-2.938 8.4-7.338v-28.2c0-3.759 2.682-7.123 6.409-7.617 4.51-.597 8.4 2.938 8.4 7.338v7.974c0 4.4 3.89 7.936 8.4 7.338 3.726-.493 6.409-3.857 6.409-7.616v-32.4c-.001-3.296-3.128-5.696-6.313-4.843z"/>
            <circle cx="184.957" cy="125.256" r="7.405" fill="#fcdd86"/>
            <path fill="#f5c84c" d="M54.325 120.13c-8.251 0-9.127 3.651-15.844 4.41a6.697 6.697 0 0 0 3.094 5l10.837 6.795c3.124 1.959 7.283 1.006 9.242-2.119l6.311-10.064c-4.831-1.2-6.384-4.022-13.64-4.022z"/>
            <path fill="#fcdd86" d="m66.332 114.138-10.837-6.796c-3.124-1.959-7.283-1.005-9.242 2.118l-6.796 10.838a6.663 6.663 0 0 0-.976 4.242c6.717-.76 7.592-4.41 15.844-4.41 7.256 0 8.809 2.822 13.641 4.022l.485-.773c1.958-3.123 1.005-7.282-2.119-9.241z"/>
            <path fill="#f5c84c" d="M220.075 124.687c-9.211 0-9.211-4.557-18.422-4.557-3.377 0-5.508.616-7.318 1.392-1.89 3.115-.931 7.216 2.166 9.157l10.837 6.795c3.124 1.959 7.283 1.006 9.242-2.119l6.796-10.837c.015-.024.026-.048.04-.072-.972.151-2.066.241-3.341.241z"/>
            <path fill="#fcdd86" d="m221.257 115.277-10.837-6.796c-3.124-1.959-7.283-1.005-9.242 2.118l-6.796 10.838c-.017.028-.03.057-.047.085 1.809-.775 3.941-1.392 7.318-1.392 9.211 0 9.211 4.557 18.422 4.557 1.276 0 2.37-.09 3.341-.24 1.9-3.116.942-7.226-2.159-9.17z"/>
            <path fill="#f5c84c" d="M202.444 21.882c-4.498-.837-8.042-4.31-8.898-8.716a.2.2 0 0 0-.395 0c-.855 4.406-4.4 7.879-8.898 8.716a.195.195 0 0 0 0 .387c4.498.838 8.042 4.311 8.898 8.717a.2.2 0 0 0 .395 0c.855-4.406 4.4-7.879 8.898-8.717a.195.195 0 0 0 0-.387z"/>
            <path fill="#fc657e" d="M20.44 73.925c-3.507-.653-6.27-3.361-6.937-6.796a.156.156 0 0 0-.308 0c-.667 3.435-3.43 6.143-6.937 6.796a.152.152 0 0 0 0 .302c3.507.653 6.27 3.361 6.937 6.796a.156.156 0 0 0 .308 0c.667-3.435 3.43-6.143 6.937-6.796a.152.152 0 0 0 0-.302z"/>
            <path fill="#70d6f9" d="M149.155 177.302h-2.329v-2.33a3.156 3.156 0 1 0-6.314 0v2.33h-2.33a3.156 3.156 0 1 0 0 6.314h2.33v2.33a3.156 3.156 0 1 0 6.314 0v-2.33h2.329a3.156 3.156 0 1 0 0-6.314z"/>
            <circle cx="154.461" cy="202.377" r="3.377" fill="#f5c84c"/>
            <circle cx="173.461" cy="3.377" r="3.377" fill="#87d147"/>
            <path d="m255.539 222.677-1.364-5.092a2.506 2.506 0 0 0-3.063-1.768 2.502 2.502 0 0 0-1.768 3.063l1.364 5.092c1.195 4.459-1.46 9.059-5.92 10.254l-47.74 12.792c-4.465 1.192-9.061-1.462-10.255-5.921l-1.364-5.091a2.506 2.506 0 0 0-3.063-1.768 2.502 2.502 0 0 0-1.768 3.063l1.364 5.091c1.6 5.968 7.017 9.913 12.921 9.913 1.143 0 2.304-.148 3.458-.457l47.741-12.792c7.124-1.91 11.366-9.257 9.457-16.379zM75.147 235.403a2.502 2.502 0 0 0-1.518-1.165L4.885 215.817a2.502 2.502 0 0 0-3.062 1.768l-1.364 5.093c-1.908 7.122 2.334 14.469 9.456 16.378l47.742 12.792a13.294 13.294 0 0 0 10.146-1.336 13.281 13.281 0 0 0 6.23-8.12l1.364-5.091a2.499 2.499 0 0 0-.25-1.898zm-5.944 5.695a8.316 8.316 0 0 1-3.9 5.084 8.321 8.321 0 0 1-6.353.836l-47.741-12.792c-4.46-1.195-7.115-5.795-5.921-10.254l.717-2.678 63.916 17.127-.718 2.677zm32.004-95.492a2.5 2.5 0 0 0-3.371 1.066 137.874 137.874 0 0 0-5.284 11.447 2.501 2.501 0 0 0 2.314 3.445c.986 0 1.921-.588 2.316-1.558a132.142 132.142 0 0 1 5.091-11.029 2.5 2.5 0 0 0-1.066-3.371z"/>
            <path d="M92.848 164.265a2.502 2.502 0 0 0-3.171 1.565 136.907 136.907 0 0 0-2.576 8.474l-16.533 61.702a2.502 2.502 0 0 0 2.417 3.149 2.502 2.502 0 0 0 2.413-1.854l16.533-61.702a132.085 132.085 0 0 1 2.482-8.163 2.502 2.502 0 0 0-1.565-3.171zm-67.417-44.994-.057-.001a2.499 2.499 0 0 0-2.498 2.444l-.018.659c-.013.411-.024.822-.027 1.234-.081 10.634-1.667 21.794-4.716 33.17L1.822 217.585a2.502 2.502 0 0 0 2.417 3.149 2.502 2.502 0 0 0 2.413-1.854l16.293-60.807c3.157-11.786 4.802-23.369 4.886-34.427.003-.376.014-.752.024-1.128l.019-.692a2.5 2.5 0 0 0-2.443-2.555zm87.662 3.875a2.505 2.505 0 0 0-2.158-1.003 21.464 21.464 0 0 1-3.34-.053 2.5 2.5 0 1 0-.488 4.976c.12.012.239.022.358.032a132.21 132.21 0 0 1-2.634 6.139 2.5 2.5 0 0 0 4.543 2.087 136.613 136.613 0 0 0 4.059-9.824 2.497 2.497 0 0 0-.34-2.354zm141.082 94.439-16.293-60.807c-3.048-11.372-4.634-22.532-4.716-33.171a56.395 56.395 0 0 0-.027-1.235l-.018-.659a2.499 2.499 0 0 0-2.498-2.445l-.056.001a2.498 2.498 0 0 0-2.444 2.554l.019.694c.011.377.021.753.024 1.13.085 11.062 1.729 22.645 4.886 34.427l15.646 58.392-63.916 17.127-15.886-59.287a136.776 136.776 0 0 0-13.135-32.059c-2.678-4.72-5.104-9.803-7.232-15.148l.295-.027a2.5 2.5 0 0 0 2.248-2.729 2.497 2.497 0 0 0-2.729-2.248 21.742 21.742 0 0 1-3.283.051 2.514 2.514 0 0 0-2.156 1.004 2.502 2.502 0 0 0-.34 2.354c2.511 6.823 5.488 13.286 8.848 19.21a131.679 131.679 0 0 1 12.654 30.886l16.533 61.702a2.502 2.502 0 0 0 3.062 1.768l68.745-18.421a2.504 2.504 0 0 0 1.769-3.064z"/>
            <path d="M149.762 79.27a2.506 2.506 0 0 0-3.063-1.768l-8.351 2.238a8.333 8.333 0 0 0-5.095 3.908 8.334 8.334 0 0 0-.838 6.365l6.015 22.445a151.507 151.507 0 0 0 4.135 13.044 2.5 2.5 0 1 0 4.691-1.726 146.112 146.112 0 0 1-3.996-12.612l-6.015-22.445a3.367 3.367 0 0 1 .338-2.57 3.366 3.366 0 0 1 2.059-1.578l8.352-2.238a2.502 2.502 0 0 0 1.768-3.063zm28.23 42.151c-1.02-.347-1.912-.787-2.856-1.255-2.405-1.188-5.132-2.536-10.322-2.536-.544 0-1.051.019-1.534.049a2.5 2.5 0 0 0-2.338 2.652 2.491 2.491 0 0 0 2.652 2.338c.384-.024.787-.039 1.22-.039 4.022 0 5.915.936 8.106 2.019 1.048.519 2.132 1.055 3.465 1.507a2.5 2.5 0 1 0 1.607-4.735zm50.521-32.144-6.253-23.338c-1.198-4.468-5.806-7.122-10.274-5.931l-19.729 5.286a2.502 2.502 0 0 0-1.768 3.063 2.506 2.506 0 0 0 3.063 1.768l19.729-5.286a3.394 3.394 0 0 1 4.149 2.396l6.253 23.338a131.685 131.685 0 0 1 4.396 29.648c-2.146 1.062-4.045 1.966-8.003 1.966-4.021 0-5.913-.936-8.104-2.02-2.404-1.189-5.13-2.537-10.319-2.537-5.19 0-7.917 1.349-10.322 2.538l-.34.168a2.5 2.5 0 0 0 2.207 4.487l.35-.173c2.191-1.084 4.084-2.02 8.105-2.02 4.021 0 5.912.936 8.103 2.02 2.404 1.189 5.13 2.537 10.32 2.537 5.196 0 7.926-1.35 10.334-2.54.414-.205.829-.41 1.259-.608a2.498 2.498 0 0 0 1.453-2.324 136.857 136.857 0 0 0-4.609-32.438zM91.153 117.63c-5.188 0-7.912 1.349-10.315 2.538-2.188 1.083-4.078 2.019-8.097 2.019-1.291 0-2.422-.097-3.46-.295a2.504 2.504 0 0 0-2.925 1.987 2.502 2.502 0 0 0 1.987 2.925c1.35.258 2.788.383 4.397.383 5.188 0 7.912-1.349 10.315-2.538 2.188-1.083 4.078-2.019 8.097-2.019a2.5 2.5 0 0 0 .001-5zM62.745 65.028l-18.733-5.02a8.334 8.334 0 0 0-6.365.838 8.335 8.335 0 0 0-3.909 5.093l-6.253 23.338a136.87 136.87 0 0 0-4.608 32.439 2.5 2.5 0 0 0 1.453 2.324c.429.197.842.402 1.256.607 2.406 1.189 5.134 2.538 10.326 2.538.771 0 1.514-.029 2.208-.088a2.5 2.5 0 1 0-.418-4.982 21.41 21.41 0 0 1-1.79.07c-3.951 0-5.849-.903-7.992-1.963a131.671 131.671 0 0 1 4.396-29.651l6.253-23.338a3.37 3.37 0 0 1 1.579-2.058 3.366 3.366 0 0 1 2.57-.338l18.733 5.02a2.5 2.5 0 1 0 1.294-4.829zm59.998 18.62a8.333 8.333 0 0 0-5.093-3.908l-9.463-2.536a2.507 2.507 0 0 0-3.062 1.768 2.502 2.502 0 0 0 1.768 3.063l9.464 2.536a3.361 3.361 0 0 1 2.057 1.578c.452.783.572 1.696.338 2.57l-6.014 22.445a146.141 146.141 0 0 1-3.996 12.611 2.499 2.499 0 1 0 4.691 1.726 151.187 151.187 0 0 0 4.135-13.043l6.014-22.445a8.34 8.34 0 0 0-.839-6.365zM99.52 155.223c-5.461 0-9.904 4.443-9.904 9.904s4.443 9.904 9.904 9.904c5.462 0 9.905-4.443 9.905-9.904s-4.444-9.904-9.905-9.904zm0 14.808c-2.704 0-4.904-2.2-4.904-4.904s2.2-4.904 4.904-4.904c2.705 0 4.905 2.2 4.905 4.904s-2.2 4.904-4.905 4.904zm-51.832 2.279c-4.52 0-8.196 3.677-8.196 8.196s3.677 8.195 8.196 8.195 8.195-3.677 8.195-8.195c.001-4.52-3.676-8.196-8.195-8.196zm0 11.391a3.2 3.2 0 0 1-3.196-3.195 3.2 3.2 0 0 1 3.196-3.196 3.2 3.2 0 0 1 3.195 3.196 3.198 3.198 0 0 1-3.195 3.195zm18.796-37.592c-6.718 0-12.183 5.465-12.183 12.183s5.465 12.183 12.183 12.183 12.183-5.465 12.183-12.183-5.465-12.183-12.183-12.183zm0 19.366c-3.961 0-7.183-3.222-7.183-7.183s3.222-7.183 7.183-7.183 7.183 3.222 7.183 7.183-3.222 7.183-7.183 7.183zm119.042-20.505c-4.52 0-8.196 3.677-8.196 8.196s3.677 8.195 8.196 8.195 8.195-3.677 8.195-8.195c.001-4.52-3.676-8.196-8.195-8.196zm0 11.391a3.2 3.2 0 0 1-3.196-3.195 3.2 3.2 0 0 1 3.196-3.196 3.2 3.2 0 0 1 3.195 3.196 3.198 3.198 0 0 1-3.195 3.195zm22.214 2.279c-6.718 0-12.184 5.465-12.184 12.183s5.466 12.184 12.184 12.184 12.183-5.466 12.183-12.184-5.465-12.183-12.183-12.183zm0 19.366c-3.961 0-7.184-3.223-7.184-7.184s3.223-7.183 7.184-7.183 7.183 3.222 7.183 7.183-3.222 7.184-7.183 7.184z"/>
            <path d="m101.575 68.56-32.118-8.606a7.47 7.47 0 0 0-6.52 1.297 7.459 7.459 0 0 0-2.94 5.962v34.983c0 5.107 3.689 9.447 8.581 10.095a9.934 9.934 0 0 0 7.841-2.369 9.914 9.914 0 0 0 3.388-7.447v-4.279c0-2.609 1.821-4.818 4.236-5.138a4.854 4.854 0 0 1 3.889 1.173 4.91 4.91 0 0 1 1.684 3.688v41.87c0 5.108 3.689 9.448 8.581 10.095a9.914 9.914 0 0 0 7.841-2.369 9.914 9.914 0 0 0 3.388-7.447V78.789a10.608 10.608 0 0 0-7.851-10.229zm2.85 71.505a4.907 4.907 0 0 1-1.684 3.687 4.86 4.86 0 0 1-3.89 1.173c-2.415-.319-4.236-2.527-4.236-5.138v-41.87a9.905 9.905 0 0 0-3.389-7.448 9.912 9.912 0 0 0-7.84-2.369c-4.892.647-8.58 4.987-8.58 10.095v4.279a4.907 4.907 0 0 1-1.684 3.687 4.852 4.852 0 0 1-3.889 1.173c-2.416-.319-4.237-2.528-4.237-5.138V67.212c0-.788.358-1.516.983-1.995a2.498 2.498 0 0 1 2.182-.434l32.118 8.606h.001a5.599 5.599 0 0 1 4.144 5.399v61.277zm87.495-78.51a7.453 7.453 0 0 0-6.519-1.296l-32.118 8.605a10.606 10.606 0 0 0-7.85 10.229v41.328c0 5.107 3.689 9.447 8.581 10.095a9.914 9.914 0 0 0 7.841-2.369 9.914 9.914 0 0 0 3.388-7.447V92.499c0-2.609 1.821-4.818 4.237-5.138a4.845 4.845 0 0 1 3.888 1.173 4.909 4.909 0 0 1 1.684 3.687v7.975a9.907 9.907 0 0 0 3.388 7.447 9.92 9.92 0 0 0 7.841 2.369c4.892-.647 8.581-4.987 8.581-10.095v-32.4a7.462 7.462 0 0 0-2.942-5.962zm-2.059 38.362c0 2.609-1.821 4.818-4.237 5.138a4.846 4.846 0 0 1-3.889-1.173 4.909 4.909 0 0 1-1.684-3.687V92.22a9.906 9.906 0 0 0-3.388-7.447 9.926 9.926 0 0 0-7.84-2.369c-4.892.647-8.581 4.987-8.581 10.095V120.7a4.907 4.907 0 0 1-1.684 3.687 4.852 4.852 0 0 1-3.889 1.173c-2.416-.319-4.237-2.528-4.237-5.138V79.094a5.598 5.598 0 0 1 4.145-5.399l32.118-8.605a2.492 2.492 0 0 1 2.18.433c.626.479.984 1.207.984 1.995v32.399z"/>
            <path d="M184.957 115.352c-5.462 0-9.905 4.443-9.905 9.905 0 5.461 4.443 9.904 9.905 9.904 5.461 0 9.904-4.443 9.904-9.904 0-5.462-4.443-9.905-9.904-9.905zm0 14.809a4.91 4.91 0 0 1-4.905-4.904 4.91 4.91 0 0 1 4.905-4.905 4.91 4.91 0 0 1 4.904 4.905 4.91 4.91 0 0 1-4.904 4.904zM69.05 122.423a2.5 2.5 0 0 0-3.446.79l-6.067 9.676a4.172 4.172 0 0 1-2.624 1.856 4.171 4.171 0 0 1-3.171-.528l-10.838-6.795a4.154 4.154 0 0 1-1.868-2.708 2.5 2.5 0 1 0-4.896 1.016 9.125 9.125 0 0 0 4.108 5.929l10.838 6.795a9.12 9.12 0 0 0 4.859 1.403c.693 0 1.392-.079 2.085-.237a9.144 9.144 0 0 0 5.743-4.074l6.067-9.676a2.5 2.5 0 0 0-.79-3.447z"/>
            <path d="M71.734 117.764a9.143 9.143 0 0 0-4.074-5.744l-10.838-6.796c-4.302-2.694-9.992-1.391-12.688 2.909l-6.796 10.837a9.098 9.098 0 0 0-1.345 5.829 2.503 2.503 0 0 0 2.767 2.225c3.401-.385 5.551-1.443 7.447-2.378 2.196-1.082 4.094-2.017 8.116-2.017 4.024 0 5.921.936 8.117 2.019 1.357.669 2.896 1.427 4.921 1.931a2.5 2.5 0 0 0 2.722-1.1l.483-.772a9.131 9.131 0 0 0 1.168-6.943zm-4.972 3.373c-.729-.293-1.407-.628-2.107-.974-2.409-1.188-5.139-2.533-10.329-2.533-5.188 0-7.917 1.345-10.326 2.531-.717.354-1.395.687-2.118.978l6.49-10.35a4.204 4.204 0 0 1 5.795-1.329l10.838 6.796a4.172 4.172 0 0 1 1.856 2.624 4.201 4.201 0 0 1-.099 2.257zm157.837 1.431a2.5 2.5 0 0 0-3.446.79l-6.69 10.67a4.172 4.172 0 0 1-2.624 1.856 4.174 4.174 0 0 1-3.172-.528l-10.837-6.796c-1.934-1.212-2.543-3.788-1.357-5.741a2.5 2.5 0 0 0-4.274-2.594c-2.597 4.275-1.262 9.915 2.975 12.571l10.837 6.796a9.12 9.12 0 0 0 4.859 1.403c.693 0 1.392-.079 2.085-.237a9.143 9.143 0 0 0 5.744-4.074l6.69-10.67a2.5 2.5 0 0 0-.79-3.446z"/>
            <path d="m222.585 113.159-10.837-6.796a9.156 9.156 0 0 0-6.944-1.166 9.143 9.143 0 0 0-5.744 4.074l-6.779 10.814c-.019.028-.085.143-.103.172a2.502 2.502 0 0 0 .282 2.919 2.506 2.506 0 0 0 2.86.644c1.372-.589 3.197-1.19 6.332-1.19 4.021 0 5.912.936 8.103 2.02 2.404 1.189 5.13 2.537 10.32 2.537 1.333 0 2.551-.088 3.724-.27a2.494 2.494 0 0 0 1.751-1.169c2.611-4.28 1.281-9.928-2.965-12.589zm-.856 8.967c-.526.04-1.074.061-1.654.061-4.021 0-5.913-.936-8.104-2.02-2.404-1.189-5.13-2.537-10.319-2.537-.704 0-1.361.025-1.977.072l3.62-5.774a4.172 4.172 0 0 1 2.624-1.856 4.175 4.175 0 0 1 3.172.528l10.837 6.796c1.617 1.012 2.307 2.973 1.801 4.73zM128 9a2.5 2.5 0 0 0-2.5 2.5v15a2.5 2.5 0 1 0 5 0v-15A2.5 2.5 0 0 0 128 9zm-20.585 22.346-7.5-12.99a2.5 2.5 0 0 0-4.33 2.5l7.5 12.99a2.5 2.5 0 1 0 4.33-2.5zM89.846 47.085l-12.99-7.5a2.5 2.5 0 0 0-2.5 4.33l12.99 7.5a2.5 2.5 0 1 0 2.5-4.33zM182.56 40.5a2.5 2.5 0 0 0-3.415-.915l-12.99 7.5a2.5 2.5 0 0 0 2.5 4.33l12.99-7.5a2.5 2.5 0 0 0 .915-3.415zM159.5 17.44a2.5 2.5 0 0 0-3.415.915l-7.5 12.99a2.5 2.5 0 0 0 4.33 2.5l7.5-12.99a2.501 2.501 0 0 0-.915-3.415z"/>
        </g>
    </g>
</svg>
