<svg xmlns="http://www.w3.org/2000/svg" fill="none" viewBox="0 0 512 512">
    <path fill="#FDB157" stroke="#7A5319" stroke-width="6.592" d="M100.304 189.611C40.705 234.995-17.26 314.865 12.407 351.122s401.03 13.185 466.952 0 6.593-125.253-65.922-170.3-216.506-64.794-313.133 8.79Z"/>
    <path fill="#D68C36" stroke="#7F5423" stroke-width="5.494" d="M93.39 273.58c-16.502-28.205 34.06-102.18 47.245-108.773s23.579-10.32 37.356-14.283c25.486-7.335 45.048-7.691 45.048-7.691S101.323 287.142 93.39 273.579Zm103.835 6.592c-8.442-27.75 49.728-137.77 77.453-138.438 27.725-.668 54.936 7.69 54.936 7.69S201.8 295.203 197.225 280.173Zm119.204 0c-8.442-27.75 23.073-126.352 42.85-123.056s53.837 23.073 53.837 23.073-92.114 115.013-96.687 99.983Z"/>
</svg>
