<svg xmlns="http://www.w3.org/2000/svg" fill="none" viewBox="0 0 512 512">
    <g stroke-width="4.146">
        <path fill="#412A23" stroke="#000" d="m22.802 158.575 467.433-1.037v31.094H22.802v-30.057Z"/>
        <path fill="#C9B093" stroke="#584B3C" d="M368.972 107.79c0 43.44-27.366 77.732-60.114 77.732s-60.113-34.291-60.113-77.733 27.366-77.732 60.113-77.732 60.114 34.291 60.114 77.732Z"/>
        <path fill="#D7C4AD" stroke="#584B3C" d="M246.672 83.951c0 40.583-25.513 72.551-55.968 72.551s-55.967-31.968-55.967-72.55S160.25 11.4 190.704 11.4s55.968 31.968 55.968 72.55Z"/>
        <path fill="#E2D1B8" stroke="#584B3C" d="M190.704 159.611c0 48.029-30.154 86.025-66.332 86.025S58.04 207.64 58.04 159.61s30.155-86.024 66.332-86.024 66.332 37.996 66.332 86.024Zm256.722-28.66c10.27 46.918-11.061 90.484-46.401 98.22-35.34 7.736-72.924-22.932-83.193-69.85-10.271-46.917 11.06-90.483 46.401-98.219 35.34-7.736 72.922 22.932 83.193 69.85Z"/>
        <path fill="#D7C4AD" stroke="#584B3C" d="M360.68 188.632c0 48.028-30.156 86.024-66.332 86.024-36.176 0-66.332-37.996-66.332-86.024s30.156-86.025 66.332-86.025c36.176 0 66.332 37.996 66.332 86.025Z"/>
        <path fill="#E2D1B8" stroke="#584B3C" d="M286.057 126.445c0 48.029-30.156 86.025-66.332 86.025-36.178 0-66.332-37.996-66.332-86.025s30.154-86.024 66.332-86.024c36.176 0 66.332 37.996 66.332 86.024Z"/>
        <path stroke="#000" d="M3.11 196.923c218.688 54.931 326.477 40.421 503.708 1.037"/>
        <path fill="#A47357" stroke="#000" d="M484.016 160.648c-39.384 30.056-414.575 34.202-458.105 0S3.899 338.24 69.44 414.575c96.768 112.702 286.571 115.181 380.373 0 63.185-77.586 73.587-283.984 34.202-253.927Z"/>
        <path fill="#7A4B30" stroke="#000" d="M481.943 159.611c-27.983 21.766-437.376 10.365-457.069 0S3.11 182.413 3.11 193.814c0 76.696 470.147-3.84 501.636 18.656 7.255 5.182 5.182-74.624-22.802-52.859Z"/>
    </g>
</svg>
