<svg xmlns="http://www.w3.org/2000/svg" xml:space="preserve" viewBox="0 0 512 512">
    <path fill="#3B96D2" d="M30.464 210.17s131.133-44.297 207.33 155.94c0 0 70.88 23.036 109.864 0 38.984-23.034 120.5 10.24 120.5 10.24s-118.436-263.208-352.63-224.66c0 0-76.201 21.264-85.064 58.48z"/>
    <path fill="#A7B4DC" d="M129.905 186.936a31.778 31.778 0 0 1 2.805-2.078c.482-.313.036-.046-.061.01a7.731 7.731 0 0 1 .61-.323c.46-.225.92-.435 1.392-.635-.922.395-.005.041.445-.097.983-.302-.087-.03.139-.036.179-.005 1.305-.087.624-.077-.65.01.737.082.942.098.215.02-.594-.21.226.051.327.107.66.2.993.307.194.062 1.224.522.512.184.379.18.742.38 1.106.59 1.3.752 2.795 1.883 3.742 2.718 5.213 4.582 9.662 11.003 15.842 14.822a19.968 19.968 0 0 0 13.056 2.94c2.043-.262 5.202-1.388 5.499-3.81.291-2.355-2.688-3.144-4.485-2.913a17.766 17.766 0 0 1-1.383.123c-.25.015.66.092-.261-.036-.307-.041-1.377-.195-.527-.02a12.8 12.8 0 0 1-1.429-.385c-1.157-.379-.635-.153-1.623-.676a22.16 22.16 0 0 1-2.278-1.408c-2.908-2.037-5.269-4.613-7.86-7.352-5.099-5.396-10.823-11.668-18.8-11.96-5.832-.215-11.233 2.258-15.667 5.919-1.485 1.223-2.719 3.384-.63 4.746 1.925 1.239 5.36.706 7.07-.702zm211.579 96.01c1.372-.721 2.77-1.413 4.224-1.945.128-.046.378-.143 1.06-.317l.998-.256c.932-.23-.195.005.348-.072a21.368 21.368 0 0 1 1.618-.164c.962-.056.266 0 .066-.005a12.099 12.099 0 0 1 1.695.138 15.089 15.089 0 0 1 1.649.45c1.014.333 3.118 1.567 4.229 2.484 1.71 1.418 3.18 3.17 4.531 4.925 5.857 7.64 9.595 16.968 16.594 23.721 4.183 4.04 9.216 6.59 15.063 7.04 2.207.17 5.417-.732 6.477-2.887 1.055-2.135-.922-3.467-2.872-3.615-3.636-.282-7.404-2.376-10.502-5.632-3.476-3.656-6.149-8.003-8.775-12.278-4.88-7.941-10.256-17.75-20.04-20.203-7.014-1.757-14.295.271-20.536 3.553-1.593.84-3.881 2.626-2.468 4.603 1.295 1.822 4.997 1.326 6.64.46zM214.4 186.87a35.5 35.5 0 0 1 2.831-2.1c.205-.138.415-.266.63-.389-.082.047-.558.297-.072.052.461-.236.932-.436 1.403-.64-.911.399.016.025.461-.108.978-.297-.072-.036.154-.036.174 0 1.305-.071.64-.071-.64 0 .757.082.952.102.205.02-.553-.195.24.072.328.112.671.194 1 .307.818.271-.052-.072.532.215.378.184.747.384 1.11.594 1.306.752 2.72 1.828 3.59 2.596 5.499 4.874 9.83 11.172 16.164 15.083a20.065 20.065 0 0 0 13.117 2.898c1.987-.256 5.212-1.346 5.524-3.717.308-2.33-2.728-2.975-4.439-2.755-.21.026-1.546.144-.957.118.579-.02-.532-.025-.717-.04-.307-.026-1.367-.22-.548-.047a15.278 15.278 0 0 1-1.438-.389c-1.127-.369-.686-.205-1.649-.712a21.161 21.161 0 0 1-2.299-1.418c-2.847-1.997-5.396-4.761-7.936-7.45-5.13-5.427-10.885-11.699-18.913-11.96-5.852-.19-11.31 2.289-15.76 5.96-1.464 1.208-2.744 3.2-.675 4.567 1.858 1.234 5.411.625 7.055-.732zm2.063 81.93c2.427-.63 4.665-.835 6.917-.333 2.504.558 4.69 1.751 6.738 3.374 4.619 3.661 7.89 9.027 10.758 14.08 6.666 11.756 11.443 25.262 20.945 35.16 5.269 5.488 11.746 8.985 19.339 9.876 2.176.256 5.442-.789 6.476-2.888 1.08-2.191-.947-3.39-2.872-3.615-13.112-1.536-20.603-15.529-26.07-25.978-5.914-11.3-11.07-25.36-22.058-32.82-6.466-4.393-14.387-4.746-21.775-2.836-1.73.445-4.746 2.073-4.142 4.316.604 2.258 4.07 2.094 5.744 1.664z"/>
    <path fill="#59402D" d="M30.464 210.17s126.705-48.28 207.33 155.94c0 0-29.246 9.027-42.236 5.617-12.994-3.415-66.739-141.634-173.353-133.95 0 0-10.337-12.087 8.259-27.606z"/>
    <path fill="#6A4B35" d="M111.39 151.69s227.119-42.557 352.636 224.656c0 0 28.636 1.894 28.636-14.29 0-16.19-39.711-209.93-321.321-226.468-53.852-.215-61.23 18.54-59.95 16.102z"/>
</svg>
