<svg xmlns="http://www.w3.org/2000/svg" fill="none" viewBox="0 0 512 512">
    <path fill="#B27F42" stroke="#000" stroke-width="4.231" d="M139.587 197.763c-.824 12.986-8.133 24.716-8.133 24.716s-14.107-5.882-21.449-14.728c-12.783-15.4-18.51-41.306-.19-49.365 19.151-8.426 31.096 18.497 29.772 39.377Z"/>
    <path fill="#B27F42" stroke="#000" stroke-width="4.231" d="M136.294 231.74s17.93-44.499 41.043-24.841c23.113 19.657-17.532 85.007-17.532 85.007s-89.269-43.456-64.682-68.234c16.195-16.32 41.172 8.068 41.172 8.068Z"/>
    <path fill="#B27F42" d="M94.453 284.312c22.334-25.154 67.55 21.132 67.55 21.132s14.875-58.252 42.581-52.822c23.432 4.592 12.328 38.64-1.59 67.123 11.35-15.087 25.627-27.015 39.62-19.548 41.86 22.33-47.32 103.853-47.32 103.853S73.653 389.416 94.708 350.135c9.002-16.795 40.201-8.864 62.329-.557-31.647-14.843-82.19-43.18-62.583-65.266Z"/>
    <path stroke="#000" stroke-width="4.231" d="m222.57 484.836-27.275-80.786m-58.746-173.678 25.453 75.072m0 0s-45.215-46.286-67.547-21.132c-27.854 31.373 85.86 75.366 85.86 75.366m-18.31-54.234 18.31 54.234m-18.31-54.234s14.875-58.252 42.58-52.822c41.17 8.07-24.27 107.056-24.27 107.056m0 0 14.981 44.372m-14.982-44.372s31.822-75.742 62.302-59.481c41.857 22.33-47.32 103.853-47.32 103.853m-14.982-44.372s-71.204-36.41-85.605-9.543c-21.056 39.281 100.587 53.915 100.587 53.915"/>
    <path fill="#D7903E" stroke="#000" stroke-width="4.231" d="M250.104 49.629c-4.935 12.04-15.61 20.814-15.61 20.814s-11.486-10.085-15.612-20.814c-7.185-18.68-4.324-45.056 15.611-46.833 20.84-1.857 23.545 27.474 15.611 46.833Z"/>
    <path fill="#D7903E" stroke="#000" stroke-width="4.231" d="M236.115 80.768s31.222-36.427 46.833-10.41c15.611 26.02-43.805 74.934-43.805 74.934s-70.675-69.729-39.453-85.34c20.563-10.282 36.425 20.816 36.425 20.816Z"/>
    <path fill="#D7903E" d="M179.656 117.193c29.206-16.69 57.24 41.629 57.24 41.629s32.73-50.432 57.24-36.426c20.734 11.848-.68 40.554-22.978 63.089 15.58-10.665 32.923-17.398 43.794-5.848 32.514 34.547-78.055 83.259-78.055 83.259s-110.571-52.777-78.056-83.259c13.902-13.032 40.924 4.463 59.232 19.411-25.237-24.187-64.058-67.203-38.417-81.855Z"/>
    <path stroke="#000" stroke-width="4.231" d="M236.897 348.161v-85.265m0-183.671v79.597m0 0s-28.035-58.32-57.241-41.629c-36.426 20.814 57.24 98.87 57.24 98.87m0-57.241v57.24m0-57.24s32.73-50.432 57.24-36.426c36.427 20.814-57.24 93.667-57.24 93.667m0 0v46.833m0-46.833s54.378-61.583 78.056-36.426c32.514 34.547-78.055 83.259-78.055 83.259m0-46.833s-55.818-57.274-78.056-36.426c-32.515 30.482 78.056 83.259 78.056 83.259"/>
    <path fill="#E1B179" stroke="#000" stroke-width="4.231" d="M394.999 188.83c-10.003 8.324-23.547 11.07-23.547 11.07s-5.417-14.292-4.033-25.704c2.41-19.87 17.3-41.828 35.742-34.052 19.278 8.129 7.921 35.306-8.162 48.687Z"/>
    <path fill="#E1B179" stroke="#000" stroke-width="4.231" d="M368.046 209.779s44.654-17.54 46.248 12.759c1.594 30.301-73.818 45.658-73.818 45.658s-29.747-94.723 5.15-93.878c22.986.558 22.42 35.461 22.42 35.461Z"/>
    <path fill="#E1B179" d="M301.1 215.491c33.621-1.052 31.048 63.604 31.048 63.604s52.55-29.208 67.638-5.346c12.76 20.184-19.61 35.503-49.87 44.958 18.76-2.118 37.236.063 41.425 15.361 12.528 45.758-107.975 36.959-107.975 36.959s-72.933-98.448-29.923-110.134c18.388-4.996 34.058 23.125 43.222 44.91-10.953-33.193-25.084-89.388 4.435-90.312Z"/>
    <path stroke="#000" stroke-width="4.231" d="m243.399 446.346 39.967-75.32M368.6 209.049l-36.453 70.047m0 0s2.573-64.656-31.048-63.604c-41.933 1.312 4.218 114.166 4.218 114.166m26.83-50.562-26.83 50.562m26.83-50.562s52.55-29.208 67.638-5.346c22.42 35.46-94.468 55.908-94.468 55.908m0 0-21.952 41.37m21.952-41.37s76.9-28.908 86.023 4.411c12.528 45.758-107.975 36.959-107.975 36.959m21.952-41.37s-22.458-76.756-51.875-68.764c-43.01 11.686 29.923 110.134 29.923 110.134"/>
</svg>
