<svg xmlns="http://www.w3.org/2000/svg" fill="none" viewBox="0 0 512 512">
    <g transform="translate(0 172.508) scale(1.22782)">
        <mask id="a" fill="#fff">
            <path fill-rule="evenodd" d="M362 113c30.376 0 55-19.923 55-44.5S392.376 24 362 24v89Zm16-19c11.046 0 20-11.193 20-25s-8.954-25-20-25v50Z" clip-rule="evenodd"/>
        </mask>
        <path fill="#000" fill-rule="evenodd" d="M362 113c30.376 0 55-19.923 55-44.5S392.376 24 362 24v89Zm16-19c11.046 0 20-11.193 20-25s-8.954-25-20-25v50Z" clip-rule="evenodd"/>
        <path fill="#000" d="M362 113h-3v3h3v-3Zm0-89v-3h-3v3h3Zm0 47.118h3-3ZM378 94h-3v3h3v-3Zm0-50v-3h-3v3h3Zm0 26.47h3-3Zm36-1.97c0 22.357-22.656 41.5-52 41.5v6c31.408 0 58-20.704 58-47.5h-6ZM362 27c29.344 0 52 19.143 52 41.5h6c0-26.796-26.592-47.5-58-47.5v6Zm3 44.118V24h-6v47.118h6ZM365 113V71.118h-6V113h6Zm30-44c0 12.81-8.201 22-17 22v6c13.293 0 23-13.195 23-28h-6Zm-17-22c8.799 0 17 9.19 17 22h6c0-14.805-9.707-28-23-28v6Zm3 23.47V44h-6v26.47h6ZM381 94V70.47h-6V94h6Z" mask="url(#a)"/>
        <rect width="35" height="32" x="325.5" y="51.5" fill="#211F1F" stroke="#000" stroke-width="3" rx="6.5"/>
        <path fill="#0D0D0D" stroke="#000" stroke-width="3" d="M157.5 58.5h168v19h-168v-19Z"/>
        <mask id="b" fill="#fff">
            <path fill-rule="evenodd" d="M128.667 50 113 47v41l14.417-3.067c.341.044.69.067 1.043.067H152a8.001 8.001 0 0 0 7.936-6.987L160 78V56l-.265-.05A8.004 8.004 0 0 0 152 50h-23.333Z" clip-rule="evenodd"/>
        </mask>
        <path fill="#211F1F" fill-rule="evenodd" d="M128.667 50 113 47v41l14.417-3.067c.341.044.69.067 1.043.067H152a8.001 8.001 0 0 0 7.936-6.987L160 78V56l-.265-.05A8.004 8.004 0 0 0 152 50h-23.333Z" clip-rule="evenodd"/>
        <path fill="#000" d="m113 47 .564-2.947-3.564-.682V47h3Zm15.667 3-.565 2.947.28.053h.285v-3ZM113 88h-3v3.706l3.624-.772L113 88Zm14.417-3.067.387-2.975-.509-.067-.502.107.624 2.935Zm32.519-6.92-.624-2.934-2.085.444-.267 2.114 2.976.376ZM160 78l.624 2.934L163 80.43V78h-3Zm0-22h3v-2.48l-2.436-.467L160 56Zm-.265-.05-2.901.766.483 1.825 1.853.355.565-2.947Zm-47.299-6.004 15.666 3 1.129-5.892-15.667-3-1.128 5.892ZM116 88V47h-6v41h6Zm10.793-6.002-14.417 3.068 1.248 5.868 14.417-3.067-1.248-5.869Zm1.667.002a5.09 5.09 0 0 1-.656-.042l-.775 5.95c.47.06.948.092 1.431.092v-6ZM152 82h-23.54v6H152v-6Zm4.96-4.363A5.001 5.001 0 0 1 152 82v6c5.605 0 10.227-4.19 10.913-9.61l-5.953-.753Zm2.416-2.571-.064.013 1.249 5.869.063-.014-1.248-5.868ZM157 77v1h6v-1h-6Zm0-19v19h6V58h-6Zm0-2v2h6v-2h-6Zm2.17 2.896.266.05 1.128-5.892-.265-.051-1.129 5.893ZM152 53a5.003 5.003 0 0 1 4.834 3.716l5.801-1.534C161.39 50.474 157.105 47 152 47v6Zm-23.333 0H152v-6h-23.333v6Z" mask="url(#b)"/>
        <mask id="c" fill="#fff">
            <path fill-rule="evenodd" d="M5 0a5 5 0 0 0-5 5v6a2 2 0 0 0 2 2h98a2 2 0 0 1 2 2v27a2 2 0 0 1-2 2H2a2 2 0 0 0-2 2v10a2 2 0 0 0 2 2h98a2 2 0 0 1 2 2v18a2 2 0 0 1-2 2H2a2 2 0 0 0-2 2v11a2 2 0 0 0 2 2h98a2 2 0 0 1 2 2v23a2 2 0 0 1-2 2H2a2 2 0 0 0-2 2v7a5 5 0 0 0 5 5h105a5 5 0 0 0 5-5V5a5 5 0 0 0-5-5H5Z" clip-rule="evenodd"/>
        </mask>
        <path fill="#ABABAB" fill-rule="evenodd" d="M5 0a5 5 0 0 0-5 5v6a2 2 0 0 0 2 2h98a2 2 0 0 1 2 2v27a2 2 0 0 1-2 2H2a2 2 0 0 0-2 2v10a2 2 0 0 0 2 2h98a2 2 0 0 1 2 2v18a2 2 0 0 1-2 2H2a2 2 0 0 0-2 2v11a2 2 0 0 0 2 2h98a2 2 0 0 1 2 2v23a2 2 0 0 1-2 2H2a2 2 0 0 0-2 2v7a5 5 0 0 0 5 5h105a5 5 0 0 0 5-5V5a5 5 0 0 0-5-5H5Z" clip-rule="evenodd"/>
        <path fill="#000" d="M3 5a2 2 0 0 1 2-2v-6a8 8 0 0 0-8 8h6Zm0 6V5h-6v6h6Zm97-1H2v6h98v-6Zm5 32V15h-6v27h6ZM2 47h98v-6H2v6Zm1 9V46h-6v10h6Zm-1 5h98v-6H2v6Zm97-1v18h6V60h-6Zm1 17H2v6h98v-6ZM3 93V82h-6v11h6Zm97-1H2v6h98v-6Zm5 28V97h-6v23h6ZM2 125h98v-6H2v6Zm1 6v-7h-6v7h6Zm2 2a2 2 0 0 1-2-2h-6a8 8 0 0 0 8 8v-6Zm105 0H5v6h105v-6Zm2-2a2 2 0 0 1-2 2v6a8 8 0 0 0 8-8h-6Zm0-126v126h6V5h-6Zm-2-2a2 2 0 0 1 2 2h6a8 8 0 0 0-8-8v6ZM5 3h105v-6H5v6ZM2 119a5 5 0 0 0-5 5h6a1 1 0 0 1-1 1v-6Zm97 1a1 1 0 0 1 1-1v6a5 5 0 0 0 5-5h-6Zm1-22a1 1 0 0 1-1-1h6a5 5 0 0 0-5-5v6ZM-3 93a5 5 0 0 0 5 5v-6a1 1 0 0 1 1 1h-6Zm5-16a5 5 0 0 0-5 5h6a1 1 0 0 1-1 1v-6Zm97 1a1 1 0 0 1 1-1v6a5 5 0 0 0 5-5h-6Zm1-17a1 1 0 0 1-1-1h6a5 5 0 0 0-5-5v6ZM-3 56a5 5 0 0 0 5 5v-6a1 1 0 0 1 1 1h-6Zm5-15a5 5 0 0 0-5 5h6a1 1 0 0 1-1 1v-6Zm97 1a1 1 0 0 1 1-1v6a5 5 0 0 0 5-5h-6Zm1-26a1 1 0 0 1-1-1h6a5 5 0 0 0-5-5v6ZM-3 11a5 5 0 0 0 5 5v-6a1 1 0 0 1 1 1h-6Z" mask="url(#c)"/>
    </g>
</svg>
