<svg xmlns="http://www.w3.org/2000/svg" viewBox="0 0 512 512">
    <g transform="scale(4)">
        <path fill="#fc4b00" d="M20.9 32.168c-3.181 9.28-7.075 17 3.008 18.062l4.276.456.6-18.255Z"/>
        <path fill="#db8758" d="m40.359 96 4.278 12.232a2.837 2.837 0 0 0 2.394 1.885 2.833 2.833 0 0 0 2.823-1.564l4.946-9.994Z"/>
        <path fill="#db8758" d="m53.78 98.525 4.279 12.232a2.835 2.835 0 0 0 2.393 1.885 2.836 2.836 0 0 0 2.823-1.564l4.943-9.991Z"/>
        <path fill="#fc4b00" d="M39.623 15.272 33.3 26.23l-2.78-1.155-2.78 1.155-6.323-10.958a4.072 4.072 0 0 1 1.741-5.753 3.879 3.879 0 0 1 2.125-.293 1.946 1.946 0 0 0 1.926-.893 3.914 3.914 0 0 1 6.63 0 1.939 1.939 0 0 0 1.918.893 3.879 3.879 0 0 1 2.125.293 4.072 4.072 0 0 1 1.741 5.753Z"/>
        <path fill="#f4a86c" d="M121.5 37.88c0 .12 0 .29-.01.5-.12 3.12-1.18 15.35-5.24 17.62.5 4.83-3.04 11.12-4.67 11.81-.25 5.63-5.51 12.08-10.12 12.07-.53 2.2-2.522 9.308-14.07 16.37-10 5.15-19.85 7.1-25.9 6.95-40.86-1.48-42.042-34.25-37.8-53.45 3.47-15.69-4.538-11.25-8.418-14.33A24.509 24.509 0 0 0 6.5 36.91c.68-2.47 3.4-7.63 8.22-9.89 1.74-6.1 6.65-9.02 15.59-9.02 10.83 0 15.553 6.4 18.183 19.033 1 4.85 2.41 9.1 4.34 15.8 7.86-3.26 14.247.577 22.677.577 13.66 0 37.83-10.04 45.99-15.53Z"/>
        <circle cx="26.167" cy="27.397" r="3" fill="#db8758"/>
        <g fill="#072130">
            <path d="M122.322 36.335a1.751 1.751 0 0 0-1.8.093 93.074 93.074 0 0 1-14.807 7.4 1.75 1.75 0 0 0 1.333 3.236 117.478 117.478 0 0 0 12.5-5.945c-.521 5.452-1.956 12.124-4.153 13.353a1.749 1.749 0 0 0-.887 1.708c.417 4.025-2.58 9.376-3.611 10.017a1.751 1.751 0 0 0-1.066 1.534c-.212 4.766-4.742 10.4-8.361 10.4h-.011a1.749 1.749 0 0 0-1.7 1.34c-1.666 6.919-8.1 12.109-13.227 15.254a62.184 62.184 0 0 1-19.393 6.349h-.007a35.049 35.049 0 0 1-5.578.377c-14.071-.51-24.379-4.869-30.639-12.958C21.09 75.8 23.783 57.434 25.4 50.128c1.3-5.873 1.2-9.549-.337-11.919-1.436-2.222-3.788-2.711-5.676-3.105a7.431 7.431 0 0 1-3.025-1.055 1.764 1.764 0 0 0-1.122-.379 31.783 31.783 0 0 0-5.62.53 14.242 14.242 0 0 1 5.843-5.6 1.748 1.748 0 0 0 .939-1.1c1.047-3.668 3.387-5.943 7.351-7.015a1.729 1.729 0 0 0 .262-.065 25.83 25.83 0 0 1 6.295-.67c9.209 0 13.827 4.945 16.469 17.637.757 3.669 1.739 6.985 2.982 11.185.43 1.453.893 3.018 1.391 4.745a1.749 1.749 0 0 0 2.348 1.132c4.526-1.876 8.517-1.152 13.139-.313a48.158 48.158 0 0 0 8.871 1.024 57.744 57.744 0 0 0 13.859-2.111 1.751 1.751 0 0 0-.871-3.391 54.327 54.327 0 0 1-12.988 2 45.444 45.444 0 0 1-8.242-.968c-4.2-.762-8.523-1.547-13.271-.129-.308-1.05-.6-2.041-.88-2.985-1.22-4.12-2.183-7.374-2.91-10.9C48.7 29.417 46.2 22.04 39.8 18.465l1.338-2.317a5.942 5.942 0 0 0 .507-4.811 5.574 5.574 0 0 0-6.11-3.837.2.2 0 0 1-.217-.1 5.667 5.667 0 0 0-9.585 0 .2.2 0 0 1-.2.108 5.574 5.574 0 0 0-6.133 3.829 5.941 5.941 0 0 0 .5 4.808l.955 1.653a12.559 12.559 0 0 0-7.59 8 18.956 18.956 0 0 0-8.452 10.647 1.749 1.749 0 0 0 2.315 2.1 21.985 21.985 0 0 1 7.609-1.359 8.4 8.4 0 0 0 2.24.945c-1.27 3.936-2 7.606-.3 10.329a7.456 7.456 0 0 0 4.857 3.128c-1.652 8.84-3.209 26.35 6.618 39.049 5.108 6.6 12.548 10.945 22.186 12.995l-2.051 4.143a1.065 1.065 0 0 1-.962.6H47.2a1.065 1.065 0 0 1-.909-.717l-.7-2a1.75 1.75 0 0 0-3.3 1.158l.7 1.99a4.57 4.57 0 0 0 2.179 2.525l-.654 6.774-4.392 1.776a1.75 1.75 0 1 0 1.312 3.244l4.8-1.938 2.064.652a1.75 1.75 0 0 0 1.054-3.338l-1.316-.416.619-6.409a4.542 4.542 0 0 0 2.771-2.347l2.5-5.055h.018l2.466 7.059a4.568 4.568 0 0 0 2.2 2.537l-.412 4.23-4.4 1.778a1.75 1.75 0 1 0 1.313 3.244l4.795-1.938 2.063.652a1.75 1.75 0 0 0 1.054-3.338l-1.31-.414.372-3.89a4.6 4.6 0 0 0 2.76-2.339l3.688-7.457a66.5 66.5 0 0 0 19.654-6.592c.038-.02.076-.04.112-.063 7.663-4.686 12.657-10.283 14.526-16.253 4.837-.971 9.746-6.878 10.43-12.742 2.226-2 4.823-7.355 4.787-11.9 4.507-4.054 5.134-16.862 5.192-18.385.012-.244.012-.441.012-.581a1.75 1.75 0 0 0-.926-1.547ZM22.934 14.391a2.432 2.432 0 0 1-.205-1.973 2.076 2.076 0 0 1 2.326-1.452 3.707 3.707 0 0 0 3.633-1.7 2.167 2.167 0 0 1 3.675 0 3.7 3.7 0 0 0 3.649 1.692 2.078 2.078 0 0 1 2.3 1.456A2.44 2.44 0 0 1 38.1 14.4l-1.56 2.7a21.5 21.5 0 0 0-6.23-.854 30.9 30.9 0 0 0-5.993.537Zm-3.292 32.214c-.984-1.576-.274-4.541.749-7.655a2.944 2.944 0 0 1 1.729 1.159c.858 1.328.887 4.042.105 8.05a4.119 4.119 0 0 1-2.583-1.554Zm42.076 63.686a1.094 1.094 0 0 1-.978.609h-.118a1.079 1.079 0 0 1-.91-.715l-1.91-5.466c1.191.1 2.4.187 3.645.232q.33.009.678.009c.7 0 1.467-.028 2.271-.082Z"/>
            <path d="M95.934 51.054a1.779 1.779 0 0 0 .543-.086 148.25 148.25 0 0 0 4.46-1.536 1.75 1.75 0 1 0-1.191-3.291c-1.464.53-2.929 1.035-4.354 1.5a1.75 1.75 0 0 0 .542 3.414ZM28.039 63.373h-.02a1.75 1.75 0 0 0-1.73 1.77 48.335 48.335 0 0 0 .608 7.265 1.751 1.751 0 0 0 1.725 1.467 1.835 1.835 0 0 0 .285-.023 1.75 1.75 0 0 0 1.444-2.01 44.9 44.9 0 0 1-.562-6.738 1.751 1.751 0 0 0-1.75-1.731Zm61.681 2.058c-4.784 7.392-14 12.878-23.473 13.976-7.447.863-14.147-1.168-18.881-5.715a1.75 1.75 0 0 0-2.426 2.524A25.479 25.479 0 0 0 62.924 83.1a32.376 32.376 0 0 0 3.725-.219c10.471-1.214 20.68-7.318 26.01-15.551a1.75 1.75 0 0 0-2.939-1.9ZM26.167 22.646a4.75 4.75 0 1 0 4.75 4.75 4.755 4.755 0 0 0-4.75-4.75Zm0 6a1.25 1.25 0 1 1 1.25-1.25 1.25 1.25 0 0 1-1.25 1.25Z"/>
        </g>
    </g>
</svg>
