<svg xmlns="http://www.w3.org/2000/svg" fill="none" viewBox="0 0 512 512">
    <g transform="translate(0 38.294) scale(1.41828)">
        <mask id="a" fill="#fff">
            <path fill-rule="evenodd" d="M38.331 55.852C27.837 72.838 17.034 90.324 22.59 103.8c4.473 10.853 11.435 19.863 18.113 27.26 21.246-33.925 62.401-48.119 120.798-42.56 124.205 11.82 154.499 41 178.999 103 57.823 117.411-141.701 93.767-218.838 84.626-10.242-1.213-18.326-2.171-23.365-2.51-42.98-2.885-78.717-13.827-73.797-87.116.932-13.889 3.422-26.32 7.417-37.292-9.365-8.47-18.667-22.141-25.508-38.738C-6.745 78.557-.823 7.424 37 .5c29.462 9.82 15.686 32.118 1.331 55.352Z" clip-rule="evenodd"/>
        </mask>
        <path fill="#D9D9D9" fill-rule="evenodd" d="M38.331 55.852C27.837 72.838 17.034 90.324 22.59 103.8c4.473 10.853 11.435 19.863 18.113 27.26 21.246-33.925 62.401-48.119 120.798-42.56 124.205 11.82 154.499 41 178.999 103 57.823 117.411-141.701 93.767-218.838 84.626-10.242-1.213-18.326-2.171-23.365-2.51-42.98-2.885-78.717-13.827-73.797-87.116.932-13.889 3.422-26.32 7.417-37.292-9.365-8.47-18.667-22.141-25.508-38.738C-6.745 78.557-.823 7.424 37 .5c29.462 9.82 15.686 32.118 1.331 55.352Z" clip-rule="evenodd"/>
        <path fill="#000" d="m22.589 103.801-2.774 1.143 2.774-1.143Zm15.742-47.95-2.552-1.576 2.552 1.577Zm2.37 75.21-2.226 2.011 2.661 2.948 2.108-3.366-2.542-1.593ZM161.5 88.501l-.284 2.986.284-2.987Zm179 102.999-2.79 1.103.045.113.054.109 2.691-1.325Zm-218.838 84.626-.353 2.979.353-2.979Zm-23.365-2.51-.2 2.994.2-2.994ZM24.5 186.5l-2.993-.201 2.993.201Zm7.417-37.292 2.819 1.026.69-1.896-1.497-1.355-2.012 2.225ZM6.409 110.47l2.774-1.143-2.774 1.143ZM37 .5l.949-2.846-.731-.244-.758.139L37 .5ZM25.362 102.658c-2.325-5.642-1.358-12.456 1.86-20.388 3.204-7.9 8.379-16.29 13.661-24.841l-5.104-3.154c-5.212 8.435-10.686 17.28-14.118 25.74-3.418 8.426-5.075 17.094-1.846 24.929l5.547-2.286Zm17.567 26.393c-6.576-7.284-13.282-15.997-17.567-26.393l-5.547 2.286c4.662 11.311 11.88 20.618 18.66 28.128l4.454-4.021Zm.315 3.603c20.372-32.53 60.084-46.677 117.972-41.167l.568-5.973c-58.906-5.607-101.504 8.633-123.625 43.955l5.085 3.185Zm117.972-41.167c61.991 5.9 100.028 16.1 125.572 32.232 25.383 16.031 38.773 38.141 50.922 68.884l5.58-2.206c-12.351-31.257-26.358-54.736-53.298-71.751-26.78-16.912-65.993-27.211-128.208-33.132l-.568 5.973Zm176.593 101.338c14.186 28.807 12.144 47.928 1.433 60.797-11.025 13.245-31.971 20.887-57.984 24.679-51.826 7.555-120.572-.571-159.243-5.154l-.706 5.958c38.466 4.559 108.051 12.825 160.815 5.134 26.282-3.831 49.197-11.722 61.73-26.779 12.847-15.434 14.062-37.387-.663-67.285l-5.382 2.65Zm-215.794 80.322c-10.2-1.209-18.382-2.179-23.516-2.524l-.402 5.987c4.941.331 12.928 1.277 23.212 2.495l.706-5.958Zm-23.516-2.524c-21.467-1.441-40.198-4.882-53.062-16.399-12.701-11.37-20.375-31.3-17.944-67.523l-5.986-.402c-2.489 37.066 5.245 59.252 19.928 72.396 14.52 12.998 35.147 16.47 56.662 17.915l.402-5.987Zm-71.006-83.922c.917-13.655 3.36-25.801 7.243-36.467l-5.638-2.052c-4.106 11.279-6.643 23.994-7.591 38.117l5.986.402ZM3.636 111.613c6.966 16.902 16.496 30.981 26.268 39.82l4.025-4.45c-8.956-8.101-18.03-21.363-24.746-37.656l-5.547 2.286ZM36.46-2.451C15.583 1.371 4.253 22.677-.352 45.521c-4.653 23.075-2.866 49.464 3.988 66.092l5.547-2.286c-6.3-15.285-8.13-40.42-3.654-62.62C10.052 24.275 20.594 6.553 37.54 3.451l-1.08-5.902Zm4.423 59.88c3.575-5.786 7.192-11.637 10.104-17.269 2.903-5.614 5.22-11.22 6.072-16.54.863-5.387.247-10.657-2.928-15.291-3.132-4.57-8.468-8.104-16.182-10.675L36.05 3.346c7.017 2.339 11.007 5.276 13.13 8.374 2.079 3.034 2.646 6.632 1.953 10.951-.703 4.386-2.68 9.325-5.477 14.733-2.787 5.39-6.275 11.04-9.878 16.871l5.104 3.154Z" mask="url(#a)"/>
        <mask id="b" fill="#fff">
            <path fill-rule="evenodd" d="M325.858 141.263c2.178-.966 4.56.869 4.179 3.222l-6.31 38.982C332.721 195.238 338 209.575 338 225.043 338 265.084 302.63 287 259 287s-79-21.916-79-61.957c0-13.316 3.912-25.794 10.739-36.519a3.016 3.016 0 0 1-.351-.992l-6.928-40.888c-.398-2.349 1.97-4.202 4.155-3.252l37.299 16.228c10.32-4.536 21.88-7.077 34.086-7.077 10.465 0 20.455 1.868 29.596 5.26l37.262-16.54Z" clip-rule="evenodd"/>
        </mask>
        <path fill="#D9D9D9" fill-rule="evenodd" d="M325.858 141.263c2.178-.966 4.56.869 4.179 3.222l-6.31 38.982C332.721 195.238 338 209.575 338 225.043 338 265.084 302.63 287 259 287s-79-21.916-79-61.957c0-13.316 3.912-25.794 10.739-36.519a3.016 3.016 0 0 1-.351-.992l-6.928-40.888c-.398-2.349 1.97-4.202 4.155-3.252l37.299 16.228c10.32-4.536 21.88-7.077 34.086-7.077 10.465 0 20.455 1.868 29.596 5.26l37.262-16.54Z" clip-rule="evenodd"/>
        <path fill="#000" d="m330.037 144.485 2.961.479-2.961-.479Zm-4.179-3.222 1.218 2.742-1.218-2.742Zm-2.131 42.204-2.961-.48-.207 1.275.784 1.026 2.384-1.821Zm-132.988 5.057 2.531 1.611.971-1.525-.895-1.571-2.607 1.485Zm-.351-.992 2.958-.501-2.958.501Zm-6.928-40.888-2.958.502 2.958-.502Zm4.155-3.252-1.197 2.751 1.197-2.751Zm37.299 16.228-1.197 2.751 1.203.524 1.201-.528-1.207-2.747Zm63.682-1.817-1.044 2.812 1.145.425 1.116-.495-1.217-2.742Zm44.402-12.839c.762-4.704-4.001-8.376-8.357-6.443l2.435 5.484 5.922.959Zm-6.309 38.982 6.309-38.982-5.922-.959-6.31 38.982 5.923.959ZM341 225.043c0-16.169-5.522-31.138-14.889-43.398l-4.768 3.643C329.964 196.571 335 210.275 335 225.043h6ZM259 290c22.274 0 42.697-5.589 57.636-16.544C331.664 262.435 341 246.066 341 225.043h-6c0 19.018-8.348 33.627-21.913 43.575C299.433 278.631 280.356 284 259 284v6Zm-82-64.957c0 21.023 9.336 37.392 24.364 48.413C216.303 284.411 236.725 290 259 290v-6c-21.356 0-40.433-5.369-54.087-15.382C191.348 258.67 183 244.061 183 225.043h-6Zm11.208-38.13C181.091 198.094 177 211.127 177 225.043h6c0-12.716 3.733-24.639 10.27-34.908l-5.062-3.222Zm5.138.126a.017.017 0 0 1 .002.005.003.003 0 0 1 .001.002l-.001-.004-.002-.011-5.916 1.002c.12.712.361 1.377.702 1.976l5.214-2.97Zm0-.008-6.928-40.888-5.916 1.003 6.928 40.887 5.916-1.002Zm-6.928-40.888 2.394-5.502c-4.37-1.901-9.106 1.806-8.31 6.505l5.916-1.003Zm0 0 37.299 16.228 2.394-5.502-37.299-16.228-2.394 5.502Zm72.582 3.4c-12.624 0-24.595 2.628-35.293 7.331l2.414 5.493c9.942-4.37 21.091-6.824 32.879-6.824v-6Zm30.64 5.447c-9.473-3.515-19.816-5.447-30.64-5.447v6c10.107 0 19.744 1.804 28.552 5.072l2.088-5.625Zm35.001-16.469-37.262 16.54 2.434 5.484 37.263-16.54-2.435-5.484Z" mask="url(#b)"/>
        <path stroke="#000" stroke-linecap="round" stroke-width="3" d="M94 273.151s4.438-28.359 0-45.608c-3.864-15.017-18-35.392-18-35.392"/>
        <path stroke="#000" stroke-linecap="round" stroke-width="3" d="M94 273.151s4.438-28.359 0-45.608c-3.864-15.017-18-35.392-18-35.392"/>
        <path fill="#D9D9D9" stroke="#000" stroke-width="3" d="M199.556 289.012c-10.962 17.062-34.851 21.508-53.48 9.606-9.383-5.995-20.224-17.929-27.289-30.596-3.527-6.323-6.067-12.75-7.041-18.634-.974-5.888-.36-11.096 2.234-15.156 10.94-17.124 34.872-21.6 53.528-9.681 9.346 5.971 19.424 18.033 26.123 30.8 3.341 6.367 5.803 12.839 6.922 18.733 1.116 5.878.867 11.024-.997 14.928Zm-86.13-21.054c-3.799 19.921-24.3 32.965-46.026 28.879-5.26-.989-10.71-4.087-15.902-8.627-5.18-4.53-10.02-10.423-14.065-16.856-4.043-6.431-7.264-13.361-9.23-19.94-1.973-6.601-2.65-12.739-1.729-17.637.968-5.148 2.193-8.735 3.746-11.203 1.518-2.409 3.361-3.772 5.711-4.478 2.423-.728 5.476-.784 9.431-.353 3.806.414 8.29 1.258 13.662 2.268l.604.114c10.9 2.05 24.752 9.476 35.733 18.818 5.477 4.66 10.178 9.744 13.416 14.794 3.23 5.036 4.921 9.904 4.649 14.221Zm238.113-36.806.183.152.221.089c.023.009.175.087.438.372.252.272.544.667.865 1.197.642 1.06 1.327 2.543 1.989 4.368 1.322 3.644 2.498 8.5 3.078 13.727.58 5.229.557 10.764-.472 15.785-1.03 5.026-3.046 9.438-6.369 12.566-6.97 6.559-19.081 11.987-31.07 14.462-5.974 1.233-11.84 1.715-16.938 1.266-5.08-.447-9.25-1.806-12.049-4.111-11.636-12.445-10.125-33.14 3.825-46.267 7.058-6.641 17.887-12.89 28.666-16.014 10.86-3.147 21.164-2.992 27.633 2.408Z"/>
        <ellipse cx="301.5" cy="222.5" fill="#000" rx="9.5" ry="3.5"/>
        <ellipse cx="301.5" cy="222.5" fill="#000" rx="9.5" ry="3.5"/>
        <ellipse cx="238.5" cy="222.5" fill="#000" rx="9.5" ry="3.5"/>
        <ellipse cx="238.5" cy="222.5" fill="#000" rx="9.5" ry="3.5"/>
        <path fill="#000" d="M285 239.714c0 1.657-.253 4.286-5.5 4.286s-5.5-2.629-5.5-4.286c0-1.657.253-1.714 5.5-1.714s5.5.057 5.5 1.714Z"/>
        <path fill="#000" d="M285 239.714c0 1.657-.253 4.286-5.5 4.286s-5.5-2.629-5.5-4.286c0-1.657.253-1.714 5.5-1.714s5.5.057 5.5 1.714Z"/>
        <path stroke="#000" stroke-width="3" d="M257 258s3.486 2.152 6 2.5c3.8.526 9.5-2.5 9.5-2.5s3.463 2.43 6 2.5c2.719.075 8.5-2.5 8.5-2.5"/>
        <path fill="#796F6F" d="M321.307 152.155c.71-.602 1.784.006 1.634.924l-4.597 28.051a1 1 0 0 1-1.479.709l-17.084-9.667a1 1 0 0 1-.154-1.634l21.68-18.383Z"/>
        <path fill="#796F6F" d="M321.307 152.155c.71-.602 1.784.006 1.634.924l-4.597 28.051a1 1 0 0 1-1.479.709l-17.084-9.667a1 1 0 0 1-.154-1.634l21.68-18.383Z"/>
        <path fill="#796F6F" d="M321.307 152.155c.71-.602 1.784.006 1.634.924l-4.597 28.051a1 1 0 0 1-1.479.709l-17.084-9.667a1 1 0 0 1-.154-1.634l21.68-18.383Zm-131.866 4.692c-.217-.904.811-1.589 1.562-1.041l22.964 16.754a1 1 0 0 1-.035 1.64l-16.333 10.887a1 1 0 0 1-1.527-.598l-6.631-27.642Z"/>
        <path fill="#796F6F" d="M189.441 156.847c-.217-.904.811-1.589 1.562-1.041l22.964 16.754a1 1 0 0 1-.035 1.64l-16.333 10.887a1 1 0 0 1-1.527-.598l-6.631-27.642Z"/>
        <path fill="#796F6F" d="M189.441 156.847c-.217-.904.811-1.589 1.562-1.041l22.964 16.754a1 1 0 0 1-.035 1.64l-16.333 10.887a1 1 0 0 1-1.527-.598l-6.631-27.642Z"/>
        <ellipse cx="137" cy="223" fill="#D9D9D9" rx="33" ry="28"/>
        <ellipse cx="74.5" cy="238" fill="#D9D9D9" rx="19.5" ry="28"/>
        <path fill="#D9D9D9" d="M348 227.781c0 5.955-4.426 12.219-7.188 12.219-2.761 0-2.812-9.046-2.812-15 0-5.954 2.239-8 5-8s5 4.827 5 10.781Z"/>
        <path fill="#B57F61" d="M305 184.5c0 10.217-13.663 9-22.5 9S265 185.217 265 175s-1.837-17.5 7-17.5 34 11.5 33 27Z"/>
        <path fill="#A38A73" d="M355.5 262.383c0 12.472-26.5 27.5-36.5 29-9.455 0-11-5.5-11-5.5 0-12.473 11.545-19 21-19s27.57-23.421 26.5-4.5Z"/>
        <path fill="#B57F61" d="M75.88 108.2c10.094 1.578 6.78 14.889 5.416 23.62-1.365 8.73-10.887 16.01-20.982 14.432-10.094-1.578-17.573-.889-16.208-9.62 1.365-8.73 16.614-31.815 31.774-28.432Z"/>
        <path fill="#8A6753" d="M35 7.5c10.095 1.578-.635 13.27-2 22s1.409 19.33-8.686 17.752c-10.094-1.579-17.573-.89-16.208-9.62C9.47 28.902 19.84 4.118 35 7.5Z"/>
        <path fill="#C99C82" d="M196.72 248.494c1.141-10.154 6.218-14.988 15-14 8.781.987 26.78 16.006 30 31 0 12.5-2.897 11.996-11.678 11.009-8.782-.987-36.048-12.718-33.322-28.009ZM28.653 212.589c1.959-17.425 8.1-26.011 18.125-24.884 10.025 1.127 29.745 25.648 32.487 51.067-.797 21.364-4.093 20.689-14.118 19.562-10.025-1.127-40.601-19.437-36.494-45.745Z"/>
        <path stroke="#000" stroke-linecap="round" stroke-width="3" d="M174.585 304.151s3.048-9.17 1.577-14.501c-1.281-4.642-7.162-10.631-7.162-10.631m-89.415 17.132s3.048-9.17 1.577-14.501C79.882 277.008 74 271.019 74 271.019m225.585 23.132s-3.048-9.17-1.577-14.501c1.281-4.642 7.162-10.631 7.162-10.631m-18.585 15.132s-3.048-9.17-1.577-14.501c1.281-4.642 7.162-10.631 7.162-10.631m-97.585 36.132s3.048-9.17 1.577-14.501c-1.281-4.642-7.162-10.631-7.162-10.631m-84.415 15.132s3.048-9.17 1.577-14.501C104.881 266.008 99 260.019 99 260.019"/>
    </g>
</svg>
