<svg xmlns="http://www.w3.org/2000/svg" fill="none" viewBox="0 0 512 512">
    <g transform="translate(36.915) scale(1.60502)">
        <mask id="a" fill="#fff">
            <path fill-rule="evenodd" d="M72 76c-7.732 0-14 6.268-14 14v214c0 7.732 6.268 14 14 14h93c1.623 0 3.182-.276 4.631-.784 3.001.512 6.139.784 9.369.784 21.539 0 39-12.088 39-27s-17.461-27-39-27V90c0-7.732-6.268-14-14-14H72Z" clip-rule="evenodd"/>
        </mask>
        <path fill="#D9D9D9" fill-rule="evenodd" d="M72 76c-7.732 0-14 6.268-14 14v214c0 7.732 6.268 14 14 14h93c1.623 0 3.182-.276 4.631-.784 3.001.512 6.139.784 9.369.784 21.539 0 39-12.088 39-27s-17.461-27-39-27V90c0-7.732-6.268-14-14-14H72Z" clip-rule="evenodd"/>
        <path fill="#000" d="m169.631 317.216.673-3.943-1.019-.174-.977.342 1.323 3.775ZM179 264h-4v4h4v-4ZM62 90c0-5.523 4.477-10 10-10v-8c-9.941 0-18 8.059-18 18h8Zm0 214V90h-8v214h8Zm10 10c-5.523 0-10-4.477-10-10h-8c0 9.941 8.059 18 18 18v-8Zm93 0H72v8h93v-8Zm3.308-.559A9.978 9.978 0 0 1 165 314v8c2.08 0 4.085-.354 5.954-1.009l-2.646-7.55ZM179 314a51.73 51.73 0 0 1-8.696-.727l-1.346 7.886c3.225.55 6.588.841 10.042.841v-8Zm35-23c0 5.772-3.375 11.425-9.7 15.803-6.308 4.368-15.241 7.197-25.3 7.197v8c11.48 0 22.048-3.215 29.854-8.619C216.645 307.987 222 300.139 222 291h-8Zm-35-23c10.059 0 18.992 2.829 25.3 7.197 6.325 4.378 9.7 10.031 9.7 15.803h8c0-9.139-5.355-16.987-13.146-22.381C201.048 263.215 190.48 260 179 260v8Zm-4-178v174h8V90h-8Zm-10-10c5.523 0 10 4.477 10 10h8c0-9.941-8.059-18-18-18v8Zm-93 0h93v-8H72v8Z" mask="url(#a)"/>
        <path fill="#CBC9C9" stroke="#000" stroke-width="4" d="M266 311v1.442l1.368.455c.396.132.748.258 1.06.377-.609.147-1.332.292-2.171.434-6.098 1.028-16.944 1.636-29.49 1.98-19.68.54-43.175.424-58.174.349-4.073-.02-7.519-.037-10.093-.037-2.973 0-5.02-.119-6.361-.323l-.106-.016c.367-.292.819-.625 1.358-1.004.539-.379 1.153-.794 1.809-1.237 1.843-1.246 4.025-2.721 5.858-4.279 1.264-1.075 2.469-2.272 3.369-3.582.901-1.311 1.573-2.849 1.573-4.559 0-1.602.823-3.344 2.776-5.148 1.955-1.807 4.893-3.525 8.693-5.01 7.586-2.965 18.203-4.842 30.031-4.842 11.57 0 23.85 4.258 33.256 9.71 4.695 2.72 8.594 5.693 11.29 8.497 2.79 2.901 3.954 5.268 3.954 6.793Zm4.457 1.564-.014.011.014-.011ZM160.654 315.3l.008.005-.008-.005Z"/>
        <path fill="#CDC7C7" stroke="#000" stroke-width="4" d="m11.377 297.951.623-.592v-.859c0-4.735 4.037-9.601 11.904-13.402C31.63 279.365 42.446 277 54.5 277h1.236l.553-1.106c7.146-14.292 14.395-19.37 20.814-19.803 6.542-.441 13.264 3.839 19.537 10.795 6.199 6.876 11.569 15.943 15.394 24.066 1.909 4.052 3.416 7.834 4.441 10.946 1.051 3.188 1.525 5.465 1.525 6.602 0 1.537-1.282 3.181-5.427 4.602-3.961 1.358-9.626 2.162-16.24 2.605-9.583.642-20.742.507-30.883.384-3.843-.046-7.54-.091-10.95-.091-3.73 0-8.071.15-12.587.306-2.943.102-5.96.206-8.928.273-7.626.171-15.025.102-20.698-.804-2.842-.454-5.113-1.098-6.725-1.94-1.6-.836-2.334-1.746-2.575-2.668-.25-.957-.107-2.444 1.186-4.715 1.286-2.26 3.584-5.065 7.204-8.501Z"/>
        <path stroke="#000" stroke-linecap="round" stroke-width="4" d="M60 110s6.927 23.446 19.5 23.963c15.325.63 6.829-26.547 20.5-33.5 11.835-6.019 20.5-.5 42.5-2.963"/>
        <path fill="#DA7F4B" stroke="#000" stroke-width="3" d="M131.556 30.05c.179-.245.36-.507.543-.788.482 5.598.543 14.016-1.138 21.452-1.122 4.962-2.979 9.293-5.82 12.098-2.756 2.722-6.573 4.143-12.049 3.079-6.436-1.25-9.836-7.04-11.591-14.285-1.303-5.376-1.605-11.204-1.675-15.718 1.106 1.192 2.012 2.041 2.753 2.562.573.402 1.433.895 2.382.716 1.17-.22 1.613-1.223 1.775-1.82.172-.634.208-1.4.202-2.151a46.496 46.496 0 0 0-.124-2.648l-.054-.782c-.122-1.77-.26-3.767-.26-5.87 0-4.43.069-7.534.189-9.645.174.411.356.827.542 1.22.353.744.792 1.56 1.326 2.142.269.294.655.634 1.17.816.58.206 1.213.17 1.788-.138.643-.345 1.038-.936 1.287-1.417.266-.512.475-1.117.647-1.741.344-1.253.603-2.82.823-4.426.149-1.088.282-2.19.411-3.262.264-2.204.513-4.273.857-5.796.03-.133.061-.259.091-.377.494.938 1.119 2.448 1.888 4.719.922 2.717 2.021 6.429 3.337 11.365.149.559.299 1.316.48 2.233.155.783.333 1.682.553 2.675.446 2.009 1.051 4.3 1.935 5.958.439.822 1.035 1.663 1.871 2.18.943.58 2.042.656 3.128.155.979-.452 1.876-1.335 2.733-2.507Z"/>
        <path fill="#000" d="M119 55a2 2 0 1 0-4 0h4Zm0 24V55h-4v24h4Z"/>
    </g>
</svg>
