<svg xmlns="http://www.w3.org/2000/svg" viewBox="0 0 512 512">
    <path fill="#7c7d7d" d="M162.027 440.427c-42.667 43.2-49.707 53.333-70.827 58.666A64 64 0 0 1 12.907 420.8c5.333-21.333 15.253-27.413 58.666-70.827l30.08 30.187C88.32 393.6 96.533 385.387 64 417.813A21.333 21.333 0 0 0 94.08 448l37.76-37.76Z"/>
    <path fill="#747575" d="M70.293 452.267a21.333 21.333 0 0 0 34.454 6.4l37.76-37.76-10.667-10.667c-35.2 35.2-43.733 49.92-61.547 42.027Z"/>
    <path fill="#919191" d="M23.573 431.467a64 64 0 0 0 11.52 56.106 64 64 0 0 1-5.653-96l32-31.466 10.667 10.666c-30.187 30.187-43.2 39.68-48.534 60.694Z"/>
    <path fill="#c6c3d8" d="M432.427 123.093 275.2 282.027l-75.413-75.414 157.12-159.04a53.4 53.4 0 0 1 75.52 75.52Z"/>
    <path fill="#dad7e5" d="M437.333 74.667c0 28.16-7.466 29.653-116.373 139.626a64.747 64.747 0 0 1-91.947 0l-18.666-18.666 146.56-148.054a53.333 53.333 0 0 1 69.76-4.906 53.333 53.333 0 0 1 10.666 32Z"/>
    <path fill="#db5669" d="m282.667 320-120.64 120.427L64 342.4c50.133-100.267 44.373-89.6 47.253-92.48l22.08 22.08a22.627 22.627 0 0 0 32-32l-22.08-22.08 18.774-18.88a21.333 21.333 0 0 1 30.186 0l90.454 90.56a21.333 21.333 0 0 1 0 30.4Z"/>
    <path fill="#7c7d7d" d="m60.885 360.672 10.635-10.635 10.635 10.635-10.635 10.635z"/>
    <path fill="#747575" d="m71.616 371.275 10.581-10.688 19.552 19.36-10.581 10.688zm49.557 49.557 10.635-10.635 30.176 30.176-10.635 10.635z"/>
    <path fill="#f26674" d="m276.373 283.307-31.04 30.613a118.507 118.507 0 0 1-167.573 0l25.707-50.453 19.2 19.2a22.507 22.507 0 0 0 36.266-6.187A22.613 22.613 0 0 0 171.947 256c0-12.693-8.534-17.92-28.694-38.08l18.774-18.88a21.333 21.333 0 0 1 30.186 0Z"/>
    <path fill="#7c7d7d" d="M402.24 92.8 245.333 251.84l-15.36-15.04 157.12-158.933A10.667 10.667 0 0 1 402.24 92.8Z"/>
    <path fill="#c4455e" d="m282.73 319.755-30.175 30.176-15.083-15.094a42.667 42.667 0 0 1 0-60.33l15.083-15.094 30.176 30.176a21.333 21.333 0 0 1 0 30.166ZM113.6 348.693a10.667 10.667 0 0 1-6.933-18.026l15.04-15.04a10.667 10.667 0 1 1 14.506 15.04c-16.32 16.213-16.96 18.026-22.613 18.026Zm30.187 30.08a10.667 10.667 0 0 1-7.574-18.133l15.147-15.147a10.673 10.673 0 0 1 15.04 15.147c-16.427 16.427-17.067 18.133-22.613 18.133Z"/>
    <path fill="#7c7d7d" d="M171.947 256a22.613 22.613 0 0 1-38.614 16L48 186.667a22.627 22.627 0 0 1 32-32c93.653 93.653 91.947 88.746 91.947 101.333Z"/>
    <path fill="#919191" d="M171.947 256a21.333 21.333 0 0 1-2.347 9.813 22.507 22.507 0 0 1-25.6-4.48C49.92 167.253 52.053 172.587 52.053 160a22.4 22.4 0 0 1 2.24-9.813A22.72 22.72 0 0 1 80 154.667c93.653 93.653 91.947 88.746 91.947 101.333Z"/>
    <path fill="#dad7e5" d="M426.667 64a10.667 10.667 0 0 1-7.574-18.24l21.334-21.333a10.673 10.673 0 0 1 15.04 15.146C432.32 62.827 432.427 64 426.667 64ZM384 42.667V21.333a10.667 10.667 0 0 1 21.333 0v21.334a10.667 10.667 0 0 1-21.333 0Z"/>
    <path fill="#c6c3d8" d="M458.667 96c-38.294 0-21.334 3.947-21.334-21.333h21.334a10.667 10.667 0 0 1 0 21.333Zm-23.574 44.907c-27.2-27.2-20.586-17.707-8.426-34.24 6.08 0 7.146 2.666 23.573 19.093a10.71 10.71 0 0 1-15.147 15.147Zm-32 32c-16.32-16.32-18.56-17.28-18.56-22.827 14.934-15.253 10.667-15.787 33.707 7.68a10.71 10.71 0 0 1-15.147 15.147Zm-32 32c-16.426-16.427-18.346-17.067-18.346-22.72 14.72-14.827 9.813-16.107 33.493 7.573a10.71 10.71 0 0 1-15.147 15.147Zm-32 32c-16.533-16.534-18.133-16.96-18.133-22.614 14.4-14.613 9.813-16 33.28 7.467a10.71 10.71 0 0 1-15.147 15.147Zm-32 32c-23.36-23.574-21.866-18.454-7.36-33.174 6.4 0 8.747 4.267 22.507 18.027a10.71 10.71 0 0 1-15.147 15.147Z"/>
    <path fill="#dad7e5" d="M362.667 64c-6.187 0-8.107-3.627-23.574-19.093A10.71 10.71 0 0 1 354.24 29.76l16 16A10.667 10.667 0 0 1 362.667 64Zm-32 32c-6.187 0-8.107-3.627-23.574-19.093A10.71 10.71 0 0 1 322.24 61.76l16 16A10.667 10.667 0 0 1 330.667 96Zm-32 32c-6.187 0-8.107-3.627-23.574-19.093A10.71 10.71 0 0 1 290.24 93.76l16 16a10.667 10.667 0 0 1-7.573 18.24Zm-32 32c-6.187 0-8.107-3.627-23.574-19.093a10.71 10.71 0 0 1 15.147-15.147l16 16a10.667 10.667 0 0 1-7.573 18.24Zm-32 32c-6.187 0-8.107-3.627-23.574-19.093a10.71 10.71 0 0 1 15.147-15.147l16 16a10.667 10.667 0 0 1-7.573 18.24Z"/>
</svg>
