<svg xmlns="http://www.w3.org/2000/svg" viewBox="0 0 512 512">
    <path fill="#7c7d7d" d="M339.627 393.067A74.667 74.667 0 1 1 298.667 256a74.667 74.667 0 0 1 40.96 137.067Z"/>
    <path fill="#747575" d="M352 352a73.707 73.707 0 0 1-12.373 41.067A74.667 74.667 0 0 1 236.373 289.6 74.667 74.667 0 0 1 352 352Z"/>
    <path fill="#7c7d7d" d="M160 352a53.333 53.333 0 1 1-53.333-53.333A53.333 53.333 0 0 1 160 352Z"/>
    <path fill="#747575" d="M147.84 385.92a53.333 53.333 0 0 1-93.013-46.293 53.333 53.333 0 0 1 93.013 46.293Z"/>
    <path fill="#c6c3d8" d="M74.667 309.333A54.08 54.08 0 0 0 53.333 352H10.667v-42.667Z"/>
    <path fill="#9dcc6b" d="M317.227 258.347a74.667 74.667 0 0 0-90.134 50.986h-88.426a53.333 53.333 0 0 0-64 0h-64V256L70.4 170.667h132.267a21.333 21.333 0 0 0 0-42.667h-35.52l35.52-42.667h106.666L288 170.667c24.427 73.173 7.787 23.04 29.227 87.68Z"/>
    <path fill="#b5e08c" d="M317.227 258.347a74.667 74.667 0 0 0-62.187 11.733A73.067 73.067 0 0 0 225.173 288H66.987a24.427 24.427 0 0 1-19.947-38.293l47.893-68.374h86.4a21.333 21.333 0 0 0 18.454-10.666c32 0 33.28-42.667-.64-42.667l35.52-42.667h74.666L288 170.667Z"/>
    <path fill="#fc6" d="M314.773 257.92c3.094.64 2.56.64 2.134-.533Z"/>
    <path fill="#9dcc6b" d="M469.333 106.667A21.333 21.333 0 0 1 448 128H298.667l10.666-42.667H448a21.333 21.333 0 0 1 21.333 21.334Z"/>
    <path fill="#8bd1ea" d="M437.333 128C416 264.213 420.373 238.507 416 266.667h-78.933a71.04 71.04 0 0 0-19.84-8.32L288 170.667 298.667 128Z"/>
    <path fill="#9fdbf3" d="m434.027 149.333-14.72 96c-63.147 0-56.107 1.387-69.334-4.373a28.373 28.373 0 0 1-15.68-16.96l-15.573-46.72a21.333 21.333 0 0 1 20.16-27.947Z"/>
    <path fill="#c6c3d8" d="M227.093 352H160a53.333 53.333 0 0 0-21.333-42.667h88.426a74.667 74.667 0 0 0 0 42.667Z"/>
    <path fill="#9dcc6b" d="M501.333 384A21.333 21.333 0 0 1 480 405.333h-64v-96C494.293 368 501.333 369.493 501.333 384Z"/>
    <path fill="#b5e08c" d="M498.453 373.333A21.333 21.333 0 0 1 480 384h-21.333A42.667 42.667 0 0 1 416 341.333v-32c82.773 62.08 79.573 58.774 82.453 64Z"/>
    <path fill="#747575" d="M224 149.333a21.333 21.333 0 0 1-21.333 21.334H32A21.333 21.333 0 0 1 32 128h170.667A21.333 21.333 0 0 1 224 149.333Z"/>
    <path fill="#7c7d7d" d="M224 149.333c-170.667 0-166.507 2.454-175.04-6.293A21.333 21.333 0 0 1 42.667 128h160A21.333 21.333 0 0 1 224 149.333Z"/>
    <path fill="#c6c3d8" d="M416 309.333V352h-45.76a74.667 74.667 0 0 0 0-42.667Z"/>
    <path fill="#9dcc6b" d="M305.813 224H138.667a10.667 10.667 0 0 1 0-21.333h160Z"/>
    <path fill="#84b749" d="M330.667 330.667a32 32 0 1 1-59.307-16.64 32 32 0 0 1 59.307 16.64Z"/>
    <path fill="#9dcc6b" d="M315.307 357.973a32 32 0 0 1-43.947-43.946 32 32 0 0 1 43.947 43.946Z"/>
    <path fill="#84b749" d="M96 352a10.667 10.667 0 0 1 21.333 0A10.667 10.667 0 0 1 96 352Z"/>
    <path fill="#a87e6b" d="M490.667 426.667H21.333a10.667 10.667 0 0 1 0-21.334h469.334a10.667 10.667 0 0 1 0 21.334Z"/>
    <path fill="#dad7e5" d="M46.827 325.76a14.827 14.827 0 0 1-4.16-10.667v-5.76c57.28 0 24.213-3.626 4.16 16.427Zm163.093-16.427a71.573 71.573 0 0 0-6.507 21.334h-48a52.373 52.373 0 0 0-16.746-21.334Zm206.08 0v21.334h-18.667a29.013 29.013 0 0 1-27.093-21.334Z"/>
</svg>
