<svg xmlns="http://www.w3.org/2000/svg" fill="none" viewBox="0 0 512 512">
    <path fill="#AED5F9" fill-rule="evenodd" d="M185.493 509.673h137.309c15.15 0 29.033-18.504 38.789-47.71 0 0 .493-1.352 1.298-4.053 13.398-43.502 18.544-115.8 5.902-189.11-7.764-45.007-22.381-88.371-45.989-121.018-9.549-13.203-4.17-41.859.16-64.943 3.536-18.837 6.375-33.966-.162-33.966H185.49c-6.695 0-3.874 15.974-.425 35.514 4.038 22.886 8.941 50.662.428 63.395-19.063 28.514-35.244 65.643-43.055 103.563 0 0-10.472 34.91-6.595 102.4.181 3.154.416 6.466.693 9.896 2.54 43.483 9.072 81.196 12.87 98.323 9.216 29.235 22.219 47.709 36.087 47.709Zm-36.087-47.71s65.099 9.377 107.069 9.31c41.211-.065 105.116-9.31 105.116-9.31.442-1.321.875-2.673 1.298-4.053 3.151-10.569 11.069-41.798 12.824-93.692 1.263-37.339-6.922-95.418-6.922-95.418s-4.515 42.675-25.044 48.873c-16.33 4.929-15.895-11.416-15.366-31.109.393-14.68.835-31.22-5.579-42.2-11.746-20.106-25.63-6.829-35.59 2.697-7.862 7.517-13.283 12.7-13.283-2.697 0-34.91-26.763-36.073-26.763 11.636s-18.619 81.455-33.746 0-70.982-4.655-70.982-4.655c-7.356 35.703-8.02 76.007-5.902 112.296 3.317 40.872 12.87 98.323 12.87 98.323Z" clip-rule="evenodd"/>
    <path fill="#F6F8F9" d="M256.475 471.273c41.211-.065 105.116-9.31 105.116-9.31.442-1.321.875-2.673 1.298-4.053 3.151-10.569 11.069-41.798 12.824-93.692 1.263-37.339-6.922-95.418-6.922-95.418s-4.515 42.675-25.044 48.873c-16.33 4.929-15.895-11.416-15.366-31.109.393-14.68.835-31.22-5.579-42.2-11.746-20.106-25.63-6.829-35.59 2.697-7.862 7.517-13.283 12.7-13.283-2.697 0-34.91-26.763-36.073-26.763 11.636s-18.619 81.455-33.746 0-70.982-4.655-70.982-4.655c-7.356 35.703-8.02 76.007-5.902 112.296 3.317 40.872 12.87 98.323 12.87 98.323s65.099 9.376 107.069 9.309Z"/>
    <path fill="#CDC9C9" stroke="#000" stroke-width="4.655" d="M204.8 3.49c-31.418 0-15.127 45.383-15.127 45.383h132.654S338.618 3.49 308.364 3.49H204.8Z"/>
    <path stroke="#000" stroke-width="4.655" d="M187.345 15.127s29.091 2.328 68.655 2.328 69.818-2.328 69.818-2.328"/>
    <path fill="#F9D2AE" fill-rule="evenodd" d="M186.182 509.673H323.49c15.15 0 29.033-18.504 38.786-47.71 0 0 .496-1.352 1.304-4.053 13.395-43.502 18.54-115.8 5.9-189.11-7.765-45.007-22.382-88.371-45.99-121.018-9.549-13.203-4.17-41.859.16-64.943 3.536-18.837 6.375-33.966-.16-33.966H186.18c-6.697 0-3.876 15.974-.427 35.514 4.035 22.886 8.941 50.665.428 63.395-19.063 28.514-35.242 65.643-43.055 103.563 0 0-10.472 34.91-6.595 102.4.181 3.154.416 6.466.693 9.896 2.54 43.483 9.072 81.196 12.87 98.323 9.216 29.235 22.22 47.709 36.087 47.709Zm-36.087-47.71s65.099 9.377 107.069 9.31c41.211-.065 105.113-9.31 105.113-9.31.442-1.321.878-2.673 1.304-4.053 3.148-10.569 11.066-41.798 12.82-93.692 1.264-37.339-6.92-95.418-6.92-95.418s-4.516 42.675-25.045 48.873c-16.33 4.929-15.895-11.416-15.367-31.109.394-14.68.838-31.22-5.578-42.2-11.746-20.106-25.63-6.829-35.591 2.697-7.862 7.517-13.282 12.7-13.282-2.697 0-34.91-26.763-36.073-26.763 11.636s-18.619 81.455-33.746 0-70.982-4.655-70.982-4.655c-7.356 35.703-8.02 76.007-5.902 112.296 3.317 40.872 12.87 98.323 12.87 98.323Z" clip-rule="evenodd"/>
    <path stroke="#000" stroke-width="4.655" d="M186.182 509.673H323.49m-137.31 0c-13.865 0-26.868-18.474-36.086-47.71m36.087 47.71H323.49m0 0c15.15 0 29.033-18.504 38.786-47.71M323.49 48.873H186.18m137.31 0H186.18m137.31 0c6.535 0 3.696 15.127.16 33.966-4.33 23.087-9.709 51.74-.16 64.943 23.608 32.647 38.225 76.01 45.99 121.018M186.18 48.873c-6.697 0-3.876 15.974-.427 35.514 4.035 22.886 8.941 50.665.428 63.395-19.063 28.514-35.242 65.643-43.055 103.563m219.15 210.619s-63.902 9.244-105.113 9.309c-41.97.067-107.069-9.31-107.069-9.31m212.182 0s.496-1.352 1.304-4.053m-1.304 4.054c.442-1.322.878-2.674 1.304-4.054m-213.488 4.054c-3.798-17.127-10.331-54.84-12.87-98.323m12.87 98.323s-9.554-57.451-12.87-98.323m5.904-112.296s55.855-76.8 70.982 4.655 33.746 47.71 33.746 0 26.763-46.545 26.763-11.636c0 15.397 5.42 10.214 13.282 2.697 9.96-9.526 23.845-22.803 35.59-2.697 6.415 10.98 5.973 27.52 5.58 42.2-.527 19.693-.964 36.038 15.366 31.109 20.532-6.198 25.044-48.873 25.044-48.873m-226.353-17.455s-10.472 34.91-6.595 102.4c.181 3.154.416 6.466.693 9.896m5.902-112.296c-7.356 35.703-8.02 76.007-5.902 112.296M369.48 268.8s8.185 58.08 6.921 95.418c-1.754 51.894-9.672 83.123-12.823 93.692m5.902-189.11c12.642 73.31 7.496 145.608-5.902 189.11"/>
    <path fill="#F6F8F9" stroke="#000" stroke-width="4.655" d="M235.055 183.855c0 2.113-.717 4.878-2.081 7.936-1.345 3.025-3.254 6.183-5.457 9.043-2.21 2.868-4.664 5.37-7.075 7.133-2.463 1.795-4.634 2.651-6.333 2.651-1.531 0-2.848-.705-4.07-2.227-1.266-1.58-2.311-3.917-3.124-6.772-1.622-5.69-2.115-12.719-2.115-17.764 0-9.142 6.912-16.291 15.127-16.291s15.128 7.149 15.128 16.29Z"/>
    <path fill="#E1B179" stroke="#000" stroke-width="3.491" d="M265.658 349.559c-1.433 3.5-4.538 6.053-4.538 6.053s-3.34-2.932-4.538-6.053c-2.09-5.432-1.26-13.1 4.538-13.617 6.058-.54 6.845 7.987 4.538 13.617Z"/>
    <path fill="#E1B179" stroke="#000" stroke-width="3.491" d="M261.59 358.614s9.079-10.594 13.62-3.028c4.537 7.566-12.738 21.788-12.738 21.788S241.922 357.1 251 352.561c5.98-2.99 10.591 6.053 10.591 6.053Z"/>
    <path fill="#E1B179" d="M245.174 369.206c8.494-4.855 16.644 12.104 16.644 12.104s9.519-14.664 16.645-10.592c6.027 3.445-.198 11.79-6.682 18.344 4.53-3.1 9.572-5.06 12.733-1.701 9.455 10.046-22.696 24.21-22.696 24.21s-32.151-15.346-22.695-24.21c4.042-3.79 11.899 1.298 17.221 5.646-7.337-7.033-18.625-19.543-11.17-23.801Z"/>
    <path stroke="#000" stroke-width="3.491" d="M261.818 436.364V411.57m0-54.472v24.21m0 0s-8.152-16.958-16.644-12.103c-10.59 6.05 16.644 28.746 16.644 28.746m0-16.642v16.642m0-16.642s9.519-14.664 16.645-10.592c10.589 6.051-16.645 27.234-16.645 27.234m0 0v13.62m0-13.62s15.812-17.906 22.696-10.591c9.455 10.046-22.696 24.21-22.696 24.21m0-13.619s-16.23-16.652-22.695-10.591c-9.456 8.864 22.695 24.21 22.695 24.21"/>
</svg>
