<svg xmlns="http://www.w3.org/2000/svg" xml:space="preserve" viewBox="0 0 512 512">
    <g transform="rotate(.113 0 0)">
        <path fill="#fd5d65" d="M503.301 326.231v49.955H8.703v-49.955c0-62.383 50.57-112.953 112.942-112.953h268.691c28.383 0 54.33 10.467 74.173 27.768 21.131 18.392 35.346 44.525 38.247 73.976.359 3.69.545 7.426.545 11.209z"/>
        <path fill="#e54e5c" d="M186.931 213.278h-65.286c-62.372 0-112.942 50.57-112.942 112.953v49.955h65.286v-49.955c0-62.383 50.571-112.953 112.942-112.953z"/>
        <circle cx="128.932" cy="376.179" r="72.595" fill="#5a6572"/>
        <circle cx="383.06" cy="376.179" r="72.595" fill="#5a6572"/>
        <path fill="#fec95b" d="M502.755 315.021a42.19 42.19 0 0 1-12.057 1.741c-23.405 0-42.389-18.984-42.389-42.401 0-13.519 6.324-25.564 16.188-33.315h.012c21.13 18.392 35.345 44.525 38.246 73.975z"/>
        <path fill="#a3dfef" d="m99.168 215.181 239.53.255 72.374.081c-1.949-84.431-71.028-152.291-155.946-152.291-24.751 0-48.157 5.767-68.951 16.037-50.431 24.891-85.475 76.238-87.007 135.918z"/>
        <path fill="#c7eaf2" d="M186.175 79.263c40.533 6.08 102.928 33.28 151.467 134.015.348.731.696 1.439 1.056 2.158l72.374.081c-1.949-84.431-71.028-152.291-155.946-152.291-24.752 0-48.157 5.767-68.951 16.037z"/>
        <path fill="#dcebef" d="M128.937 410.998c-19.2 0-34.82-15.62-34.82-34.82 0-19.2 15.62-34.82 34.82-34.82s34.82 15.62 34.82 34.82c0 19.2-15.62 34.82-34.82 34.82zm254.12 0c-19.2 0-34.82-15.62-34.82-34.82 0-19.2 15.62-34.82 34.82-34.82s34.82 15.62 34.82 34.82c.001 19.2-15.62 34.82-34.82 34.82z"/>
        <path d="M419.442 208.101c-2.697-40.501-20.034-78.183-49.28-106.732-30.943-30.208-71.801-46.844-115.048-46.844-37.971 0-75.026 13.232-104.34 37.258a8.703 8.703 0 1 0 11.033 13.462c23.967-19.643 53.723-31.21 84.604-33.048v132.378h-124.76c-4.447 0-8.836.247-13.161.714 2.617-28.128 13.115-54.554 30.712-76.96 2.969-3.779 2.31-9.251-1.469-12.22-3.781-2.968-9.252-2.312-12.22 1.469-20.703 26.36-32.647 57.687-34.757 90.978C38.59 222.263 0 269.825 0 326.237v49.946a8.702 8.702 0 0 0 8.703 8.703h39.408c4.36 40.747 38.94 72.591 80.827 72.591 44.829 0 81.299-36.47 81.299-81.299s-36.47-81.299-81.299-81.299c-41.889 0-76.472 31.847-80.827 72.599H17.406v-41.243c0-57.487 46.764-104.256 104.245-104.256h268.687c22.771 0 43.856 7.344 61.023 19.779-7.552 9.074-11.754 20.502-11.754 32.607 0 28.173 22.92 51.094 51.094 51.094 1.3 0 2.593-.051 3.88-.147.002.309.012.615.012.924v41.243h-30.71c-4.356-40.752-38.937-72.599-80.827-72.599s-76.472 31.847-80.827 72.599h-73.012c-4.808 0-8.703 3.897-8.703 8.703s3.895 8.703 8.703 8.703h73.014c4.36 40.747 38.94 72.591 80.827 72.591s76.466-31.844 80.827-72.591h39.414a8.702 8.702 0 0 0 8.703-8.703v-49.946c-.002-57.056-39.485-105.056-92.56-118.135zM128.937 312.285c35.23 0 63.893 28.662 63.893 63.893s-28.662 63.893-63.893 63.893-63.893-28.662-63.893-63.893 28.663-63.893 63.893-63.893zm254.119 127.786c-35.204 0-63.848-28.62-63.891-63.815l.003-.073c0-.026-.003-.05-.003-.075.039-35.197 28.684-63.821 63.891-63.821 35.23 0 63.893 28.662 63.893 63.893s-28.662 63.891-63.893 63.891zM263.818 204.575V72.194c35.428 2.059 68.598 16.651 94.185 41.629 25.152 24.555 40.46 56.658 43.741 91.29-3.756-.35-7.559-.538-11.406-.538h-126.52zm226.883 103.479c-18.576 0-33.688-15.112-33.688-33.688 0-7.876 2.693-15.32 7.548-21.264 14.498 14.713 24.671 33.696 28.429 54.872-.76.05-1.522.08-2.289.08z"/>
        <path d="M128.937 419.701c23.999 0 43.523-19.525 43.523-43.523a43.094 43.094 0 0 0-4.182-18.612c-2.061-4.343-7.255-6.193-11.594-4.131a8.704 8.704 0 0 0-4.131 11.594 25.807 25.807 0 0 1 2.501 11.148c0 14.402-11.717 26.117-26.117 26.117-14.402 0-26.118-11.717-26.118-26.117s11.717-26.117 26.118-26.117c2.551 0 5.07.368 7.488 1.093a8.701 8.701 0 0 0 10.836-5.837 8.703 8.703 0 0 0-5.836-10.836 43.475 43.475 0 0 0-12.488-1.826c-23.999 0-43.524 19.525-43.524 43.523-.001 23.999 19.525 43.524 43.524 43.524zm254.119-87.046c-23.999 0-43.523 19.525-43.523 43.523 0 23.999 19.524 43.523 43.523 43.523 23.999 0 43.524-19.525 43.524-43.523.001-23.999-19.524-43.523-43.524-43.523zm0 69.64c-14.401 0-26.117-11.717-26.117-26.117 0-14.401 11.717-26.117 26.117-26.117 14.402 0 26.118 11.717 26.118 26.117s-11.715 26.117-26.118 26.117zm26.308-143.791c3.485 1.365 7.49.475 9.946-2.39 2.501-2.917 2.755-7.284.624-10.478-1.975-2.962-5.669-4.439-9.143-3.656-3.557.801-6.271 3.798-6.729 7.417-.487 3.847 1.746 7.608 5.302 9.107z"/>
    </g>
</svg>
