<svg xmlns="http://www.w3.org/2000/svg" fill="none" viewBox="0 0 512 512">
    <g transform="translate(0 26.947) scale(1.58514)">
        <path fill="#000" d="M318.899 141.864a2 2 0 1 0-3.62-1.702l3.62 1.702Zm-38.307-21.851-1.446-1.382 1.446 1.382Zm21.997 4.5 1.984-.259-1.984.259Zm-21.997 28.168-.886-1.793.886 1.793Zm34.687-12.519c-2.318 4.933-6.335 7.211-10.99 7.654-4.755.453-10.186-1.03-14.894-3.782-4.719-2.758-8.439-6.631-10.01-10.669-1.511-3.882-1.106-8.037 2.653-11.97l-2.892-2.764c-4.869 5.096-5.544 10.906-3.489 16.185 1.994 5.125 6.485 9.612 11.72 12.672 5.245 3.066 11.51 4.861 17.291 4.31 5.88-.56 11.238-3.565 14.231-9.934l-3.62-1.702Zm-33.241-18.767c7.502-7.851 17.717-3.143 18.568 3.377l3.967-.518c-1.369-10.48-16.051-15.435-25.427-5.623l2.892 2.764Zm18.568 3.377c.923 7.067-1.013 11.84-4.657 15.693-3.78 3.996-9.456 7.07-16.243 10.423l1.771 3.586c6.711-3.315 13.034-6.668 17.378-11.26 4.48-4.736 6.795-10.713 5.718-18.96l-3.967.518Zm-20.9 26.116a385.231 385.231 0 0 0-10.494 5.386 280.28 280.28 0 0 0-4.081 2.217l-.014.008-.004.002h-.002l.978 1.745.979 1.744.003-.001.012-.007.05-.028.201-.112c.178-.098.442-.245.787-.434.689-.377 1.698-.925 2.972-1.605a385.285 385.285 0 0 1 10.384-5.329l-1.771-3.586Z"/>
        <mask id="a" fill="#fff">
            <path fill-rule="evenodd" d="M13.866 46.384C8.583 42.736 5 35.648 5 27.5 5 15.626 9.611 7 19 7c10.768 0 19.62 8.266 19.988 19.753C51.365 20.566 65.922 17 81.5 17c28.374 0 53.361 11.83 67.956 29.776C214.156 64.536 266.018 124.981 271 166.5c5 14 14.949 97.557-67.573 100.267-20.06.659-40.299-2.56-59.468-8.503-6.437 11.171-20.254 20.391-20.254 20.391l-24.873-15.712 11.569-18.315c-27.069-13.746-49.703-32.388-63.199-51.588-5.458 4.475-10.244 7.3-10.244 7.3L13.27 183.15l20.393-28.099-.12-3.285v-.001c-.175-4.817-.356-9.762-.456-14.763C13.015 124.889 0 105.435 0 83.5c0-13.745 5.11-26.516 13.866-37.116Z" clip-rule="evenodd"/>
        </mask>
        <path fill="#D1ABAB" fill-rule="evenodd" d="M13.866 46.384C8.583 42.736 5 35.648 5 27.5 5 15.626 9.611 7 19 7c10.768 0 19.62 8.266 19.988 19.753C51.365 20.566 65.922 17 81.5 17c28.374 0 53.361 11.83 67.956 29.776C214.156 64.536 266.018 124.981 271 166.5c5 14 14.949 97.557-67.573 100.267-20.06.659-40.299-2.56-59.468-8.503-6.437 11.171-20.254 20.391-20.254 20.391l-24.873-15.712 11.569-18.315c-27.069-13.746-49.703-32.388-63.199-51.588-5.458 4.475-10.244 7.3-10.244 7.3L13.27 183.15l20.393-28.099-.12-3.285v-.001c-.175-4.817-.356-9.762-.456-14.763C13.015 124.889 0 105.435 0 83.5c0-13.745 5.11-26.516 13.866-37.116Z" clip-rule="evenodd"/>
        <path fill="#000" d="m13.866 46.384 2.313 1.91 2.082-2.521-2.69-1.858-1.705 2.469Zm25.122-19.631-2.998.096.15 4.68 4.19-2.093-1.342-2.683Zm110.468 20.023-2.327 1.893.606.746.927.254.794-2.893ZM271 166.5l-2.979.357.04.335.114.317L271 166.5Zm-67.573 100.267-.098-2.999.098 2.999Zm-59.468-8.503.889-2.866-2.291-.71-1.197 2.078 2.599 1.498Zm-20.254 20.391-1.602 2.537 1.647 1.04 1.62-1.081-1.665-2.496Zm-24.873-15.712-2.537-1.602-1.602 2.537 2.537 1.602 1.602-2.537Zm11.569-18.315 2.536 1.602 1.76-2.785-2.938-1.492-1.358 2.675ZM47.202 193.04l2.454-1.725-1.858-2.643-2.498 2.048 1.902 2.32Zm-10.244 7.3-1.763 2.428 1.593 1.156 1.694-1-1.524-2.584ZM13.27 183.15l-2.428-1.762-1.762 2.428 2.428 1.762 1.762-2.428Zm20.393-28.099 2.428 1.763.607-.837-.037-1.032-2.998.106Zm-.12-3.285-2.998.084v.026l2.999-.11Zm0 0 3-.084v-.01l-3 .094Zm0-.001 3-.094-.001-.008v-.007l-2.998.109Zm-.456-14.763 3-.06-.034-1.654-1.416-.855-1.55 2.569ZM2 27.5c0 8.964 3.937 17.055 10.161 21.352l3.41-4.937C11.228 40.918 8 34.83 8 27.5H2ZM19 4C13.215 4 8.792 6.737 5.951 11.182 3.205 15.479 2 21.24 2 27.5h6c0-5.614 1.1-10.103 3.007-13.087C12.82 11.576 15.397 10 19 10V4Zm22.986 22.656C41.566 13.56 31.396 4 19 4v6c9.14 0 16.672 6.971 16.99 16.849l5.996-.193ZM81.5 14c-16.033 0-31.05 3.67-43.853 10.069l2.682 5.367C52.281 23.462 66.377 20 81.5 20v-6Zm70.284 30.883C136.555 26.16 110.672 14 81.5 14v6c27.575 0 51.666 11.502 65.629 28.67l4.655-3.787Zm122.195 121.26c-2.599-21.657-17.279-47.724-39.195-70.495-21.977-22.834-51.57-42.717-84.534-51.765l-1.588 5.786c31.736 8.711 60.424 27.931 81.799 50.14 21.435 22.271 35.177 47.186 37.56 67.048l5.958-.714Zm-70.454 103.622c21.158-.695 36.662-6.59 47.846-15.492 11.168-8.891 17.79-20.592 21.526-32.509 3.73-11.899 4.612-24.098 4.257-34.178-.353-10.028-1.94-18.207-3.329-22.095l-5.65 2.018c1.111 3.112 2.643 10.628 2.983 20.288.338 9.609-.514 21.094-3.986 32.173-3.468 11.061-9.518 21.632-19.538 29.608-10.004 7.964-24.201 13.53-44.305 14.19l.196 5.997Zm-60.454-8.636c19.439 6.027 40.013 9.307 60.454 8.636l-.196-5.997c-19.68.647-39.584-2.51-58.481-8.37l-1.777 5.731Zm-1.711-4.363c-2.972 5.158-7.744 9.997-11.91 13.618a90.29 90.29 0 0 1-5.277 4.249 67.563 67.563 0 0 1-2.13 1.525l-.004.002h-.001.001l1.666 2.495c1.665 2.496 1.666 2.495 1.666 2.495l.001-.001.004-.002.011-.008.037-.024.131-.09a77.051 77.051 0 0 0 2.2-1.579 96.374 96.374 0 0 0 5.631-4.533c4.351-3.782 9.707-9.138 13.173-15.151l-5.199-2.996Zm-16.053 19.353-24.873-15.712-3.204 5.073 24.873 15.712 3.204-5.073Zm-23.939-11.573 11.569-18.316-5.072-3.204-11.57 18.315 5.073 3.205Zm-56.62-69.781c13.84 19.691 36.898 38.625 64.295 52.538l2.716-5.35c-26.74-13.58-48.952-31.93-62.103-50.638l-4.908 3.45Zm-7.79 5.575 1.525 2.584v-.001l.002-.001.005-.002.014-.009.05-.029.177-.108c.153-.093.374-.228.653-.403.559-.35 1.355-.861 2.325-1.514a99.641 99.641 0 0 0 7.395-5.497l-3.804-4.64a93.383 93.383 0 0 1-6.943 5.16 77.628 77.628 0 0 1-2.74 1.766 7.6 7.6 0 0 1-.145.087l-.033.02-.007.004 1.526 2.583Zm-25.449-14.762 23.686 17.19 3.525-4.856-23.687-17.19-3.524 4.856Zm19.727-32.289-20.393 28.099 4.856 3.524 20.393-28.098-4.856-3.525Zm-.69-1.413.12 3.282 5.996-.213-.12-3.288-5.995.219Zm0-.027v.001l5.998-.167v-.001l-5.998.167Zm0 .01 5.997-.187v-.001l-5.997.188Zm-.457-14.797c.1 5.029.282 9.999.458 14.813l5.996-.219c-.176-4.821-.356-9.742-.456-14.714l-5.998.12ZM-3 83.5c0 23.204 13.77 43.537 34.538 56.07l3.1-5.137C15.261 122.741 3 104.166 3 83.5h-6Zm14.553-39.027C2.404 55.55-3 68.983-3 83.5h6c0-12.972 4.817-25.081 13.179-35.206l-4.626-3.82Z" mask="url(#a)"/>
        <path stroke="#000" stroke-width="3" d="m97.5 144.5-18.557 34.085 21.706 12.404s6.185-5.235 12.058-12.404c6.949-8.48 13.461-19.667 8.78-28.093M187.865 194l-22.287 33 20.717 13.992s26.682-15.897 19.231-32.047"/>
        <path stroke="#000" stroke-width="3" d="m187.865 194-22.287 33 20.717 13.992s26.682-15.897 19.231-32.047"/>
        <path fill="#D1ABAB" stroke="#000" stroke-width="3" d="M101.5 20.5c0 11.393-7.249 20-15.5 20-8.251 0-15.5-8.607-15.5-20 0-5.776 1.127-10.583 3.243-13.895C75.813 3.366 78.851 1.5 83 1.5c10.165 0 18.5 7.948 18.5 19Z"/>
        <circle cx="27.5" cy="66.5" r="3.5" fill="#000"/>
        <circle cx="86.5" cy="66.5" r="3.5" fill="#000"/>
        <path fill="#B38686" stroke="#000" stroke-width="3" d="M74.5 88.5c0 2.468-1.614 4.933-4.71 6.858-3.075 1.91-7.416 3.142-12.29 3.142-4.874 0-9.215-1.231-12.29-3.142-3.096-1.925-4.71-4.39-4.71-6.858s1.614-4.933 4.71-6.858c3.075-1.91 7.416-3.142 12.29-3.142 4.874 0 9.215 1.231 12.29 3.142 3.096 1.925 4.71 4.39 4.71 6.858Z"/>
        <circle cx="49" cy="88" r="2" fill="#000"/>
        <circle cx="65" cy="88" r="2" fill="#000"/>
        <path fill="#8C6262" stroke="#000" stroke-width="3" d="M123 277.275s-5.388 12.451-10.5 9.725c-15-8-10-11.5-10-11.5s-6.248 3.384-10.5-2.814c-1.5-2.186 9.086-9.686 9.086-9.686L123 277.275Zm-86.854-79s-5.788 11.99-10.5 9.725c-16.646-8-10-11.5-10-11.5s-6.248 3.384-10.5-2.814C3.646 191.5 14.232 184 14.232 184l21.914 14.275Z"/>
        <path fill="#8C6262" d="M100 192.121s-6.095 11.526-10.114 9.621c-15.37-7.286-11.093-10.58-9.894-11.247-1.199.554-6.263 2.459-9.852-2.913-1.445-2.163 8.752-9.582 8.752-9.582L100 192.121Z"/>
        <path stroke="#000" stroke-width="3" d="M70.14 187.582c-1.445-2.163 8.752-9.582 8.752-9.582L100 192.121s-6.095 11.526-10.114 9.621c-17.386-8.242-9.632-11.376-9.632-11.376s-6.018 3.347-10.114-2.784Z"/>
        <path fill="#8C6262" d="M186 241.121s-8.116 10.606-9.777 9.621c-12.677-7.518-11.227-10.233-9.988-11.061-1.647.663-5.958 1.766-9.099-3.099-1.397-2.163 8.46-9.582 8.46-9.582L186 241.121Z"/>
        <path stroke="#000" stroke-width="3" d="M157.136 236.582c-1.397-2.163 8.46-9.582 8.46-9.582L186 241.121s-8.116 10.606-9.777 9.621c-16.223-9.621-9.311-11.376-9.311-11.376s-5.817 3.347-9.776-2.784Z"/>
    </g>
</svg>
