<svg xmlns="http://www.w3.org/2000/svg" fill="none" viewBox="0 0 512 512">
    <g transform="translate(38.906) scale(1.55623)">
        <rect width="16.303" height="75.889" x="-2.106" y=".251" fill="#88654C" stroke="#000" stroke-width="3" rx="5.5" transform="scale(-1 1) rotate(-38.208 293.652 243.005)"/>
        <rect width="30.253" height="75.889" x="-2.106" y=".251" fill="#372C25" stroke="#000" stroke-width="3" rx="5.5" transform="scale(-1 1) rotate(-38.208 347.775 235.758)"/>
        <mask id="a" fill="#fff">
            <path fill-rule="evenodd" d="M71.046 200.284c29.984 15.042 64.516 17.047 94.886 2.391 55.517-26.792 76.101-99.115 45.977-161.538a141.787 141.787 0 0 0-10.214-17.773c41.695 29.023 59.462 90.275 45.606 145.397-16.897 67.221-73.325 95.506-136.529 79.619-21.286-5.35-39.785-16.045-54.315-30.446l14.589-17.65Z" clip-rule="evenodd"/>
        </mask>
        <path fill="#D9D9D9" fill-rule="evenodd" d="M71.046 200.284c29.984 15.042 64.516 17.047 94.886 2.391 55.517-26.792 76.101-99.115 45.977-161.538a141.787 141.787 0 0 0-10.214-17.773c41.695 29.023 59.462 90.275 45.606 145.397-16.897 67.221-73.325 95.506-136.529 79.619-21.286-5.35-39.785-16.045-54.315-30.446l14.589-17.65Z" clip-rule="evenodd"/>
        <path fill="#000" d="m71.046 200.284-2.312-1.911 1.522-1.841 2.135 1.071-1.345 2.681Zm94.886 2.391-1.304-2.702 1.304 2.702Zm45.977-161.538-2.702 1.304 2.702-1.304Zm-10.214-17.773-2.485 1.68 4.199-4.142-1.714 2.462ZM56.457 217.934l-2.112 2.13-1.947-1.929 1.746-2.113 2.313 1.912Zm15.934-20.331c29.259 14.678 62.808 16.572 92.237 2.37l2.608 5.404c-31.311 15.11-66.827 12.994-97.535-2.411l2.69-5.363Zm92.237 2.37c53.736-25.932 74.131-96.295 44.579-157.532l5.404-2.608c30.697 63.609 9.923 137.892-47.375 165.544l-2.608-5.404Zm44.579-157.532a138.783 138.783 0 0 0-9.997-17.397l4.971-3.36a144.776 144.776 0 0 1 10.43 18.15l-5.404 2.607Zm-5.798-21.54c42.95 29.897 60.886 92.558 46.801 148.592l-5.819-1.463c13.627-54.211-3.97-114.054-44.41-142.204l3.428-4.924Zm46.801 148.592c-8.624 34.311-27.418 58.922-52.344 72.862-24.898 13.923-55.613 17.032-87.825 8.935l1.463-5.819c30.992 7.79 60.092 4.7 83.433-8.353 23.314-13.037 41.182-36.179 49.454-69.088l5.819 1.463ZM110.041 251.29c-21.81-5.483-40.786-16.448-55.696-31.226l4.224-4.261c14.15 14.024 32.173 24.449 52.935 29.668l-1.463 5.819Zm-55.897-35.268 14.59-17.649 4.624 3.823-14.589 17.649-4.625-3.823Z" mask="url(#a)"/>
    </g>
</svg>
