<svg xmlns="http://www.w3.org/2000/svg" xml:space="preserve" viewBox="0 0 512 512">
    <circle cx="256" cy="256" r="256" fill="#5686c5"/>
    <path fill="#517dab" d="M51.9 290.4c-11.9-32.2-22.4-94 83-77.8 0 0 110.2 38.8 103-53.2 0 0 52.8-162.6 166.3-69.8 0 0 35.1 28.3-11.7 89.6 0 0-9.4 75.2 45.8 105.1 16.6 9 27.2 26.3 28 45.2 1.7 39.8-10.4 98.1-94.8 100l-254.1-13.6s-99.3-12-66.4-89.5c4.8-11.5 5.2-24.4.9-36z"/>
    <path fill="#7fb358" d="M105.6 185.3c0 8.2-7.5 15.4-18.6 19.1-5.2 1.8-11.2 2.8-17.7 2.8-16.6 0-40.9-15-48.7-20.2-1.5-1-1.5-2.5 0-3.4 7.8-5.2 32.1-20.2 48.7-20.2 6.4 0 12.4 1 17.7 2.8 11.1 3.7 18.6 10.9 18.6 19.1z"/>
    <path fill="#75a050" d="M105.6 185.3c0 8.2-7.5 15.4-18.6 19.1-13.9-4.6-28.4-13.7-34.2-17.4-1.5-1-1.5-2.5 0-3.4 5.7-3.8 20.3-12.8 34.2-17.4 11.1 3.7 18.6 10.9 18.6 19.1z"/>
    <path fill="#7fb358" d="M157.3 185.3c0-8.2 7.5-15.4 18.6-19.1 5.2-1.8 11.2-2.8 17.7-2.8 16.6 0 40.9 15 48.7 20.2 1.5 1 1.5 2.5 0 3.4-7.8 5.2-32.1 20.2-48.7 20.2-6.4 0-12.4-1-17.7-2.8-11.1-3.7-18.6-10.9-18.6-19.1z"/>
    <path fill="#75a050" d="M157.3 185.3c0-8.2 7.5-15.4 18.6-19.1 13.9 4.6 28.4 13.7 34.2 17.4 1.5 1 1.5 2.5 0 3.4-5.7 3.8-20.3 12.8-34.2 17.4-11.1-3.7-18.6-10.9-18.6-19.1z"/>
    <path fill="#75a050" d="M216 226.6c-2.4-9.1-10.4-36.5-22.8-47.6-4.8-4.3-9.9-7.6-15-9.7-10.8-4.6-21.1-4.3-26.6 1.8s-4.7 16.5 1.1 26.7c2.7 4.8 6.5 9.6 11.3 13.9 12.4 11.1 40.5 16.1 49.8 17.5 1.6.2 2.6-.9 2.2-2.6zm-157.2 0c2.4-9.1 10.4-36.5 22.8-47.6 4.8-4.3 9.9-7.6 15-9.7 10.8-4.6 21.1-4.3 26.6 1.8s4.7 16.5-1.1 26.7c-2.7 4.8-6.5 9.6-11.3 13.9-12.4 11.1-40.5 16.1-49.8 17.5-1.7.2-2.7-.9-2.2-2.6z"/>
    <path fill="#a5384d" d="M86.6 122.7c8.5 18.2 29.6 26.2 47.3 18 17.6-8.2 25.1-29.6 16.6-47.8-7-15-39.2-26.9-50-30.5-2-.7-4.2.3-5 2.3-4.2 10.7-15.9 42.9-8.9 58z"/>
    <path fill="#a5384d" d="M183.5 122.7c-8.5 18.2-29.6 26.2-47.3 18-17.6-8.2-25.1-29.6-16.6-47.8 7-15 39.2-26.9 50-30.5 2-.7 4.2.3 5 2.3 4.2 10.7 15.9 42.9 8.9 58z"/>
    <path fill="#dc4355" d="M70.2 146.1c14.2 14.2 36.8 14.5 50.6.7s13.4-36.4-.7-50.6c-11.7-11.7-46-11.8-57.4-11.5-2.1.1-3.8 1.8-3.9 3.9-.4 11.5-.3 45.8 11.4 57.5z"/>
    <path fill="#7fb358" d="M174.8 199.4c0 18.7-27.3 46.2-36.7 55-1.8 1.7-4.5 1.7-6.2 0-9.4-8.8-36.7-36.3-36.7-55 0-8.6 2.6-16.6 7-23.2 7.2-10.7 19.2-17.8 32.8-17.8 13.6 0 25.6 7 32.8 17.8 4.4 6.6 7 14.6 7 23.2z"/>
    <path fill="#75a050" d="M167.8 176.2c-8.8 14.6-23.4 29.1-29.7 35.1-1.8 1.6-4.5 1.6-6.2 0-6.3-6-21-20.5-29.7-35.1 7.2-10.7 19.2-17.8 32.8-17.8 13.6 0 25.7 7 32.8 17.8z"/>
    <path fill="#dc4355" d="M199.4 146.1c-14.2 14.2-36.8 14.5-50.6.7-13.8-13.8-13.4-36.4.7-50.6 11.7-11.7 46-11.8 57.4-11.5 2.1.1 3.8 1.8 3.9 3.9.4 11.5.3 45.8-11.4 57.5z"/>
    <path fill="#cc6075" d="M185.7 133c0 22.7-14 42-33.6 49.2-5.4 2-11.2 3.1-17.2 3.1-28.1 0-50.8-23.4-50.8-52.3 0-23.9 34.9-58.9 46.8-70.2 2.2-2.1 5.7-2.1 7.9 0 3.2 3 7.9 7.6 13.2 13.3 14.8 15.7 33.7 39.3 33.7 56.9z"/>
    <path fill="#f26b7f" d="M185.7 133c0 22.7-14 42-33.6 49.2-19.6-7.2-33.6-26.6-33.6-49.2 0-17.6 18.9-41.2 33.6-57 14.7 15.8 33.6 39.4 33.6 57z"/>
    <path fill="#c67189" d="M134.4 184.4c-1.5.5-3 .9-4.5 1.3-12.9 3.6-24.6 4.5-35.1 3.6-46.2-4.2-70.7-44.9-79.4-63.4-1.3-2.6 1.5-5.3 4.1-4 5.1 2.6 11.1 4.8 17 6.5 2.9.9 5.9 1.7 8.7 2.4 9.8 2.4 19.8 3.7 29.9 4.3 23.6 1.4 38.1 11.9 46.8 22.9 10.1 12.9 12.5 26.4 12.5 26.4z"/>
    <path fill="#b26980" d="M129.9 185.7c-12.9 3.6-24.6 4.5-35.1 3.6-33.6-10.7-50.2-38-58.3-60.8 2.9.9 5.9 1.7 8.7 2.4 9.8 2.4 19.8 3.7 29.9 4.3 23.6 1.4 38.1 11.9 46.8 22.9 5.7 10.2 7.5 20.4 8 27.3-.1.1-.1.2 0 .3z"/>
    <path fill="#c67189" d="M134.5 184.4c1.5.5 3 .9 4.5 1.3 12.9 3.6 24.6 4.5 35.1 3.6 46.2-4.2 70.7-44.9 79.4-63.4 1.3-2.6-1.5-5.3-4.1-4-5.1 2.6-11.1 4.8-17 6.5-2.9.9-5.9 1.7-8.7 2.4-9.8 2.4-19.8 3.7-29.9 4.3-23.6 1.4-38.1 11.9-46.8 22.9-10.1 12.9-12.5 26.4-12.5 26.4z"/>
    <path fill="#b26980" d="M139 185.7c12.9 3.6 24.6 4.5 35.1 3.6 33.6-10.7 50.2-38 58.3-60.8-2.9.9-5.9 1.7-8.7 2.4-9.8 2.4-19.8 3.7-29.9 4.3-23.6 1.4-38.1 11.9-46.8 22.9-5.7 10.2-7.5 20.4-8 27.3.1.1.1.2 0 .3z"/>
    <path fill="#d87990" d="M229.4 95.8c-1.7 1.6-3.5 3.1-5.4 4.6-5.4 4.2-11.5 8.1-17.2 11.4-8.9 5.1-18.3 9.2-28 12.7-30.8 10.9-41.2 33.4-44.2 48.8-2.9-15.4-12.5-37.9-43.3-48.8-9.7-3.4-19.1-7.5-28-12.7-5.7-3.3-11.8-7.2-17.2-11.4-1.9-1.5-3.7-3-5.4-4.6-2.2-2-5.6-.2-5.2 2.8 4.2 25.6 23.1 92.1 99.4 90.8 76.3 1.4 95.4-65.1 99.6-90.8.5-2.9-2.9-4.8-5.1-2.8z"/>
    <path fill="#f2869b" d="M224 100.4c-5.4 4.2-11.5 8.1-17.2 11.4-8.9 5.1-18.3 9.2-28 12.7-22.6 8-34 22.2-39.7 35.3-1.8 4.1-7.6 4.1-9.3 0-5.6-13.1-17-27.3-39.6-35.3-9.7-3.4-19.1-7.5-28-12.7-5.7-3.3-11.8-7.2-17.2-11.4 6.8 28.4 27.9 77.2 88.9 80.3v.1h1v-.1c60.9-3 82.2-51.8 89.1-80.3z"/>
    <ellipse cx="157.3" cy="103.1" fill="#ef8499" rx="11.1" ry="14.7" transform="rotate(-24.674 157.247 103.06)"/>
    <path fill="#7fb358" d="M360.6 150.1c0 8.2-7.5 15.4-18.6 19.1-5.2 1.8-11.2 2.8-17.7 2.8-16.6 0-40.9-15-48.7-20.2-1.5-1-1.5-2.5 0-3.4 7.8-5.2 32.1-20.2 48.7-20.2 6.4 0 12.4 1 17.7 2.8 11.1 3.7 18.6 10.9 18.6 19.1z"/>
    <path fill="#75a050" d="M360.6 150.1c0 8.2-7.5 15.4-18.6 19.1-13.9-4.6-28.4-13.7-34.2-17.4-1.5-1-1.5-2.5 0-3.4 5.7-3.8 20.3-12.8 34.2-17.4 11.1 3.7 18.6 10.9 18.6 19.1z"/>
    <path fill="#7fb358" d="M412.3 150.1c0-8.2 7.5-15.4 18.6-19.1 5.2-1.8 11.2-2.8 17.7-2.8 16.6 0 40.9 15 48.7 20.2 1.5 1 1.5 2.5 0 3.4-7.8 5.2-32.1 20.2-48.7 20.2-6.4 0-12.4-1-17.7-2.8-11.1-3.7-18.6-10.8-18.6-19.1z"/>
    <path fill="#75a050" d="M412.3 150.1c0-8.2 7.5-15.4 18.6-19.1 13.9 4.6 28.4 13.7 34.2 17.4 1.5 1 1.5 2.5 0 3.4-5.7 3.8-20.3 12.8-34.2 17.4-11.1-3.7-18.6-10.8-18.6-19.1z"/>
    <path fill="#75a050" d="M471 191.4c-2.4-9.1-10.4-36.5-22.8-47.6-4.8-4.3-9.9-7.6-15-9.7-10.8-4.6-21.1-4.3-26.6 1.8s-4.7 16.5 1.1 26.7c2.7 4.8 6.5 9.6 11.3 13.9 12.4 11.1 40.5 16.1 49.8 17.5 1.7.2 2.7-.9 2.2-2.6zm-157.2 0c2.4-9.1 10.4-36.5 22.8-47.6 4.8-4.3 9.9-7.6 15-9.7 10.8-4.6 21.1-4.3 26.6 1.8s4.7 16.5-1.1 26.7c-2.7 4.8-6.5 9.6-11.3 13.9-12.4 11.1-40.5 16.1-49.8 17.5-1.7.2-2.6-.9-2.2-2.6z"/>
    <path fill="#a5384d" d="M341.7 87.5c8.5 18.2 29.6 26.2 47.3 18 17.6-8.2 25.1-29.6 16.6-47.8-7-15-39.2-26.9-50-30.5-2-.7-4.2.3-5 2.3-4.2 10.7-15.9 42.9-8.9 58z"/>
    <path fill="#a5384d" d="M438.5 87.5c-8.5 18.2-29.6 26.2-47.3 18-17.6-8.2-25.1-29.6-16.6-47.8 7-15 39.2-26.9 50-30.5 2-.7 4.2.3 5 2.3 4.2 10.7 15.9 42.9 8.9 58z"/>
    <path fill="#dc4355" d="M325.2 111c14.2 14.2 36.8 14.5 50.6.7 13.8-13.8 13.4-36.4-.7-50.6-11.7-11.7-46-11.8-57.4-11.5-2.1.1-3.8 1.8-3.9 3.9-.4 11.5-.3 45.7 11.4 57.5z"/>
    <path fill="#7fb358" d="M429.9 164.2c0 18.7-27.3 46.2-36.7 55-1.8 1.7-4.5 1.7-6.2 0-9.4-8.8-36.7-36.3-36.7-55 0-8.6 2.6-16.6 7-23.2 7.2-10.7 19.2-17.8 32.8-17.8 13.6 0 25.6 7 32.8 17.8 4.4 6.6 7 14.6 7 23.2z"/>
    <path fill="#75a050" d="M422.9 141c-8.8 14.6-23.4 29.1-29.7 35.1-1.8 1.6-4.5 1.6-6.2 0-6.3-6-21-20.5-29.7-35.1 7.2-10.7 19.2-17.8 32.8-17.8 13.6 0 25.6 7.1 32.8 17.8z"/>
    <path fill="#dc4355" d="M454.4 111c-14.2 14.2-36.8 14.5-50.6.7-13.8-13.8-13.4-36.4.7-50.6 11.7-11.7 46-11.8 57.4-11.5 2.1.1 3.8 1.8 3.9 3.9.4 11.5.4 45.7-11.4 57.5z"/>
    <path fill="#cc6075" d="M440.7 97.8c0 22.7-14 42-33.6 49.2-5.4 2-11.2 3.1-17.2 3.1-28.1 0-50.8-23.4-50.8-52.3 0-23.9 34.9-58.9 46.8-70.2 2.2-2.1 5.7-2.1 7.9 0 3.2 3 7.9 7.6 13.2 13.3 14.8 15.7 33.7 39.3 33.7 56.9z"/>
    <path fill="#f26b7f" d="M440.7 97.8c0 22.7-14 42-33.6 49.2-19.6-7.2-33.6-26.6-33.6-49.2 0-17.6 18.9-41.2 33.6-57 14.7 15.8 33.6 39.4 33.6 57z"/>
    <path fill="#c67189" d="M389.4 149.2c-1.5.5-3 .9-4.5 1.3-12.9 3.6-24.6 4.5-35.1 3.6-46.2-4.2-70.7-44.9-79.4-63.4-1.3-2.6 1.5-5.3 4.1-4 5.1 2.6 11.1 4.8 17 6.5 2.9.9 5.9 1.7 8.7 2.4 9.8 2.4 19.8 3.7 29.9 4.3 23.6 1.4 38.1 11.9 46.8 22.9 10.2 13 12.5 26.4 12.5 26.4z"/>
    <path fill="#b26980" d="M384.9 150.6c-12.9 3.6-24.6 4.5-35.1 3.6-33.6-10.7-50.2-38-58.3-60.8 2.9.9 5.9 1.7 8.7 2.4 9.8 2.4 19.8 3.7 29.9 4.3 23.6 1.4 38.1 11.9 46.8 22.9 5.7 10.2 7.5 20.4 8 27.3v.3z"/>
    <path fill="#c67189" d="M389.5 149.2c1.5.5 3 .9 4.5 1.3 12.9 3.6 24.6 4.5 35.1 3.6 46.2-4.2 70.7-44.9 79.4-63.4 1.3-2.6-1.5-5.3-4.1-4-5.1 2.6-11.1 4.8-17 6.5-2.9.9-5.9 1.7-8.7 2.4-9.8 2.4-19.8 3.7-29.9 4.3-23.6 1.4-38.1 11.9-46.8 22.9-10.1 13-12.5 26.4-12.5 26.4z"/>
    <path fill="#b26980" d="M394.1 150.6c12.9 3.6 24.6 4.5 35.1 3.6 33.6-10.7 50.2-38 58.3-60.8-2.9.9-5.9 1.7-8.7 2.4-9.8 2.4-19.8 3.7-29.9 4.3-23.6 1.4-38.1 11.9-46.8 22.9-5.7 10.2-7.5 20.4-8 27.3v.3z"/>
    <path fill="#d87990" d="M484.4 60.7c-1.7 1.6-3.5 3.1-5.4 4.6-5.4 4.2-11.5 8.1-17.2 11.4-8.9 5.1-18.3 9.2-28 12.7-30.8 10.9-41.2 33.4-44.2 48.8-2.9-15.4-12.5-37.9-43.3-48.8-9.7-3.4-19.1-7.5-28-12.7-5.7-3.3-11.8-7.2-17.2-11.4-1.9-1.5-3.7-3-5.4-4.6-2.2-2-5.6-.2-5.2 2.8 4.2 25.6 23.1 92.1 99.4 90.8 76.3 1.4 95.4-65.1 99.6-90.8.6-3-2.9-4.8-5.1-2.8z"/>
    <path fill="#f2869b" d="M479 65.3c-5.4 4.2-11.5 8.1-17.2 11.4-8.9 5.1-18.3 9.2-28 12.7-22.6 8-34 22.2-39.7 35.3-1.8 4.1-7.6 4.1-9.3 0-5.6-13.1-17-27.3-39.6-35.3-9.7-3.4-19.1-7.5-28-12.7-5.7-3.3-11.8-7.2-17.2-11.4 6.8 28.4 27.9 77.2 88.9 80.3v.1h1v-.1c61-3.1 82.3-51.9 89.1-80.3z"/>
    <ellipse cx="412.3" cy="67.9" fill="#ef8499" rx="11.1" ry="14.7" transform="rotate(-24.674 412.28 67.907)"/>
    <ellipse cx="205" cy="36" fill="#649cd7" rx="39.2" ry="16.5"/>
    <ellipse cx="276" cy="26" fill="#649cd7" rx="19.6" ry="8.3"/>
    <ellipse cx="175.2" cy="453.8" fill="#649cd7" rx="46" ry="19.4"/>
    <ellipse cx="266.3" cy="481.9" fill="#649cd7" rx="36.2" ry="15.3"/>
    <path fill="#7fb358" d="M220.4 356.8c0 12.2-11.1 22.8-27.6 28.4-7.7 2.6-16.7 4.1-26.2 4.1-24.6 0-60.6-22.3-72.2-30-2.2-1.4-2.2-3.6 0-5.1 11.6-7.6 47.6-30 72.2-30 9.5 0 18.4 1.5 26.2 4.1 16.5 5.7 27.6 16.3 27.6 28.5z"/>
    <path fill="#75a050" d="M220.4 356.8c0 12.2-11.1 22.8-27.6 28.4-20.6-6.8-42.1-20.2-50.7-25.8-2.2-1.4-2.2-3.6 0-5.1 8.5-5.6 30.1-19 50.7-25.8 16.5 5.5 27.6 16.1 27.6 28.3z"/>
    <path fill="#7fb358" d="M297 356.8c0-12.2 11.1-22.8 27.6-28.4 7.7-2.6 16.7-4.1 26.2-4.1 24.6 0 60.6 22.3 72.2 30 2.2 1.4 2.2 3.6 0 5.1-11.6 7.6-47.6 30-72.2 30-9.5 0-18.4-1.5-26.2-4.1-16.5-5.7-27.6-16.3-27.6-28.5z"/>
    <path fill="#75a050" d="M297 356.8c0-12.2 11.1-22.8 27.6-28.4 20.6 6.8 42.1 20.2 50.7 25.8 2.2 1.4 2.2 3.6 0 5.1-8.5 5.6-30.1 19-50.7 25.8-16.5-5.5-27.6-16.1-27.6-28.3z"/>
    <path fill="#75a050" d="M384 418c-3.5-13.5-15.5-54.1-33.8-70.5-7.1-6.3-14.7-11.2-22.2-14.4-16-6.9-31.3-6.4-39.5 2.7-8.1 9.1-7 24.4 1.6 39.5 4 7.1 9.7 14.2 16.8 20.5 18.3 16.4 60 23.8 73.8 25.9 2.5.5 4-1.1 3.3-3.7zm-233 0c3.5-13.5 15.5-54.1 33.8-70.5 7.1-6.3 14.7-11.2 22.2-14.4 16-6.9 31.3-6.4 39.5 2.7 8.1 9.1 7 24.4-1.6 39.5-4 7.1-9.7 14.2-16.8 20.5-18.3 16.4-60 23.8-73.8 25.9-2.5.5-4-1.1-3.3-3.7z"/>
    <path fill="#a5384d" d="M192.3 264c12.5 26.9 43.9 38.9 70.1 26.7 26.2-12.2 37.2-43.9 24.7-70.8-10.4-22.3-58.1-39.8-74.2-45.1-3-1-6.2.5-7.4 3.4-6.2 15.7-23.6 63.5-13.2 85.8z"/>
    <path fill="#a5384d" d="M335.9 264c-12.5 26.9-43.9 38.9-70.1 26.7-26.2-12.2-37.2-43.9-24.7-70.8 10.4-22.3 58.1-39.8 74.2-45.1 3-1 6.2.5 7.4 3.4 6.2 15.7 23.6 63.5 13.2 85.8z"/>
    <path fill="#dc4355" d="M168 298.8c21 21 54.6 21.5 75 1.1s19.9-54-1.1-75c-17.4-17.4-68.2-17.5-85.1-17-3.2.1-5.7 2.6-5.8 5.8-.5 16.9-.4 67.7 17 85.1z"/>
    <path fill="#7fb358" d="M323 377.7c0 27.8-40.5 68.4-54.4 81.6-2.6 2.5-6.6 2.5-9.2 0-13.9-13.1-54.4-53.8-54.4-81.6 0-12.8 3.8-24.6 10.4-34.4C226 327.4 243.9 317 264 317c20.2 0 38 10.4 48.6 26.3 6.6 9.8 10.4 21.6 10.4 34.4z"/>
    <path fill="#75a050" d="M312.7 343.3c-13 21.6-34.6 43.1-44 52-2.6 2.4-6.6 2.4-9.2 0-9.4-8.9-31.1-30.4-44-52C226 327.4 243.9 317 264 317c20.2 0 38 10.4 48.7 26.3z"/>
    <path fill="#dc4355" d="M359.4 298.8c-21 21-54.6 21.5-75 1.1s-19.9-54 1.1-75c17.4-17.4 68.2-17.5 85.1-17 3.2.1 5.7 2.6 5.8 5.8.5 16.9.4 67.7-17 85.1z"/>
    <path fill="#cc6075" d="M339.1 279.3c0 33.6-20.8 62.2-49.9 73-8 2.9-16.5 4.5-25.5 4.5-41.6 0-75.3-34.7-75.3-77.5 0-35.5 51.7-87.4 69.4-104.1 3.3-3.1 8.5-3.1 11.8 0 4.7 4.4 11.7 11.3 19.6 19.7 21.9 23.3 49.9 58.3 49.9 84.4z"/>
    <path fill="#f26b7f" d="M339.1 279.3c0 33.6-20.8 62.2-49.9 73-29.1-10.7-49.9-39.4-49.9-73 0-26.1 28-61.1 49.9-84.4 21.9 23.3 49.9 58.3 49.9 84.4z"/>
    <path fill="#c67189" d="M263.1 355.5c-2.3.7-4.5 1.4-6.7 2-19.1 5.3-36.4 6.7-52.1 5.3-68.5-6.2-104.7-66.6-117.8-93.9-1.9-3.9 2.3-7.9 6.1-5.9 7.6 3.8 16.4 7.1 25.2 9.7 4.4 1.3 8.7 2.5 12.9 3.5 14.5 3.6 29.4 5.5 44.3 6.4 35 2.1 56.5 17.7 69.4 33.9 15.2 19 18.7 39 18.7 39z"/>
    <path fill="#b26980" d="M256.4 357.4c-19.1 5.3-36.4 6.7-52.1 5.3-49.8-15.9-74.4-56.4-86.5-90.1 4.4 1.3 8.7 2.5 12.9 3.5 14.5 3.6 29.4 5.5 44.3 6.4 35 2.1 56.5 17.7 69.4 33.9 8.5 15.1 11.1 30.2 11.9 40.4 0 .3.1.5.1.6z"/>
    <path fill="#c67189" d="M263.3 355.5c2.3.7 4.5 1.4 6.7 2 19.1 5.3 36.4 6.7 52.1 5.3 68.5-6.2 104.7-66.6 117.8-93.9 1.9-3.9-2.3-7.9-6.1-5.9-7.6 3.8-16.4 7.1-25.2 9.7-4.4 1.3-8.7 2.5-12.9 3.5-14.5 3.6-29.4 5.5-44.3 6.4-35 2.1-56.5 17.7-69.4 33.9-15.2 19-18.7 39-18.7 39z"/>
    <path fill="#b26980" d="M270 357.4c19.1 5.3 36.4 6.7 52.1 5.3 49.8-15.9 74.4-56.4 86.5-90.1-4.4 1.3-8.7 2.5-12.9 3.5-14.5 3.6-29.4 5.5-44.3 6.4-35 2.1-56.5 17.7-69.4 33.9-8.5 15.1-11.1 30.2-11.9 40.4-.1.3-.1.5-.1.6z"/>
    <path fill="#d87990" d="M403.9 224.2c-2.5 2.3-5.2 4.6-8 6.8-8 6.2-17 12-25.5 16.8-13.2 7.6-27.2 13.7-41.5 18.8-45.7 16.2-61 49.5-65.6 72.4-4.3-22.9-18.5-56.2-64.1-72.4-14.4-5.1-28.4-11.1-41.5-18.8-8.4-4.9-17.5-10.6-25.5-16.8-2.8-2.2-5.5-4.5-8-6.8-3.2-3-8.4-.2-7.6 4.1 6.3 38 34.2 136.6 147.4 134.5 113.1 2 141.4-96.5 147.7-134.5.6-4.3-4.6-7.1-7.8-4.1z"/>
    <path fill="#f2869b" d="M395.9 231c-8 6.2-17 12-25.5 16.8-13.2 7.6-27.2 13.7-41.5 18.8-33.4 11.8-50.4 32.9-58.9 52.4-2.6 6.1-11.2 6.1-13.8 0-8.4-19.4-25.2-40.5-58.7-52.3-14.4-5.1-28.4-11.1-41.5-18.8-8.4-4.9-17.5-10.6-25.5-16.8 10.1 42.2 41.4 114.5 131.8 119.1v.1h1.6v-.1c90.3-4.7 121.8-77 132-119.2z"/>
    <ellipse cx="297" cy="234.9" fill="#ef8499" rx="16.5" ry="21.7" transform="rotate(-24.674 296.973 234.924)"/>
</svg>
