<svg xmlns="http://www.w3.org/2000/svg" fill="none" viewBox="0 0 512 512">
    <g transform="translate(61.363) scale(.9588)">
        <path fill="#292019" d="M403 365c0 52.571 13.5 169-185.477 169C-2.5 534 22 417.571 22 365s74.776 0 195.523 0C338.271 365 403 312.429 403 365Z"/>
        <path fill="#292019" d="M403 365c0 52.571 13.5 169-185.477 169C-2.5 534 22 417.571 22 365s74.776 0 195.523 0C338.271 365 403 312.429 403 365Z"/>
        <path fill="#273728" d="M406 366c0 38.936-57.878 68-178 68S22 404.936 22 366s76.878-22 197-22 187-16.936 187 22Z"/>
        <path fill="#273728" d="M406 366c0 38.936-57.878 68-178 68S22 404.936 22 366s76.878-22 197-22 187-16.936 187 22Z"/>
        <rect width="44" height="114" x="117.5" y="235.5" fill="#2E241C" stroke="#000" stroke-width="3" rx="8.5"/>
        <mask id="a" fill="#fff">
            <path fill-rule="evenodd" d="M130.121 29.834c3.196-3.779 9.021-3.779 12.217 0l27.79 32.861c2.883 3.41 2.288 8.007-.384 10.77l41.872 48.009c6.724 7.71 1.332 19.722-8.834 19.885l29.573 29.215c7.63 7.539 2.292 20.537-8.434 20.537h-9.379l33.504 29.494c6.92 6.092 2.611 17.506-6.607 17.506h-34.848l37.478 32.993c8.304 7.31 3.133 21.007-7.929 21.007H37.319c-11.063 0-16.233-13.697-7.93-21.007l37.48-32.993H32.02c-9.219 0-13.527-11.414-6.608-17.506l33.504-29.494H48.538c-10.727 0-16.064-12.998-8.434-20.537l29.624-29.265c-9.546-.868-14.397-12.369-7.885-19.835l41.421-47.492c-3.128-2.674-4.005-7.655-.934-11.287l27.791-32.86Z" clip-rule="evenodd"/>
        </mask>
        <path fill="#273728" fill-rule="evenodd" d="M130.121 29.834c3.196-3.779 9.021-3.779 12.217 0l27.79 32.861c2.883 3.41 2.288 8.007-.384 10.77l41.872 48.009c6.724 7.71 1.332 19.722-8.834 19.885l29.573 29.215c7.63 7.539 2.292 20.537-8.434 20.537h-9.379l33.504 29.494c6.92 6.092 2.611 17.506-6.607 17.506h-34.848l37.478 32.993c8.304 7.31 3.133 21.007-7.929 21.007H37.319c-11.063 0-16.233-13.697-7.93-21.007l37.48-32.993H32.02c-9.219 0-13.527-11.414-6.608-17.506l33.504-29.494H48.538c-10.727 0-16.064-12.998-8.434-20.537l29.624-29.265c-9.546-.868-14.397-12.369-7.885-19.835l41.421-47.492c-3.128-2.674-4.005-7.655-.934-11.287l27.791-32.86Z" clip-rule="evenodd"/>
        <path fill="#000" d="m142.338 29.834 2.29-1.937-2.29 1.937Zm-12.217 0-2.291-1.937 2.291 1.937Zm40.007 32.861-2.29 1.937 2.29-1.937Zm-.384 10.77-2.156-2.085-1.916 1.98 1.811 2.077 2.261-1.972Zm41.872 48.009-2.261 1.971 2.261-1.971Zm-8.834 19.885-.048-2.999-7.141.115 5.081 5.019 2.108-2.135Zm29.573 29.215-2.109 2.135 2.109-2.135Zm-17.813 20.537v-3h-7.948l5.966 5.252 1.982-2.252Zm33.504 29.494-1.982 2.252 1.982-2.252Zm-41.455 17.506v-3h-7.948l5.965 5.252 1.983-2.252Zm37.478 32.993 1.982-2.252-1.982 2.252Zm-214.68 0 1.983 2.252-1.982-2.252Zm37.48-32.993 1.981 2.252 5.966-5.252h-7.948v3Zm-41.456-17.506-1.983-2.252 1.983 2.252Zm33.503-29.494 1.983 2.252 5.966-5.252h-7.949v3Zm-18.812-20.537-2.108-2.134 2.108 2.134Zm29.624-29.265 2.108 2.134 4.593-4.537-6.43-.585-.271 2.988Zm-7.885-19.835 2.26 1.971-2.26-1.971Zm41.421-47.492 2.261 1.972 1.991-2.284-2.303-1.969-1.949 2.28Zm-.934-11.287 2.291 1.937-2.291-1.937Zm42.298-34.798c-4.394-5.196-12.404-5.196-16.798 0l4.582 3.874a5 5 0 0 1 7.635 0l4.581-3.874Zm27.791 32.861-27.791-32.861-4.581 3.874 27.791 32.861 4.581-3.874Zm-.518 14.792c3.626-3.75 4.5-10.084.518-14.792l-4.581 3.874c1.784 2.11 1.466 4.973-.25 6.748l4.313 4.17Zm41.976 43.952-41.872-48.009-4.522 3.944 41.872 48.008 4.522-3.943Zm-11.047 24.857c12.711-.204 19.454-15.218 11.047-24.857l-4.522 3.943c5.042 5.781.999 14.792-6.621 14.915l.096 5.999Zm31.633 24.081-29.572-29.215-4.217 4.269 29.572 29.215 4.217-4.269Zm-10.542 25.671c13.408 0 20.08-16.248 10.542-25.671l-4.217 4.269c5.723 5.653 1.72 15.402-6.325 15.402v6Zm-9.379 0h9.379v-6h-9.379v6Zm-1.982-.748 33.504 29.494 3.964-4.504-33.503-29.494-3.965 4.504Zm33.504 29.494c4.844 4.264 1.828 12.254-4.625 12.254v6c11.984 0 17.585-14.839 8.589-22.758l-3.964 4.504Zm-4.625 12.254h-34.848v6h34.848v-6Zm4.612 33.741-37.478-32.993-3.965 4.504 37.479 32.993 3.964-4.504Zm-9.911 26.259c13.828 0 20.291-17.122 9.911-26.259l-3.964 4.504c6.227 5.482 2.35 15.755-5.947 15.755v6Zm-198.821 0H236.14v-6H37.319v6Zm-9.912-26.259c-10.38 9.137-3.916 26.259 9.912 26.259v-6c-8.297 0-12.175-10.273-5.947-15.755l-3.965-4.504Zm37.479-32.993-37.479 32.993 3.965 4.504 37.478-32.993-3.964-4.504Zm1.982-.748H32.02v6h34.848v-6Zm-34.848 0c-6.453 0-9.469-7.99-4.625-12.254l-3.965-4.504c-8.995 7.919-3.394 22.758 8.59 22.758v-6Zm-4.625-12.254 33.504-29.494-3.965-4.504-33.504 29.494 3.965 4.504Zm21.143-28.746h10.378v-6H48.538v6ZM37.995 168.44c-9.539 9.423-2.866 25.671 10.541 25.671v-6c-8.044 0-12.047-9.749-6.325-15.402l-4.216-4.269Zm29.623-29.265L37.996 168.44l4.216 4.269 29.624-29.266-4.217-4.268Zm-8.037-19.673c-8.148 9.342-2.07 23.709 9.874 24.795l.543-5.976c-7.146-.649-10.771-9.285-5.895-14.876l-4.522-3.943Zm41.421-47.492-41.421 47.492 4.522 3.943 41.421-47.491-4.522-3.944Zm-.963-11.252c-4.245 5.02-2.977 11.87 1.274 15.504l3.899-4.56c-2.004-1.714-2.489-4.826-.592-7.07l-4.581-3.874Zm27.79-32.861-27.79 32.861 4.581 3.874 27.791-32.86-4.582-3.875Z" mask="url(#a)"/>
        <rect width="46.368" height="104.576" x="227.368" y="140.774" fill="#2E241C" stroke="#000" stroke-width="3" rx="8.5"/>
        <mask id="b" fill="#fff">
            <path fill-rule="evenodd" d="M255.995 2.871c3.197-3.828 9.081-3.828 12.279 0l20.574 24.628c2.575 3.083 2.329 7.116.291 9.894l33.502 38.884c5.839 6.778 2.394 16.802-5.381 19.27l22.218 22.219c7.559 7.56 2.205 20.485-8.485 20.485h-3.33l25.075 22.346c6.86 6.113 2.536 17.466-6.653 17.466h-25.076l27.809 24.782c8.232 7.336 3.043 20.959-7.984 20.959H184.271c-11.027 0-16.216-13.623-7.984-20.959l27.809-24.782H179.02c-9.189 0-13.513-11.353-6.653-17.466l25.075-22.346h-4.167c-10.69 0-16.044-12.925-8.485-20.485l22.434-22.436c-7.334-2.79-10.441-12.458-4.76-19.053l33.067-38.38c-2.398-2.776-2.847-7.123-.111-10.398L255.995 2.87Z" clip-rule="evenodd"/>
        </mask>
        <path fill="#1B251C" fill-rule="evenodd" d="M255.995 2.871c3.197-3.828 9.081-3.828 12.279 0l20.574 24.628c2.575 3.083 2.329 7.116.291 9.894l33.502 38.884c5.839 6.778 2.394 16.802-5.381 19.27l22.218 22.219c7.559 7.56 2.205 20.485-8.485 20.485h-3.33l25.075 22.346c6.86 6.113 2.536 17.466-6.653 17.466h-25.076l27.809 24.782c8.232 7.336 3.043 20.959-7.984 20.959H184.271c-11.027 0-16.216-13.623-7.984-20.959l27.809-24.782H179.02c-9.189 0-13.513-11.353-6.653-17.466l25.075-22.346h-4.167c-10.69 0-16.044-12.925-8.485-20.485l22.434-22.436c-7.334-2.79-10.441-12.458-4.76-19.053l33.067-38.38c-2.398-2.776-2.847-7.123-.111-10.398L255.995 2.87Z" clip-rule="evenodd"/>
        <path fill="#000" d="m268.274 2.871-2.303 1.923 2.303-1.923Zm-12.279 0 2.302 1.923-2.302-1.923Zm32.853 24.628-2.303 1.923 2.303-1.923Zm.291 9.894-2.419-1.774-1.411 1.924 1.558 1.808 2.272-1.958Zm33.502 38.884 2.272-1.958-2.272 1.958Zm-5.381 19.27-.907-2.86-4.703 1.492 3.489 3.489 2.121-2.122Zm22.218 22.219-2.121 2.121 2.121-2.121Zm-11.815 20.485v-3h-7.876l5.88 5.24 1.996-2.24Zm25.075 22.346 1.996-2.24-1.996 2.24Zm-31.729 17.466v-3h-7.876l5.88 5.239 1.996-2.239Zm27.809 24.782-1.996 2.24 1.996-2.24Zm-172.531 0 1.996 2.24-1.996-2.24Zm27.809-24.782 1.996 2.239 5.879-5.239h-7.875v3Zm-31.729-17.466-1.996-2.24 1.996 2.24Zm25.075-22.346 1.996 2.24 5.88-5.24h-7.876v3Zm-12.652-20.485 2.121 2.121-2.121-2.121Zm22.434-22.436 2.122 2.121 3.277-3.277-4.332-1.648-1.067 2.804Zm-4.76-19.053-2.273-1.958 2.273 1.958Zm33.067-38.38 2.272 1.959 1.689-1.96-1.691-1.96-2.27 1.962ZM235.42 27.5l-2.302-1.924 2.302 1.924ZM270.576.948c-4.397-5.264-12.487-5.264-16.884 0l4.605 3.846a5 5 0 0 1 7.674 0l4.605-3.846Zm20.574 24.627L270.576.948l-4.605 3.846 20.574 24.628 4.605-3.847Zm.409 13.592c2.766-3.773 3.142-9.341-.409-13.592l-4.605 3.847c1.601 1.916 1.483 4.413.175 6.197l4.839 3.548Zm33.354 35.152-33.501-38.884-4.545 3.916 33.501 38.885 4.545-3.917Zm-6.746 24.087c9.713-3.082 14.068-15.589 6.746-24.087l-4.545 3.916c4.357 5.057 1.822 12.6-4.015 14.452l1.814 5.719Zm23.433 17.239-22.218-22.22-4.243 4.243 22.218 22.219 4.243-4.242Zm-10.607 25.606c13.363 0 20.056-16.157 10.607-25.606l-4.243 4.242c5.669 5.67 1.654 15.364-6.364 15.364v6Zm-3.33 0h3.33v-6h-3.33v6Zm-1.996-.76 25.075 22.346 3.992-4.48-25.076-22.346-3.991 4.48Zm25.075 22.346c4.802 4.279 1.775 12.226-4.657 12.226v6c11.945 0 17.567-14.758 8.649-22.706l-3.992 4.48Zm-4.657 12.226h-25.076v6h25.076v-6Zm4.729 25.542-27.809-24.782-3.992 4.479 27.809 24.783 3.992-4.48Zm-9.98 26.199c13.784 0 20.27-17.029 9.98-26.199l-3.992 4.48c6.174 5.502 2.282 15.719-5.988 15.719v6Zm-156.563 0h156.563v-6H184.271v6Zm-9.98-26.199c-10.29 9.17-3.804 26.199 9.98 26.199v-6c-8.271 0-12.162-10.217-5.988-15.719l-3.992-4.48Zm27.809-24.782-27.809 24.782 3.992 4.48 27.809-24.783-3.992-4.479Zm1.996-.76H179.02v6h25.076v-6Zm-25.076 0c-6.432 0-9.459-7.947-4.657-12.226l-3.992-4.48c-8.918 7.948-3.297 22.706 8.649 22.706v-6Zm-4.657-12.226 25.075-22.346-3.992-4.48-25.075 22.346 3.992 4.48Zm18.912-21.586h4.167v-6h-4.167v6Zm-10.607-25.606c-9.448 9.449-2.756 25.606 10.607 25.606v-6c-8.018 0-12.033-9.694-6.364-15.364l-4.243-4.242Zm22.435-22.436-22.435 22.436 4.243 4.242 22.435-22.436-4.243-4.242Zm-4.912-18.89c-7.126 8.272-3.185 20.333 5.967 23.815l2.133-5.608c-5.516-2.098-7.79-9.373-3.554-14.29l-4.546-3.917Zm33.067-38.38-33.067 38.38 4.546 3.916 33.066-38.38-4.545-3.915Zm-.14-10.364c-3.776 4.52-3.113 10.515.142 14.284l4.541-3.922c-1.541-1.784-1.774-4.485-.078-6.515l-4.605-3.847ZM253.692.948l-20.574 24.627 4.605 3.847 20.574-24.628-4.605-3.846Z" mask="url(#b)"/>
        <rect width="49.454" height="117.996" x="183.766" y="267.383" fill="#2E241C" stroke="#000" stroke-width="3" rx="8.5"/>
        <mask id="c" fill="#fff">
            <path fill-rule="evenodd" d="M201.768 48.044c3.203-4.059 9.357-4.059 12.56 0l23.533 29.819c2.607 3.304 2.09 7.585-.319 10.302l37.018 45.483c5.982 7.351 1.452 18.124-7.468 19.441l25.78 27.292c7.228 7.652 1.803 20.24-8.724 20.24h-6.476l29.156 27.504c6.583 6.21 2.188 17.274-6.863 17.274h-29.362l32.562 30.718c7.9 7.453 2.626 20.729-8.234 20.729H122.055c-10.86 0-16.135-13.276-8.235-20.729l32.563-30.718H117.02c-9.05 0-13.445-11.064-6.862-17.274l29.155-27.504h-7.365c-10.526 0-15.952-12.588-8.723-20.24l25.909-27.429c-8.413-1.798-12.519-12.165-6.708-19.304l36.611-44.984c-2.813-2.667-3.574-7.287-.801-10.801l23.532-29.819Z" clip-rule="evenodd"/>
        </mask>
        <path fill="#304E33" fill-rule="evenodd" d="M201.768 48.044c3.203-4.059 9.357-4.059 12.56 0l23.533 29.819c2.607 3.304 2.09 7.585-.319 10.302l37.018 45.483c5.982 7.351 1.452 18.124-7.468 19.441l25.78 27.292c7.228 7.652 1.803 20.24-8.724 20.24h-6.476l29.156 27.504c6.583 6.21 2.188 17.274-6.863 17.274h-29.362l32.562 30.718c7.9 7.453 2.626 20.729-8.234 20.729H122.055c-10.86 0-16.135-13.276-8.235-20.729l32.563-30.718H117.02c-9.05 0-13.445-11.064-6.862-17.274l29.155-27.504h-7.365c-10.526 0-15.952-12.588-8.723-20.24l25.909-27.429c-8.413-1.798-12.519-12.165-6.708-19.304l36.611-44.984c-2.813-2.667-3.574-7.287-.801-10.801l23.532-29.819Z" clip-rule="evenodd"/>
        <path fill="#000" d="m214.328 48.044-2.355 1.859 2.355-1.859Zm-12.56 0-2.355-1.858 2.355 1.858Zm36.093 29.819 2.355-1.858-2.355 1.858Zm-.319 10.302-2.244-1.99-1.691 1.907 1.608 1.976 2.327-1.893Zm37.018 45.483 2.327-1.894-2.327 1.894Zm-7.468 19.441-.438-2.968-5.697.842 3.955 4.186 2.18-2.06Zm25.78 27.292-2.181 2.06 2.181-2.06Zm-15.2 20.24v-3h-7.552l5.494 5.182 2.058-2.182Zm29.156 27.504-2.059 2.182 2.059-2.182Zm-36.225 17.274v-3h-7.552l5.493 5.182 2.059-2.182Zm32.562 30.718-2.058 2.183 2.058-2.183Zm-189.345 0 2.059 2.183-2.059-2.183Zm32.563-30.718 2.058 2.182 5.494-5.182h-7.552v3Zm-36.225-17.274 2.059 2.182-2.059-2.182Zm29.155-27.504 2.059 2.182 5.493-5.182h-7.552v3Zm-16.088-20.24 2.181 2.06-2.181-2.06Zm25.909-27.429 2.18 2.06 3.664-3.879-5.217-1.115-.627 2.934Zm-6.708-19.304-2.327-1.894 2.327 1.894Zm36.611-44.984 2.327 1.894 1.755-2.158-2.018-1.913-2.064 2.177Zm-.801-10.801-2.355-1.859 2.355 1.859Zm38.447-31.678c-4.404-5.58-12.866-5.58-17.27 0l4.71 3.718c2.002-2.537 5.848-2.537 7.85 0l4.71-3.718Zm23.533 29.82-23.533-29.82-4.71 3.718 23.533 29.819 4.71-3.718Zm-.429 14.15c3.272-3.69 4.027-9.591.429-14.15l-4.71 3.717c1.616 2.048 1.337 4.71-.208 6.452l4.489 3.98Zm37.1 41.599-37.018-45.483-4.654 3.787 37.018 45.484 4.654-3.788Zm-9.356 24.303c11.161-1.648 16.845-15.101 9.356-24.303l-4.654 3.788c4.476 5.499 1.099 13.593-5.579 14.579l.877 5.936Zm27.521 22.264-25.779-27.292-4.361 4.12 25.779 27.292 4.361-4.12Zm-10.904 25.3c13.159 0 19.94-15.735 10.904-25.3l-4.361 4.12c5.421 5.739 1.352 15.18-6.543 15.18v6Zm-6.476 0h6.476v-6h-6.476v6Zm-2.058-.818 29.155 27.504 4.117-4.364-29.155-27.504-4.117 4.364Zm29.155 27.504c4.608 4.347 1.532 12.092-4.804 12.092v6c11.766 0 17.479-14.383 8.921-22.456l-4.117 4.364Zm-4.804 12.092h-29.362v6h29.362v-6Zm5.259 31.536-32.563-30.718-4.117 4.364 32.563 30.719 4.117-4.365Zm-10.293 25.911c13.575 0 20.168-16.595 10.293-25.911l-4.117 4.365c5.925 5.589 1.969 15.546-6.176 15.546v6Zm-172.876 0h172.876v-6H122.055v6Zm-10.293-25.911c-9.875 9.316-3.283 25.911 10.293 25.911v-6c-8.145 0-12.101-9.957-6.176-15.546l-4.117-4.365Zm32.562-30.718-32.562 30.718 4.117 4.365 32.562-30.719-4.117-4.364Zm2.059-.818H117.02v6h29.363v-6Zm-29.363 0c-6.335 0-9.412-7.745-4.803-12.092l-4.118-4.364c-8.558 8.073-2.844 22.456 8.921 22.456v-6Zm-4.803-12.092 29.155-27.504-4.117-4.364-29.156 27.504 4.118 4.364Zm19.731-26.686h7.365v-6h-7.365v6Zm-10.904-25.3c-9.036 9.565-2.254 25.3 10.904 25.3v-6c-7.895 0-11.964-9.441-6.542-15.18l-4.362-4.12Zm25.909-27.429-25.909 27.429 4.362 4.12 25.908-27.429-4.361-4.12Zm-6.854-19.138c-7.278 8.943-2.115 21.883 8.408 24.132l1.254-5.868c-6.303-1.347-9.351-9.141-5.009-14.476l-4.653-3.788ZM176.71 86.77l-36.611 44.984 4.653 3.788 36.612-44.984-4.654-3.788Zm-.829-10.766c-3.83 4.854-2.732 11.212 1.092 14.837l4.128-4.354c-1.803-1.71-2.226-4.59-.51-6.765l-4.71-3.718Zm23.532-29.819-23.532 29.82 4.71 3.717 23.532-29.82-4.71-3.717Z" mask="url(#c)"/>
        <rect width="50.285" height="124.158" x="78.807" y="277.604" fill="#3C2E24" stroke="#000" stroke-width="3" rx="8.5"/>
        <mask id="d" fill="#fff">
            <path fill-rule="evenodd" d="M97.138 64.148c3.201-4.197 9.519-4.197 12.721 0l24.506 32.126c2.592 3.398 1.948 7.763-.615 10.431l38.22 48.582c5.977 7.599.961 18.621-8.402 19.379l27.174 29.761c7.033 7.703 1.568 20.092-8.862 20.092h-7.655l30.639 29.901c6.418 6.264 1.983 17.157-6.985 17.157h-30.835l34.304 33.479c7.701 7.516 2.38 20.588-8.382 20.588H14.933c-10.762 0-16.083-13.072-8.381-20.588l34.304-33.479H10.02c-8.968 0-13.402-10.893-6.984-17.157l30.638-29.901h-8.558c-10.43 0-15.894-12.389-8.862-20.092l27.26-29.855c-8.832-1.312-13.385-11.911-7.584-19.285l37.833-48.09c-2.984-2.597-3.89-7.307-1.132-10.923l24.507-32.126Z" clip-rule="evenodd"/>
        </mask>
        <path fill="#3C6840" fill-rule="evenodd" d="M97.138 64.148c3.201-4.197 9.519-4.197 12.721 0l24.506 32.126c2.592 3.398 1.948 7.763-.615 10.431l38.22 48.582c5.977 7.599.961 18.621-8.402 19.379l27.174 29.761c7.033 7.703 1.568 20.092-8.862 20.092h-7.655l30.639 29.901c6.418 6.264 1.983 17.157-6.985 17.157h-30.835l34.304 33.479c7.701 7.516 2.38 20.588-8.382 20.588H14.933c-10.762 0-16.083-13.072-8.381-20.588l34.304-33.479H10.02c-8.968 0-13.402-10.893-6.984-17.157l30.638-29.901h-8.558c-10.43 0-15.894-12.389-8.862-20.092l27.26-29.855c-8.832-1.312-13.385-11.911-7.584-19.285l37.833-48.09c-2.984-2.597-3.89-7.307-1.132-10.923l24.507-32.126Z" clip-rule="evenodd"/>
        <path fill="#000" d="m109.859 64.148 2.385-1.82-2.385 1.82Zm-12.721 0-2.386-1.82 2.386 1.82Zm37.227 32.126 2.385-1.82-2.385 1.82Zm-.615 10.431-2.164-2.078-1.808 1.882 1.614 2.051 2.358-1.855Zm38.22 48.582 2.357-1.855-2.357 1.855Zm-8.402 19.379-.242-2.99-6.1.493 4.127 4.52 2.215-2.023Zm27.174 29.761 2.215-2.022-2.215 2.022Zm-16.517 20.092v-3h-7.369l5.274 5.147 2.095-2.147Zm30.639 29.901 2.095-2.147-2.095 2.147Zm-37.82 17.157v-3h-7.37l5.274 5.147 2.096-2.147Zm34.304 33.479-2.096 2.147 2.096-2.147Zm-194.796 0-2.096-2.147 2.096 2.147Zm34.304-33.479 2.095 2.147 5.274-5.147h-7.37v3ZM3.036 254.42.94 252.273l2.096 2.147Zm30.638-29.901 2.096 2.147 5.273-5.147h-7.369v3Zm-17.42-20.092 2.216 2.023-2.216-2.023Zm27.26-29.855 2.215 2.023 3.8-4.162-5.574-.828-.441 2.967Zm-7.584-19.285-2.358-1.855 2.358 1.855Zm37.833-48.09 2.358 1.855 1.765-2.244-2.154-1.874-1.969 2.263Zm-1.132-10.923 2.385 1.82-2.385-1.82Zm39.613-33.946c-4.402-5.77-13.09-5.77-17.492 0l4.77 3.64c2.002-2.624 5.95-2.624 7.951 0l4.771-3.64Zm24.506 32.126-24.506-32.126-4.771 3.64 24.507 32.125 4.77-3.639Zm-.837 14.329c3.484-3.626 4.415-9.639.837-14.329l-4.77 3.64c1.606 2.105 1.249 4.823-.394 6.533l4.327 4.156Zm38.414 44.649-38.22-48.582-4.715 3.71 38.22 48.582 4.715-3.71Zm-10.517 24.224c11.715-.949 17.995-14.718 10.517-24.224l-4.715 3.71c4.477 5.692.725 13.966-6.286 14.534l.484 5.98Zm29.147 24.749-27.174-29.762-4.43 4.046 27.174 29.761 4.43-4.045Zm-11.077 25.114c13.038 0 19.868-15.486 11.077-25.114l-4.43 4.045c5.274 5.777 1.176 15.069-6.647 15.069v6Zm-7.655 0h7.655v-6h-7.655v6Zm-2.095-.853 30.638 29.901 4.191-4.294-30.639-29.901-4.19 4.294Zm30.638 29.901c4.493 4.385 1.389 12.01-4.889 12.01v6c11.659 0 17.423-14.161 9.08-22.304l-4.191 4.294Zm-4.889 12.01h-30.835v6h30.835v-6Zm5.564 34.332-34.304-33.479-4.191 4.294 34.304 33.479 4.191-4.294Zm-10.477 25.735c13.452 0 20.104-16.34 10.477-25.735l-4.191 4.294c5.777 5.637 1.786 15.441-6.286 15.441v6Zm-178.033 0h178.033v-6H14.933v6ZM4.456 302.909c-9.627 9.395-2.975 25.735 10.477 25.735v-6c-8.071 0-12.062-9.804-6.286-15.441l-4.19-4.294ZM38.76 269.43 4.456 302.909l4.19 4.294 34.305-33.479-4.19-4.294Zm2.096-.853H10.02v6h30.836v-6Zm-30.836 0c-6.277 0-9.382-7.625-4.889-12.01l-4.19-4.294c-8.344 8.143-2.58 22.304 9.08 22.304v-6Zm-4.889-12.01 30.639-29.901-4.191-4.294L.94 252.273l4.191 4.294Zm19.985-29.048h8.558v-6h-8.558v6Zm-11.077-25.114c-8.791 9.628-1.96 25.114 11.077 25.114v-6c-7.823 0-11.92-9.292-6.646-15.069l-4.431-4.045Zm27.26-29.856-27.26 29.856 4.43 4.045 27.26-29.855-4.43-4.046Zm-7.727-19.117c-7.262 9.231-1.55 22.465 9.5 24.108l.883-5.935c-6.613-.983-10.008-8.945-5.667-14.463l-4.716-3.71Zm37.833-48.09-37.833 48.09 4.716 3.71 37.833-48.09-4.716-3.71Zm-1.16-10.888c-3.81 4.995-2.51 11.474 1.548 15.006l3.94-4.526c-1.91-1.661-2.424-4.603-.717-6.84l-4.77-3.64Zm24.507-32.126L70.246 94.454l4.77 3.64 24.507-32.126-4.77-3.64Z" mask="url(#d)"/>
        <rect width="40.345" height="94.983" x="301.689" y="317.595" fill="#3C2E24" stroke="#000" stroke-width="3" rx="8.5"/>
        <mask id="e" fill="#fff">
            <path fill-rule="evenodd" d="M315.264 150.982c3.202-3.976 9.259-3.976 12.461 0l16.37 20.329c2.35 2.918 2.232 6.628.503 9.34l28.689 34.545c5.268 6.343 2.604 15.336-4.016 18.507l18.521 19.215c7.346 7.621 1.945 20.328-8.64 20.328h-.124l20.464 18.918c6.681 6.177 2.311 17.343-6.789 17.343h-19.517l22.554 20.851c8.018 7.412 2.773 20.811-8.146 20.811H256.13c-10.92 0-16.164-13.399-8.146-20.811l22.553-20.851H251.02c-9.099 0-13.47-11.166-6.788-17.343l20.464-18.918h-.86c-10.585 0-15.985-12.707-8.64-20.328l18.763-19.466c-6.256-3.371-8.658-12.073-3.523-18.256l28.288-34.061c-2.039-2.742-2.324-6.729.169-9.824l16.371-20.329Z" clip-rule="evenodd"/>
        </mask>
        <path fill="#47764C" fill-rule="evenodd" d="M315.264 150.982c3.202-3.976 9.259-3.976 12.461 0l16.37 20.329c2.35 2.918 2.232 6.628.503 9.34l28.689 34.545c5.268 6.343 2.604 15.336-4.016 18.507l18.521 19.215c7.346 7.621 1.945 20.328-8.64 20.328h-.124l20.464 18.918c6.681 6.177 2.311 17.343-6.789 17.343h-19.517l22.554 20.851c8.018 7.412 2.773 20.811-8.146 20.811H256.13c-10.92 0-16.164-13.399-8.146-20.811l22.553-20.851H251.02c-9.099 0-13.47-11.166-6.788-17.343l20.464-18.918h-.86c-10.585 0-15.985-12.707-8.64-20.328l18.763-19.466c-6.256-3.371-8.658-12.073-3.523-18.256l28.288-34.061c-2.039-2.742-2.324-6.729.169-9.824l16.371-20.329Z" clip-rule="evenodd"/>
        <path fill="#000" d="m327.725 150.982 2.337-1.881-2.337 1.881Zm-12.461 0 2.336 1.882-2.336-1.882Zm28.831 20.329-2.336 1.881 2.336-1.881Zm.503 9.34-2.53-1.612-1.176 1.845 1.398 1.684 2.308-1.917Zm28.689 34.545 2.308-1.917-2.308 1.917Zm-4.016 18.507-1.296-2.706-3.748 1.795 2.884 2.992 2.16-2.081Zm18.521 19.215 2.16-2.082-2.16 2.082Zm-8.764 20.328v-3h-7.665l5.628 5.203 2.037-2.203Zm20.464 18.918 2.036-2.203-2.036 2.203Zm-26.306 17.343v-3h-7.664l5.627 5.203 2.037-2.203Zm22.554 20.851-2.037 2.202 2.037-2.202Zm-147.756 0 2.036 2.202-2.036-2.202Zm22.553-20.851 2.037 2.203 5.628-5.203h-7.665v3Zm-26.305-17.343 2.036 2.203-2.036-2.203Zm20.464-18.918 2.036 2.203 5.628-5.203h-7.664v3Zm-9.5-20.328-2.16-2.082 2.16 2.082Zm18.763-19.466 2.16 2.082 2.745-2.847-3.482-1.876-1.423 2.641Zm-3.523-18.256 2.308 1.917-2.308-1.917Zm28.288-34.061 2.308 1.916 1.507-1.814-1.408-1.892-2.407 1.79Zm.169-9.824-2.336-1.882 2.336 1.882Zm31.169-22.21c-4.403-5.468-12.732-5.468-17.135 0l4.673 3.763c2.001-2.485 5.787-2.485 7.789 0l4.673-3.763Zm16.37 20.328-16.37-20.328-4.673 3.763 16.37 20.328 4.673-3.763Zm.696 12.835c2.351-3.689 2.539-8.817-.696-12.835l-4.673 3.763c1.464 1.818 1.416 4.111.309 5.847l5.06 3.225Zm28.467 31.015-28.689-34.544-4.616 3.833 28.689 34.545 4.616-3.834Zm-5.028 23.129c8.247-3.949 11.638-15.17 5.028-23.129l-4.616 3.834c3.927 4.727 1.989 11.493-3.004 13.884l2.592 5.411Zm19.385 14.428-18.521-19.215-4.32 4.163L385.632 255l4.32-4.164Zm-10.8 25.41c13.231 0 19.982-15.884 10.8-25.41l-4.32 4.164c5.51 5.716 1.459 15.246-6.48 15.246v6Zm-.124 0h.124v-6h-.124v6Zm-2.037-.797 20.464 18.918 4.073-4.406-20.464-18.918-4.073 4.406Zm20.464 18.918c4.677 4.324 1.618 12.14-4.752 12.14v6c11.829 0 17.511-14.516 8.825-22.546l-4.073 4.406Zm-4.752 12.14h-19.517v6h19.517v-6Zm5.073 21.648-22.554-20.851-4.073 4.406 22.554 20.85 4.073-4.405Zm-10.182 26.014c13.649 0 20.205-16.749 10.182-26.014l-4.073 4.405c6.014 5.56 2.08 15.609-6.109 15.609v6Zm-131.464 0h131.464v-6H256.13v6Zm-10.183-26.014c-10.022 9.265-3.466 26.014 10.183 26.014v-6c-8.19 0-12.123-10.049-6.11-15.609l-4.073-4.405Zm22.554-20.851-22.554 20.851 4.073 4.405 22.554-20.85-4.073-4.406Zm2.036-.797H251.02v6h19.517v-6Zm-19.517 0c-6.369 0-9.429-7.816-4.752-12.14l-4.073-4.406c-8.686 8.03-3.004 22.546 8.825 22.546v-6Zm-4.752-12.14 20.464-18.918-4.073-4.406-20.464 18.918 4.073 4.406Zm17.568-18.121h.86v-6h-.86v6Zm-10.8-25.41c-9.182 9.526-2.431 25.41 10.8 25.41v-6c-7.938 0-11.989-9.53-6.48-15.246l-4.32-4.164Zm18.763-19.466-18.763 19.466 4.32 4.164 18.763-19.466-4.32-4.164Zm-3.671-18.091c-6.444 7.76-3.378 18.618 4.408 22.814l2.846-5.282c-4.726-2.547-6.464-9.091-2.638-13.698l-4.616-3.834Zm28.288-34.061-28.288 34.061 4.616 3.834 28.288-34.062-4.616-3.833Zm.141-9.789c-3.437 4.267-3.01 9.771-.24 13.496l4.814-3.58c-1.308-1.759-1.45-4.229.099-6.153l-4.673-3.763Zm16.37-20.328-16.37 20.328 4.673 3.763 16.37-20.328-4.673-3.763Z" mask="url(#e)"/>
        <path fill="#273728" d="m209 370 9.526 29.25h-19.052L209 370Z"/>
        <path fill="#273728" d="M199.474 370 209 399.25h-19.053l9.527-10.25v-19Zm110.193 23L300 420h19.333l-9.666-27Z"/>
        <path fill="#273728" d="m319.333 393-9.666 27H329l-9.667-9.462V393ZM96.667 380 87 407h19.333l-9.666-27Z"/>
        <path fill="#273728" d="m106.333 380-9.666 27H116l-9.667-9.462V380Z"/>
    </g>
</svg>
