<svg xmlns="http://www.w3.org/2000/svg" viewBox="0 0 512 512">
    <g transform="scale(16)">
        <path fill="#68c7d3" d="m16.201 11.403 6.001-8 1.6 1.2-6.001 8z"/>
        <path fill="#68c7d3" d="m27 25.32-1.9-.64c.83-2.5.95-2.63.95-3.65 0-2.79-2.15-2.7-3.75-6.71a8.11 8.11 0 0 1 .28-6.61 4.5 4.5 0 0 0 .47-2A2.68 2.68 0 0 0 20 3l-3.76 1-.48-2c3.9-1 4-1 4.54-1 3.56 0 5.94 3.75 4 7.61-1.43 2.87-.29 6 2 8.24a5.88 5.88 0 0 1 1.7 4.31c0 1.31-.35 2.05-1 4.16Z"/>
        <path fill="#30acc2" d="M12 29h8v2h-8z"/>
        <path fill="#d1e6e9" d="M14 17h4v12h-4z"/>
        <rect width="6" height="8" x="13" y="9" fill="#a1d8df" rx="1"/>
        <path fill="#d1e6e9" d="M13 11v4h-3a1 1 0 0 0-1 1v1H5v-2a4 4 0 0 1 4-4Z"/>
        <path fill="#a1d8df" d="M9 19H5a1 1 0 0 1 0-2h4a1 1 0 0 1 0 2Z"/>
        <path fill="#d1e6e9" d="M15 3h2v6h-2z"/>
        <circle cx="16" cy="3" r="2" fill="#a1d8df"/>
        <path fill="#68c7d3" d="M9 25a2 2 0 0 1-4 0c0-2 2-4 2-4s2 2 2 4Z"/>
    </g>
</svg>
