<svg xmlns="http://www.w3.org/2000/svg" fill="none" viewBox="0 0 512 512">
    <g transform="translate(0 78.26) scale(1.32642)">
        <path fill="#292019" d="M385 107c0 52.571 10.5 161-188.477 161C-23.5 268 1 156.571 1 104c0-52.57 74.776-5 195.523-5C317.271 99 385 54.43 385 107Z"/>
        <path fill="#292019" d="M385 107c0 52.571 10.5 161-188.477 161C-23.5 268 1 156.571 1 104c0-52.57 74.776-5 195.523-5C317.271 99 385 54.43 385 107Z"/>
        <path fill="#57885C" d="M385 100c0 38.936-57.878 68-178 68S1 138.936 1 100s76.878-22 197-22 187-16.936 187 22Z"/>
        <path fill="#57885C" d="M385 100c0 38.936-57.878 68-178 68S1 138.936 1 100s76.878-22 197-22 187-16.936 187 22Z"/>
        <path fill="#57885C" d="m77.053 59 9.526 29.25H67.526L77.053 59Z"/>
        <path fill="#57885C" d="m77.053 59 9.526 29.25H67.526L77.053 59Z"/>
        <path fill="#57885C" d="m67.526 59 9.527 29.25H58L67.526 78V59Z"/>
        <path fill="#57885C" d="m67.526 59 9.527 29.25H58L67.526 78V59Zm95.527 70 9.526 29.25h-19.053l9.527-29.25Z"/>
        <path fill="#46774B" d="m163.053 129 9.526 29.25h-19.053l9.527-29.25Z"/>
        <path fill="#57885C" d="m153.526 129 9.527 29.25H144l9.526-10.25v-19Z"/>
        <path fill="#46774B" d="m153.526 129 9.527 29.25H144l9.526-10.25v-19Z"/>
        <path fill="#57885C" d="M244.526 53 235 82.25h19.053L244.526 53Z"/>
        <path fill="#46774B" d="M244.526 53 235 82.25h19.053L244.526 53Z"/>
        <path fill="#57885C" d="m254.053 53-9.527 29.25h19.053L254.053 72V53Z"/>
        <path fill="#46774B" d="m254.053 53-9.527 29.25h19.053L254.053 72V53Z"/>
        <path fill="#57885C" d="m200.526 102-6.026 29.25h15.553L200.526 102Z"/>
        <path fill="#46774B" d="m200.526 102-6.026 29.25h15.553L200.526 102Z"/>
        <path fill="#57885C" d="m210.053 102-9.527 29.25h19.053L210.053 121v-19Z"/>
        <path fill="#46774B" d="m210.053 102-9.527 29.25h19.053L210.053 121v-19Z"/>
        <path fill="#57885C" d="M88.526 59 79 88.25h19.053L88.526 59Z"/>
        <path fill="#46774B" d="M88.526 59 79 88.25h19.053L88.526 59Z"/>
        <path fill="#57885C" d="m98.053 59-9.527 29.25h19.053L98.053 78V59Z"/>
        <path fill="#46774B" d="m98.053 59-9.527 29.25h19.053L98.053 78V59Z"/>
        <path fill="#57885C" d="m378.5 74-3.447 19.25h-9.527L378.5 74Z"/>
        <path fill="#57885C" d="m378.5 74-3.447 19.25h-9.527L378.5 74Z"/>
        <path fill="#57885C" d="m370.5 66.5 4.553 26.75H356L362 82l8.5-15.5Z"/>
        <path fill="#57885C" d="m370.5 66.5 4.553 26.75H356L362 82l8.5-15.5Z"/>
        <path fill="#57885C" d="M356.526 73 347 102.25h19.053L356.526 73Z"/>
        <path fill="#46774B" d="M356.526 73 347 102.25h19.053L356.526 73Z"/>
        <path fill="#57885C" d="m366.053 73-9.527 29.25h19.053L366.053 92V73Z"/>
        <path fill="#46774B" d="m366.053 73-9.527 29.25h19.053L366.053 92V73Z"/>
        <path fill="#57885C" d="m216.053 115 9.526 29.25h-19.053l9.527-29.25Z"/>
        <path fill="#57885C" d="m216.053 115 9.526 29.25h-19.053l9.527-29.25Z"/>
        <path fill="#57885C" d="m206.526 115 9.527 29.25H197l9.526-10.25v-19Z"/>
        <path fill="#57885C" d="m206.526 115 9.527 29.25H197l9.526-10.25v-19ZM106.053 80l9.526 29.25H96.526L106.053 80Z"/>
        <path fill="#65BE7E" d="m106.053 80 9.526 29.25H96.526L106.053 80Z"/>
        <path fill="#57885C" d="m96.526 80 9.527 29.25H87L96.526 99V80Z"/>
        <path fill="#65BE7E" d="m96.526 80 9.527 29.25H87L96.526 99V80Z"/>
        <path fill="#D9D9D9" d="M53.076 114.445a2 2 0 0 1 2.848 0l1.735 1.76a2 2 0 0 0 1.663.581l3.41-.411c1.82-.219 2.698 2.162 1.172 3.176a1.74 1.74 0 0 0 0 2.898c1.526 1.014.648 3.395-1.171 3.176l-3.41-.411a2 2 0 0 0-1.664.581l-1.735 1.76a2 2 0 0 1-2.848 0l-1.735-1.76a2 2 0 0 0-1.663-.581l-3.697.445c-1.829.22-2.74-2.149-1.233-3.21a1.772 1.772 0 0 0 0-2.898c-1.506-1.061-.596-3.43 1.233-3.21l3.697.445a2 2 0 0 0 1.663-.581l1.735-1.76Z"/>
        <ellipse cx="54.218" cy="121" fill="#C8BE68" rx="5.196" ry="2.357"/>
        <ellipse cx="148.5" cy="121" fill="#303C25" fill-opacity=".38" rx="11.5" ry="4"/>
        <ellipse cx="314.5" cy="88" fill="#303C25" fill-opacity=".38" rx="11.5" ry="4"/>
        <path fill="#D9D9D9" d="M119.076 80.445a2 2 0 0 1 2.848 0l1.735 1.76a2 2 0 0 0 1.664.581l3.41-.41c1.82-.22 2.697 2.16 1.171 3.175a1.74 1.74 0 0 0 0 2.898c1.526 1.014.649 3.395-1.171 3.175l-3.41-.41a2 2 0 0 0-1.664.581l-1.735 1.76a2 2 0 0 1-2.848 0l-1.735-1.76a2 2 0 0 0-1.664-.581l-3.696.445c-1.829.22-2.739-2.149-1.234-3.21a1.772 1.772 0 0 0 0-2.898c-1.505-1.061-.595-3.43 1.234-3.21l3.696.445a2 2 0 0 0 1.664-.581l1.735-1.76Z"/>
        <ellipse cx="120.218" cy="87" fill="#C8BE68" rx="5.196" ry="2.357"/>
        <path fill="#D88F8F" d="M219.076 129.445a1.999 1.999 0 0 1 2.848 0l1.735 1.76a2 2 0 0 0 1.664.581l3.41-.411c1.82-.219 2.697 2.162 1.171 3.176a1.74 1.74 0 0 0 0 2.898c1.526 1.014.649 3.395-1.171 3.176l-3.41-.411a2 2 0 0 0-1.664.581l-1.735 1.76a1.999 1.999 0 0 1-2.848 0l-1.735-1.76a2 2 0 0 0-1.664-.581l-3.696.445c-1.829.22-2.739-2.149-1.234-3.21a1.772 1.772 0 0 0 0-2.898c-1.505-1.061-.595-3.43 1.234-3.21l3.696.445a2 2 0 0 0 1.664-.581l1.735-1.76Z"/>
        <ellipse cx="220.218" cy="136" fill="#E9C8A9" rx="5.196" ry="2.357"/>
        <path fill="#D9D9D9" d="M192.263 145.445a2 2 0 0 1 2.849 0l.443.449a1.56 1.56 0 0 0 1.298.454l1.98-.238c1.137-.137 1.686 1.351.732 1.985a1.087 1.087 0 0 0 0 1.81c.954.634.405 2.122-.732 1.985l-1.98-.238a1.56 1.56 0 0 0-1.298.454l-.443.449a2 2 0 0 1-2.849 0l-.413-.42a1.65 1.65 0 0 0-1.37-.478l-2.117.255c-1.143.138-1.712-1.343-.771-2.006a1.108 1.108 0 0 0 0-1.812c-.941-.663-.372-2.144.771-2.006l2.117.255a1.65 1.65 0 0 0 1.37-.478l.413-.42Z"/>
        <ellipse cx="193.511" cy="149" fill="#C8BE68" rx="3.248" ry="1.473"/>
        <path fill="#D9D9D9" d="M283.076 80.445a2 2 0 0 1 2.848 0l1.735 1.76a2 2 0 0 0 1.664.581l3.41-.41c1.82-.22 2.697 2.16 1.171 3.175a1.74 1.74 0 0 0 0 2.898c1.526 1.014.649 3.395-1.171 3.175l-3.41-.41a2 2 0 0 0-1.664.581l-1.735 1.76a2 2 0 0 1-2.848 0l-1.735-1.76a2 2 0 0 0-1.664-.581l-3.696.445c-1.829.22-2.739-2.149-1.234-3.21a1.772 1.772 0 0 0 0-2.898c-1.505-1.061-.595-3.43 1.234-3.21l3.696.445a2 2 0 0 0 1.664-.581l1.735-1.76Z"/>
        <ellipse cx="284.218" cy="87" fill="#C8BE68" rx="5.196" ry="2.357"/>
        <path fill="#D88F8F" d="M365.076 100.445a2 2 0 0 1 2.848 0l1.735 1.76a2 2 0 0 0 1.664.581l3.41-.411c1.82-.219 2.697 2.162 1.171 3.176a1.74 1.74 0 0 0 0 2.898c1.526 1.014.649 3.395-1.171 3.176l-3.41-.411a2 2 0 0 0-1.664.581l-1.735 1.76a1.999 1.999 0 0 1-2.848 0l-1.735-1.76a2 2 0 0 0-1.664-.581l-3.696.445c-1.829.22-2.739-2.149-1.234-3.21a1.772 1.772 0 0 0 0-2.898c-1.505-1.061-.595-3.43 1.234-3.21l3.696.445a2 2 0 0 0 1.664-.581l1.735-1.76Z"/>
        <ellipse cx="366.218" cy="107" fill="#E9C8A9" rx="5.196" ry="2.357"/>
        <path fill="#D9D9D9" d="M347.188 117.235a1.522 1.522 0 0 1 2.624 0 1.53 1.53 0 0 0 1.622.72c1.447-.293 2.464 1.421 1.479 2.521a1.535 1.535 0 0 0 0 2.048c.985 1.1-.032 2.814-1.479 2.521a1.53 1.53 0 0 0-1.622.72 1.522 1.522 0 0 1-2.624 0 1.52 1.52 0 0 0-1.614-.721l-.142.028c-1.462.296-2.476-1.418-1.514-2.557a1.57 1.57 0 0 0 0-2.03c-.962-1.139.052-2.853 1.514-2.557l.142.028a1.52 1.52 0 0 0 1.614-.721Z"/>
        <ellipse cx="348.364" cy="121.5" fill="#C8BE68" rx="2.514" ry="1.915"/>
        <g clip-path="url(#a)">
            <path fill="#1E1E1E" d="M309.571 81.823c.566.095 1.158.154 1.772.171 0 0 1.6-3.79 1.428-6.312-.167-2.46-2.171-5.925-2.171-5.925a12.36 12.36 0 0 0-1.6.24s1.462 3.382 1.6 5.685c.146 2.428-1.029 6.141-1.029 6.141Z"/>
            <path fill="#1E1E1E" d="M314.829 75.682c.172 2.546-1.715 6.303-1.715 6.303.248-.007.463-.008.661-.01.522-.004.927-.008 1.511-.09 0 0 1.906-3.696 1.714-6.203-.196-2.562-2.743-5.974-2.743-5.974a11.12 11.12 0 0 0-1.126-.014c-.197.005-.438.012-.817.014 0 0 2.344 3.447 2.515 5.974Z"/>
            <path fill="#CBC271" fill-rule="evenodd" d="m317.284 81.279.059-.026s1.526-3.442 1.371-5.743c-.149-2.224-2-5.341-2-5.341-.983-.37-1.345-.403-2.457-.461 0 0 2.547 3.412 2.743 5.974.192 2.507-1.714 6.203-1.714 6.203.875-.123 1.275-.295 1.998-.606Zm-5.541-11.57.571-.001s2.344 3.447 2.515 5.974c.172 2.546-1.715 6.303-1.715 6.303a56.13 56.13 0 0 1-1.371.015c-.134 0-.268-.002-.4-.006 0 0 1.6-3.79 1.428-6.312-.167-2.46-2.171-5.925-2.171-5.925a13.76 13.76 0 0 1 1.143-.047Zm-2.172 12.114c-3.92-.658-6.571-3.08-6.571-5.968 0-2.745 2.396-5.07 6-5.859 0 0 1.462 3.383 1.6 5.686.146 2.428-1.029 6.141-1.029 6.141Z" clip-rule="evenodd"/>
            <path fill="#1E1E1E" d="M320.943 75.855c-.114-3.298-2.309-4.965-4.229-5.686 0 0 1.851 3.118 2 5.341.155 2.301-1.371 5.743-1.371 5.743 1.924-.827 3.702-2.447 3.6-5.398Z"/>
            <mask id="b" width="18" height="13" x="303" y="69" maskUnits="userSpaceOnUse" style="mask-type:luminance">
                <path fill="#000" d="M309.571 81.823c.566.095 1.158.154 1.772.171 0 0 1.6-3.79 1.428-6.312-.167-2.46-2.171-5.925-2.171-5.925a12.36 12.36 0 0 0-1.6.24s1.462 3.382 1.6 5.685c.146 2.428-1.029 6.141-1.029 6.141Z"/>
                <path fill="#000" d="M314.829 75.682c.172 2.546-1.715 6.303-1.715 6.303.248-.007.463-.008.661-.01.522-.004.927-.008 1.511-.09 0 0 1.906-3.696 1.714-6.203-.196-2.562-2.743-5.974-2.743-5.974a11.12 11.12 0 0 0-1.126-.014c-.197.005-.438.012-.817.014 0 0 2.344 3.447 2.515 5.974Z"/>
                <path fill="#000" fill-rule="evenodd" d="m317.284 81.279.059-.026s1.526-3.442 1.371-5.743c-.149-2.224-2-5.341-2-5.341-.983-.37-1.345-.403-2.457-.461 0 0 2.547 3.412 2.743 5.974.192 2.507-1.714 6.203-1.714 6.203.875-.123 1.275-.295 1.998-.606Zm-5.541-11.57.571-.001s2.344 3.447 2.515 5.974c.172 2.546-1.715 6.303-1.715 6.303a56.13 56.13 0 0 1-1.371.015c-.134 0-.268-.002-.4-.006 0 0 1.6-3.79 1.428-6.312-.167-2.46-2.171-5.925-2.171-5.925a13.76 13.76 0 0 1 1.143-.047Zm-2.172 12.114c-3.92-.658-6.571-3.08-6.571-5.968 0-2.745 2.396-5.07 6-5.859 0 0 1.462 3.383 1.6 5.686.146 2.428-1.029 6.141-1.029 6.141Z" clip-rule="evenodd"/>
                <path fill="#000" d="M320.943 75.855c-.114-3.298-2.309-4.965-4.229-5.686 0 0 1.851 3.118 2 5.341.155 2.301-1.371 5.743-1.371 5.743 1.924-.827 3.702-2.447 3.6-5.398Z"/>
            </mask>
            <g mask="url(#b)">
                <path fill="#000" d="m317.343 81.253.067.159.062-.027.027-.061-.156-.07Zm-11.19-3.05a.171.171 0 0 0 .212-.118.173.173 0 0 0-.118-.213l-.094.33Zm6.961 3.782.153.077h.001l.001-.003.004-.008.016-.033.061-.125c.051-.11.125-.267.213-.465.175-.395.407-.948.634-1.581.452-1.261.891-2.865.803-4.176l-.343.023c.084 1.235-.333 2.782-.782 4.036a23.188 23.188 0 0 1-.835 2.014l-.058.122-.016.031-.004.008-.001.002.153.078ZM315 75.67c-.088-1.302-.732-2.822-1.34-4.003a23.134 23.134 0 0 0-1.101-1.901c-.033-.05-.058-.09-.076-.115l-.02-.03-.005-.008-.002-.002v-.001l-.142.097-.141.097.001.002.005.007.019.029.074.112a22.587 22.587 0 0 1 1.083 1.871c.606 1.175 1.22 2.642 1.302 3.868l.343-.023Zm-3.657 6.323.158.067.001-.003.004-.008.013-.033.051-.126a26.265 26.265 0 0 0 .716-2.057c.379-1.266.745-2.87.656-4.163l-.342.023c.084 1.228-.265 2.78-.643 4.04a25.762 25.762 0 0 1-.705 2.028 4.192 4.192 0 0 1-.05.123l-.013.032a.035.035 0 0 1-.003.007l-.001.002.158.068Zm1.599-6.323c-.085-1.263-.639-2.768-1.163-3.944a24.963 24.963 0 0 0-.943-1.9l-.064-.116a1.908 1.908 0 0 1-.018-.03l-.004-.008-.001-.002h-.001l-.148.086-.148.087.001.002.004.007.017.029.063.112c.054.1.133.243.227.423.189.361.443.868.702 1.45.521 1.171 1.053 2.63 1.134 3.827l.342-.023Zm-3.371 6.152.164.053v-.001l.001-.002.002-.009.01-.032.038-.123.132-.457c.108-.388.251-.932.39-1.551.276-1.234.538-2.79.463-4.029l-.342.02c.071 1.189-.181 2.704-.456 3.933a31.033 31.033 0 0 1-.516 1.984l-.036.121-.01.031-.002.008-.001.002.163.052Zm1.2-6.151c-.071-1.176-.477-2.616-.861-3.752a30.243 30.243 0 0 0-.748-1.982l-.004-.008v-.002h-.001l-.157.068-.157.069.001.002.003.007a.242.242 0 0 0 .012.029l.046.11a29.41 29.41 0 0 1 .681 1.819c.382 1.13.775 2.533.843 3.66l.342-.02Zm3.486-5.964-.137.103.002.002.005.007a.373.373 0 0 0 .021.029l.08.11a21.997 21.997 0 0 1 1.178 1.86c.659 1.17 1.328 2.636 1.423 3.877l.342-.027c-.101-1.321-.804-2.843-1.467-4.02a21.968 21.968 0 0 0-1.28-2.004l-.022-.03a.033.033 0 0 0-.006-.008l-.001-.002h-.001l-.137.103Zm2.572 5.988c.093 1.213-.324 2.734-.775 3.968a22.389 22.389 0 0 1-.841 1.981 4.43 4.43 0 0 1-.074.151l-.004.008-.001.001h-.001l.153.08.152.08v-.001l.002-.003.004-.008.016-.032.061-.124a22.612 22.612 0 0 0 .855-2.014c.453-1.24.894-2.821.795-4.114l-.342.027Zm-.115-5.527-.147.088.001.002.004.007a.479.479 0 0 0 .015.025l.058.102a22.18 22.18 0 0 1 .857 1.685c.48 1.054.969 2.365 1.041 3.444l.342-.023c-.077-1.145-.588-2.505-1.071-3.565a22.45 22.45 0 0 0-.871-1.712l-.06-.104-.016-.028-.004-.007-.001-.002-.148.088Zm1.829 5.353c.075 1.116-.259 2.526-.62 3.67a21.833 21.833 0 0 1-.72 1.954l-.013.028a.031.031 0 0 1-.003.007v.002h-.001l.157.07.156.07h.001l.001-.002.003-.008.013-.03.049-.115a22.893 22.893 0 0 0 .684-1.871c.363-1.151.715-2.614.635-3.798l-.342.023Zm-1.192 5.915.059-.025-.135-.317-.059.025.135.317Zm-11.104-3.566-2.8-.803-.094.33 2.8.805.094-.332Zm3.381 3.613c-3.839-.645-6.285-2.983-6.285-5.63h-.686c0 3.13 2.856 5.637 6.858 6.31l.113-.68Zm-6.285-5.63c0-2.516 2.208-4.75 5.73-5.52l-.146-.674c-3.687.806-6.27 3.22-6.27 6.195h.686Zm8.4 5.801c-.131 0-.261-.001-.39-.005l-.02.689c.136.004.272.006.41.006v-.69Zm-.39-.005a12.626 12.626 0 0 1-1.725-.166l-.113.68a13.37 13.37 0 0 0 1.818.175l.02-.69Zm-2.28-11.317a12.017 12.017 0 0 1 1.556-.233l-.058-.686c-.569.048-1.119.13-1.644.246l.146.673Zm1.556-.233c.362-.03.734-.046 1.114-.046v-.69c-.399 0-.79.017-1.172.05l.058.686Zm2.477 11.54c-.445.011-.9.015-1.363.015v.69c.466 0 .927-.004 1.38-.016l-.017-.689Zm-1.363-11.586c.193 0 .384 0 .573-.002l-.003-.689-.57.002v.69Zm2.496-.002c.559.03.907.051 1.236.11.323.056.638.149 1.119.33l.24-.646c-.501-.188-.859-.297-1.241-.364-.376-.066-.765-.09-1.318-.118l-.036.688Zm2.355.44c1.843.692 3.899 2.266 4.006 5.375l.685-.024c-.12-3.486-2.454-5.247-4.451-5.997l-.24.646Zm4.006 5.375c.049 1.398-.347 2.461-.969 3.273-.627.818-1.498 1.399-2.423 1.797l.27.633c.999-.43 1.978-1.072 2.696-2.01.723-.942 1.165-2.164 1.111-3.717l-.685.024Zm-6.325-6.503c-.583-.03-.805-.025-1.153-.015l.019.69c.336-.01.538-.016 1.098.013l.036-.688Zm-1.153-.015c-.197.006-.435.013-.809.014l.003.69c.382-.002.627-.01.825-.015l-.019-.689Zm.001 12.98c.244-.006.457-.008.655-.01l-.006-.689c-.198.002-.415.004-.666.01l.017.69Zm.655-.01c.523-.004.948-.007 1.555-.093l-.095-.682c-.559.078-.945.082-1.466.086l.006.69Zm1.555-.093c.921-.13 1.355-.316 2.086-.63l-.27-.634c-.715.308-1.082.465-1.911.582l.095.682Zm1.875-1.29-.059.026.27.634.059-.026-.27-.633Z"/>
            </g>
            <path fill="#000" d="M306.086 74.304a.459.459 0 0 0 0-.919.458.458 0 0 0-.457.46c0 .253.204.46.457.46Z"/>
            <path fill="#3F3E3E" d="m322.798 76.431-2.043.793-.01-1.558 2.053.765Z"/>
            <path fill="#B6B6B6" d="M320.143 66.78c.59-4.854-10.114 3.044-10.114 3.044s.323.076 1.657 0c1.428-.081 3.657.23 3.657.23s4.472-.575 4.8-3.274Z"/>
            <path fill="#D9D9D9" d="M322.794 68.221c.218-4.886-11.517 4.52-11.517 4.52s1.994-.654 3.317-.832c1.418-.192 3.664-.053 3.664-.053s4.415-.919 4.536-3.635Z"/>
        </g>
        <g clip-path="url(#c)">
            <path fill="#1E1E1E" d="M118.939 18.155c.499.282 1.035.539 1.607.765 0 0 2.796-3.017 3.495-5.446.681-2.37-.021-6.311-.021-6.311a12.343 12.343 0 0 0-1.586-.32s.221 3.678-.434 5.89c-.691 2.332-3.061 5.422-3.061 5.422Z"/>
            <path fill="#1E1E1E" d="M125.975 14.175c-.706 2.452-3.761 5.34-3.761 5.34.235.079.438.15.624.216.493.174.875.31 1.451.431 0 0 3.052-2.825 3.727-5.246.69-2.476-.541-6.552-.541-6.552-.527-.223-.729-.29-1.053-.397a30.212 30.212 0 0 1-.773-.266s1.027 4.04.326 6.474Z"/>
            <path fill="#CBC271" fill-rule="evenodd" d="m126.374 20.273.065-.003s2.608-2.716 3.247-4.932c.618-2.141-.058-5.703-.058-5.703-.799-.682-1.128-.838-2.153-1.271 0 0 1.231 4.076.541 6.552-.675 2.421-3.727 5.246-3.727 5.246.865.183 1.3.157 2.085.111Zm-1.263-12.765c.181.066.36.13.538.193 0 0 1.027 4.04.326 6.474-.706 2.452-3.761 5.34-3.761 5.34a52.708 52.708 0 0 1-1.294-.453 12.914 12.914 0 0 1-.374-.142s2.796-3.017 3.495-5.446c.681-2.37-.021-6.311-.021-6.311.361.097.725.212 1.091.345Zm-6.172 10.647c-3.461-1.956-5.127-5.137-4.143-7.852.937-2.58 3.981-3.948 7.638-3.46 0 0 .221 3.678-.434 5.89-.691 2.332-3.061 5.422-3.061 5.422Z" clip-rule="evenodd"/>
            <path fill="#1E1E1E" d="M131.664 16.422c1.017-3.139-.478-5.455-2.036-6.787 0 0 .676 3.562.058 5.703-.639 2.216-3.247 4.932-3.247 4.932 2.091-.122 4.314-1.038 5.225-3.848Z"/>
            <mask id="d" width="18" height="15" x="114" y="6" maskUnits="userSpaceOnUse" style="mask-type:luminance">
                <path fill="#000" d="M118.939 18.155c.499.282 1.035.539 1.607.765 0 0 2.796-3.017 3.495-5.446.681-2.37-.021-6.311-.021-6.311a12.343 12.343 0 0 0-1.586-.32s.221 3.678-.434 5.89c-.691 2.332-3.061 5.422-3.061 5.422Z"/>
                <path fill="#000" d="M125.975 14.175c-.706 2.452-3.761 5.34-3.761 5.34.235.079.438.15.624.216.493.174.875.31 1.451.431 0 0 3.052-2.825 3.727-5.246.69-2.476-.541-6.552-.541-6.552-.527-.223-.729-.29-1.053-.397a30.212 30.212 0 0 1-.773-.266s1.027 4.04.326 6.474Z"/>
                <path fill="#000" fill-rule="evenodd" d="m126.374 20.273.065-.003s2.608-2.716 3.247-4.932c.618-2.141-.058-5.703-.058-5.703-.799-.682-1.128-.838-2.153-1.271 0 0 1.231 4.076.541 6.552-.675 2.421-3.727 5.246-3.727 5.246.865.183 1.3.157 2.085.111Zm-1.263-12.765c.181.066.36.13.538.193 0 0 1.027 4.04.326 6.474-.706 2.452-3.761 5.34-3.761 5.34a52.708 52.708 0 0 1-1.294-.453 12.914 12.914 0 0 1-.374-.142s2.796-3.017 3.495-5.446c.681-2.37-.021-6.311-.021-6.311.361.097.725.212 1.091.345Zm-6.172 10.647c-3.461-1.956-5.127-5.137-4.143-7.852.937-2.58 3.981-3.948 7.638-3.46 0 0 .221 3.678-.434 5.89-.691 2.332-3.061 5.422-3.061 5.422Z" clip-rule="evenodd"/>
                <path fill="#000" d="M131.664 16.422c1.017-3.139-.478-5.455-2.036-6.787 0 0 .676 3.562.058 5.703-.639 2.216-3.247 4.932-3.247 4.932 2.091-.122 4.314-1.038 5.225-3.848Z"/>
            </mask>
            <g mask="url(#d)">
                <path fill="#000" d="m126.439 20.27.009.172.067-.004.047-.049-.123-.12Zm-9.479-6.684a.17.17 0 0 0 .239-.039.172.172 0 0 0-.038-.24l-.201.279Zm5.254 5.93.118.124.002-.002.007-.007.026-.025.1-.097a23.415 23.415 0 0 0 1.494-1.634c.854-1.032 1.815-2.39 2.179-3.652l-.33-.095c-.343 1.19-1.262 2.5-2.112 3.527a23.088 23.088 0 0 1-1.471 1.609l-.097.094-.025.024a.048.048 0 0 0-.006.006l-.002.002.117.125Zm3.926-5.293c.361-1.254.274-2.903.105-4.22a23.548 23.548 0 0 0-.387-2.163l-.031-.134a3.894 3.894 0 0 1-.009-.035l-.002-.01-.001-.002-.166.042-.167.043v.001l.001.002.002.008a.52.52 0 0 1 .008.034l.031.13a22.201 22.201 0 0 1 .38 2.129c.169 1.31.246 2.899-.094 4.08l.33.095Zm-5.594 4.697.125.117h.001l.001-.002.007-.007a.51.51 0 0 1 .024-.026l.091-.102a25.695 25.695 0 0 0 1.374-1.69c.788-1.06 1.678-2.442 2.037-3.69l-.33-.094c-.34 1.183-1.197 2.524-1.982 3.58a25.375 25.375 0 0 1-1.354 1.665l-.089.099-.023.025a.045.045 0 0 0-.006.006l-.001.002h-.001l.126.117Zm3.66-5.4c.349-1.215.342-2.819.251-4.103a24.974 24.974 0 0 0-.266-2.273l-.001-.009-.001-.002-.169.03-.169.03v.001l.001.002.001.008.006.033.021.128a25.252 25.252 0 0 1 .235 2.078c.09 1.278.093 2.83-.239 3.983l.33.095Zm-5.267 4.635.135.105h.001l.001-.002.006-.007.02-.027.077-.103a30.892 30.892 0 0 0 1.175-1.71c.681-1.066 1.457-2.439 1.81-3.63l-.329-.096c-.338 1.14-1.092 2.48-1.769 3.541a31.73 31.73 0 0 1-1.162 1.69l-.075.1-.02.026-.005.006-.001.002.136.105Zm3.225-5.373c.335-1.13.443-2.622.47-3.82a29.56 29.56 0 0 0-.026-2.087l-.002-.032v-.011l-.171.01-.172.011v.003l.001.007.002.03.005.12a28.892 28.892 0 0 1 .02 1.942c-.026 1.193-.135 2.647-.456 3.73l.329.097Zm5.311-4.418-.164.05.001.003.002.008.01.034.037.132a21.897 21.897 0 0 1 .474 2.15c.221 1.325.35 2.93.016 4.129l.33.091c.356-1.276.214-2.947-.008-4.278a22.156 22.156 0 0 0-.481-2.186l-.039-.135-.01-.036a.052.052 0 0 0-.003-.01l-.001-.002-.164.05Zm.376 6.506c-.327 1.172-1.237 2.46-2.082 3.466a22.017 22.017 0 0 1-1.466 1.576l-.097.093-.025.023a.027.027 0 0 1-.006.006l-.001.001h-.001l.116.127.116.126h.001l.002-.002.007-.006a.888.888 0 0 0 .026-.025l.1-.095a22.533 22.533 0 0 0 1.49-1.602c.849-1.012 1.802-2.348 2.15-3.597l-.33-.091Zm1.777-5.235-.169.033.001.002.001.007.005.03.02.115a20.946 20.946 0 0 1 .232 1.876c.091 1.155.103 2.554-.196 3.593l.329.095c.318-1.103.301-2.555.209-3.716a23.217 23.217 0 0 0-.262-2.057l-.001-.008-.001-.002-.168.032Zm-.106 5.656c-.311 1.075-1.105 2.286-1.835 3.24a22.831 22.831 0 0 1-1.261 1.5l-.082.09-.022.022-.005.006h-.001l-.001.001.124.12.123.119.002-.002a.036.036 0 0 1 .006-.006l.022-.024.086-.091a23.114 23.114 0 0 0 1.281-1.526c.734-.959 1.563-2.213 1.892-3.354l-.329-.095Zm-3.138 5.154.064-.003-.019-.344a6.861 6.861 0 0 1-.064.003l.019.344Zm-9.223-7.138-2.358-1.71-.201.278 2.358 1.711.201-.28Zm1.947 4.548c-3.39-1.915-4.892-4.947-3.989-7.434l-.645-.234c-1.067 2.941.763 6.272 4.296 8.269l.338-.601Zm-3.989-7.434c.858-2.366 3.695-3.714 7.269-3.237l.093-.683c-3.741-.499-6.993.89-8.007 3.686l.645.234Zm5.918 8.317c-.123-.045-.245-.09-.365-.139l-.253.642c.126.05.254.098.383.145l.235-.648Zm-.365-.139c-.557-.22-1.079-.47-1.564-.744l-.338.6c.513.29 1.063.554 1.649.786l.253-.642Zm1.716-11.415c.503.067 1.018.17 1.542.312l.18-.666a12.683 12.683 0 0 0-1.629-.329l-.093.683Zm1.542.312c.351.094.706.206 1.063.336l.235-.648a13.875 13.875 0 0 0-1.118-.354l-.18.666Zm-1.607 11.692a54.438 54.438 0 0 1-1.286-.45l-.235.648c.438.159.873.312 1.303.456l.218-.654Zm2.67-11.356.54.194.231-.65-.536-.192-.235.648Zm2.348.85c.515.217.835.357 1.124.523.285.164.549.359.94.693l.445-.525c-.407-.348-.707-.573-1.042-.766-.332-.19-.689-.345-1.199-.56l-.268.634Zm2.064 1.216c1.496 1.279 2.892 3.46 1.933 6.419l.652.21c1.075-3.318-.518-5.769-2.14-7.154l-.445.525Zm1.933 6.419c-.432 1.33-1.166 2.195-2.028 2.747-.868.554-1.885.803-2.89.862l.037.687c1.086-.063 2.226-.333 3.221-.969 1-.64 1.833-1.637 2.312-3.116l-.652-.211Zm-3.729-8.27a11.629 11.629 0 0 0-1.079-.407l-.217.654c.319.105.512.169 1.028.387l.268-.635Zm-1.079-.407a30.986 30.986 0 0 1-.766-.263l-.231.649c.36.129.592.205.78.268l.217-.654Zm-4.425 12.202c.232.078.432.148.618.214l.23-.65a34.52 34.52 0 0 0-.63-.218l-.218.654Zm.618.214c.494.174.894.316 1.495.443l.143-.674c-.553-.117-.916-.245-1.408-.419l-.23.65Zm1.495.443c.91.192 1.381.165 2.175.118l-.037-.687c-.777.045-1.176.068-1.995-.105l-.143.674Zm2.202-.573-.064.004.037.687.064-.004-.037-.687Z"/>
            </g>
            <path fill="#000" d="M118.226 9.898c.237.086.5-.037.586-.276a.457.457 0 1 0-.859-.312.458.458 0 0 0 .273.588Z"/>
            <path fill="#3F3E3E" d="m133.212 17.597-2.191.048.521-1.468 1.67 1.42Z"/>
            <path fill="#B6B6B6" d="M134.006 7.619c2.21-4.363-10.546-.588-10.546-.588s.279.182 1.558.565c1.371.411 3.36 1.464 3.36 1.464s4.4.984 5.628-1.441Z"/>
            <path fill="#D9D9D9" d="M136.007 9.878c1.871-4.52-12.368.32-12.368.32s2.097.066 3.402.35c1.399.303 3.463 1.2 3.463 1.2s4.463.641 5.503-1.87Z"/>
        </g>
        <g clip-path="url(#e)">
            <path fill="#1E1E1E" d="M145.799 119.32a12.895 12.895 0 0 0 1.565-.846s-.786-4.038-2.336-6.035c-1.512-1.949-5.108-3.706-5.108-3.706-.435.349-.833.714-1.194 1.091 0 0 3.1 1.992 4.5 3.826 1.475 1.933 2.573 5.67 2.573 5.67Z"/>
            <path fill="#1E1E1E" d="M146.735 111.291c1.563 2.016 2.094 6.187 2.094 6.187.202-.144.379-.265.542-.377.432-.295.766-.524 1.204-.918 0 0-.48-4.13-2.038-6.104-1.592-2.017-5.609-3.427-5.609-3.427-.491.294-.664.417-.943.616-.16.115-.357.255-.67.468 0 0 3.868 1.553 5.42 3.555Z"/>
            <path fill="#CBC271" fill-rule="evenodd" d="m151.895 114.565.035-.054s-.654-3.708-2.066-5.531c-1.365-1.762-4.64-3.317-4.64-3.317-1.022.242-1.342.417-2.296.989 0 0 4.017 1.41 5.609 3.427 1.558 1.974 2.038 6.104 2.038 6.104.658-.59.894-.956 1.32-1.618Zm-11.053-6.509.473-.32s3.868 1.553 5.42 3.555c1.563 2.016 2.094 6.187 2.094 6.187-.366.259-.744.518-1.13.777-.111.075-.223.148-.335.219 0 0-.786-4.038-2.336-6.035-1.512-1.949-5.108-3.706-5.108-3.706.291-.234.598-.46.922-.677Zm4.957 11.264c-3.621 1.641-7.173 1.11-8.784-1.286-1.532-2.279-.841-5.544 1.711-8.21 0 0 3.1 1.992 4.5 3.826 1.475 1.933 2.573 5.67 2.573 5.67Z" clip-rule="evenodd"/>
            <path fill="#1E1E1E" d="M151.905 108.023c-1.934-2.673-4.686-2.833-6.681-2.36 0 0 3.275 1.555 4.64 3.317 1.412 1.823 2.066 5.531 2.066 5.531 1.135-1.76 1.707-4.096-.025-6.488Z"/>
            <mask id="f" width="18" height="16" x="136" y="105" maskUnits="userSpaceOnUse" style="mask-type:luminance">
                <path fill="#000" d="M145.799 119.32a12.895 12.895 0 0 0 1.565-.846s-.786-4.038-2.336-6.035c-1.512-1.949-5.108-3.706-5.108-3.706-.435.349-.833.714-1.194 1.091 0 0 3.1 1.992 4.5 3.826 1.475 1.933 2.573 5.67 2.573 5.67Z"/>
                <path fill="#000" d="M146.735 111.291c1.563 2.016 2.094 6.187 2.094 6.187.202-.144.379-.265.542-.377.432-.295.766-.524 1.204-.918 0 0-.48-4.13-2.038-6.104-1.592-2.017-5.609-3.427-5.609-3.427-.491.294-.664.417-.943.616-.16.115-.357.255-.67.468 0 0 3.868 1.553 5.42 3.555Z"/>
                <path fill="#000" fill-rule="evenodd" d="m151.895 114.565.035-.054s-.654-3.708-2.066-5.531c-1.365-1.762-4.64-3.317-4.64-3.317-1.022.242-1.342.417-2.296.989 0 0 4.017 1.41 5.609 3.427 1.558 1.974 2.038 6.104 2.038 6.104.658-.59.894-.956 1.32-1.618Zm-11.053-6.509.473-.32s3.868 1.553 5.42 3.555c1.563 2.016 2.094 6.187 2.094 6.187-.366.259-.744.518-1.13.777-.111.075-.223.148-.335.219 0 0-.786-4.038-2.336-6.035-1.512-1.949-5.108-3.706-5.108-3.706.291-.234.598-.46.922-.677Zm4.957 11.264c-3.621 1.641-7.173 1.11-8.784-1.286-1.532-2.279-.841-5.544 1.711-8.21 0 0 3.1 1.992 4.5 3.826 1.475 1.933 2.573 5.67 2.573 5.67Z" clip-rule="evenodd"/>
                <path fill="#000" d="M151.905 108.023c-1.934-2.673-4.686-2.833-6.681-2.36 0 0 3.275 1.555 4.64 3.317 1.412 1.823 2.066 5.531 2.066 5.531 1.135-1.76 1.707-4.096-.025-6.488Z"/>
            </mask>
            <g mask="url(#f)">
                <path fill="#000" d="m151.93 114.511.144.094.037-.056-.012-.067-.169.029Zm-10.988 3.712a.17.17 0 0 0 .109-.216.17.17 0 0 0-.216-.111l.107.327Zm7.887-.745.17-.021v-.004l-.002-.009-.004-.036-.02-.138a22.318 22.318 0 0 0-.438-2.171c-.329-1.298-.86-2.875-1.664-3.913l-.271.21c.758.978 1.275 2.495 1.602 3.786a22.267 22.267 0 0 1 .431 2.137l.019.134.005.034a.034.034 0 0 1 .001.009v.003c0-.001 0 0 0 0l.171-.021Zm-1.958-6.292c-.8-1.031-2.182-1.934-3.346-2.574a22.91 22.91 0 0 0-1.974-.964l-.127-.053-.034-.014-.008-.004-.003-.001-.064.16-.063.159.002.001.008.003.032.013.124.052a22.924 22.924 0 0 1 1.943.949c1.158.637 2.486 1.512 3.239 2.483l.271-.21Zm.493 7.288.168-.032v-.004l-.002-.009-.007-.035-.028-.133a25.836 25.836 0 0 0-.554-2.106c-.391-1.262-.983-2.797-1.778-3.821l-.27.21c.754.972 1.331 2.455 1.72 3.712a25.078 25.078 0 0 1 .546 2.076l.028.13a.51.51 0 0 1 .006.033l.002.008v.003c.001 0 .001 0 0 0l.169-.032Zm-2.201-6.14c-.775-1-2.075-1.94-3.165-2.625a25.93 25.93 0 0 0-1.843-1.05l-.118-.06-.031-.015-.008-.004-.003-.001v-.001l-.075.155-.075.154.001.001h.002a.409.409 0 0 1 .037.019l.115.058c.1.052.245.127.424.224.359.194.852.473 1.392.812 1.086.681 2.341 1.594 3.077 2.543l.27-.21Zm.636 6.986.164-.048-.001-.002-.002-.009-.01-.032a31.184 31.184 0 0 0-.725-2.081c-.459-1.178-1.11-2.615-1.863-3.602l-.272.208c.722.946 1.358 2.345 1.816 3.518a30.256 30.256 0 0 1 .679 1.934l.037.121.009.031.002.008.001.002.165-.048Zm-2.437-5.774c-.715-.936-1.855-1.904-2.807-2.633a31.376 31.376 0 0 0-1.226-.891c-.157-.108-.285-.193-.373-.252a28.155 28.155 0 0 0-.129-.084l-.007-.005-.001-.001h-.001l-.092.144-.093.145s.001 0 0 0h.001l.001.001.007.004.026.017.099.066a29.365 29.365 0 0 1 1.58 1.129c.948.725 2.057 1.67 2.743 2.568l.272-.208Zm-.434-6.894-.057.162h.001l.002.001.008.003a21.58 21.58 0 0 1 2.177.945c1.2.603 2.573 1.446 3.344 2.423l.269-.213c-.821-1.04-2.254-1.911-3.46-2.518a22.64 22.64 0 0 0-2.049-.9l-.132-.049a1.18 1.18 0 0 1-.035-.012l-.009-.004h-.002l-.001-.001-.056.163Zm5.475 3.534c.754.955 1.257 2.45 1.571 3.726.156.634.264 1.208.333 1.623.034.207.058.374.075.49l.017.132.004.035.001.008a.003.003 0 0 1 .001.002v.001l.17-.02.171-.019v-.001l-.001-.002-.001-.01-.004-.035a13.873 13.873 0 0 0-.095-.636 22.032 22.032 0 0 0-.338-1.649c-.316-1.283-.832-2.84-1.635-3.858l-.269.213Zm-3.179-4.523-.073.156.002.001.007.003.027.013.104.051a22.727 22.727 0 0 1 1.652.92c.986.608 2.123 1.423 2.785 2.278l.271-.21c-.702-.907-1.885-1.75-2.878-2.361a21.908 21.908 0 0 0-1.786-.988l-.028-.013-.007-.004-.002-.001h-.001l-.073.155Zm4.504 3.422c.685.885 1.195 2.241 1.534 3.392a23.113 23.113 0 0 1 .469 1.904l.023.119.005.031a.023.023 0 0 1 .001.007.003.003 0 0 1 .001.002l.169-.029.169-.029v-.001l-.001-.002-.001-.008a.402.402 0 0 0-.006-.032l-.023-.123a23.182 23.182 0 0 0-.477-1.935c-.341-1.157-.865-2.567-1.592-3.506l-.271.21Zm2.311 5.574.035-.054-.288-.187-.035.054.288.187Zm-11.204 3.237-2.772.894.106.328 2.773-.895-.107-.327Zm4.821 1.111c-3.546 1.607-6.88 1.031-8.357-1.165l-.569.383c1.746 2.597 5.516 3.084 9.211 1.409l-.285-.627Zm-8.357-1.165c-1.404-2.088-.818-5.174 1.675-7.779l-.497-.478c-2.609 2.727-3.406 6.172-1.747 8.64l.569-.383Zm10.208.127c-.109.074-.218.145-.327.213l.368.583c.115-.072.229-.147.343-.224l-.384-.572Zm-.327.213c-.507.32-1.017.595-1.524.825l.285.627a13.228 13.228 0 0 0 1.607-.869l-.368-.583Zm-8.206-8.119c.351-.366.738-.722 1.161-1.061l-.43-.538c-.446.358-.856.733-1.228 1.121l.497.478Zm1.161-1.061c.284-.228.584-.448.899-.66l-.384-.572c-.332.222-.647.454-.945.694l.43.538Zm8.494 8.195a55.8 55.8 0 0 1-1.122.772l.384.572c.387-.26.768-.52 1.137-.782l-.399-.562Zm-7.595-8.855.475-.321-.387-.57-.472.319.384.572Zm2.071-1.395c.48-.288.781-.463 1.086-.599.3-.133.613-.231 1.113-.35l-.161-.67c-.521.124-.879.234-1.233.391-.349.155-.685.353-1.16.637l.355.591Zm2.199-.949c1.916-.454 4.5-.294 6.324 2.226l.555-.403c-2.045-2.825-4.964-2.984-7.04-2.493l.161.67Zm6.324 2.226c.82 1.133 1.085 2.236 1.022 3.257-.064 1.028-.463 1.996-1.009 2.843l.578.375c.589-.914 1.043-1.994 1.116-3.172.074-1.185-.24-2.446-1.152-3.706l-.555.403Zm-8.878-1.868c-.501.3-.681.429-.965.631l.401.561c.273-.195.438-.313.919-.601l-.355-.591Zm-.965.631c-.16.115-.354.253-.663.464l.387.57c.316-.215.515-.357.677-.473l-.401-.561Zm7.243 10.772c.2-.142.375-.262.538-.374l-.389-.568c-.163.111-.343.234-.548.38l.399.562Zm.538-.374c.432-.296.783-.535 1.239-.945l-.46-.513c-.42.377-.738.595-1.168.89l.389.568Zm1.239-.945c.692-.621.948-1.018 1.379-1.687l-.578-.375c-.421.654-.637.989-1.261 1.549l.46.513Zm.836-2.116-.035.054.578.375.035-.054-.578-.375Z"/>
            </g>
            <path fill="#000" d="M138.711 115.025a.459.459 0 0 0-.513-.763.459.459 0 0 0 .513.763Z"/>
            <path fill="#3F3E3E" d="m153.767 107.466-1.254 1.797-.877-1.287 2.131-.51Z"/>
            <path fill="#B6B6B6" d="M146.179 100.938c-2.219-4.358-6.696 8.169-6.696 8.169s.312-.117 1.376-.924c1.14-.865 3.163-1.85 3.163-1.85s3.39-2.972 2.157-5.395Z"/>
            <path fill="#D9D9D9" d="M149.183 100.655c-2.546-4.176-7.037 10.177-7.037 10.177s1.29-1.656 2.289-2.542c1.07-.95 3.011-2.088 3.011-2.088s3.152-3.226 1.737-5.547Z"/>
        </g>
        <defs>
            <clipPath id="a">
                <path fill="#fff" d="M303 65h20v17h-20z"/>
            </clipPath>
            <clipPath id="c">
                <path fill="#fff" d="m118.498.1 18.801 6.82-5.797 15.98-18.801-6.82z"/>
            </clipPath>
            <clipPath id="e">
                <path fill="#fff" d="m130.959 109.025 16.598-11.159 9.485 14.108-16.598 11.159z"/>
            </clipPath>
        </defs>
    </g>
</svg>
