<svg xmlns="http://www.w3.org/2000/svg" viewBox="0 0 512 512">
    <g data-name="Wind mill">
        <path fill="#7c7d7d" d="M416 369.067a26.027 26.027 0 0 1-26.347 25.6H256V288h-42.667v106.667h-90.986a24.853 24.853 0 0 1-22.187-38.187A419.413 419.413 0 0 0 161.6 224H192v-42.667h-21.333q.96-5.653 1.6-11.2A84.693 84.693 0 0 1 256 96v64h42.667v-52.48c46.08 27.2 37.546 63.147 51.733 116.48H320v32a10.667 10.667 0 0 0 10.667 10.667h33.493c26.453 69.76 51.093 85.333 51.84 102.4Z"/>
        <path fill="#919191" d="m412.16 383.147-1.6 2.133Zm1.6-3.2a22.4 22.4 0 0 1-1.6 3.2 22.4 22.4 0 0 0 1.6-3.2Zm-9.493 11.093a19.84 19.84 0 0 0 4.373-3.52 19.84 19.84 0 0 1-4.373 3.52Zm4.373-3.52a19.307 19.307 0 0 0 1.92-2.24 19.307 19.307 0 0 1-1.92 2.24ZM224 288a10.667 10.667 0 0 0-10.667 10.667h-10.666A10.667 10.667 0 0 0 192 309.333v64h-37.653a24.853 24.853 0 0 1-22.187-38.186 416 416 0 0 0 47.573-89.814h36.48C225.6 260.907 224 236.587 224 288Zm0-184.107c0 142.614 2.56 102.827-7.787 120.107H192c0-29.547 3.84-19.627 10.667-64 3.733-22.933 2.986-32 21.333-56.107ZM350.4 224c-125.44 0-87.787 2.56-105.067-7.787V96.747A70.72 70.72 0 0 1 256 96v64h42.667v-52.48c46.08 27.2 37.546 63.147 51.733 116.48ZM416 370.133c0 4.587 15.147 3.2-160 3.2V288h-10.667c0-51.093-1.493-27.093 7.787-42.667h45.547v21.334a10.667 10.667 0 0 0 10.666 10.666h58.987c27.093 64.96 47.68 75.414 47.68 92.8Zm0 3.2v.854-.854Zm0 .854a23.68 23.68 0 0 1-.96 3.946 23.68 23.68 0 0 0 .96-3.946Zm-1.493 3.946c0 .64 0 1.28-.747 1.814s.533-1.174.747-1.814Z"/>
        <path fill="#df8761" d="M394.667 394.667v106.666H117.333V394.667h96v32A10.667 10.667 0 0 0 224 437.333h32v-42.666Z"/>
        <path fill="#f29b75" d="M394.667 394.667v74.666H224a74.667 74.667 0 0 1-74.667-74.666H192v42.666A10.667 10.667 0 0 0 202.667 448h32a10.667 10.667 0 0 0 10.666-10.667H256v-42.666Z"/>
        <path fill="#fc6" d="M42.667 181.333H192V224H42.667z"/>
        <path fill="#ffde76" d="M192 181.333v32H74.667a32 32 0 0 1-32-32Z"/>
        <path fill="#fc6" d="M245.333 234.667h-192a10.667 10.667 0 0 1 0-21.334h192a10.667 10.667 0 0 1 0 21.334Zm10.667-224h42.667V160H256z"/>
        <path fill="#fc6" d="M245.333 202.667V21.333a10.667 10.667 0 0 1 21.334 0v181.334a10.667 10.667 0 0 1-21.334 0Zm224 21.333v32a10.667 10.667 0 0 1-10.666 10.667h-128A10.667 10.667 0 0 1 320 256v-32Z"/>
        <path fill="#fc6" d="M458.667 234.667H277.333a10.667 10.667 0 0 1 0-21.334h181.334a10.667 10.667 0 0 1 0 21.334ZM256 288v149.333h-32a10.667 10.667 0 0 1-10.667-10.666v-128A10.667 10.667 0 0 1 224 288Z"/>
        <path fill="#fc6" d="M266.667 245.333v181.334a10.667 10.667 0 0 1-21.334 0V245.333a10.667 10.667 0 0 1 21.334 0Z"/>
        <path fill="#ffde76" d="M266.667 245.333c0 179.414-1.067 170.667 0 170.667a32 32 0 0 1-32-32v-96h10.666v-42.667a10.667 10.667 0 0 1 21.334 0Zm10.666-32h181.334A10.667 10.667 0 0 1 469.333 224v21.333H320v-10.666h-42.667a10.667 10.667 0 0 1 0-21.334Z"/>
        <path fill="#374f68" d="M490.667 501.333H21.333a10.667 10.667 0 0 1 0-21.333h469.334a10.667 10.667 0 0 1 0 21.333Z"/>
        <path fill="#dad7e5" d="M277.333 224a21.333 21.333 0 1 1-30.08-19.413A21.333 21.333 0 0 1 277.333 224Z"/>
        <path fill="#edebf2" d="M275.413 232.747a21.333 21.333 0 0 1-28.16-28.16 21.333 21.333 0 0 1 28.16 28.16Z"/>
        <path fill="#ffde76" d="M298.667 10.667c0 157.226-1.067 149.333 0 149.333a32 32 0 0 1-32-32V10.667Z"/>
    </g>
</svg>
