<svg xmlns="http://www.w3.org/2000/svg" xmlns:vectornator="http://vectornator.io" xml:space="preserve" stroke-linecap="round" stroke-linejoin="round" stroke-miterlimit="10" clip-rule="evenodd" viewBox="0 0 512 512">
    <clipPath id="a">
        <path d="M0 0h512v512H0z"/>
    </clipPath>
    <ellipse cx="246.107" cy="237.108" fill="#849efa" opacity=".49" paint-order="markers fill stroke" rx="170.984" ry="172.94"/>
    <rect width="100.131" height="12.09" x="228.041" y="146.976" fill="#484537" paint-order="markers fill stroke" rx="11.438"/>
    <rect width="93.547" height="11.102" x="231.435" y="159.448" fill="#6c6753" paint-order="markers fill stroke" rx="11.438"/>
    <rect width="85.269" height="71.391" x="236.661" y="169.945" fill="#8a916f" fill-rule="evenodd" rx="11.438" ry="0"/>
    <path fill="#22241c" d="M269.56 174.271s16.632 10.75 19.186 19.506c3.45 11.82-13.87 25.493-7.674 36.133 5.683 9.759 32.296 10.232 32.296 10.232l-58.516 1.919 1.918-38.372 11.831-10.552-27.82-19.825z" opacity=".346" paint-order="markers fill stroke" style="mix-blend-mode:multiply"/>
    <path fill="#f60" d="m129.84 186.857-10.161-5.646-12.42-1.693-8.468.564-16.935 7.904-7.904 15.242-9.032 29.355 3.952 11.29 38.952 5.081 47.984-1.129-1.129-28.79-6.774-16.372-16.936-12.984z" paint-order="markers fill stroke"/>
    <path fill="#221912" d="m122.501 243.873-3.951-28.226 41.774.565.565 31.613z" paint-order="markers fill stroke"/>
    <path fill="#deaa87" d="M163.853 243.233V213.52l-5.942-5.094 25.469-44.996-.424-19.951 5.942-4.245 36.082 31.837 43.298 17.404 1.698 7.216-9.763 7.641-4.67 39.902z" paint-order="markers fill stroke"/>
    <path fill="#241f1c" fill-rule="evenodd" d="M453.894 191.567Z"/>
    <path fill="#3b4837" fill-rule="evenodd" d="m111.029 348.618 203.648-15.532 5.177-75.937-250.245 8.63z"/>
    <path fill="#241f1c" fill-rule="evenodd" d="m65.006 252.967 7.457 15.878 246.626-10.207 1.147-16.446z"/>
    <path fill="#221912" d="M187.19 144.44s10.654 8.97 12.954 15.222c6.822 18.54 8.46 41.414 0 59.266-1.971 4.16-10.687 8.744-10.687 8.744l19.107 12.63-2.267 3.887-44.692 1.295 1.62-31.09-7.126-9.068 24.614-40.159 3.238-2.914zm-61.953 47.033 12.245 23.934h15.029l-7.793-17.254zm2.783-4.453-13.915-7.236-13.359 3.34 8.35 6.68z" opacity=".346" paint-order="markers fill stroke"/>
    <ellipse cx="394.182" cy="105.433" fill="#ffdf2f" opacity=".597" paint-order="markers fill stroke" rx="66.914" ry="64.917" style="mix-blend-mode:normal"/>
    <ellipse cx="393.525" cy="105.338" fill="#ffae4c" opacity=".958" paint-order="markers fill stroke" rx="49.458" ry="47.982"/>
    <g vectornator:layerName="Layer 1" fill="none" stroke="#7d4d55" stroke-width="9.052" clip-path="url(#a)">
        <path vectornator:layerName="Curve 5" stroke="#2d1d08" d="M284.01 335.879c-31.58 5.511-4.58 86.004-44.087 87.918-21.085 1.022-7.733-67.094-26.091-81.288"/>
        <path vectornator:layerName="Curve 6" stroke="#2d1d08" d="M176.458 348.384c.908-12.505-.603 24.491-6.563 36.411"/>
        <path vectornator:layerName="Curve 7" d="m138.84 398.638-.35.226"/>
        <path vectornator:layerName="Curve 3" stroke="#2d1d08" d="M397.326 226.969c-18.682-7.634-27.885-11.632-41.57 11.372-5.958 10.015-40.598 38.25-78.321 67.306-50.56 38.943-106.659 79.362-106.659 79.362"/>
        <path vectornator:layerName="Oval 1" stroke="#47341c" d="M109.58 398.988c0-18.023 13.667-32.634 30.526-32.634s30.526 14.611 30.526 32.634c0 18.024-13.667 32.634-30.526 32.634s-30.526-14.61-30.526-32.634z"/>
        <path vectornator:layerName="Curve 8" stroke="#47341c" d="m138.487 398.26 4.72-31.039z"/>
        <path vectornator:layerName="Curve 9" stroke="#47341c" d="m167.354 395.568-27.284 2.846 15.099 23.518-14.893-23.785-10.725 28.337 10.566-27.715-25.447-7.015"/>
        <path vectornator:layerName="Oval 2" stroke="#1e1509" d="M132.71 398.636c0-3.801 3.165-6.882 7.069-6.882s7.068 3.081 7.068 6.882c0 3.8-3.164 6.881-7.068 6.881-3.904 0-7.069-3.081-7.069-6.881z"/>
        <path vectornator:layerName="Curve 11" stroke="#60371c" stroke-width="7.39" d="M104.688 188.15c-12.8-7.118-41.227 53.024-13.209 58.97 11.536 2.448 25.391-52.195 13.209-58.97z"/>
        <path vectornator:layerName="Curve 12" stroke="#60371c" stroke-width="7.09" d="M98.152 186.732c-13.993-21.532-57.944 62.061-17.873 57.529"/>
        <path vectornator:layerName="Curve 13" stroke="#60371c" stroke-width="6.49" d="M110.099 192.882c5.807-15.856 20.487 12.025 21.315 19.343"/>
        <path vectornator:layerName="Curve 14" stroke="#60371c" stroke-width="6.99" d="M123.125 191.801c-7.059-3.446 30.364-4.296 27.083 20.334"/>
        <path vectornator:layerName="Curve 10" stroke="#47341c" stroke-width="8.152" d="M122.056 245.902c-4.215-28.622-3.688-31.607-3.688-31.607l44.601.703-1.58 28.27"/>
        <path vectornator:layerName="Curve 15" stroke="#60371c" stroke-width="5.649" d="M96.006 183.945c-5.007-.806 9.648-3.484 14.7-3.917 12.821-1.098 18.84 5.662 27.486 11.876"/>
        <path vectornator:layerName="Curve 16" fill="#22241c" stroke="#1a0f00" stroke-width="6.552" d="M113.227 185.125c2.089 5.364 3.102-22.805 2.572-17.074"/>
        <path vectornator:layerName="Curve 17" d="m-186.718 606.111-8.805-2.528"/>
        <path vectornator:layerName="Curve 18" stroke="#47341c" stroke-width="4.524" d="M138.447 213.189c-5.13-14.24 4.786-39.157 6.657-53.966"/>
        <path vectornator:layerName="Curve 20" fill="#b3ff80" stroke="#1c472a" stroke-width="4.852" d="M144.535 160.372c-4.756 2.377-5.55-15.773-9.804-12.583-5.653 4.24.947 15.42 5.635 16.982"/>
        <path vectornator:layerName="Curve 21" fill="#9f5" stroke="#1c472a" stroke-width="3.352" d="M144.226 170.329c0-15.022 18.225-5.716-.772 3.783"/>
        <path vectornator:layerName="Curve 22" fill="#b3ff80" stroke="#1c472a" stroke-width="4.052" d="M145.445 158.006c4.307-21.92 15.048-11.415 3.593 1.639"/>
        <path vectornator:layerName="Curve 23" stroke="#47341c" stroke-linecap="square" d="M158.306 212.043c-4.604-12.03 17.988-41.583 25.962-50.288 3.638-3.972-7.169-19.198 3.45-20.256 7.93-.79 26.939 20.128 33.722 25.163 2.268 2.382 5.553 4.562 9.371 6.585 16.44 8.71 42.761 14.525 40.375 21.196-2.821 6.179-13.79-.042-13.235 18.458.515 17.198-3.864 31.538-5.218 29.122" paint-order="markers fill stroke"/>
        <path vectornator:layerName="Rectangle 1" fill="#22241c" stroke="#47341c" stroke-width="4.226" d="m179.627 210.675 44.691 21.759-5.845 12.005-44.691-21.759z"/>
        <path vectornator:layerName="Curve 24" fill="#d35f5f" stroke="#47341c" stroke-width="5.963" d="M210.346 186.844c-14.647-1.102-23.511 38.042 4.038 32.413 21.833-4.461 16.265-32.054-4.038-32.413z"/>
        <path vectornator:layerName="Curve 25" stroke="#47341c" d="M164.952 134.305c8.307 37.841 8.807 39.807 8.807 39.807"/>
        <path vectornator:layerName="Rectangle 3" stroke="#7f4f12" d="m148.019 115.446 25.763-4.018s-.017 11.297-.34 14.81c-.582 6.322-14.926 11.743-18.806 4.001-3.093-6.173-6.617-14.793-6.617-14.793z"/>
        <path vectornator:layerName="Curve 28" stroke="#47341c" d="m324.785 171.825-92.202.148-.757-2.477-6.904-22.575 103.118-.145-8.015 63.849-3.471 27.65"/>
        <path vectornator:layerName="Curve 1" stroke="#2a1d0c" d="M109.421 348.384 60.745 249.03l261.47-7.007-6.245 91.249-32.213 2.277z"/>
        <path vectornator:layerName="Curve 30" stroke="#47341c" stroke-width="5.952" d="M230.937 160.159c94.243-.974 94.656-.548 94.656-.548"/>
        <path vectornator:layerName="Rectangle 4" fill="#7a6c60" stroke="#47341c" stroke-width="6.752" d="M400.245 229.25c1.311-5.721 7.011-9.296 12.732-7.986l30.022 6.877c5.721 1.311 9.296 7.011 7.986 12.732v0a10.585 10.585 0 0 1-4.38 6.412 10.594 10.594 0 0 1-8.351 1.574l-30.023-6.877c-5.721-1.311-9.296-7.011-7.986-12.732z"/>
    </g>
    <path fill="#221912" d="M258.823 247.134s3.965 33.38-2.783 47.868c-9.808 21.06-50.652 47.869-50.652 47.869l109.652-8.35 6.68-92.396z" opacity=".346" paint-order="markers fill stroke"/>
    <ellipse cx="377.901" cy="88.503" fill="#241000" paint-order="markers fill stroke" rx="5.075" ry="6.296"/>
    <ellipse cx="410.704" cy="88.472" fill="#241000" paint-order="markers fill stroke" rx="5.075" ry="6.296"/>
    <path fill="none" stroke="#7a4d30" stroke-linecap="square" stroke-width="3.366" d="M374.895 113.054s6.258 3.97 9.617 3.952c3.28-.016 9.367-3.952 9.367-3.952s6.452 3.67 9.867 3.623c3.175-.044 9.116-3.623 9.116-3.623" paint-order="markers fill stroke"/>
</svg>
