<svg xmlns="http://www.w3.org/2000/svg" viewBox="0 0 512 512">
    <g data-name="Farmer woman">
        <path fill="#fc6" d="M501.333 470.187v31.146H10.667v-31.146A106.667 106.667 0 0 1 81.813 369.6L192 330.667l15.36 18.026a64 64 0 0 0 97.28 0L320 330.667 430.187 369.6a106.667 106.667 0 0 1 71.146 100.587Z"/>
        <path fill="#ffde76" d="M106.667 360.853v56.534a42.667 42.667 0 0 0-32 41.28V480c-47.254 0-36.907-67.84-3.414-103.68 13.014-8.32 6.187-5.12 35.414-15.467Zm197.973-12.16L320 330.667V416H149.333v-70.293L192 330.667l15.36 18.026a64 64 0 0 0 97.28 0Zm196.693 121.494V480H394.667v-21.333a42.667 42.667 0 0 0-32-41.28v-71.68l67.52 23.893a106.667 106.667 0 0 1 71.146 100.587Z"/>
        <path fill="#df8761" d="M416 458.667v42.666H96v-42.666a42.667 42.667 0 0 1 32-41.28v-64l42.667-15.04V416h170.666v-77.76L384 353.28v64a42.667 42.667 0 0 1 32 41.387Z"/>
        <path fill="#f29b75" d="M384 417.387v-64l-42.667-15.04V416H170.667v-77.76l-32 11.307v87.786A42.667 42.667 0 0 0 181.333 480H416v-21.333a42.667 42.667 0 0 0-32-41.28Z"/>
        <path fill="#edb996" d="M320 291.093v39.574l-15.36 18.026a64 64 0 0 1-97.28 0L192 330.667v-39.574a85.333 85.333 0 0 0 128 0Z"/>
        <path fill="#f6ccaf" d="M304.64 348.693a64 64 0 0 1-84.587 11.2l-6.72-7.893a22.507 22.507 0 0 1 32-20.16 80.107 80.107 0 0 0 32 9.493c40.214 0 58.454-29.226 27.307 7.36Z"/>
        <path fill="#7c7d7d" d="M192 291.093v39.574c-70.08 24.853-64 23.04-64.533 21.973a76.16 76.16 0 0 1-8-94.507l23.466-35.093a101.44 101.44 0 0 0 27.734.96c0 22.4 1.066 44.053 21.333 67.093Z"/>
        <path fill="#f6ccaf" d="M341.333 181.333c0 50.027 5.12 79.68-21.333 109.76a85.333 85.333 0 0 1-128 0c-26.667-30.293-21.333-59.84-21.333-109.76Z"/>
        <path fill="#ffdec7" d="M341.333 202.667c0 33.066 5.654 78.293-42.666 106.026C210.88 320 176.213 202.667 224 202.667Z"/>
        <path fill="#f6ccaf" d="M384 202.667A21.333 21.333 0 0 1 362.667 224h-21.334v-42.667h21.334A21.333 21.333 0 0 1 384 202.667Zm-213.333-21.334V224c-18.134 0-28.587 1.92-36.374-6.293a21.333 21.333 0 0 1 15.04-36.374Z"/>
        <path fill="#747575" d="M170.667 224h-21.334c-8.96 0-3.733-4.907-14.186 10.667a16.853 16.853 0 0 1 16.64 13.653c8.213 38.507 18.88 52.373 18.88 88.213 0 2.347-3.2 2.88 21.333-5.866v-39.574c-19.307-21.973-21.333-42.346-21.333-67.093Z"/>
        <path fill="#df8761" d="M405.333 181.333H106.667a42.667 42.667 0 0 1 42.666-42.666h213.334a42.667 42.667 0 0 1 42.666 42.666Z"/>
        <path fill="#f29b75" d="M399.573 160H153.387a12.053 12.053 0 0 1-11.307-16.533c2.88-6.934-10.667-4.8 220.587-4.8A42.667 42.667 0 0 1 399.573 160Z"/>
        <path fill="#df8761" d="M362.667 117.333v21.334H149.333v-21.334a106.667 106.667 0 0 1 213.334 0Z"/>
        <path fill="#f29b75" d="M362.667 117.333H205.333A21.333 21.333 0 0 1 184 91.733a106.667 106.667 0 0 1 87.36-79.786 106.667 106.667 0 0 1 91.307 105.386Z"/>
    </g>
</svg>
