<svg xmlns="http://www.w3.org/2000/svg" xml:space="preserve" viewBox="0 0 512 512">
    <path fill="#ffce6e" d="M87.857 102.884H37.772v95.972h146.056c0-53.004-42.968-95.972-95.971-95.972z"/>
    <path fill="#ff462e" d="M466.279 198.856H37.772V317.47h428.506v-43.824c20.652 0 37.395-16.742 37.395-37.395.001-20.653-16.742-37.395-37.394-37.395z"/>
    <path d="M96.611 240.341v-41.485H37.772v118.613h58.839zm0-137.042a97.072 97.072 0 0 0-8.755-.415H37.772v95.972h58.839v-95.557z" opacity=".1"/>
    <path fill="#b8703f" d="M63.306 273.646V102.884c0-15.183-12.307-27.49-27.49-27.49s-27.49 12.307-27.49 27.49v333.723h54.98v-75.405h385.387v75.405h54.98V273.646H63.306z"/>
    <path d="M8.326 444.932h54.98a8.326 8.326 0 0 0 8.326-8.326v-67.078h289.042a8.326 8.326 0 0 0 0-16.652H63.306a8.326 8.326 0 0 0-8.326 8.326v67.078H16.653V102.884c0-10.568 8.597-19.164 19.164-19.164s19.164 8.597 19.164 19.164v170.762c0 4.466 3.864 8.326 8.326 8.326h432.042V428.28H457.02v-67.078a8.326 8.326 0 0 0-8.326-8.326H393.98a8.326 8.326 0 0 0 0 16.652h46.387v67.078a8.326 8.326 0 0 0 8.326 8.326h54.98a8.326 8.326 0 0 0 8.326-8.326v-162.96a8.326 8.326 0 0 0-8.326-8.326h-2.129c6.529-7.907 10.456-18.038 10.456-29.069 0-25.211-20.51-45.721-45.721-45.721h-274.48c-1.903-24.054-11.992-46.57-28.941-64.113a8.326 8.326 0 0 0-11.976 11.57c13.93 14.42 22.37 32.833 24.229 52.544H71.633v-79.319h16.225c13.283 0 26.042 2.895 37.92 8.605.098.047.198.082.296.124a8.28 8.28 0 0 0 3.403.745 8.327 8.327 0 0 0 7.375-4.45 8.325 8.325 0 0 0-3.86-11.428c-14.148-6.801-29.333-10.25-45.135-10.25H70.646c-3.765-15.746-17.947-27.49-34.828-27.49C16.067 67.068 0 83.134 0 102.884v333.722a8.326 8.326 0 0 0 8.326 8.326zm63.307-237.75h394.646c16.029 0 29.069 13.04 29.069 29.069s-13.04 29.069-29.069 29.069H71.633v-58.138z"/>
</svg>
