<svg xmlns="http://www.w3.org/2000/svg" viewBox="0 0 512 512">
    <g data-name="Corn field">
        <path fill="#b5e08c" d="M426.667 352v64c-23.04-28.693-39.254-51.093-74.667-74.667A87.787 87.787 0 0 1 426.667 352Z"/>
        <path fill="#9dcc6b" d="M426.667 373.333V416a354.347 354.347 0 0 0-51.627-57.173 86.507 86.507 0 0 1 51.627 14.506Z"/>
        <path fill="#b5e08c" d="M501.333 213.333c-35.093 23.36-51.413 45.654-74.666 74.667v-64a87.787 87.787 0 0 1 74.666-10.667Z"/>
        <path fill="#9dcc6b" d="M478.293 230.827A354.347 354.347 0 0 0 426.667 288v-42.667a86.507 86.507 0 0 1 51.626-14.506Z"/>
        <path fill="#9dcc6b" d="M416 490.667v-320a10.667 10.667 0 0 1 21.333 0v320a10.667 10.667 0 0 1-21.333 0Z"/>
        <path fill="#b5e08c" d="M490.667 96v21.333a64 64 0 0 1-64 64V160a64 64 0 0 1 64-64Zm-64 64v21.333a64 64 0 0 1-64-64V96a64 64 0 0 1 64 64Z"/>
        <path fill="#9dcc6b" d="M384 106.667v-6.934A64 64 0 0 0 362.667 96v21.333a64 64 0 0 0 102.72 50.88A64 64 0 0 1 384 106.667Z"/>
        <path fill="#fc6" d="M469.333 85.333a128 128 0 0 1-.853 14.72A64 64 0 0 0 426.667 160a64 64 0 0 0-41.814-59.84c-4.373-38.507 10.88-89.493 41.814-89.493 28.8 0 42.666 43.733 42.666 74.666Z"/>
        <path fill="#ffde76" d="M468.693 97.067a64 64 0 0 0-47.36 37.44 62.4 62.4 0 0 0-14.08-20.267c-5.866-34.133 2.134-87.893 30.294-101.013 24.96 11.306 34.453 54.186 31.146 83.84Z"/>
        <path fill="#b5e08c" d="M256 352v64c-23.04-28.693-39.253-51.093-74.667-74.667A87.787 87.787 0 0 1 256 352Z"/>
        <path fill="#9dcc6b" d="M256 373.333V416a354.347 354.347 0 0 0-51.627-57.173A86.507 86.507 0 0 1 256 373.333Z"/>
        <path fill="#b5e08c" d="M330.667 213.333C295.573 236.693 279.253 258.987 256 288v-64a87.787 87.787 0 0 1 74.667-10.667Z"/>
        <path fill="#9dcc6b" d="M307.627 230.827A354.347 354.347 0 0 0 256 288v-42.667a86.507 86.507 0 0 1 51.627-14.506Z"/>
        <path fill="#9dcc6b" d="M245.333 490.667v-320a10.667 10.667 0 0 1 21.334 0v320a10.667 10.667 0 0 1-21.334 0Z"/>
        <path fill="#b5e08c" d="M320 96v21.333a64 64 0 0 1-64 64V160a64 64 0 0 1 64-64Zm-64 64v21.333a64 64 0 0 1-64-64V96a64 64 0 0 1 64 64Z"/>
        <path fill="#9dcc6b" d="M213.333 106.667v-6.934A64 64 0 0 0 192 96v21.333a64 64 0 0 0 102.72 50.88 64 64 0 0 1-81.387-61.546Z"/>
        <path fill="#fc6" d="M298.667 85.333a128 128 0 0 1-.854 14.72A64 64 0 0 0 256 160a64 64 0 0 0-41.813-59.84c-4.374-38.507 10.88-89.493 41.813-89.493 28.8 0 42.667 43.733 42.667 74.666Z"/>
        <path fill="#ffde76" d="M298.027 97.067a64 64 0 0 0-47.36 37.44 62.4 62.4 0 0 0-14.08-20.267c-5.867-34.133 2.133-87.893 30.293-101.013 24.96 11.306 34.453 54.186 31.147 83.84Z"/>
        <path fill="#b5e08c" d="M85.333 352v64c-23.04-28.693-39.253-51.093-74.666-74.667A87.787 87.787 0 0 1 85.333 352Z"/>
        <path fill="#9dcc6b" d="M85.333 373.333V416a354.347 354.347 0 0 0-51.626-57.173 86.507 86.507 0 0 1 51.626 14.506Z"/>
        <path fill="#b5e08c" d="M160 213.333c-35.093 23.36-51.413 45.654-74.667 74.667v-64A87.787 87.787 0 0 1 160 213.333Z"/>
        <path fill="#9dcc6b" d="M136.96 230.827A354.347 354.347 0 0 0 85.333 288v-42.667a86.507 86.507 0 0 1 51.627-14.506Z"/>
        <path fill="#9dcc6b" d="M74.667 490.667v-320a10.667 10.667 0 0 1 21.333 0v320a10.667 10.667 0 0 1-21.333 0Z"/>
        <path fill="#b5e08c" d="M149.333 96v21.333a64 64 0 0 1-64 64V160a64 64 0 0 1 64-64Zm-64 64v21.333a64 64 0 0 1-64-64V96a64 64 0 0 1 64 64Z"/>
        <path fill="#9dcc6b" d="M42.667 106.667v-6.934A64 64 0 0 0 21.333 96v21.333a64 64 0 0 0 102.72 50.88 64 64 0 0 1-81.386-61.546Z"/>
        <path fill="#fc6" d="M128 85.333a128 128 0 0 1-.853 14.72A64 64 0 0 0 85.333 160 64 64 0 0 0 43.52 99.947c-4.373-38.294 10.88-89.28 41.813-89.28 28.8 0 42.667 43.733 42.667 74.666Z"/>
        <path fill="#ffde76" d="M127.36 97.067A64 64 0 0 0 80 134.507a62.4 62.4 0 0 0-14.08-20.267c-5.867-34.133 2.133-87.893 30.293-101.013 24.96 11.306 34.454 54.186 31.147 83.84Z"/>
        <path fill="#a87e6b" d="M490.667 501.333H21.333a10.667 10.667 0 0 1 0-21.333h469.334a10.667 10.667 0 0 1 0 21.333Z"/>
    </g>
</svg>
