<svg xmlns="http://www.w3.org/2000/svg" viewBox="0 0 512 512">
    <path d="M92.096 487.136S64.88 436.8 72.384 415.12c9.44-27.28-2.336-48.64 7.28-69.936 15.52-34.4 58.496-54.688 76.448-82.72 10.016-15.664 27.952-46.912 32.72-64.192 5.92-21.488-43.84-29.76-45.84-53.264-.448-5.28 8.128-13.6 8.128-13.6 5.216-7.792-9.504-21.216-3.312-26.912 14.128-12.96 10.512-23.264 20.256-30.528 17.952-13.344 33.216 9.776 40-2.784C246.848-.608 346.896 14.752 391.36 83.024c11.152 17.12 14.96 40.896 11.84 61.568-2.992 19.856-21.648 32.944-28.288 52.976-4.128 12.464 5.36 24.544 5.232 39.472-7.84 1.888-11.392 1.936-19.104 5.904-4.512 2.32-4.288 6.336-7.216 11.664-6.448-4-14.496-4.112-20.128-3.536 3.04 4.336 10.416 13.504 8.512 15.728-8.96 1.232-11.088 1.52-16 3.008 1.056 6.64-.912 18.752-7.872 22.16-16.768 8.208-42.784-21.024-52.896-18.224-3.936 1.088-13.12 26.736-9.664 60.96.4 4.016 17.792 9.008 19.472 15.456 1.472 5.68 3.296 32.144 10.08 34.208 12.224 3.744 17.888.256 21.28-6.416 6.704-13.232-7.6-39.424 2.832-54 25.024-35.024 76.752-9.952 77.792 2.352 1.408 16.624 15.488 19.088 25.904 32.576-25.68 10.48-58.176-.128-72.992-4-3.088 34.288 18.528 38.992 34.72 47.968 53.152 29.536 60.992 56.432 66.56 85.04"/>
</svg>
