<svg xmlns="http://www.w3.org/2000/svg" viewBox="0 0 512 512">
    <g transform="scale(4)">
        <path fill="#bdbdc6" d="m63.192 93.512 4.279 12.232a2.835 2.835 0 0 0 2.393 1.885 2.833 2.833 0 0 0 2.823-1.564l4.943-9.991Z"/>
        <path fill="#bdbdc6" d="m48.062 88.25 5.738 16.034a2.833 2.833 0 0 0 2.394 1.884 2.834 2.834 0 0 0 2.823-1.563l5.854-11.717Z"/>
        <path fill="#ffd203" d="m37.667 17.583-12.077 4.78a2.212 2.212 0 0 0 .765 4.268L42.917 27Z"/>
        <path fill="#eaeaf0" d="M48.25 6.5c-16 0-13.93 14.248-10.583 17.692 4.833 4.975 7.895 6.183 7.458 12.308-.75 7.875-8.458 12.833-8.792 28.833S49.5 99.117 69 99.117 92.625 87 92.625 87c3.5-.25 5.125-4.667 5.125-4.667 1.833-.166 5.282-2.583 6.058-5.166-6.975 1.916-46.475-9.834-46.475-28.334V17.438c0-4.313-.833-10.938-9.083-10.938Z"/>
        <path fill="#bdbdc6" d="M53.36 58.986C48 66.1 52.006 78.4 66.493 79.083a81.79 81.79 0 0 0 26.272-3.142c-8.385-7.158-9.392-18.214-21.108-20.014s-15.622-.206-18.297 3.059Z"/>
        <circle cx="44.667" cy="15.364" r="3" fill="#bdbdc6"/>
        <g fill="#072130">
            <path d="M57.33 34.667a1.75 1.75 0 0 0-1.75 1.75v2.25a1.75 1.75 0 0 0 3.5 0v-2.25a1.75 1.75 0 0 0-1.75-1.75Z"/>
            <path d="M81.73 95.019A31.782 31.782 0 0 1 69 97.37a29.9 29.9 0 0 1-21.442-9.217c-6.1-6.228-9.644-14.747-9.478-22.786.2-9.3 2.94-14.6 5.358-19.273 1.595-3.082 3.1-5.992 3.428-9.469.409-5.7-1.976-7.948-5.277-11.06a74.076 74.076 0 0 1-2.665-2.6c-1.442-1.481-2.639-6.043-1.16-9.547 1.428-3.379 5.054-5.168 10.486-5.168 5.138 0 7.33 2.749 7.33 9.19v12.81a1.75 1.75 0 0 0 3.5 0V17.44c0-10.488-5.89-12.69-10.83-12.69-8.782 0-12.3 3.977-13.71 7.312a13.022 13.022 0 0 0-.961 5.251l-8.645 3.425a3.963 3.963 0 0 0 1.386 7.642l13.474.3c2.726 2.587 3.852 3.912 3.584 7.651-.259 2.761-1.552 5.258-3.048 8.148-2.466 4.766-5.535 10.7-5.749 20.81-.181 8.966 3.731 18.427 10.477 25.311A35.921 35.921 0 0 0 48 93.281l4.15 11.586a4.623 4.623 0 0 0 2.289 2.57l-1.188 12.313h-4.832a1.75 1.75 0 1 0 0 3.5h9.25a1.75 1.75 0 0 0 0-3.5h-.9l1.165-12.07a4.608 4.608 0 0 0 2.653-2.3l2.529-5.056c.217.039.434.081.652.117l2.05 5.869a4.584 4.584 0 0 0 2.149 2.518l-1.056 10.922H61.84a1.75 1.75 0 0 0 0 3.5h9.25a1.75 1.75 0 0 0 0-3.5h-.663l1.019-10.55a4.627 4.627 0 0 0 2.813-2.354l3.4-6.875a29.7 29.7 0 0 0 5.472-1.746 1.75 1.75 0 0 0-1.4-3.207Zm-55.656-70.28a.443.443 0 0 1-.134-.319.472.472 0 0 1 .294-.433l7.835-3.1a10.785 10.785 0 0 0 2.075 4.213l-9.756-.221a.463.463 0 0 1-.314-.14Zm31.377 79.085a1.089 1.089 0 0 1-.961.6h-.111a1.112 1.112 0 0 1-.928-.739l-2.524-7.046a33.1 33.1 0 0 0 6.7 2.844Zm13.681 1.45a1.105 1.105 0 0 1-.982.616h-.114a1.087 1.087 0 0 1-.914-.726l-1.512-4.328c.463.019.925.035 1.39.035a43.861 43.861 0 0 0 4.421-.224Z"/>
            <path d="M105.062 75.947a1.751 1.751 0 0 0-1.717-.465c-1.129.313-4.354.183-9.738-1.139a39.384 39.384 0 0 1-6.6-8.288c-3.42-5.216-6.954-10.609-15.084-11.855a43.083 43.083 0 0 0-11.787-.565 11.886 11.886 0 0 1-1.056-4.8V44.5a1.75 1.75 0 0 0-3.5 0v4.33a15.325 15.325 0 0 0 1.1 5.648 10.994 10.994 0 0 0-4.678 3.4l-.045.057a13.336 13.336 0 0 0-1.322 13.732c2.568 5.471 8.317 8.812 15.771 9.165 1.236.059 2.448.085 3.638.085a83.634 83.634 0 0 0 22.768-3.159 48.867 48.867 0 0 0 7.538 1.309 6.316 6.316 0 0 1-2.75 1.52 1.751 1.751 0 0 0-1.49 1.138c-.012.033-1.341 3.367-3.613 3.53a1.765 1.765 0 0 0-1.528 1.172 13.379 13.379 0 0 1-2.8 4.173 1.75 1.75 0 1 0 2.531 2.408 18.241 18.241 0 0 0 3.144-4.444c2.787-.73 4.431-3.313 5.138-4.714 2.524-.787 5.668-3.414 6.5-6.174a1.749 1.749 0 0 0-.42-1.729Zm-38.486 1.388c-6.116-.29-10.77-2.9-12.769-7.156a9.85 9.85 0 0 1 .929-10.112 7.5 7.5 0 0 1 4.7-2.8c.042-.008.083-.011.123-.022 2.427-.488 6.048-.481 11.834.408 6.587 1.013 9.414 5.324 12.685 10.318a52.047 52.047 0 0 0 5.259 7.09 82.487 82.487 0 0 1-22.761 2.274Zm-24.93-20.293a37.3 37.3 0 0 0-1.063 8.38 1.749 1.749 0 0 0 1.717 1.786h.038a1.751 1.751 0 0 0 1.749-1.714 33.776 33.776 0 0 1 .959-7.6 1.75 1.75 0 0 0-3.395-.852Zm3.021-46.428a4.75 4.75 0 1 0 4.75 4.75 4.755 4.755 0 0 0-4.75-4.75Zm0 6a1.25 1.25 0 1 1 1.25-1.25 1.25 1.25 0 0 1-1.25 1.25Z"/>
        </g>
    </g>
</svg>
