<svg xmlns="http://www.w3.org/2000/svg" viewBox="0 0 512 512">
    <g data-name="Male Farmer">
        <ellipse cx="256" cy="192" fill="#5b2c06" rx="192" ry="85.333"/>
        <path fill="#4d2100" d="M117.593 205.952a21.336 21.336 0 0 0-10.235 40.065 190.534 190.534 0 0 0 19.33 9.061l.005.002.102.042.005.002.103.041.637.256.008.003.101.041.005.002.1.04.015.006.627.249.01.004.096.038.016.006.091.036.023.01.091.035.009.003.532.21h.002l.102.04.01.004.093.036.023.009.092.036.012.005.098.038.011.004.417.161.011.005.086.033.03.011.073.029.048.018.07.027.037.014.08.03.032.013.082.032.022.008.402.154.022.008.076.029.044.017.073.028.04.015.073.027.042.017.076.028.04.015.071.027.048.018.16.06.02.008.078.03.034.012.069.026.054.02.06.023.053.02.065.024.055.021.064.024.047.018.07.026.049.018.068.026.039.014.154.057.033.013.066.024.051.02.07.025.047.017.065.025.055.02.063.023.058.022.056.02.06.023.063.023.055.02.06.022.097.036.035.012.106.04.029.01.084.03.055.021.067.024.05.019.071.026.046.017.077.027.047.017.065.024.056.02.08.03.036.013.12.043.022.008.096.035.053.02.063.022.063.023.06.021.052.019.071.026.05.018.07.025.05.018.072.026.05.017.112.04a.031.031 0 0 0 .004.002l.122.044.03.01.091.033.047.017.07.024.055.02.068.025.053.018.066.024.055.02.068.024.052.018.074.026.046.016.101.036.028.01.11.039.05.017.072.026.05.017.07.025.057.02.066.023.049.017.076.027.047.016.087.03.03.011.099.035.027.01.244.084.037.013.087.03.041.015.076.026.052.018.077.026.043.015.082.029.039.013.097.033.026.01.11.038.014.004.126.043.007.003.116.04.03.01.091.031.041.014.082.028.047.016.083.028.033.012.095.032.032.011.104.035.018.007.38.128.018.006.11.038.019.006.103.035.03.01.105.035.016.005.12.04.005.003.517.172.008.003.12.04.013.004.11.037.024.008.11.036.014.005.122.04.005.002.52.172.005.001.125.041.008.003.113.037.024.008.114.037.01.003.782.255.008.002.118.038.016.006.918.294h.002l.13.042h.002l.795.252.003.001.26.082.007.002a334.067 334.067 0 0 0 56.677 12.159h.003q3.688.479 7.435.893 1.14.126 2.287.246l.162.017h.004l.156.017h.01l.152.017h.01l.159.017h.002l.656.067c.006 0-.006 0 0 0l.162.017h.005l.152.015.016.002q.652.066 1.306.13h.005q1.729.168 3.467.322l.163.014.007.001c.442.04.878.077 1.322.115h.005l.162.014h.003l.16.013.007.001.662.055h.005l.159.014h.01l.15.013.019.001.992.08h.002l.157.013.019.001.141.011.028.003.143.01.016.002.158.012h.006c.11.01.218.018.33.026l.017.002.152.011h.004l.154.012.028.002.137.01.027.003.134.01.032.002.137.01.025.002.654.049.03.002.132.01.036.002.128.01.034.002.132.01.032.002.142.01.018.001.493.035.031.003.131.009.038.002.125.01.039.002.126.009.039.002.127.009.033.002.658.045.023.002.137.009.035.002.13.009.038.002.122.008.043.003.122.008.042.003.144.01h.014l.334.022h.006l.148.01.054.003.112.007.048.003.113.007.05.004.115.007.049.003.126.008.032.002.494.03.027.002.132.008.05.003.113.007.049.003.115.007.05.003.126.007.03.002.132.008.037.002.492.029.037.002.115.006.068.004.098.006.06.003.108.006.048.003.131.008.03.001.132.008.035.002.33.018h.015l.144.009.051.003.107.005.064.004.106.005.047.003.12.006.048.003.119.006.041.003.122.006.047.002.32.017.053.003.111.006.06.003.097.005.07.003.099.005.062.003.097.005.067.004.107.005.051.003.136.006.025.002.33.016.04.002.125.006.04.002.121.006.055.002.113.006.045.002.122.005.045.003.146.006h.012l.505.024.02.001.146.007.03.001.126.006.051.002.118.005.046.002.125.006.037.001.14.006.026.002.334.014h.014l.152.007.033.001.127.006.05.002.11.004.06.003.112.004.046.002.129.006.036.001.504.02h.005l.156.007.037.001.125.005.053.002.105.004.062.002.11.004.053.002.111.005.055.002.143.005h.017l.17.007h.01l.15.006.054.002.109.004.062.002.104.003.056.002.112.004.054.002.122.005h.039l.144.006h.02l.337.012h.024l.141.005.04.002.123.004.053.002.112.003.058.002.098.003.072.002.099.004.061.002.142.004h.017l.333.01.05.002.116.004.051.001.114.004.058.001.107.003.06.002.1.003.068.002.113.003.045.002.14.003.027.001.165.005h.042l.12.004.064.002.101.003.072.002.088.002.077.002.09.002.075.002.086.002.078.002.095.003.068.002.116.002.046.002.164.004h.036l.129.004h.054l.113.004h.052l.114.003.057.002.113.002.05.001.115.003.056.001.12.003h.043l.14.004.054.001.135.003.067.001.095.002.077.002.09.002.07.001.097.002.067.001.1.002.07.002.086.001.08.002.088.002.076.001.158.003.058.001.105.002.068.001.1.002.067.001.1.002.064.001.101.002h.07l.09.002.077.002.087.001.08.001.101.002h.059l.161.003.051.001.119.002h.056l.104.002.07.001.1.002h.065l.096.002h.077l.084.002.082.001.082.001.081.001.107.002h.077l.14.002h.06l.108.002h.059l.11.002h.061l.101.002h.068l.101.002h.066l.103.001.062.001.11.001h.058l.164.002h.012l.153.002h.052l.115.001h.063l.099.001.073.001h.095l.07.001.1.001h.064l.108.001h.06l.11.001h.058l.164.002h.168l.046.001h.181l.1.001h.076l.088.001h.172l.071.001h.167l.086.001h.291l.117.001h.332l.07.001h1.774l.25-.002h.306l.243-.002h.283l.012-.001.53-.003h.016l.263-.002h.008q7.249-.05 14.36-.334.294-.012.585-.032.29-.004.583-.017h.018l.038-.002.108-.005.055-.002.092-.004.068-.003.074-.003.078-.004.073-.003.077-.003.064-.003.09-.004.056-.003.094-.004.048-.002.094-.004.061-.003.084-.004.06-.003.086-.003.066-.003.082-.004.06-.003.084-.004.073-.003.075-.004.064-.003.084-.004.074-.003.07-.004.1-.005.046-.002.295-.014.05-.002.1-.005.043-.002.103-.005.056-.003.093-.005.052-.002.095-.005.06-.003.086-.005.06-.002.087-.005.07-.003.074-.004.069-.004.08-.004.07-.003.08-.005.06-.003.09-.004.06-.004.092-.004.05-.003.094-.005.058-.003.103-.005.037-.002.097-.006.062-.003.082-.004.06-.004.11-.006.035-.001.275-.016.049-.002.267-.015.047-.003.101-.005.059-.004.081-.004.076-.004.075-.005.065-.003.082-.005.057-.003.097-.006.047-.003.093-.005.06-.004.09-.005.056-.003.093-.005.049-.003.104-.006.045-.003.09-.005.063-.004.09-.005.053-.004.103-.006.04-.002.119-.007.027-.002.117-.007.032-.002.144-.009.448-.027.01-.001.14-.009h.004l.143-.009.02-.001.126-.008.026-.002.123-.008.026-.001.124-.008.017-.001.13-.009.023-.001.125-.008.024-.002.119-.008.035-.002.12-.008h.02l.12-.009.035-.002.114-.008.031-.002.108-.007.046-.003.117-.008.021-.001.119-.008.034-.002.111-.008.035-.002.099-.007.051-.003.588-.04.008-.001.288-.02.012-.001.136-.01h.013l.127-.01.033-.002.117-.008.029-.002.111-.008.042-.003.108-.008.037-.003.108-.007.036-.003.122-.009.02-.001.126-.01.022-.001.13-.01h.016l.127-.01.021-.002 1.18-.088h.008l.284-.023h.017l.129-.01.02-.002.122-.01.035-.003.11-.008.034-.003.108-.008.043-.004.109-.008.03-.003.108-.008.047-.004.102-.008.037-.003.13-.01.009-.001 1.765-.145h.004l.141-.013h.01l.132-.012.018-.001.135-.012h.006c.686-.059 1.365-.119 2.048-.18l.015-.002.127-.011.025-.003.127-.011.008-.001.138-.013h.009l.138-.013h.007l.133-.013.017-.002.134-.012h.008l.14-.014h.004l.143-.014h.003l.137-.013h.011c.634-.06 1.263-.12 1.893-.183 12.96-1.277 25.425-3.137 37.253-5.513h.002c.664-.134 1.324-.269 1.984-.406h.006l.123-.026.011-.003a323.05 323.05 0 0 0 2.097-.442l.008-.001.387-.083.003-.001.126-.027.005-.001q2.226-.48 4.417-.985h.002l.25-.058.014-.004.117-.027.009-.002.118-.027.01-.003.123-.028h.003l.12-.029.01-.002.124-.029h.003l.384-.09h.001l.512-.121.01-.003.119-.028h.002l.124-.03.01-.002.117-.028.014-.003.105-.025.04-.01.087-.02.033-.008.095-.023.032-.007.093-.023.032-.007.093-.022.036-.009.097-.023.022-.006.1-.024.033-.008.086-.02.04-.01.076-.018.055-.014.09-.021.026-.007.1-.024.029-.007.749-.182.043-.01.084-.022.04-.01.08-.019.048-.012.082-.02.04-.01.081-.02.043-.01.088-.022.035-.009.082-.02.048-.012.079-.02.044-.01.078-.02.047-.012.08-.02.044-.01.074-.019.053-.013.07-.018.054-.013.073-.018.048-.012.085-.021.039-.01.09-.023.033-.008.247-.062.046-.012.078-.02.035-.008.09-.023.032-.008.094-.024.024-.006.1-.025.034-.009.086-.022.044-.011.076-.02.056-.014.065-.016.059-.015.06-.015.07-.019.05-.012.066-.017.061-.016.062-.016.064-.016.055-.014.063-.016.066-.018.048-.012.074-.019.045-.012.078-.02.049-.012.068-.018.05-.013.195-.05.037-.01.144-.037.062-.017.096-.025.02-.005.08-.02.044-.012.09-.024.026-.007.083-.021.043-.012.086-.022.028-.008.09-.023.035-.01.08-.02.042-.011.07-.02.057-.014.07-.019.04-.01.083-.022.042-.011.076-.02.043-.012.077-.02.045-.012.08-.021.028-.008.094-.025.022-.006.097-.026.023-.006.093-.025.037-.01.899-.241.014-.004.104-.028.013-.004.1-.027.02-.006.096-.026.027-.007.083-.022.04-.011.084-.023.03-.009.088-.024.03-.008.093-.025.025-.007.086-.024.04-.01.085-.024.024-.007.093-.025.022-.006.216-.06.01-.002.918-.256.007-.002.113-.031c.006-.002-.003 0 .002 0l.106-.03.015-.005.105-.03.01-.002.1-.028.022-.006.1-.029.011-.003.103-.029.017-.004.106-.03.116-.033h.001a234.565 234.565 0 0 0 39.578-14.885 21.333 21.333 0 1 0-18.86-38.272c-26.669 13.143-65.678 21.69-107.024 23.452q-.265.011-.528.03c-.174.002-.35.007-.526.014q-7.747.309-15.68.31c-50.15 0-98.095-9.767-128.252-26.128a21.234 21.234 0 0 0-10.155-2.586Z"/>
        <path fill="#004ed6" d="m256 298.667-171.786 46.85a85.333 85.333 0 0 0-62.88 82.327V448A42.667 42.667 0 0 0 64 490.667h384A42.667 42.667 0 0 0 490.667 448v-20.156a85.333 85.333 0 0 0-62.881-82.327Z"/>
        <rect width="64" height="64" x="149.333" y="384" fill="#0026b6" rx="21.333" ry="21.333"/>
        <path fill="#0026b6" d="M170.667 426.667a30.17 30.17 0 0 0 42.666 0l12.497-12.497a30.17 30.17 0 0 1 21.333-8.837 30.17 30.17 0 0 1 30.17 30.17v24.994a30.17 30.17 0 0 0 30.17 30.17h24.994a30.17 30.17 0 0 0 30.17-30.17V417.83a30.17 30.17 0 0 0-8.837-21.333l-24.994-24.994a30.17 30.17 0 0 0-21.333-8.836H204.497a30.17 30.17 0 0 0-21.334 8.836L170.667 384a30.17 30.17 0 0 0 0 42.667Z"/>
        <rect width="64" height="64" x="298.667" y="384" fill="#001386" rx="21.333" ry="21.333" transform="rotate(-180 330.667 416)"/>
        <circle cx="192" cy="405.333" r="21.333" fill="#001386"/>
        <path fill="#0026b6" d="M287.273 422.751a10.67 10.67 0 0 0-10.417 8.425q-.124.576-.279 1.14v.001l-.035.125v.002l-.009.03v.002l-.027.094-.008.029-.002.006-.008.027-.001.004-.026.088-.002.006-.007.026-.003.01-.025.082-.002.008-.007.022-.004.014-.007.022-.004.013-.014.044-.002.009-.007.02-.005.018-.006.019-.005.015-.006.02-.002.008-.015.045-.004.014-.007.022-.004.013-.007.022-.005.015-.011.033-.006.02-.006.017-.006.018-.006.019-.006.018-.006.018-.01.032-.006.017-.006.019-.006.017-.006.019-.006.018-.012.033-.002.007-.01.028-.005.015-.007.023-.005.014-.009.025-.003.01-.013.036-.003.01-.01.026-.004.013-.009.025-.003.011-.011.03-.006.018-.009.024-.005.013-.008.023-.005.013-.01.03-.002.006-.013.035-.004.01-.01.029-.003.008-.012.032-.002.005-.027.073-.004.01-.01.03-.003.007-.028.074-.002.004-.012.033-.003.008-.029.074-.001.003-.013.035-.002.005-.013.032-.002.006-.03.076v.002l-.015.035-.001.004-.046.114v.003l-.016.037a21.03 21.03 0 0 1-.145.348 21.404 21.404 0 0 1-12.17 11.62 10.667 10.667 0 0 0 7.498 19.971 42.474 42.474 0 0 0 26.757-30.968 10.676 10.676 0 0 0-10.439-12.913Z"/>
        <path fill="#006ce2" d="m269.92 383.854-27.976.116a24.301 24.301 0 0 0-13.34 4.055l-20.195 13.407a24.301 24.301 0 0 1-37.742-20.245v-39.854a42.667 42.667 0 0 1 42.666-42.666h85.334a42.667 42.667 0 0 1 42.666 42.666v39.75a24.301 24.301 0 0 1-37.781 20.22l-20.05-13.368a24.301 24.301 0 0 0-13.581-4.08Z"/>
        <rect width="128" height="64" x="192" y="298.667" fill="#004ed6" rx="32" ry="32"/>
        <path fill="#f4ac03" d="M330.666 234.667h-10.667v-64h10.667a32 32 0 0 1 32 32 32 32 0 0 1-32 32Zm-149.333-64H192v64h-10.667a32 32 0 0 1-32-32 32 32 0 0 1 32-32Z"/>
        <rect width="85.333" height="128" x="213.333" y="234.667" fill="#df8d00" rx="42.667" ry="42.667"/>
        <rect width="170.667" height="234.667" x="170.667" y="85.333" fill="#f4ac03" rx="85.333" ry="85.333"/>
        <path fill="#ffd432" d="M170.667 170.667v64a84.826 84.826 0 0 0 27.588 62.48 84.444 84.444 0 0 0 100.412-83.814v-64a84.824 84.824 0 0 0-27.588-62.48 84.445 84.445 0 0 0-100.412 83.814Z"/>
        <rect width="21.333" height="128" x="170.667" y="149.333" fill="#ae2b00" rx="10.667" ry="10.667"/>
        <path fill="#ae2b00" d="M362.667 288a32 32 0 0 0-32-32 31.648 31.648 0 0 0-14.422 3.582 85.293 85.293 0 0 0-120.49 0A31.648 31.648 0 0 0 181.333 256a31.92 31.92 0 0 0-10.475 62.1c-.014.647-.191 1.249-.191 1.9a42.607 42.607 0 0 0 25.169 38.83A42.2 42.2 0 0 0 256 378.083a42.2 42.2 0 0 0 60.164-19.251A42.607 42.607 0 0 0 341.334 320c0-.651-.178-1.253-.192-1.9a31.902 31.902 0 0 0 21.525-30.1Zm-117.334-32h21.334a10.667 10.667 0 0 1 0 21.333h-21.334a10.667 10.667 0 0 1 0-21.333Z"/>
        <path fill="#8e1600" d="M256 234.667h-.07q-.64 0-1.277.01a10.58 10.58 0 0 0-10.35 10.735 10.754 10.754 0 0 0 10.737 10.594h.074L256 256a63.583 63.583 0 0 1 45.181 18.689 21.331 21.331 0 0 0 24.74 3.906c.377-.192.762-.368 1.157-.525a10.667 10.667 0 1 0-7.876-19.827l-.02.008-.025.01-.02.008-.033.013-.01.005q-1.386.556-2.713 1.226l-.004.002-.04.02-.01.006-.037.018-.045.023A85.055 85.055 0 0 0 256 234.667Z"/>
        <path fill="#8e1600" d="M298.667 277.333h-.216l-.02.001h-.125l-.019.001h-.071l-.057.001h-.014l-.058.001h-.015l-.057.001h-.016l-.055.001h-.018l-.052.002h-.062l-.036.001h-.02c-.219.005-.44.012-.658.02a10.492 10.492 0 0 0-9.982 10.794 10.843 10.843 0 0 0 10.807 10.52l.146-.001.598-.008a21.28 21.28 0 0 1 20.296 14.725 10.667 10.667 0 0 0 20.292-6.585q-.242-.744-.51-1.475l-.001-.004c-.06-.162-.12-.325-.182-.486v-.002l-.093-.242-.095-.241v-.004l-.024-.058-.072-.18-.001-.003-.097-.239v-.002c-.065-.16-.132-.318-.199-.477l-.002-.006-.023-.053-.002-.005-.075-.175-.002-.005-.023-.054-.002-.004-.077-.176v-.002l-.026-.057v-.002l-.026-.058v-.001a18.503 18.503 0 0 0-.078-.175l-.002-.005-.025-.056v-.001l-.054-.118-.026-.057-.002-.005-.025-.055v-.001a46.271 46.271 0 0 0-.218-.47l-.11-.232-.002-.004a41.324 41.324 0 0 0-.34-.695q-.232-.463-.474-.918a8.174 8.174 0 0 0-.122-.227v-.002l-.03-.055-.001-.001q-.752-1.39-1.603-2.716a43.163 43.163 0 0 0-.28-.43v-.001a42.795 42.795 0 0 0-20.994-16.65q-.858-.314-1.732-.592l-.063-.02a30.4 30.4 0 0 0-.186-.058l-.005-.001-.057-.018-.004-.001a42.46 42.46 0 0 0-.438-.133l-.062-.019h-.002l-.25-.073-.004-.001-.06-.018-.127-.036-.061-.018h-.004a40.347 40.347 0 0 0-.25-.07l-.004-.001-.06-.017h-.002a40.393 40.393 0 0 0-.19-.052h-.001l-.06-.017h-.004a46.634 46.634 0 0 0-.188-.05l-.005-.001-.058-.015-.005-.002-.187-.048-.007-.002-.056-.014-.006-.002c-.168-.042-.34-.085-.508-.125l-.005-.001-.19-.046h-.001l-.06-.014-.008-.002-.06-.014a41.09 41.09 0 0 0-.191-.044l-.005-.001c-.084-.02-.17-.039-.254-.057l-.005-.001-.059-.013-.005-.001a50.142 50.142 0 0 0-.188-.041l-.01-.002-.056-.012-.006-.001-.127-.027-.004-.001-.056-.012-.013-.003-.052-.01-.01-.002-.059-.012-.002-.001-.126-.025-.01-.002-.055-.012-.007-.001-.062-.012-.128-.026h-.007l-.055-.012-.01-.002-.058-.01-.004-.001-.127-.025-.009-.001-.055-.01-.008-.002-.06-.011h-.003l-.128-.024-.006-.001-.057-.01-.01-.002-.053-.01-.01-.002-.126-.022-.009-.002-.056-.01h-.008l-.055-.01-.01-.002-.126-.022h-.006l-.057-.01-.01-.002-.052-.008-.013-.003-.126-.02-.007-.001-.056-.01-.011-.001-.053-.009-.01-.001-.129-.02h-.002l-.06-.01-.01-.002-.051-.008-.016-.002-.124-.019-.01-.001-.053-.008-.013-.002-.05-.007-.014-.003-.058-.008h-.004l-.065-.01h-.001l-.061-.009-.012-.001-.05-.007-.017-.003-.054-.007-.006-.001-.064-.009h-.007l-.056-.009-.013-.001-.049-.007-.017-.002-.05-.007-.012-.001-.063-.009h-.005l-.056-.008-.017-.002-.045-.005-.021-.003-.045-.006-.016-.002-.126-.015-.012-.002-.048-.006-.02-.002-.045-.006-.017-.002-.124-.014-.018-.002-.043-.005-.022-.003-.044-.005-.017-.002-.056-.006h-.007l-.06-.007-.022-.003-.04-.004-.024-.003-.039-.004-.023-.002-.049-.005-.012-.002-.06-.006-.02-.002-.042-.004-.024-.003-.04-.004-.021-.002-.052-.005h-.01l-.062-.007-.016-.002-.045-.004-.023-.002-.042-.004-.02-.002-.052-.005h-.01l-.062-.006-.016-.002-.045-.004-.023-.002-.041-.003-.021-.002-.048-.004-.015-.002-.063-.005h-.007l-.055-.005-.017-.002-.048-.003-.016-.002-.053-.004h-.01l-.065-.006h-.005l-.056-.005-.02-.001-.044-.003-.02-.002-.046-.003-.017-.002-.064-.004-.06-.004-.02-.002-.045-.003-.02-.001-.045-.003-.018-.001-.063-.005h-.002l-.06-.004h-.019l-.046-.004h-.018l-.05-.004h-.013l-.127-.008-.018-.001-.045-.003h-.02l-.045-.003-.02-.001-.058-.003h-.004l-.062-.004h-.02l-.043-.003-.023-.001-.04-.002-.024-.001-.052-.003h-.01l-.062-.003h-.02l-.043-.003h-.022l-.044-.002-.019-.001-.052-.002h-.012l-.061-.003-.021-.001-.042-.002h-.024l-.04-.002h-.024l-.045-.002h-.017l-.062-.003h-.018l-.046-.002h-.021l-.043-.002h-.022l-.044-.002h-.02l-.06-.002h-.02l-.043-.001h-.024l-.041-.002h-.023l-.047-.001h-.015l-.063-.002h-.016l-.048-.001h-.022l-.041-.001h-.023l-.047-.001h-.016l-.063-.001h-.015l-.048-.001h-.087a43.958 43.958 0 0 0-.403-.003Z"/>
        <rect width="42.667" height="21.333" x="234.667" y="277.333" fill="#8e1600" rx="10.667" ry="10.667"/>
        <path fill="#8e1600" d="M213.333 277.333h-.215l-.02.001h-.126l-.018.001h-.071l-.057.001h-.014l-.059.001h-.014l-.058.001h-.015l-.056.001h-.018l-.051.002h-.062l-.037.001h-.02c-.218.005-.439.012-.657.02a10.492 10.492 0 0 0-9.983 10.794 10.843 10.843 0 0 0 10.807 10.52l.147-.001.597-.008a21.333 21.333 0 1 1-11.396 39.373 10.667 10.667 0 0 0-11.429 18.015 42.417 42.417 0 0 0 14.393 5.778l.004.001c.06.012.121.025.182.036l.006.001.135.027h.002l.046.009.138.026h.005l.13.025.012.002.04.008.008.001.082.015.006.001.042.008.01.001.128.023.01.002.041.007.01.002.073.013.016.003.038.006.016.003.12.02.018.003.038.007h.006l.079.014.014.002.035.006.02.003.121.02.015.002.038.006.017.003.065.01.02.003.035.006.021.003.071.01.009.002.037.006.02.003.035.005.023.004.057.008.023.004.032.004.027.004.046.007.035.005.028.004.028.004.03.004.036.006.042.005.03.005.03.004.028.004.04.005.039.006.027.003.034.005.026.003.04.006.04.005.028.004.028.004.035.004.034.005.042.005.027.004.03.003.028.004.052.007.024.002.035.005.027.003.036.005.028.003.045.006.028.003.032.004.028.003.051.006.026.003.032.004.029.003.03.004.043.005.037.004.027.003.03.003.03.004.05.005.025.003.035.004.027.003.035.003.04.005.035.003.028.003.032.003.028.003.05.006.03.003.03.002.027.003.04.004.03.003.042.004.026.003.036.003.022.002.056.006.02.002.04.003.023.002.05.005.016.001.048.005.025.002.038.003.021.002.056.005.02.002.04.003.022.002.05.004.02.002.048.004.02.001.044.004.016.001.059.005h.016l.045.004.02.002.059.004h.002l.059.005.016.001.053.004h.008l.061.005h.015l.048.004.016.001.06.004h.01l.05.004.02.001.046.003.015.001.06.004.014.001.049.003.015.001.062.004h.003l.056.003.02.001.05.003h.01l.061.004h.014l.048.003.017.001.058.003h.016l.047.003.018.001.05.003h.012l.06.003h.015l.049.003h.016l.06.003h.008l.054.003h.017l.053.003h.009l.06.002h.017l.05.003h.011l.063.002h.01l.052.003h.017l.053.002h.009l.06.002h.016l.048.002h.016l.061.002h.01l.05.002h.02l.052.001h.01l.06.002h.018l.045.001h.018l.06.002h.012l.05.001h.018l.058.001h.003l.061.001h.018l.045.001h.02l.058.001h.08l.123.002h.283a42.667 42.667 0 0 0 0-85.333Z"/>
        <path fill="#8e1600" d="M181.333 320a32 32 0 0 0 32-32v-.226l-.001-.054v-.083l-.002-.064v-.085l-.002-.062v-.067l-.002-.02v-.067l-.002-.06v-.018l-.002-.053v-.014l-.002-.063v-.016l-.002-.05v-.018l-.003-.064v-.008l-.002-.056v-.02l-.003-.052v-.012l-.002-.063-.001-.019-.002-.047-.001-.02-.003-.063v-.006l-.003-.058v-.018l-.003-.052-.001-.014-.003-.063v-.016l-.003-.049-.001-.02-.004-.061v-.012l-.003-.052-.002-.021-.003-.051v-.013l-.004-.062-.001-.018-.003-.049-.002-.017-.004-.063v-.012l-.004-.052-.001-.02-.004-.049-.001-.016-.004-.06-.002-.02-.003-.046-.002-.02-.004-.06-.002-.016-.003-.048-.002-.022-.004-.05-.001-.013-.005-.06-.002-.022-.004-.044-.002-.021-.005-.06-.001-.016-.004-.047-.003-.022-.004-.05-.001-.013-.006-.061-.002-.02-.004-.045-.002-.02-.007-.06-.001-.016-.005-.048-.002-.021-.005-.048-.002-.015-.006-.058-.002-.025-.005-.04-.003-.024-.006-.056-.002-.024-.005-.04-.002-.024-.006-.044-.002-.024-.006-.052-.003-.025-.005-.038-.003-.024-.007-.058-.002-.022-.005-.039-.004-.027-.005-.042-.003-.025-.006-.05-.004-.026-.005-.038-.003-.025-.008-.055-.003-.027-.005-.034-.004-.03-.004-.033-.006-.044-.006-.038-.004-.028-.004-.032-.004-.03-.008-.053-.004-.028-.005-.033-.004-.03-.006-.036-.006-.04-.005-.038-.005-.028-.005-.035-.004-.027-.009-.053-.004-.028-.005-.034-.005-.028-.005-.035-.008-.046-.005-.033-.005-.03-.005-.032-.005-.028-.009-.053-.004-.03-.006-.03-.005-.031-.006-.034-.008-.046-.005-.03-.006-.033-.005-.029-.006-.035-.008-.047-.006-.032-.005-.027-.006-.033-.005-.027-.01-.055-.005-.028-.006-.033-.005-.026-.006-.033-.01-.05-.005-.03-.006-.03-.006-.032-.007-.033-.01-.048-.004-.028-.007-.033-.005-.027-.01-.045-.007-.037-.006-.033-.006-.027-.006-.03-.007-.034-.01-.05-.006-.027-.007-.033-.005-.025-.013-.062-.004-.02-.008-.037-.004-.02-.009-.038-.003-.015-.015-.068-.004-.02-.008-.038-.005-.019-.017-.077-.001-.008-.01-.039-.003-.017-.009-.039-.003-.01-.016-.074-.005-.019-.009-.038-.003-.016-.03-.126-.004-.016-.03-.127-.003-.014-.01-.04-.004-.015-.031-.127-.003-.013-.033-.13-.003-.01-.01-.043-.003-.01-.034-.13-.003-.012-.035-.135-.001-.004-.013-.046v-.001a21.686 21.686 0 0 0-.038-.142v-.001a20.762 20.762 0 0 0-.04-.14v-.003l-.053-.187v-.005a32.08 32.08 0 0 0-16.184-19.72 10.667 10.667 0 0 0-9.734 18.984 10.671 10.671 0 0 1-4.868 20.166 10.667 10.667 0 0 0 0 21.333Zm149.334-64h-.23l-.019.001h-.06l-.052.001h-.058l-.019.001h-.037l-.02.001h-.045l-.011.001-.058.001h-.008l-.048.001h-.017l-.04.002h-.019l-.042.001h-.013l-.055.002h-.003l-.058.002h-.009l-.047.002h-.016l-.043.002h-.014l-.046.002h-.012l-.116.005h-.007l-.05.002h-.012l-.046.002-.012.001-.054.003h-.002l-.12.005h-.002l-.055.003h-.008l-.053.004h-.005l-.177.01h-.003l-.054.004h-.008l-.053.004h-.006a27.11 27.11 0 0 0-.177.012h-.002l-.057.004h-.003a30.262 30.262 0 0 0-4.14.595 10.667 10.667 0 0 0 4.489 20.856 8.682 8.682 0 0 1 1.832-.197 10.587 10.587 0 0 1 3.457 20.621 21.334 21.334 0 0 0-14.31 20.617c.017.796.075 1.576.165 2.371a21.38 21.38 0 0 1-12.595 18.446 21.332 21.332 0 0 0-10.663 10.663 21.36 21.36 0 0 1-19.388 12.616 20.936 20.936 0 0 1-10.6-3.022 21.334 21.334 0 0 0-21.465 0 21.866 21.866 0 0 1-7.798 2.816 10.667 10.667 0 1 0 3.118 21.104l.123-.019.014-.002.25-.038.005-.001a42.5 42.5 0 0 0 11.88-3.753h.003l.227-.111.002-.001.165-.082.007-.003.052-.026.008-.004.16-.08.008-.004.052-.026.008-.004.156-.08.014-.006.048-.025.012-.006.102-.053h.002l.046-.024.02-.01.042-.022.021-.011.085-.044.013-.007.043-.023.023-.012.041-.021.023-.012.072-.038.026-.014.039-.02.027-.015.038-.02.03-.017.06-.031.033-.018.034-.018.034-.018.032-.018.05-.026.04-.022.036-.02.032-.017.036-.02.03-.016.06-.033.029-.016.038-.02.03-.018.039-.02.027-.016.061-.034.026-.014.041-.023.028-.016.045-.024.02-.012.064-.036.024-.013.043-.025.026-.014.048-.027.018-.01.064-.037.022-.012.045-.026.024-.014.056-.032.01-.006.065-.037.02-.012.048-.027.022-.013.065-.038a42.201 42.201 0 0 0 60.164-19.251A42.607 42.607 0 0 0 341.334 320l-.097-.991a7.496 7.496 0 0 1-.094-.878v-.015l-.001-.016a31.92 31.92 0 0 0-10.475-62.1ZM320 149.333h42.667v21.334A21.333 21.333 0 0 1 341.333 192 21.333 21.333 0 0 1 320 170.667v-21.334Z"/>
        <rect width="21.333" height="128" x="320" y="149.333" fill="#8e1600" rx="10.667" ry="10.667"/>
        <path fill="#ae2b00" d="M149.333 149.333H192v21.334A21.333 21.333 0 0 1 170.667 192a21.333 21.333 0 0 1-21.334-21.333v-21.334Z"/>
        <circle cx="288" cy="202.667" r="10.667" fill="#004ed6"/>
        <circle cx="224" cy="202.667" r="10.667" fill="#004ed6"/>
        <rect width="42.667" height="21.333" x="234.667" y="256" fill="#fff8c6" rx="10.667" ry="10.667"/>
        <rect width="42.667" height="21.333" x="234.667" y="213.333" fill="#f4ac03" rx="10.667" ry="10.667"/>
        <circle cx="256" cy="426.667" r="21.333" fill="#0a86e3"/>
        <path fill="#0a86e3" d="M234.667 490.667a21.333 21.333 0 1 1 42.666 0Z"/>
        <circle cx="245.333" cy="416" r="10.667" fill="#71b9f5"/>
        <circle cx="245.333" cy="480" r="10.667" fill="#71b9f5"/>
        <path fill="#764126" d="M256 21.333c106.667 0 106.667 149.334 106.667 149.334H149.333s0-149.334 106.667-149.334Z"/>
        <path fill="#4d2100" d="M256 64a283.013 283.013 0 0 0-63.115 7.067c-14.059 3.22-25.894 13.02-30.635 26.642-2.325 6.68-4.231 13.34-5.794 19.768-6.58 27.059 13.551 53.19 41.4 53.19h116.289c27.848 0 47.98-26.131 41.4-53.19-1.564-6.428-3.47-13.089-5.795-19.768-4.741-13.622-16.576-23.422-30.635-26.642A283.013 283.013 0 0 0 256 64Z"/>
        <path fill="#3d180b" d="M355.844 118.724c-1.54-6.483-3.426-13.218-5.738-19.984a42.69 42.69 0 0 0-30.899-27.652q-.213-.05-.427-.098a56.31 56.31 0 0 0-24.775.003l-.415.095a42.705 42.705 0 0 0-30.905 27.673c-2.309 6.76-4.193 13.49-5.732 19.968-6.315 26.586 14.37 51.938 41.697 51.938h15.498c27.329 0 48.012-25.355 41.696-51.943Z"/>
        <path fill="#69341c" d="M256 106.667c-106.04 0-192 38.204-192 85.333 0 11.326 5.073 22.11 14.087 31.999 28.495-31.26 97.356-53.332 177.913-53.332s149.418 22.071 177.913 53.332C442.927 214.11 448 203.326 448 192c0-47.129-85.96-85.333-192-85.333Z"/>
        <path fill="#97623f" d="M256 106.667h-1.051l-.095.001h-.235l-.08.001h-.241l-.32.002h-.07l-.099.001h-.16l-.07.001h-.094l-.074.001h-.08l-.087.001h-.08l-.078.001h-.083l-.08.001-.086.001h-.076l-.086.001h-.077l-.08.001-.116.001-.124.001h-.055l-.107.002h-.08l-.077.001-.088.001h-.078l-.077.001-.085.001-.081.001h-.08l-.079.002h-.085l-.077.001-.09.002h-.067l-.106.001-.057.001-.101.001-.065.001-.086.001-.12.002-.115.001h-.062l-.097.002-.077.001-.086.001-.074.001-.087.001-.075.001-.09.002h-.073l-.086.002-.077.001-.084.001-.081.002h-.075l-.086.002-.076.001-.086.002h-.078l-.08.002-.128.002h-.046l-.148.003-.048.001-.112.002-.064.001-.098.002-.074.001-.083.002-.082.001-.077.002-.088.001-.074.002-.082.001-.084.002-.076.001-.088.002-.072.001-.093.002-.07.002-.09.001-.071.002-.075.001-.166.004-.075.001-.085.002-.074.002-.082.002-.083.001-.073.002-.088.002-.073.002-.09.002-.075.001-.08.002-.083.002-.075.002-.089.002-.065.001-.094.003-.065.001-.098.003h-.028l-.397.01-.042.001-.102.003-.057.001-.103.003-.053.001-.11.003-.048.001-.102.003-.061.002-.1.003h-.054l-.107.004-.047.001-.111.003-.05.002-.104.003-.06.001-.101.003-.033.001-.366.01-.07.003-.087.002-.07.002-.095.003-.064.002-.099.003-.056.002-.099.003-.066.002-.091.003-.065.002-.094.003-.068.002-.09.003-.068.002-.09.003-.072.002-.088.003-.055.002-.349.012-.066.002-.092.003-.066.002-.092.003-.066.003-.093.003-.067.002-.088.003-.07.003-.094.003-.06.002-.097.004-.06.002-.1.003-.056.002-.1.004-.045.002-.409.015h-.01l-.1.004-.062.003-.103.003-.05.002-.1.004-.063.003-.091.003-.067.003-.09.003-.071.003-.09.004-.061.002-.098.004-.058.002-.101.005-.045.001-.115.005h-.014l-.439.019h-.003l-.105.004-.058.003-.1.004-.054.002-.104.005-.052.002-.106.005-.053.002-.095.004-.067.003-.094.004-.063.003-.09.004-.069.003-.093.004-.063.003-.09.004-.066.003-.518.024-.036.001-.114.006-.04.002-.114.005-.042.002-.12.006-.03.001-.117.006-.046.002-.114.005-.028.002-.13.006h-.012l-.869.044-.035.002-.12.006-.033.001-.114.006-.045.003-.112.005-.04.002-.114.006-.038.002-.124.007h-.02l-.128.008-.033.001c-.288.016-.568.03-.856.047l-.028.001-.136.008h-.01l-.131.008-.031.001-.114.007-.046.002-.106.006-.052.003-.108.006-.033.002-.125.007-.013.001-.872.05-.023.002-.133.008-.017.001-.132.008-.02.001-.137.009h-.01l-.136.008-.02.002q-.59.035-1.179.073h-.008l-.142.01h-.008l-.136.009-.02.001-.137.009h-.005l-.142.01h-.016l-1.172.078-.014.001-.138.01h-.011l-.138.01h-.012c-33.252 2.283-63.68 8.355-88.992 17.196l-.007.002c-.453.159-.898.315-1.348.476l-.007.002-.107.038-.005.002-.108.038-.005.002-.772.277-.013.005-.094.034-.022.008-.092.033-.02.007-.088.032-.034.012-.081.03-.03.01-.086.032-.026.01-.09.032-.014.005-.507.185-.048.018-.067.024-.047.018-.069.025-.045.017-.074.027-.04.015-.072.026-.045.017-.072.027-.042.015-.07.026-.047.017-.07.026-.045.017-.067.025-.05.018-.172.064-.005.002-.087.033-.025.009-.069.026-.05.019-.07.026-.04.014-.072.027-.048.018-.063.024-.051.02-.059.021-.064.024-.052.02-.057.021-.06.023-.06.023-.053.02-.07.026-.044.017-.083.03-.057.023-.089.033-.05.02-.065.024-.041.016-.08.03-.033.013-.081.03-.038.015-.076.029-.045.017-.07.027-.043.016-.074.028-.044.017-.07.027-.044.017-.071.028-.045.017-.46.177-.026.01-.092.036-.025.01-.086.033-.036.014-.08.03-.037.015-.076.03-.038.015-.085.033-.028.01-.091.036-.023.009-.104.04-.01.005-.47.184h-.001l-.11.044-.02.008-.097.038-.018.007-.095.038-.024.01-.1.039-.01.004-.103.04-.016.007-.929.371a.021.021 0 0 0-.002.001q-8.634 3.474-16.28 7.392a10.667 10.667 0 1 0 9.729 18.986C154.236 137.878 203.578 128 256 128a10.667 10.667 0 1 0 0-21.333Zm49.027 2.882a10.667 10.667 0 0 0-1.261 21.258c56.68 6.822 103.191 25.893 118.492 48.585a10.667 10.667 0 0 0 17.715-11.886 74.442 74.442 0 0 0-13.51-14.813l-.002-.001-.267-.228-.002-.002a75.695 75.695 0 0 0-.263-.222l-.013-.01-.258-.218-.012-.01-.062-.052-.003-.002a84.245 84.245 0 0 0-.194-.161l-.015-.013-.06-.05-.01-.007-.186-.155-.02-.016-.054-.045-.021-.017-.172-.141-.03-.024-.05-.042-.025-.02-.054-.044-.014-.011-.11-.09-.022-.017-.05-.041-.028-.023-.052-.042-.024-.02-.1-.08-.023-.019-.051-.041-.028-.022-.05-.041-.03-.023-.09-.073-.031-.025-.046-.037-.033-.026-.049-.039-.035-.028-.045-.036-.073-.058-.04-.032-.04-.032-.045-.035-.038-.03-.046-.037-.045-.036-.066-.052-.042-.033-.045-.035-.04-.03-.043-.035-.04-.031-.08-.063-.034-.027-.047-.037-.038-.03-.045-.034-.043-.034-.038-.03-.076-.059-.04-.03-.047-.037-.037-.029-.055-.042-.028-.022-.082-.064-.03-.022-.054-.042-.038-.03-.05-.038-.034-.026-.074-.057-.037-.028-.056-.043-.034-.026-.053-.04-.033-.026-.077-.058-.018-.014-.074-.056-.032-.025-.058-.043-.03-.023-.065-.049-.023-.018-.084-.063-.027-.02-.06-.046-.03-.022-.071-.054-.017-.012-.087-.065-.023-.018-.066-.05-.027-.02-.066-.049-.025-.018-.088-.065-.011-.01-.076-.055-.027-.02-.071-.053-.017-.013-.182-.134-.021-.016-.071-.052-.023-.017-.182-.134-.015-.01-.081-.06-.015-.01-.084-.062-.01-.007-.092-.067-.014-.01-.079-.057-.021-.016-.082-.06-.008-.005-.097-.07-.003-.003-.09-.065-.014-.01-.084-.06-.012-.009a82.349 82.349 0 0 0-.19-.136l-.016-.012-.083-.059-.01-.008-.196-.139-.004-.003-.089-.063-.015-.01-.194-.138-.005-.003-.09-.065-.013-.008-.092-.065-.004-.003a72.438 72.438 0 0 0-.197-.139l-.01-.006-.298-.209-.004-.002c-18.308-12.748-44.024-23.187-74.456-30.124h-.004l-.666-.152-.019-.004-.497-.112-.007-.001-.165-.037h-.002l-.332-.075-.02-.004-.15-.033-.012-.003-.332-.074-.014-.003-.147-.032-.025-.006-.32-.07-.037-.008-.124-.027-.038-.008-.149-.033-.007-.001-.167-.037-.01-.002-.147-.032-.033-.007-.147-.032-.011-.002-.328-.07-.027-.007-.141-.03-.023-.005-.325-.07-.029-.006-.138-.03-.026-.005-.324-.069-.031-.006-.13-.028-.038-.008-.317-.067-.037-.007-.127-.027-.038-.008-.145-.03-.012-.003-.163-.034-.03-.006-.128-.027-.047-.01-.126-.026-.03-.006-.162-.034-.015-.003-.141-.03-.05-.01-.106-.021-.056-.012-.15-.03-.025-.006-.132-.027-.056-.011-.105-.022-.054-.01-.113-.024-.069-.014-.125-.025-.064-.013-.089-.018-.072-.015-.092-.019-.063-.013-.14-.028-.08-.016-.075-.015-.076-.015-.084-.017-.075-.015-.14-.028-.068-.014-.083-.017-.08-.015-.078-.016-.078-.015-.079-.016-.144-.029-.066-.013-.085-.017-.07-.013-.088-.018-.058-.011-.16-.032-.069-.013-.083-.017-.072-.014-.088-.017-.054-.01-.186-.037-.045-.009-.086-.016-.07-.014-.09-.018-.055-.01-.333-.065-.047-.009-.099-.019-.048-.009-.34-.065-.044-.008-.103-.02-.047-.009-.103-.02-.028-.005-.225-.043-.025-.005-.114-.021-.03-.006-.116-.022-.022-.004-.235-.044-.019-.004-.112-.02-.033-.007-.115-.022-.023-.004-.383-.071-.008-.002-.131-.024h-.003a375.519 375.519 0 0 0-23.636-3.598 10.779 10.779 0 0 0-1.262-.075Z"/>
        <path fill="#4d2100" d="M256 149.333c-71.018 0-136.59 16.557-175.406 44.29a10.667 10.667 0 1 0 12.401 17.357q1.86-1.329 3.827-2.625l.306-.201.005-.003.115-.076.008-.005.18-.117.009-.007.109-.07.014-.01.115-.074.004-.003.06-.039.006-.004.112-.072.018-.012.106-.068.01-.007.182-.116.01-.007.11-.07.014-.01.113-.072.007-.004.058-.037.024-.015.09-.058.033-.02.083-.053.034-.022.052-.033.04-.025.078-.05.032-.02.083-.052.032-.021.093-.058.025-.016.054-.034.036-.023.076-.048.043-.026.067-.042.05-.031.044-.028.073-.046.044-.027.05-.031.06-.037.054-.034.041-.026.074-.046.044-.027.061-.038.05-.031.056-.034.048-.03.067-.042.041-.025.076-.047.04-.025.057-.034.05-.03.064-.04.039-.024.077-.047.04-.024.066-.041.045-.027.064-.04.033-.02.082-.05.035-.02.084-.051.03-.019.07-.042.031-.019.082-.05.032-.019.083-.05.035-.02.075-.047.033-.02.075-.044.03-.018.085-.051.032-.02.087-.051.027-.017.076-.045.023-.014.09-.054.027-.016.09-.053.027-.016.09-.054.012-.007.091-.054.024-.014.093-.055.023-.013.096-.057.016-.01.087-.05.02-.013.094-.055.024-.014.095-.055.019-.011.099-.058.003-.002.102-.06.018-.01.097-.057.02-.012.1-.058.009-.005.1-.058.011-.007.102-.059.017-.01.1-.057.017-.01.21-.122.012-.006.104-.06.014-.008.106-.06.002-.001.107-.062.009-.005.106-.06.012-.007.108-.062.003-.002.225-.128.006-.003.34-.193.006-.003.11-.061.01-.006.34-.191.005-.003.113-.063.003-.002.23-.128.002-.001.114-.064.005-.002.347-.193.003-.001c26.364-14.55 63.226-25.172 105.5-29.579h.002c.624-.065 1.251-.129 1.877-.191l.013-.002q1.319-.13 2.643-.254h.004c.819-.076 1.646-.15 2.47-.222h.003l.18-.016.02-.002.37-.031h.002c.507-.044 1.02-.086 1.528-.128h.001l.764-.062h.004l.38-.03h.002l.188-.015h.008l.187-.015h.001l.376-.03h.013l.184-.014.007-.001c.187-.014.383-.03.57-.043h.006c.253-.02.51-.039.763-.057h.01l.37-.028h.015l.184-.014h.006l.38-.028h.004l.183-.013.017-.001.18-.013h.012l.183-.013h.004l.177-.013.027-.002.173-.012.021-.001.37-.025h.006l.181-.013.02-.001.181-.012h.008l.377-.026h.01l.186-.013h.008l.37-.024.019-.001.176-.012.024-.001.179-.011.008-.001.379-.024h.007l.577-.036h.003l.191-.012h.005l.19-.012h.004l.382-.023h.009l.57-.033.016-.001.182-.01.013-.002.38-.021h.004l.188-.011h.013l.57-.032.014-.001.184-.01h.014l.185-.01.006-.001.18-.01h.017l.172-.01.037-.002.174-.009h.007l.181-.01h.013l.178-.01h.024l.177-.01h.02l.183-.01h.003l.181-.01h.02l.18-.01h.02l.179-.01h.02l.17-.009h.016l.177-.009.028-.001.176-.009h.018l.174-.009h.014l.18-.009h.02l.174-.009.034-.001.175-.008h.007l.179-.009h.018l.18-.009h.022l.18-.009h.016l.366-.017h.028l.176-.008.024-.002.18-.007h.008l.177-.008h.02l.172-.008.035-.002.175-.007h.017l.167-.007.025-.001.175-.008h.026l.174-.008h.031l.35-.015.039-.001.167-.007h.033l.175-.007.02-.001.174-.007h.012l.18-.007.027-.001.179-.007h.016l.178-.007h.013l.173-.006.034-.002.165-.005.041-.002.172-.006h.015l.157-.006.044-.001.164-.006.036-.001.173-.006h.024l.364-.013h.027l.174-.006.03-.001.177-.006h.015l.175-.006h.018l.177-.006h.03l.177-.006.021-.001.169-.005h.02l.182-.006h.02l.176-.006h.033l.358-.01.03-.002.174-.005h.028l.176-.005h.027l.17-.005h.014l.174-.005.038-.001.17-.005h.03l.359-.01h.033l.172-.004.031-.001.18-.005h.01l.182-.004h.012l.186-.005h.019l.185-.004h.014l.377-.009h.022l.182-.004h.017l.38-.008h.014l.18-.004h.03l.178-.004h.02l.186-.004.188-.004h.021l.18-.003h.026l.183-.004h.007l.17-.003h.036l.174-.004h.028l.18-.003h.018l.184-.003h.005l.182-.003h.03l.185-.003h.004l.386-.006h.019l.18-.002h.029l.178-.003h.022l.175-.003h.014l.183-.002h.025l.18-.002h.024l.366-.005h.032l.173-.002h.035l.173-.002h.025l.174-.002h.013l.177-.001h.04l.172-.002h.024l.377-.003h.015l.187-.002h.02l.188-.001h.004l.187-.001h.017l.185-.002h.22l.185-.002h.221l.18-.001h.022l.188-.001h.21l.178-.001h.424l.176-.001h1.33l.197.001h.25l.204.002h.018c.442.001.886.003 1.327.006h.002q11.928.079 23.473.79h.009l.196.013.033.002.18.011.046.003.163.01.068.004.131.009.099.006.082.005.16.01.038.003.521.033q.294.02.585.023.268.033.54.052c12.177.828 23.965 2.164 35.272 3.959h.005l.435.07.007.001.29.047h.002l.29.047.009.001.14.023h.002l.287.047.012.002.28.045.019.004.128.02.01.002.275.045.029.005.266.044.035.006.105.017.028.005.131.022.025.004.106.018.043.007.103.017.026.005.125.02.044.008.085.014.051.009.12.02.031.005.1.017.044.008.094.016.058.01.095.016.066.01.054.01.074.013.02.003.16.027.047.008.074.013.043.007.27.047.026.004.292.05.006.002c36.784 6.37 68.05 17.642 89.767 32.008a10.667 10.667 0 0 0 11.77-17.792c-33.403-22.096-83.259-36.407-140.383-40.297q-.309-.02-.614-.024-.305-.037-.614-.058a454.886 454.886 0 0 0-29.494-.954Z"/>
        <rect width="64" height="64" x="85.333" y="341.333" fill="#0026b6" rx="21.333" ry="21.333"/>
        <rect width="64" height="64" x="85.333" y="426.667" fill="#0026b6" rx="21.333" ry="21.333"/>
        <path fill="#0026b6" d="M64 384a21.333 21.333 0 0 1 21.333 21.333v21.334A21.333 21.333 0 0 1 64 448H42.667a21.333 21.333 0 0 1-21.334-21.333A42.667 42.667 0 0 1 64 384Z"/>
        <rect width="64" height="64" x="362.667" y="341.333" fill="#0026b6" rx="21.333" ry="21.333" transform="rotate(-180 394.667 373.333)"/>
        <rect width="64" height="64" x="362.667" y="426.667" fill="#0026b6" rx="21.333" ry="21.333" transform="rotate(-180 394.667 458.667)"/>
        <path fill="#0026b6" d="M469.334 448h-21.333a21.333 21.333 0 0 1-21.334-21.333v-21.334A21.333 21.333 0 0 1 448.001 384a42.667 42.667 0 0 1 42.666 42.667A21.333 21.333 0 0 1 469.334 448Z"/>
        <ellipse cx="213.333" cy="64" fill="#97623f" rx="26.979" ry="13.489" transform="rotate(-45 213.333 64)"/>
        <circle cx="224" cy="53.333" r="10.667" fill="#a77554"/>
        <path fill="#cc3c00" d="M384 320a21.333 21.333 0 0 0-21.333 21.333l-21.334 85.334S320 448 256 448s-85.333-21.333-85.333-21.333l-21.334-85.334a21.333 21.333 0 1 0-42.666 0L85.333 490.667h341.334l-21.334-149.334A21.333 21.333 0 0 0 384 320Z"/>
        <path fill="#ae2b00" d="M138.667 330.667A10.667 10.667 0 0 0 128 341.333a21.328 21.328 0 0 0 .637 5.174l21.333 85.334a21.333 21.333 0 0 0 5.612 9.91c4.605 4.606 31.093 27.582 100.418 27.582 51.428 0 79.474-13.023 91.614-20.786a10.667 10.667 0 0 0-11.46-17.994c-8.09 5.18-26.366 14.005-59.734 16.665h-.006l-.222.018-.016.002-.22.017h-.01l-.227.018-.35.027h-.001l-.234.017h-.002l-.468.035h-.002l-.347.025h-.01l-.229.016h-.006l-.227.016-.016.002-.225.015h-.009l-.226.016h-.02l-.102.008h-.006l-.115.008h-.009l-.113.008-.474.03h-.011l-.105.007-.012.001-.106.007-.024.001-.104.006h-.006l-.11.008-.024.001-.093.006h-.016l-.229.014-.014.001-.22.013-.029.002-.107.006h-.009l-.104.007h-.02a8.33 8.33 0 0 1-.223.013l-.023.002-.1.005-.012.001-.111.006-.021.001-.097.006h-.017l-.107.007-.028.001-.091.005-.02.001-.229.012-.016.001-.231.012h-.014c-.078.005-.156.01-.233.013h-.012l-.107.006h-.014l-.115.006-.012.001-.103.005-.017.001-.115.006h-.013l-.097.005-.029.001c-.074.004-.145.008-.22.01l-.028.002-.221.01-.032.002-.104.005h-.003l-.116.005-.018.001-.112.005h-.003l-.117.006h-.02l-.109.005h-.003l-.12.006h-.013l-.108.005h-.013l-.237.01-.016.001-.238.01h-.012l-.112.005h-.009l-.12.005h-.009l-.113.005h-.01l-.117.005-.019.001-.096.004h-.025l-.117.005h-.004l-.11.005h-.023l-.23.009h-.025l-.233.01h-.02l-.233.008-.024.001-.102.004h-.015l-.118.004h-.018l-.105.004h-.015l-.117.005h-.02l-.098.003-.026.001-.228.008h-.034l-.09.003-.035.001-.098.003-.036.002-.09.002h-.023l-.111.004-.031.001-.088.003h-.033l-.107.004h-.035l-.081.003-.036.001-.109.003h-.028l-.088.003-.036.001-.113.003h-.006l-.105.003-.038.001-.097.002-.016.001-.112.003h-.034l-.094.003h-.022l-.112.003h-.032l-.09.003h-.031l-.108.003-.034.001-.096.002h-.018l-.121.003h-.012l-.11.003h-.02l-.24.006h-.027l-.101.002h-.02l-.115.003h-.03l-.093.002h-.026l-.114.003h-.028l-.094.002h-.03l-.113.003h-.03l-.087.002h-.036l-.116.002h-.013l-.105.002h-.03l-.23.004h-.043l-.097.002h-.016l-.118.002h-.028l-.107.002h-.012l-.12.002h-.027l-.102.002h-.02l-.117.002h-.031l-.093.001h-.03l-.115.002h-.027l-.095.001h-.032l-.239.003h-.027l-.114.001h-.008l-.122.002h-.151l-.114.002h-.121l-.042.001h-.11l-.03.001h-.091l-.035.001h-.142l-.096.002h-.034l-.238.001h-.154l-.117.001h-.156l-.118.001h-.432l-.117.001H256c-64 0-85.333-21.333-85.333-21.333l-21.334-85.333a10.667 10.667 0 0 0-10.666-10.667Zm257.44 10.748a10.778 10.778 0 0 0-1.521.108 10.667 10.667 0 0 0-9.051 12.068l18.101 126.714a10.669 10.669 0 0 0 10.547 9.16 10.776 10.776 0 0 0 1.521-.11 10.667 10.667 0 0 0 9.052-12.067l-18.103-126.714a10.668 10.668 0 0 0-10.546-9.16Z"/>
        <circle cx="128" cy="448" r="21.333" fill="#4d2100"/>
        <circle cx="117.333" cy="437.333" r="10.667" fill="#5b2c06"/>
        <circle cx="384" cy="448" r="21.333" fill="#4d2100"/>
        <circle cx="373.333" cy="437.333" r="10.667" fill="#5b2c06"/>
    </g>
</svg>
