<svg xmlns="http://www.w3.org/2000/svg" fill="none" viewBox="0 0 512 512">
    <g transform="translate(31.439) scale(.74854)">
        <path fill="#D9D9D9" stroke="#000" stroke-width="3" d="M51.619 424.452c5.823 14.266 12.273 29.517 18.113 42.083 2.92 6.284 5.68 11.88 8.126 16.339 2.47 4.501 4.55 7.71 6.098 9.33 1.108 1.16 2.054 1.553 2.828 1.601.794.049 1.715-.243 2.79-1.046 2.202-1.647 4.475-5.014 6.648-9.364 4.3-8.612 7.784-20.188 9.534-26.559.59-2.148-.333-4.444-2.3-5.771-7.306-4.928-22.798-15.715-33.19-25.355-2.356-2.185-4.82-4.655-7.315-7.284-2.198-2.316-5.596-2.412-8.31-.951-2.706 1.455-4.181 4.137-3.022 6.977Z"/>
        <path fill="#000" stroke="#000" stroke-width="3" d="M60.682 351.365c-2.153 5.89-3.254 15.53 3.956 27.876 5.862 15.946 4.766 26.545 1.189 33.074-3.588 6.549-9.814 9.283-14.827 9.283-4.752 0-9.348-3.385-12.84-9.495-3.467-6.069-5.66-14.553-5.66-24.005 0-7.746 3.39-15.747 8.194-22.445.175 1.755.42 3.169.737 4.271.264.918.606 1.721 1.075 2.338.49.642 1.173 1.144 2.056 1.241.839.092 1.585-.212 2.167-.582.588-.374 1.142-.898 1.656-1.476 1.029-1.157 2.095-2.759 3.15-4.511 1.063-1.765 2.158-3.757 3.233-5.725l.27-.496c.988-1.81 1.957-3.585 2.89-5.178 1.007-1.721 1.934-3.163 2.754-4.17Z"/>
        <mask id="a" fill="#fff">
            <path fill-rule="evenodd" d="M531.601 550.605C513.766 409.922 419.883 237 318.028 237S88.71 385.428 65.471 550.605c-18.483 131.38 35.745 104.552 103.883 65.907 3.501 36.161 19.266 34.646 41.53 32.506 5.74-.552 11.911-1.145 18.416-1.145 5.698 0 10.983.223 15.848.429 26.78 1.135 40.823 1.73 40.823-38.531 0-11.849-1.217-27.015-3.616-43.112 4.116-.556 8.164-.851 12.128-.851.901 0 1.809.014 2.722.043-3.078 16.003-4.749 31.033-4.749 42.664 0 38.399 18.218 37.365 45.135 35.838 5.684-.323 11.755-.667 18.125-.667 9.888 0 17.776 1.382 24.022 2.476 16.838 2.95 21.752 3.812 21.752-30.111 0-4.276-.078-9.075-.249-14.265 5.223 2.601 10.419 5.222 15.564 7.817 78.011 39.353 144.369 72.827 114.796-58.998Z" clip-rule="evenodd"/>
        </mask>
        <path fill="#D9D9D9" fill-rule="evenodd" d="M531.601 550.605C513.766 409.922 419.883 237 318.028 237S88.71 385.428 65.471 550.605c-18.483 131.38 35.745 104.552 103.883 65.907 3.501 36.161 19.266 34.646 41.53 32.506 5.74-.552 11.911-1.145 18.416-1.145 5.698 0 10.983.223 15.848.429 26.78 1.135 40.823 1.73 40.823-38.531 0-11.849-1.217-27.015-3.616-43.112 4.116-.556 8.164-.851 12.128-.851.901 0 1.809.014 2.722.043-3.078 16.003-4.749 31.033-4.749 42.664 0 38.399 18.218 37.365 45.135 35.838 5.684-.323 11.755-.667 18.125-.667 9.888 0 17.776 1.382 24.022 2.476 16.838 2.95 21.752 3.812 21.752-30.111 0-4.276-.078-9.075-.249-14.265 5.223 2.601 10.419 5.222 15.564 7.817 78.011 39.353 144.369 72.827 114.796-58.998Z" clip-rule="evenodd"/>
        <path fill="#000" d="m531.601 550.605-2.976.377.017.141.031.138 2.928-.656Zm-466.13 0 2.971.418-2.97-.418Zm103.883 65.907 2.986-.29-.445-4.6-4.021 2.28 1.48 2.61Zm41.53 32.506.287 2.986-.287-2.986Zm34.264-.716-.127 2.998.127-2.998Zm37.207-81.643-.401-2.973-3.014.407.448 3.008 2.967-.442Zm14.85-.808 2.946.567.665-3.454-3.516-.111-.095 2.998Zm40.386 78.502-.17-2.995.17 2.995Zm42.147 1.809-.517 2.955.517-2.955Zm21.503-44.376 1.338-2.686-4.501-2.241.165 5.025 2.998-.098Zm15.564 7.817-1.351 2.679 1.351-2.679ZM318.028 240c24.589 0 48.919 10.436 71.978 28.575 23.059 18.138 44.686 43.859 63.78 74.074 38.196 60.442 65.976 138.425 74.839 208.333l5.952-.755c-8.972-70.774-37.051-149.594-75.719-210.783-19.337-30.601-41.393-56.903-65.142-75.585C369.968 245.179 344.367 234 318.028 234v6ZM68.442 551.023c11.536-81.998 48.962-159.893 96.143-217.256C211.874 276.273 268.438 240 318.028 240v-6c-52.264 0-110.36 37.941-158.076 95.955-47.824 58.145-85.749 137.053-97.451 220.232l5.941.836Zm99.432 62.879c-17.054 9.672-33.06 18.501-47.235 24.315-14.29 5.861-26.1 8.385-34.99 6.188-8.434-2.084-15.015-8.659-18.403-23.318-3.422-14.807-3.41-37.321 1.196-70.064l-5.941-.836c-4.636 32.946-4.777 56.346-1.1 72.252 3.71 16.054 11.479 24.991 22.809 27.791 10.874 2.688 24.241-.529 38.706-6.462 14.579-5.98 30.903-14.997 47.918-24.647l-2.96-5.219Zm42.723 32.129c-5.614.54-10.58 1.013-15.024.897-4.422-.116-8.061-.815-11.063-2.439-5.787-3.13-10.444-10.441-12.17-28.267l-5.972.579c1.775 18.336 6.751 28.348 15.288 32.966 4.159 2.25 8.855 3.03 13.76 3.159 4.883.127 10.237-.392 15.755-.922l-.574-5.973Zm18.703-1.158c-6.67 0-12.98.608-18.703 1.158l.574 5.973c5.756-.554 11.79-1.131 18.129-1.131v-6Zm15.975.432c-4.859-.206-10.205-.432-15.975-.432v6c5.626 0 10.85.22 15.721.427l.254-5.995Zm37.696-35.534c0 20.104-3.582 28.523-9.075 32.321-2.812 1.945-6.477 2.946-11.315 3.34-4.859.396-10.554.159-17.306-.127l-.254 5.995c6.638.281 12.741.544 18.047.112 5.327-.433 10.194-1.587 14.24-4.385 8.224-5.686 11.663-17.1 11.663-37.256h-6Zm-3.583-42.67c2.383 15.987 3.583 31.002 3.583 42.67h6c0-12.03-1.233-27.348-3.649-43.555l-5.934.885Zm15.095-4.293c-4.113 0-8.295.306-12.529.878l.803 5.946c3.998-.54 7.91-.824 11.726-.824v-6Zm2.817.045a88.683 88.683 0 0 0-2.817-.045v6c.869 0 1.745.014 2.627.042l.19-5.997Zm-1.844 45.662c0-11.382 1.64-26.214 4.695-42.097l-5.892-1.134c-3.101 16.122-4.803 31.352-4.803 43.231h6Zm41.965 32.843c-6.774.384-12.784.721-18.081.444-5.292-.278-9.575-1.162-12.966-3.025-6.425-3.53-10.918-11.369-10.918-30.262h-6c0 19.506 4.616 30.35 14.029 35.521 4.528 2.487 9.846 3.459 15.541 3.757 5.689.299 12.051-.066 18.735-.445l-.34-5.99Zm18.295-.672c-6.467 0-12.621.35-18.295.672l.34 5.99c5.694-.323 11.683-.662 17.955-.662v-6Zm24.54 2.521c-6.259-1.096-14.37-2.521-24.54-2.521v6c9.605 0 17.27 1.339 23.505 2.431l1.035-5.91Zm18.234-27.156c0 8.445-.308 14.562-.995 18.969-.698 4.475-1.724 6.73-2.784 7.893-.906.994-2.157 1.531-4.507 1.56-2.486.03-5.635-.51-9.948-1.266l-1.035 5.91c4.105.72 7.885 1.394 11.056 1.355 3.306-.04 6.441-.855 8.868-3.517 2.273-2.494 3.528-6.199 4.278-11.011.761-4.88 1.067-11.376 1.067-19.893h-6Zm-.247-14.167c.169 5.161.247 9.927.247 14.167h6c0-4.311-.079-9.144-.25-14.364l-5.997.197Zm19.914 5.041c-5.145-2.595-10.348-5.22-15.578-7.825l-2.675 5.371c5.215 2.597 10.404 5.215 15.55 7.811l2.703-5.357Zm110.516-55.664c7.373 32.866 8.64 54.949 5.509 69.06-1.553 6.997-4.149 11.854-7.45 15.128-3.279 3.251-7.466 5.152-12.604 5.876-10.485 1.477-24.529-1.996-41.214-8.591-16.576-6.552-35.219-15.953-54.757-25.809l-2.703 5.357c19.467 9.82 38.373 19.36 55.255 26.032 16.773 6.63 32.098 10.665 44.257 8.952 6.184-.871 11.638-3.241 15.99-7.557 4.33-4.293 7.355-10.3 9.083-18.088 3.431-15.46 1.903-38.626-5.511-71.673l-5.855 1.313Z" mask="url(#a)"/>
        <mask id="b" fill="#fff">
            <path fill-rule="evenodd" d="M17.08 557.043c-4.619 7.003-8.42 15.082-11.293 23.928-12.033 37.048-3.232 73.512 33.23 86.148 36.464 12.637 75.777-7.152 87.809-44.2 12.033-37.048-7.771-77.326-44.234-89.962-12.182-4.222-23.455-4.399-33.514-1.381l13.41 54.331-45.409-28.864Z" clip-rule="evenodd"/>
        </mask>
        <path fill="#000" fill-rule="evenodd" d="M17.08 557.043c-4.619 7.003-8.42 15.082-11.293 23.928-12.033 37.048-3.232 73.512 33.23 86.148 36.464 12.637 75.777-7.152 87.809-44.2 12.033-37.048-7.771-77.326-44.234-89.962-12.182-4.222-23.455-4.399-33.514-1.381l13.41 54.331-45.409-28.864Z" clip-rule="evenodd"/>
        <path fill="#000" d="m17.08 557.043 1.557-2.548-2.458-1.563-1.588 2.409 2.488 1.702Zm31.998-25.467-.889-2.894-2.689.807.685 2.776 2.893-.689Zm13.41 54.331-1.557 2.548 6.226 3.958-1.776-7.194-2.892.688Zm-53.866-3.954c2.8-8.62 6.49-16.452 10.946-23.208l-4.977-3.404c-4.781 7.25-8.692 15.576-11.638 24.647l5.669 1.965Zm31.323 82.313c-17.36-6.016-27.97-17.596-32.912-32.016-4.982-14.533-4.285-32.211 1.589-50.297l-5.67-1.965c-6.158 18.962-7.077 38.041-1.551 54.16 5.565 16.234 17.588 29.205 36.69 35.825l1.854-5.707Zm84.047-42.33c-11.529 35.498-49.175 54.416-84.047 42.33l-1.854 5.707c38.053 13.187 79.034-7.473 91.57-46.072l-5.669-1.965ZM81.665 535.81c34.873 12.085 53.856 50.629 42.327 86.126l5.669 1.965c12.536-38.599-8.089-80.61-46.142-93.798l-1.854 5.707Zm-31.698-1.339c9.42-2.827 20.056-2.696 31.698 1.339l1.854-5.707c-12.723-4.409-24.632-4.631-35.33-1.421l1.778 5.789Zm-3.782-2.206 13.41 54.33 5.786-1.376-13.41-54.331-5.786 1.377Zm17.861 51.094-45.409-28.864-3.116 5.096 45.41 28.864 3.115-5.096Z" mask="url(#b)"/>
        <mask id="c" fill="#fff">
            <path fill-rule="evenodd" d="M549.471 522.853c-8.113-1.487-16.806-1.661-25.761-.552-37.503 4.646-65.394 30.047-60.459 72.562 4.936 42.515 39.339 73.215 76.843 68.569 37.503-4.645 63.905-42.877 58.969-85.392-1.648-14.205-6.421-25.658-13.444-34.44l-41.427 38.148 5.279-58.895Z" clip-rule="evenodd"/>
        </mask>
        <path fill="#000" fill-rule="evenodd" d="M549.471 522.853c-8.113-1.487-16.806-1.661-25.761-.552-37.503 4.646-65.394 30.047-60.459 72.562 4.936 42.515 39.339 73.215 76.843 68.569 37.503-4.645 63.905-42.877 58.969-85.392-1.648-14.205-6.421-25.658-13.444-34.44l-41.427 38.148 5.279-58.895Z" clip-rule="evenodd"/>
        <path fill="#000" d="m549.471 522.853 2.985.246.243-2.711-2.668-.489-.56 2.954Zm36.148 20.747 2.345-1.888-1.996-2.496-2.368 2.18 2.019 2.204Zm-41.427 38.148-2.985-.247-.69 7.694 5.695-5.244-2.02-2.203Zm-20.136-56.467c8.685-1.076 17.07-.901 24.854.526l1.121-5.908c-8.441-1.547-17.442-1.721-26.667-.578l.692 5.96Zm-57.828 69.213c-2.378-20.491 3.155-36.578 13.555-48.109 10.451-11.588 26.068-18.849 44.273-21.104l-.692-5.96c-19.298 2.391-36.379 10.153-48.015 23.056-11.688 12.96-17.632 30.831-15.075 52.855l5.954-.738Zm73.52 65.958c-35.522 4.4-68.733-24.729-73.52-65.958l-5.954.738c5.085 43.801 40.68 76.071 80.166 71.18l-.692-5.96Zm56.338-82.043c4.786 41.229-20.816 77.643-56.338 82.043l.692 5.96c39.485-4.891 66.686-44.939 61.601-88.741l-5.955.738Zm-12.811-32.921c6.632 8.293 11.219 19.202 12.811 32.921l5.955-.738c-1.706-14.69-6.663-26.689-14.077-35.959l-4.689 3.776Zm.325-4.092-41.427 38.148 4.039 4.407 41.427-38.147-4.039-4.408Zm-36.423 40.598 5.279-58.895-5.971-.492-5.278 58.894 5.97.493Z" mask="url(#c)"/>
        <mask id="d" fill="#fff">
            <path fill-rule="evenodd" d="M352.627 681.568c28.978-3.59 50.724-21.526 48.573-40.061-1.627-14.016-14.883-11.472-33.779-7.847-6.094 1.169-12.774 2.451-19.84 3.326-9.779 1.212-19.696-.969-28.244-2.849-16.782-3.69-28.282-6.219-23.076 20.369 1.566 13.487 15.354 23.575 33.912 26.687l12.99-14.701.995 15.689a82.754 82.754 0 0 0 8.469-.613Z" clip-rule="evenodd"/>
        </mask>
        <path fill="#000" fill-rule="evenodd" d="M352.627 681.568c28.978-3.59 50.724-21.526 48.573-40.061-1.627-14.016-14.883-11.472-33.779-7.847-6.094 1.169-12.774 2.451-19.84 3.326-9.779 1.212-19.696-.969-28.244-2.849-16.782-3.69-28.282-6.219-23.076 20.369 1.566 13.487 15.354 23.575 33.912 26.687l12.99-14.701.995 15.689a82.754 82.754 0 0 0 8.469-.613Z" clip-rule="evenodd"/>
        <path fill="#000" d="m367.421 633.66.542 2.949-.542-2.949Zm-48.084.477-.663 2.933.663-2.933Zm-23.076 20.369 2.978-.369-.014-.116-.022-.114-2.942.599Zm33.912 26.687-.516 2.962 1.643.276 1.111-1.257-2.238-1.981Zm12.99-14.701 2.992-.213-.455-7.171-4.774 5.403 2.237 1.981Zm.995 15.689-2.991.213.181 2.847 2.849-.058-.039-3.002Zm54.064-40.305c.918 7.901-3.215 16.096-11.53 22.954-8.283 6.832-20.403 12.023-34.411 13.758l.692 5.96c14.97-1.855 28.212-7.426 37.509-15.093 9.265-7.642 14.929-17.683 13.695-28.317l-5.955.738Zm-30.259-5.267c9.648-1.851 17.148-3.257 22.466-2.657 2.556.288 4.255 1.013 5.394 2.094 1.12 1.062 2.048 2.799 2.399 5.83l5.955-.738c-.462-3.977-1.801-7.178-4.215-9.468-2.394-2.271-5.495-3.311-8.819-3.686-6.44-.726-15.016.953-24.265 2.727l1.085 5.898Zm-20.036 3.357c7.179-.889 13.954-2.19 20.036-3.357l-1.085-5.898c-6.104 1.171-12.69 2.434-19.643 3.295l.692 5.96Zm-29.253-2.896c8.463 1.861 18.882 4.181 29.253 2.896l-.692-5.96c-9.186 1.138-18.602-.904-27.235-2.802l-1.326 5.866Zm-19.471 16.837c-1.277-6.522-1.453-10.918-.941-13.818.487-2.759 1.526-3.875 2.648-4.454 1.36-.702 3.481-.948 6.685-.623 3.15.319 6.832 1.125 11.079 2.058l1.326-5.866c-4.144-.911-8.193-1.806-11.757-2.167-3.509-.356-7.085-.265-10.046 1.263-3.2 1.651-5.109 4.657-5.838 8.786-.704 3.989-.365 9.247.961 16.019l5.883-1.198Zm31.486 24.325c-18.08-3.032-30.117-12.607-31.45-24.095l-5.955.738c1.798 15.486 17.336 26.088 36.373 29.28l1.032-5.923Zm1.722 4.942 12.99-14.701-4.475-3.962-12.991 14.701 4.476 3.962Zm7.761-16.47.995 15.69 5.983-.426-.995-15.689-5.983.425Zm12.109 11.884a79.9 79.9 0 0 1-8.162.591l.078 6.004a85.892 85.892 0 0 0 8.776-.635l-.692-5.96Z" mask="url(#d)"/>
        <mask id="e" fill="#fff">
            <path fill-rule="evenodd" d="M227.785 683.357c-28.978-3.59-50.725-21.526-48.573-40.061 1.627-14.016 14.882-11.473 33.779-7.847 6.093 1.169 12.774 2.451 19.84 3.326 9.778 1.211 19.696-.969 28.244-2.849 16.782-3.69 28.282-6.219 23.075 20.369-1.565 13.487-15.353 23.575-33.911 26.687l-12.991-14.701-.995 15.689a82.755 82.755 0 0 1-8.468-.613Z" clip-rule="evenodd"/>
        </mask>
        <path fill="#000" fill-rule="evenodd" d="M227.785 683.357c-28.978-3.59-50.725-21.526-48.573-40.061 1.627-14.016 14.882-11.473 33.779-7.847 6.093 1.169 12.774 2.451 19.84 3.326 9.778 1.211 19.696-.969 28.244-2.849 16.782-3.69 28.282-6.219 23.075 20.369-1.565 13.487-15.353 23.575-33.911 26.687l-12.991-14.701-.995 15.689a82.755 82.755 0 0 1-8.468-.613Z" clip-rule="evenodd"/>
        <path fill="#000" d="m212.991 635.449-.543 2.949.543-2.949Zm48.084.477.663 2.933-.663-2.933Zm23.075 20.369-2.977-.369.013-.116.023-.115 2.941.6Zm-33.911 26.687.516 2.962-1.644.275-1.11-1.256 2.238-1.981Zm-12.991-14.701-2.991-.213.455-7.171 4.774 5.403-2.238 1.981Zm-.995 15.689 2.991.212-.18 2.848-2.85-.058.039-3.002Zm-54.064-40.305c-.917 7.901 3.216 16.096 11.531 22.954 8.283 6.831 20.403 12.023 34.411 13.758l-.692 5.96c-14.97-1.855-28.212-7.426-37.509-15.094-9.265-7.641-14.93-17.682-13.695-28.316l5.954.738Zm30.259-5.267c-9.647-1.851-17.148-3.257-22.466-2.657-2.555.288-4.254 1.013-5.394 2.094-1.12 1.062-2.047 2.799-2.399 5.83l-5.954-.738c.461-3.978 1.801-7.178 4.215-9.468 2.394-2.271 5.495-3.311 8.818-3.686 6.441-.726 15.017.952 24.265 2.727l-1.085 5.898Zm20.037 3.357c-7.18-.889-13.954-2.19-20.037-3.357l1.085-5.898c6.105 1.171 12.691 2.434 19.644 3.295l-.692 5.96Zm29.253-2.896c-8.463 1.861-18.882 4.181-29.253 2.896l.692-5.96c9.185 1.138 18.602-.904 27.234-2.802l1.327 5.866Zm19.471 16.836c1.277-6.521 1.453-10.918.941-13.817-.487-2.759-1.526-3.875-2.648-4.454-1.361-.702-3.481-.949-6.686-.624-3.149.32-6.831 1.125-11.078 2.059l-1.327-5.866c4.144-.911 8.194-1.806 11.757-2.167 3.509-.356 7.085-.265 10.047 1.263 3.2 1.651 5.108 4.657 5.838 8.786.704 3.989.365 9.246-.961 16.019l-5.883-1.199Zm-31.486 24.325c18.079-3.031 30.116-12.606 31.45-24.094l5.954.737c-1.797 15.486-17.335 26.089-36.372 29.281l-1.032-5.924Zm-1.722 4.943-12.991-14.702 4.476-3.961 12.991 14.701-4.476 3.962Zm-7.762-16.47-.995 15.689-5.982-.425.995-15.689 5.982.425Zm-12.108 11.884a79.88 79.88 0 0 0 8.161.591l-.078 6.004a85.873 85.873 0 0 1-8.775-.635l.692-5.96Z" mask="url(#e)"/>
        <path stroke="#000" stroke-linecap="round" stroke-width="3" d="M298.536 564.133s-.127-26.011 3.243-42.707c3.208-15.895 6.485-24.285 6.485-24.285m-27.562 66.992s.127-26.011-3.243-42.707c-3.208-15.895-6.485-24.285-6.485-24.285"/>
        <path fill="#000" stroke="#000" stroke-width="3" d="M154.147 350.492c2.864-.282 6.94.249 11.818 1.553 4.849 1.296 10.377 3.324 16.103 5.942 11.464 5.24 23.597 12.786 32.554 21.385 9.016 8.655 14.508 18.073 13.46 27.098-1.038 8.938-8.601 18.251-27.589 26.476-4.946 2.142-7.308 5.007-8.715 8.436-.678 1.651-1.125 3.41-1.554 5.172l-.126.517c-.393 1.621-.792 3.267-1.361 4.99-1.243 3.761-3.303 7.896-7.842 12.356-4.565 4.485-11.685 9.345-23.115 14.451-4.932 2.203-8.478 2.902-11.277 2.72-2.76-.179-4.959-1.225-7.2-2.853-1.133-.823-2.261-1.783-3.482-2.853l-.833-.733c-.97-.855-2.002-1.765-3.106-2.68-2.872-2.382-6.299-4.863-10.864-6.931-.853-.386-1.75-.53-2.641-.317-.88.211-1.581.73-2.128 1.351-1.045 1.187-1.753 3.006-2.305 4.939-.568 1.983-1.034 4.328-1.482 6.738a379.19 379.19 0 0 0-.336 1.832c-.337 1.846-.677 3.706-1.06 5.51-.509 2.401-1.079 4.626-1.785 6.475-.715 1.875-1.511 3.202-2.379 3.961-.777.68-1.65.948-2.863.632-1.333-.348-3.133-1.426-5.49-3.731-12.415-12.14-11.145-29.093-5.556-44.8 5.125-14.399 13.716-27.252 17.798-33.36.356-.533.678-1.014.96-1.441 1.855-2.804 4.718-8.132 8.115-14.453l.013-.024.041-.076c3.415-6.354 7.405-13.778 11.562-20.899 4.179-7.157 8.496-13.955 12.538-19.027 2.022-2.537 3.94-4.598 5.704-6.049 1.792-1.476 3.271-2.193 4.423-2.307Z"/>
        <path fill="#D9D9D9" stroke="#000" stroke-width="3" d="M485.622 203.798c-8.739 58.978-27.049 106.542-55.488 139.341-28.404 32.759-67.001 50.899-116.613 50.899-49.781 0-97.774-12.879-135.091-43.027-37.291-30.127-64.082-77.628-71.252-147.203-6.525-63.301 13.599-103.499 47.518-127.961C188.744 51.292 236.94 42.41 286.844 42.41c49.972 0 102.177 5.993 140.613 29.146 19.185 11.556 34.932 27.383 45.283 48.894 10.349 21.509 15.347 48.797 12.882 83.347Z"/>
        <path fill="#E0B4B4" stroke="#000" stroke-width="3" d="M449.781 319.087c0 20.216-16.693 38.936-44.643 52.691-27.852 13.707-66.436 22.228-109.136 22.228-42.7 0-81.284-8.521-109.137-22.228-27.949-13.755-44.642-32.475-44.642-52.691 0-11.745 4.794-27.068 14.05-41.212 9.243-14.125 22.851-26.945 40.341-33.81 12.925-5.074 28.461-5.108 45.539-3.808 5.27.402 10.692.932 16.213 1.471 12.245 1.196 24.98 2.44 37.636 2.44 14.871 0 29.314-1.666 42.893-3.233 5.731-.662 11.307-1.305 16.697-1.798 18.29-1.673 34.471-1.625 48.059 4.884 14.105 6.757 25.655 20.201 33.694 34.735 8.044 14.542 12.436 29.925 12.436 40.331Z"/>
        <path fill="#000" stroke="#000" stroke-width="3" d="M510.499 474c0 5.941-3.002 15.929-8.063 26.454-5.038 10.479-11.992 21.232-19.671 28.717-7.742 7.549-15.823 11.413-23.275 9.157-7.516-2.275-15.213-10.995-21.562-30.786-1.646-5.133-4.265-7.765-7.539-9.501-1.576-.837-3.283-1.455-4.994-2.055l-.503-.176c-1.574-.55-3.173-1.109-4.832-1.845-3.62-1.606-7.533-4.062-11.526-9.017-4.015-4.984-8.152-12.546-12.111-24.422-1.708-5.125-2.055-8.722-1.6-11.49.45-2.729 1.707-4.814 3.547-6.885.93-1.046 1.997-2.075 3.182-3.185l.81-.757c.947-.881 1.954-1.819 2.973-2.828 2.652-2.624 5.458-5.791 7.964-10.131 1.607-2.783 1.539-5.407 1.012-7.88-.225-1.057-.543-2.123-.848-3.148l-.127-.425c-.349-1.18-.675-2.331-.885-3.526-.413-2.341-.387-4.853.913-7.8 1.318-2.99 3.995-6.538 9.099-10.822 13.59-11.406 26.1-11.945 36.412-8.773 9.908 3.049 17.866 9.545 22.887 13.644l.79.644c1.074.873 2.368 2.495 3.819 4.83 1.433 2.307 2.956 5.203 4.516 8.522 3.119 6.637 6.344 14.876 9.26 23.279 2.915 8.399 5.512 16.935 7.377 24.156 1.881 7.282 2.975 13.065 2.975 16.049ZM485.5 160.942c0 5.037-2.654 13.567-7.164 22.596-4.485 8.977-10.673 18.185-17.5 24.591-6.883 6.459-14.044 9.744-20.633 7.824-6.629-1.932-13.46-9.344-19.111-26.3-1.49-4.47-3.866-6.766-6.818-8.273-1.416-.724-2.947-1.257-4.472-1.772l-.448-.151c-1.405-.472-2.825-.95-4.3-1.58-3.213-1.372-6.679-3.467-10.217-7.693-3.56-4.252-7.237-10.717-10.761-20.892-1.516-4.378-1.813-7.419-1.417-9.735.39-2.279 1.48-4.03 3.107-5.792.823-.891 1.769-1.769 2.825-2.722l.721-.648c.845-.757 1.745-1.564 2.657-2.432 2.372-2.259 4.888-4.992 7.137-8.74 1.475-2.459 1.409-4.786.93-6.948-.203-.918-.489-1.844-.762-2.723l-.112-.364c-.312-1.012-.598-1.988-.783-2.997-.36-1.968-.338-4.069.796-6.544 1.156-2.523 3.516-5.545 8.058-9.214 12.076-9.756 23.191-10.218 32.357-7.504 8.811 2.61 15.888 8.17 20.366 11.688l.703.551c.933.731 2.072 2.101 3.362 4.098 1.271 1.97 2.625 4.448 4.014 7.292 2.777 5.687 5.65 12.751 8.248 19.959 2.598 7.204 4.911 14.524 6.573 20.716 1.678 6.253 2.644 11.187 2.644 13.709Z"/>
        <path fill="#D9D9D9" fill-rule="evenodd" d="M430.524 68.16c-20.461 13.97-19.058 43.887-14.543 43.887 0 0 27.932-22.997 48.439-34.511 21.549-12.1 58.927-25.009 58.927-25.009-18.795-9.779-67.181-1.875-92.823 15.633Z" clip-rule="evenodd"/>
        <path fill="#E0B4B4" d="M425.535 126.414c13.168 15.088 32.331 24.956 60.703 5.584 28.373-19.372 55.21-60.648 42.042-75.736-1.267-1.452-2.932-2.694-4.933-3.735 0 0-37.378 12.91-58.927 25.009-20.507 11.514-48.439 34.511-48.439 34.511 2.44 5.277 5.882 10.16 9.554 14.367Z"/>
        <path stroke="#000" stroke-width="3" d="M504.483 49.792c5.819.277 10.908 1.138 14.945 2.587a643.97 643.97 0 0 0-18.139 6.822c-12.051 4.744-26.868 11.029-37.741 17.134-10.348 5.81-22.524 14.489-32.081 21.685a587.057 587.057 0 0 0-11.875 9.188 508.417 508.417 0 0 0-3.455 2.771l-.235.191c-.334-.662-.649-1.723-.861-3.158-.423-2.865-.392-6.903.409-11.407 1.608-9.03 6.252-19.618 16.06-26.315 12.58-8.59 30.843-14.877 48.329-17.791 8.731-1.456 17.215-2.06 24.644-1.707Zm17.837 4.628.915-.323c1.553.882 2.826 1.887 3.806 3.01 2.891 3.313 3.729 8.243 2.651 14.37-1.073 6.094-4.003 13.126-8.262 20.361-8.519 14.472-22.185 29.476-36.178 39.03-13.96 9.531-25.389 11.697-34.776 9.881-9.444-1.827-17.224-7.758-23.703-15.18-3.39-3.885-6.563-8.338-8.901-13.123l.433-.352a468.29 468.29 0 0 1 3.434-2.754 577.08 577.08 0 0 1 11.814-9.141c9.537-7.181 21.58-15.758 31.739-21.463 10.676-5.993 25.322-12.213 37.348-16.948a638.89 638.89 0 0 1 15.166-5.746 536.4 536.4 0 0 1 4.514-1.622Z"/>
        <path fill="#D9D9D9" fill-rule="evenodd" d="M161.476 68.16c20.461 13.97 19.058 43.887 14.543 43.887 0 0-27.932-22.997-48.439-34.511-21.549-12.1-58.927-25.009-58.927-25.009 18.795-9.779 67.181-1.875 92.823 15.633Z" clip-rule="evenodd"/>
        <path fill="#E0B4B4" d="M166.465 126.414c-13.168 15.088-32.331 24.956-60.703 5.584-28.373-19.372-55.21-60.648-42.042-75.736 1.267-1.452 2.932-2.694 4.933-3.735 0 0 37.378 12.91 58.927 25.009 20.507 11.514 48.439 34.511 48.439 34.511-2.44 5.277-5.882 10.16-9.554 14.367Z"/>
        <path stroke="#000" stroke-width="3" d="M87.517 49.792c-5.82.277-10.908 1.138-14.945 2.587a642.332 642.332 0 0 1 18.14 6.822c12.05 4.744 26.867 11.029 37.74 17.134 10.348 5.81 22.524 14.489 32.081 21.685a587.057 587.057 0 0 1 11.875 9.188 508.417 508.417 0 0 1 3.455 2.771l.235.191c.334-.662.649-1.723.861-3.158.423-2.865.392-6.903-.409-11.407-1.608-9.03-6.252-19.618-16.06-26.315-12.58-8.59-30.843-14.877-48.329-17.791-8.731-1.456-17.215-2.06-24.644-1.707ZM69.68 54.42a347.58 347.58 0 0 0-.915-.323c-1.553.882-2.826 1.887-3.806 3.01-2.89 3.313-3.729 8.243-2.65 14.37 1.072 6.094 4.002 13.126 8.261 20.361 8.519 14.472 22.185 29.476 36.178 39.03 13.96 9.531 25.389 11.697 34.776 9.881 9.444-1.827 17.224-7.758 23.703-15.18 3.39-3.885 6.563-8.338 8.901-13.123l-.433-.352a468.29 468.29 0 0 0-3.434-2.754 577.08 577.08 0 0 0-11.814-9.141c-9.537-7.181-21.58-15.758-31.739-21.463-10.676-5.993-25.322-12.213-37.348-16.948a639.222 639.222 0 0 0-15.166-5.746 526.413 526.413 0 0 0-4.514-1.622Z"/>
        <path fill="#AF9C9C" stroke="#000" stroke-width="3" d="M423.725 6.652c1.68 13.03 3.419 28.63 4.142 41.954.362 6.666.467 12.73.19 17.603-.139 2.437-.372 4.548-.707 6.273-.34 1.749-.766 2.991-1.229 3.764-.928 1.55-2.954 2.251-6.677 1.584-3.626-.65-8.189-2.511-13.114-5.053-9.815-5.067-20.618-12.603-27.371-17.57-2.691-1.979-2.738-6.021-.066-8.425 6.57-5.912 16.676-15.506 22.713-23.712 3.675-4.995 7.154-11.257 10.179-17.425 1.281-2.612 4.053-3.826 6.725-3.594 2.658.232 4.861 1.85 5.215 4.6Zm-261.666 0c-1.68 13.03-3.419 28.63-4.142 41.954-.362 6.666-.467 12.73-.19 17.603.139 2.437.372 4.548.707 6.273.341 1.749.766 2.991 1.229 3.764.928 1.55 2.954 2.251 6.678 1.584 3.625-.65 8.189-2.511 13.113-5.053 9.815-5.067 20.618-12.603 27.371-17.57 2.691-1.979 2.738-6.021.067-8.425-6.57-5.912-16.677-15.506-22.714-23.712-3.675-4.995-7.154-11.257-10.179-17.425-1.281-2.612-4.053-3.826-6.725-3.594-2.658.232-4.86 1.85-5.215 4.6Z"/>
        <path stroke="#000" stroke-linecap="round" stroke-width="6" d="M210.001 316.301S269.532 336.105 306 336c36.017-.104 102-19.699 102-19.699"/>
        <path fill="#000" d="M239.465 255.729c0 3.501 2.092 8.1-3.186 8.1-5.277 0-15.926-4.599-15.926-8.1 0-3.501 4.278-6.339 9.556-6.339 5.277 0 9.556 2.838 9.556 6.339Z"/>
        <path fill="#000" d="M239.465 255.729c0 3.501 2.092 8.1-3.186 8.1-5.277 0-15.926-4.599-15.926-8.1 0-3.501 4.278-6.339 9.556-6.339 5.277 0 9.556 2.838 9.556 6.339Zm132.186 0c0 3.501-10.649 9.156-15.926 9.156-5.278 0-3.185-5.655-3.185-9.156 0-3.501 4.278-6.339 9.555-6.339 5.278 0 9.556 2.838 9.556 6.339Z"/>
        <path fill="#000" d="M371.651 255.729c0 3.501-10.649 9.156-15.926 9.156-5.278 0-3.185-5.655-3.185-9.156 0-3.501 4.278-6.339 9.555-6.339 5.278 0 9.556 2.838 9.556 6.339Zm5.574-99.661c0 10.308-6.774 18.664-15.13 18.664-8.356 0-15.13-8.356-15.13-18.664 0-10.309 6.774-18.665 15.13-18.665 8.356 0 15.13 8.356 15.13 18.665Z"/>
        <path fill="#000" d="M377.225 156.068c0 10.308-6.774 18.664-15.13 18.664-8.356 0-15.13-8.356-15.13-18.664 0-10.309 6.774-18.665 15.13-18.665 8.356 0 15.13 8.356 15.13 18.665Zm-136.168 0c0 10.308-6.774 18.664-15.13 18.664-8.356 0-15.129-8.356-15.129-18.664 0-10.309 6.773-18.665 15.129-18.665s15.13 8.356 15.13 18.665Z"/>
        <path fill="#000" d="M241.057 156.068c0 10.308-6.774 18.664-15.13 18.664-8.356 0-15.129-8.356-15.129-18.664 0-10.309 6.773-18.665 15.129-18.665s15.13 8.356 15.13 18.665Z"/>
        <path fill="#000" stroke="#000" stroke-width="3" d="M167.756 548.81c1.086-4.493 4.795-11.603 9.899-18.813 5.083-7.183 11.405-14.259 17.557-18.742 3.079-2.243 6.034-3.777 8.706-4.398 2.638-.614 4.934-.33 6.883.968 1.987 1.324 3.83 3.846 5.22 8.145 1.388 4.294 2.281 10.23 2.459 18.178.093 4.166 1.265 6.662 3.114 8.593.876.915 1.874 1.67 2.839 2.385l.283.21c.89.658 1.769 1.308 2.654 2.099 3.734 3.336 7.95 9.506 8.567 28.707.133 4.137-.308 6.907-1.096 8.924-.775 1.983-1.927 3.343-3.424 4.603-.763.642-1.609 1.252-2.556 1.914l-.644.448c-.757.526-1.569 1.09-2.4 1.704-2.168 1.604-4.534 3.602-6.923 6.538-1.554 1.909-1.992 3.937-2.115 5.9-.052.841-.048 1.703-.044 2.527l.001.342c.003.947-.004 1.866-.09 2.798-.169 1.832-.644 3.718-1.984 5.732-1.355 2.036-3.651 4.29-7.602 6.739-5.287 3.28-9.827 4.489-13.702 4.446-3.872-.043-7.209-1.338-10.095-3.283-5.556-3.744-9.309-9.791-11.724-13.681l-.367-.591c-.477-.765-.983-2.144-1.467-4.139-.474-1.957-.899-4.378-1.27-7.131-.741-5.504-1.256-12.242-1.547-19.061-.291-6.815-.356-13.685-.204-19.447.154-5.813.528-10.359 1.072-12.614Z"/>
    </g>
</svg>
