<svg xmlns="http://www.w3.org/2000/svg" xml:space="preserve" viewBox="0 0 512 512">
    <path fill="#774633" d="m19.567 482.9 25.326 14.74c32.87 19.106 54.425-10.484 61.15-21.818a217.988 217.988 0 0 1 2.253-4.12v.001c38.228-68.225 103.619-97.19 103.619-97.19l-58.235-58.236L21.107 448.848c-21.045 21.045-4.118 32.495-1.54 34.052z"/>
    <path fill="#636d77" d="m197.639 360.24-43.96-43.96 29.878-29.878 43.959 43.96z"/>
    <path fill="#d6e0e0" d="m467.036 13.258-5.17-5.17-278.311 278.311 65.206 65.206c12.541 12.544 32.883 12.544 45.427 0l172.847-172.847c45.701-45.701 45.702-119.798.001-165.5z"/>
    <path fill="#020202" d="m42.136 463.676 129.472-129.472-17.928-17.928L21.107 448.848c-21.045 21.045-4.118 32.496-1.54 34.053l14.553 8.47c-3.53-5.633-4.796-14.883 8.016-27.695zm132.573-132.573 26.775-26.776-17.93-17.928-29.874 29.876 43.96 43.96 3.1-3.1z" opacity=".2"/>
    <path fill="#020202" d="M204.584 301.227 478.815 26.996a118.03 118.03 0 0 0-11.779-13.738l-5.17-5.17-278.311 278.311 65.206 65.206a31.942 31.942 0 0 0 14.551 8.35l-58.728-58.728z" opacity=".2"/>
    <path fill="#ebeded" d="m435.121 157.226-190.37 190.37 4.009 4.008c12.541 12.544 32.883 12.544 45.427 0l172.847-172.847c24.086-24.085 35.463-56.057 34.162-87.604l-47.203 47.202"/>
    <path fill="#020202" d="m472.754 7.538-5.17-5.17a8.088 8.088 0 0 0-11.438 0l-278.31 278.311-.01.011-29.865 29.865L15.388 443.128C5.907 452.61 1.662 462.05 2.773 471.186c1.342 11.035 9.993 17.055 12.612 18.638l.113.068 25.33 14.742c8.409 4.887 16.893 7.365 25.214 7.367h.003c25.214 0 41.237-22.414 46.956-32.05.065-.11.126-.22.185-.332a213.583 213.583 0 0 1 2.152-3.935c.006-.014.014-.026.022-.039 36.375-64.909 99.208-93.46 99.83-93.737a8.089 8.089 0 0 0 2.445-13.115l-8.557-8.557 18.438-18.439 11.514 11.514.005.005 4.007 4.007c7.594 7.595 17.69 11.777 28.432 11.777 10.741 0 20.838-4.182 28.433-11.776l172.847-172.847c23.63-23.631 36.644-55.05 36.644-88.47.002-33.418-13.012-64.838-36.644-88.469zM101.24 467.748l-.053.095-.036.066a224.767 224.767 0 0 0-2.157 3.943c-4.382 7.34-16.171 23.972-32.952 23.972-5.43-.001-11.178-1.742-17.081-5.174l-25.256-14.699c-.617-.38-4.406-2.863-4.875-6.717-.467-3.836 2.374-9.045 7.995-14.666L153.68 327.712l25.51 25.51 19.132 19.132c-20.502 11.29-66.748 41.258-97.082 95.393zm114.837-137.389L197.64 348.8l-32.521-32.522 18.436-18.438 22.207 22.207 10.314 10.313zm72.391 15.526a23.875 23.875 0 0 1-19.244 6.93c-.244-.024-.483-.065-.725-.094a23.644 23.644 0 0 1-1.483-.219c-.28-.053-.559-.12-.838-.182a23.034 23.034 0 0 1-1.323-.33 24.744 24.744 0 0 1-2.108-.713 26.772 26.772 0 0 1-.824-.334 23.57 23.57 0 0 1-1.235-.584c-.25-.126-.505-.248-.752-.383-.443-.244-.875-.51-1.303-.782-.195-.124-.396-.237-.588-.367-.607-.41-1.2-.848-1.773-1.317L440.84 162.945a8.089 8.089 0 1 0-11.439-11.44L244.752 336.158l-29.627-29.627-20.131-20.13 266.87-266.872c18.34 18.596 29.201 42.632 31.069 68.449l-44.659 44.658a8.089 8.089 0 1 0 11.44 11.439l32.339-32.34c-3.16 21.533-12.725 41.826-27.558 57.98l-.334.36a107.433 107.433 0 0 1-2.847 2.965L288.468 345.885z"/>
    <path fill="#020202" d="M154.303 364.413a8.09 8.09 0 0 0-11.44 0l-89.435 89.435a8.088 8.088 0 1 0 11.438 11.44l89.436-89.436a8.087 8.087 0 0 0 0-11.439z"/>
</svg>
