<svg xmlns="http://www.w3.org/2000/svg" fill="none" viewBox="0 0 512 512">
    <path fill="#AB54EF" d="M86.475 347.612s9.014-176.375 162.239-176.375c6.378 0 12.514.254 18.416.742 149.833 12.375 149.833 175.633 149.833 175.633s-28.643-26.518-51.075-26.38c-22.173.134-50.325 26.38-50.325 26.38s-17.276-26.38-52.577-26.38c-35.302 0-58.587 26.38-58.587 26.38s-.551-.91-1.685-2.396c-4.996-6.54-21.303-24.189-51.645-23.985-36.381.243-64.594 26.381-64.594 26.381Z"/>
    <path stroke="#000" stroke-width="5.137" d="M248.714 171.237c-153.225 0-162.24 176.375-162.24 176.375s28.212-26.138 64.597-26.38c30.34-.205 46.647 17.445 51.643 23.984m46-173.979c6.378 0 12.514.254 18.416.742m-18.416-.742s-39.804 31.68-49.222 79.626c-9.566 48.698 3.222 94.353 3.222 94.353m112.85 2.396s-17.277-26.38-52.578-26.38c-35.302 0-58.587 26.38-58.587 26.38s-.551-.91-1.685-2.396m112.85 2.396s28.15-26.246 50.324-26.38c22.432-.138 51.075 26.38 51.075 26.38s0-163.258-149.833-175.633m48.433 175.633s5.603-47.09-9.048-96.75c-13.387-45.377-39.385-78.883-39.385-78.883"/>
    <path fill="#D9D9D9" stroke="#000" stroke-width="5.137" d="M255.144 138.702c-3.767 0-9.418 32.535-9.418 32.535h18.836s-5.651-32.535-9.418-32.535Z"/>
    <path fill="#000" d="m252.163 488.696 4.04 1.411-4.04-1.41Zm-30.414 4.978a4.281 4.281 0 0 0-6.843 5.148l6.843-5.148Zm34.799-171.748-4.28.14v.023l.004.075.009.302.036 1.18a2683.627 2683.627 0 0 1 .524 20.826c.287 13.615.577 32.028.589 51.236.01 19.216-.259 39.18-1.084 55.912-.413 8.368-.963 15.88-1.68 22.062-.726 6.27-1.594 10.875-2.546 13.602l8.082 2.823c1.286-3.678 2.233-9.086 2.97-15.438.746-6.442 1.308-14.16 1.725-22.628.836-16.939 1.105-37.064 1.095-56.339a2571.228 2571.228 0 0 0-.591-51.41c-.144-6.827-.288-12.45-.396-16.367-.053-1.96-.099-3.492-.13-4.536l-.036-1.19-.01-.307-.002-.077-.002-.02v-.006l-4.277.137Zm-8.428 165.358c-2.994 8.567-6.242 12.467-8.83 14.111-2.349 1.495-4.714 1.473-7.238.523-2.667-1.006-5.233-2.98-7.245-4.901a34.515 34.515 0 0 1-2.897-3.136l-.139-.176-.027-.034-.002-.004v.002l.004.002c0 .001 0 .003-3.42 2.577a426.576 426.576 0 0 0-3.418 2.577l.002.003a.41.41 0 0 1 .029.038l.065.084.223.283c.188.234.457.561.796.957a43.191 43.191 0 0 0 2.872 3.017c2.373 2.269 5.918 5.132 10.14 6.723 4.37 1.645 9.682 1.976 14.85-1.309 4.932-3.135 9.045-9.144 12.317-18.514l-8.082-2.823Z"/>
    <path fill="#477AFC" stroke="#17172B" stroke-width="4.281" d="M147.692 117.298a12.415 12.415 0 1 1-24.83 0c0-1.562.76-4.31 2.13-7.833 1.332-3.423 3.12-7.282 4.926-10.926a280.341 280.341 0 0 1 5.36-10.244l.393.723a280.341 280.341 0 0 1 4.966 9.52c1.807 3.645 3.596 7.504 4.927 10.926 1.37 3.524 2.128 6.272 2.128 7.834Zm267.13-35.96a12.415 12.415 0 0 1-24.829 0c0-1.562.759-4.31 2.129-7.833 1.332-3.423 3.12-7.282 4.926-10.926a279.502 279.502 0 0 1 4.964-9.521l.396-.721.396.72a279.502 279.502 0 0 1 4.964 9.522c1.806 3.644 3.594 7.503 4.926 10.925 1.37 3.524 2.129 6.272 2.129 7.834Zm29.111 131.853a12.415 12.415 0 0 1-24.83 0c0-1.562.76-4.31 2.13-7.833 1.331-3.423 3.12-7.282 4.926-10.926a279.472 279.472 0 0 1 4.964-9.521l.395-.723.396.723a279.472 279.472 0 0 1 4.964 9.52c1.807 3.645 3.594 7.504 4.927 10.927 1.37 3.523 2.128 6.27 2.128 7.833Zm-99.318-82.194a12.415 12.415 0 0 1-24.829 0c0-1.562.759-4.31 2.128-7.833 1.333-3.423 3.12-7.282 4.927-10.926a279.502 279.502 0 0 1 4.964-9.521l.396-.723.395.723a279.502 279.502 0 0 1 4.964 9.52c1.807 3.645 3.595 7.504 4.927 10.926 1.37 3.524 2.128 6.272 2.128 7.834ZM264.134 69.35a12.415 12.415 0 0 1-24.83 0c0-1.562.759-4.31 2.129-7.832 1.332-3.423 3.12-7.283 4.926-10.927a279.502 279.502 0 0 1 4.965-9.52l.395-.722.396.721a279.502 279.502 0 0 1 4.964 9.521c1.806 3.644 3.594 7.504 4.926 10.925 1.37 3.524 2.129 6.272 2.129 7.834ZM92.896 45.378a12.415 12.415 0 1 1-24.83 0c0-1.562.76-4.31 2.13-7.832 1.332-3.424 3.12-7.283 4.926-10.927a280.091 280.091 0 0 1 5.36-10.244 295.645 295.645 0 0 1 5.36 10.244c1.806 3.644 3.595 7.503 4.926 10.925 1.37 3.524 2.128 6.272 2.128 7.834Zm0 133.565a12.415 12.415 0 0 1-24.83 0c0-1.562.76-4.31 2.13-7.832 1.332-3.423 3.12-7.283 4.926-10.927a280.186 280.186 0 0 1 5.36-10.242l.393.721a280.242 280.242 0 0 1 4.966 9.521c1.807 3.644 3.596 7.504 4.927 10.925 1.37 3.524 2.128 6.272 2.128 7.834Zm92.469-145.552a12.415 12.415 0 1 1-24.83 0c0-1.561.759-4.31 2.129-7.832 1.332-3.423 3.12-7.283 4.926-10.927a280.216 280.216 0 0 1 5.36-10.243 280.216 280.216 0 0 1 5.36 10.242c1.806 3.647 3.596 7.505 4.926 10.928 1.37 3.522 2.129 6.27 2.129 7.832Z"/>
</svg>
