<svg xmlns="http://www.w3.org/2000/svg" xml:space="preserve" viewBox="0 0 512 512">
    <path fill="#f5c84c" d="M412.888 435.764c-8.996-1.674-16.086-8.62-17.796-17.432a.4.4 0 0 0-.79 0c-1.71 8.812-8.8 15.758-17.796 17.432a.39.39 0 0 0 0 .774c8.996 1.676 16.086 8.622 17.796 17.434a.4.4 0 0 0 .79 0c1.71-8.812 8.8-15.758 17.796-17.434a.39.39 0 0 0 0-.774z"/>
    <path fill="#fc657e" d="M419.758 42.724c-6.43-1.198-11.498-6.162-12.72-12.46a.286.286 0 0 0-.564 0c-1.222 6.298-6.29 11.264-12.72 12.46a.28.28 0 0 0 0 .552c6.43 1.198 11.498 6.162 12.72 12.46a.286.286 0 0 0 .564 0c1.222-6.298 6.29-11.264 12.72-12.46a.28.28 0 0 0 0-.552z"/>
    <path fill="#70d6f9" d="M116.31 232.604h-4.658v-4.66a6.314 6.314 0 1 0-12.628 0v4.66h-4.66a6.315 6.315 0 0 0 0 12.63h4.66v4.66a6.314 6.314 0 1 0 12.628 0v-4.66h4.658a6.315 6.315 0 0 0 0-12.63z"/>
    <path fill="#87d147" d="M376.922 474a6.754 6.754 0 1 0 0 13.508 6.754 6.754 0 0 0 0-13.508z"/>
    <path fill="#f5c84c" d="M136.922 270a6.754 6.754 0 1 0 0 13.508 6.754 6.754 0 0 0 0-13.508z"/>
    <path fill="#70d6f9" d="m463.736 287.918-55.782-88.546a3.554 3.554 0 0 0-4.87-1.24l-48.532 28.846a3.554 3.554 0 0 0-1.24 4.87l48.442 76.542-73.344 17.114a34.48 34.48 0 0 1-23.084-2.652l-18.41-9.08a27.294 27.294 0 0 1-15.224-24.482v-13.452a78.338 78.338 0 0 1-37.554 9.556c-1.088 0-2.166-.052-3.244-.096l11.282 37.282c1.83 6.044 6.698 10.798 12.87 12.13a17.758 17.758 0 0 1 13.25 12.214l30.544 100.934a8.83 8.83 0 0 1-5.894 11.008l-45.664 13.82a8.83 8.83 0 0 1-11.01-5.894l-2.634-8.706 32.378-10.518c3.958-1.316 6.396-5.512 5.2-9.508a7.616 7.616 0 0 0-9.7-5.048l9.406-3.126A8.014 8.014 0 0 0 276 419.754l-.074-.224a8.016 8.016 0 0 0-10.134-5.078l9.784-3.252a8.016 8.016 0 0 0-5.054-15.21l-9.784 3.252a8.014 8.014 0 1 0-5.056-15.21l-40.456 13.21-.444-1.468-5.11-16.886-3.942-13.028a17.754 17.754 0 0 1 4.254-17.51c4.398-4.532 5.814-11.186 3.986-17.23l-15.088-49.862v8.036a27.302 27.302 0 0 1-15.226 24.484l-21.692 10.696-61.37 15.448c-13.234 3.332-26.306 11.084-31.524 28.506l-16.64 76.706A31.584 31.584 0 0 1 62.5 439.6l85.006-25.3a3.55 3.55 0 0 1 4.492 2.252l17.808 53.576a3.556 3.556 0 0 1-2.252 4.494l-42.266 12.582v12.374a7.428 7.428 0 0 0 7.428 7.428H336.86a7.428 7.428 0 0 0 7.428-7.428v-94.03a9.11 9.11 0 0 1 6.412-8.686c70.264-21.782 72.77-21.872 84.826-26.836 32.228-13.276 45.476-51.832 28.21-82.108z"/>
    <path fill="#f9c1a8" d="M286.92 313.774a27.296 27.296 0 0 1-15.226-24.484v-13.452a78.338 78.338 0 0 1-37.554 9.556c-1.088 0-2.164-.052-3.244-.096l11.282 37.282c1.83 6.044 6.698 10.798 12.87 12.13a17.724 17.724 0 0 1 10.318 6.57 62.56 62.56 0 0 0 24.96-25.826l-3.406-1.68zm-72.95 17.342-15.088-49.862v8.036a27.3 27.3 0 0 1-15.226 24.484l-3.406 1.68a62.49 62.49 0 0 0 32.342 29.346c2.266-4.108 2.774-9.07 1.378-13.684z"/>
    <path fill="#70d6f9" d="m169.804 470.122-17.808-53.576a3.552 3.552 0 0 0-4.492-2.252l-85.006 25.3c-16.754 5.52-25.808 23.628-20.17 40.342 5.582 16.55 23.472 25.494 40.06 20.03l85.164-25.352a3.552 3.552 0 0 0 2.252-4.492z"/>
    <path fill="#f9c1a8" d="M395.468 189.318a36.94 36.94 0 0 1-5.182-19.448l.208-13.574a36.814 36.814 0 0 0-2.5-13.94c-2.472-6.34-6.064-16.116-7.934-23.814a2.61 2.61 0 0 0-2.678-1.992c-6.56.352-11.442 6.214-10.57 12.726.632 4.71 1.854 10.452 3.854 17.438l-24.682-41.036a8.014 8.014 0 0 0-13.778 8.19l-5.268-8.864a8.014 8.014 0 0 0-13.778 8.19l5.268 8.864a8.014 8.014 0 0 0-10.984-2.794l-.202.122a8.014 8.014 0 0 0-2.794 10.984l5.064 8.522a7.618 7.618 0 0 0-10.638-2.534c-3.52 2.238-4.424 7.006-2.294 10.59l19.128 31.688a65.354 65.354 0 0 0 15.76 17.966l3.906 3.076a65.416 65.416 0 0 1 15.76 17.966l4.992 8.4 45.202-26.866-5.86-9.86zM280.654 401.066a8.014 8.014 0 0 0-10.134-5.078l-9.784 3.252a8.014 8.014 0 1 0-5.056-15.21l-45.522 14.866a170.994 170.994 0 0 0 4.622-3.124l-5.11-16.886a307.96 307.96 0 0 1-9.758 5.374 36.806 36.806 0 0 0-11.014 8.902l-8.728 10.4a36.952 36.952 0 0 1-16.648 11.31l-10.882 3.616 16.586 49.9 9.274-3.082a65.4 65.4 0 0 1 23.674-3.266l4.966.232a65.368 65.368 0 0 0 23.676-3.266l35.202-11.436c3.958-1.316 6.396-5.512 5.2-9.508a7.616 7.616 0 0 0-9.7-5.048l9.406-3.126a8.014 8.014 0 0 0 5.078-10.132l-.074-.224a8.016 8.016 0 0 0-10.134-5.078l9.784-3.252a8.02 8.02 0 0 0 5.076-10.136z"/>
    <path fill="#87d147" d="m298.84 447.858-30.544-100.934a17.758 17.758 0 0 0-13.25-12.214c-6.172-1.332-11.042-6.086-12.87-12.13l-16.286-53.816a3.924 3.924 0 0 0-4.892-2.62l-20.694 6.262a3.924 3.924 0 0 0-2.62 4.892l16.286 53.816c1.828 6.044.414 12.7-3.986 17.23a17.754 17.754 0 0 0-4.254 17.51l3.942 13.028 5.11 16.886.444 1.468 40.456-13.21a8.016 8.016 0 0 1 5.056 15.21l9.784-3.252a8.014 8.014 0 0 1 5.054 15.21l-9.784 3.252a8.014 8.014 0 0 1 10.134 5.078l.074.224a8.014 8.014 0 0 1-5.078 10.132l-9.406 3.126a7.616 7.616 0 0 1 9.7 5.048c1.196 3.996-1.242 8.192-5.2 9.508l-32.378 10.518 2.634 8.706a8.83 8.83 0 0 0 11.01 5.894l45.664-13.82a8.82 8.82 0 0 0 5.894-11.002z"/>
    <path fill="#fc657e" d="m294.77 434.408-22.866-75.564-62.566 18.934.336 1.108 5.11 16.886.444 1.468 40.456-13.21a8.016 8.016 0 0 1 5.056 15.21l9.784-3.252a8.014 8.014 0 0 1 5.054 15.21l-9.784 3.252a8.014 8.014 0 0 1 10.134 5.078l.074.224a8.014 8.014 0 0 1-5.078 10.132l-9.406 3.126a7.616 7.616 0 0 1 9.7 5.048 7.2 7.2 0 0 1 .148 3.43l23.404-7.08z"/>
    <path fill="#fcdd86" d="M399.284 84.8a2.12 2.12 0 0 0-1.174-3.616l-7.826-1.136a2.118 2.118 0 0 1-1.596-1.16l-3.5-7.09a2.12 2.12 0 0 0-3.802 0l-3.5 7.09a2.118 2.118 0 0 1-1.596 1.16l-7.826 1.136a2.12 2.12 0 0 0-1.174 3.616l5.662 5.52c.5.488.728 1.19.61 1.876l-1.336 7.794a2.12 2.12 0 0 0 3.076 2.236l7-3.68a2.114 2.114 0 0 1 1.974 0l7 3.68a2.12 2.12 0 0 0 3.076-2.236l-1.336-7.794a2.118 2.118 0 0 1 .61-1.876l5.658-5.52zM376.62 23.062a2.12 2.12 0 0 0-1.176-3.616l-11.512-1.672a2.118 2.118 0 0 1-1.596-1.16l-5.148-10.432a2.12 2.12 0 0 0-3.802 0l-5.148 10.432a2.122 2.122 0 0 1-1.596 1.16l-11.512 1.672a2.12 2.12 0 0 0-1.176 3.616l8.33 8.12c.5.488.728 1.188.61 1.876l-1.966 11.466a2.12 2.12 0 0 0 3.076 2.236l10.296-5.414a2.126 2.126 0 0 1 1.974 0l10.296 5.414a2.12 2.12 0 0 0 3.076-2.236l-1.966-11.466a2.12 2.12 0 0 1 .61-1.876l8.33-8.12z"/>
    <path fill="#f9c1a8" d="M296.58 146.946c-2.13-3.584-1.226-8.354 2.294-10.59a7.616 7.616 0 0 1 10.638 2.534l-5.064-8.522-.01-.024c-29.816-1.986-45.816-14.042-52.14-20.242a4.252 4.252 0 0 0-6.324.398c-28.862 36.296-71.442 31.174-85.758 28.178-2.602-.544-5.098 1.416-5.1 4.074v63.622c0 30.272 17.26 56.694 42.418 69.954a3.916 3.916 0 0 1 2.77-3.92l20.694-6.262a3.922 3.922 0 0 1 4.892 2.62l5.008 16.55c1.076.044 2.152.084 3.238.084 43.462 0 79.024-35.56 79.024-79.024v-31.96l-16.58-27.47z"/>
    <path fill="#fc657e" d="M250.214 217H218.36c-5.54 0-10.072 4.534-10.072 10.074V233c0 14.3 11.7 26 26 26s26-11.7 26-26v-5.926c-.002-5.54-4.534-10.074-10.074-10.074z"/>
    <path fill="#edf4fc" d="M250.214 217H218.36c-5.54 0-10.072 4.534-10.072 10.074V233h52v-5.926c-.002-5.54-4.534-10.074-10.074-10.074z"/>
    <path fill="#414344" d="M295.976 50.922c-8.42 0-16.294 2.378-23.058 6.436-7.902-13.188-22.3-22.094-38.71-22.094h-23.18c-44.862 0-81.568 36.706-81.568 81.568v36.548a32.838 32.838 0 0 1 25.656-6.832v-3.796c.002-2.658 2.498-4.62 5.1-4.074 14.316 2.996 56.894 8.118 85.758-28.178a4.254 4.254 0 0 1 6.324-.398c6.324 6.2 22.324 18.256 52.14 20.242a8.012 8.012 0 0 1 2.806-10.96l.202-.122a8.016 8.016 0 0 1 10.984 2.794l-5.268-8.864a8.014 8.014 0 0 1 13.778-8.19l5.268 8.864a8.014 8.014 0 0 1 2.794-10.984 7.994 7.994 0 0 1 6.114-.862v-5.96c-.002-24.826-20.314-45.138-45.14-45.138z"/>
    <path fill="#f9c1a8" d="m335.374 199.676-3.906-3.076a65.384 65.384 0 0 1-15.76-17.966l-2.546-4.218v31.958c0 1.782-.082 3.546-.2 5.3 1.72.276 3.472.46 5.27.46 8.404 0 16.05-3.168 21.874-8.34a64.832 64.832 0 0 0-4.732-4.118zm-180.26 6.698v-59.826a33.096 33.096 0 0 0-5.07-.402c-18.222 0-32.992 14.772-32.992 32.992 0 18.222 14.772 32.994 32.992 32.994 1.798 0 3.55-.184 5.27-.46v-.002a78.716 78.716 0 0 1-.2-5.296z"/>
    <path d="M303.744 125.282c-28.178-2.126-42.918-13.82-47.948-18.75a9.286 9.286 0 0 0-7.054-2.634 9.29 9.29 0 0 0-6.684 3.492c-26.65 33.51-65.398 29.622-80.818 26.394a9.214 9.214 0 0 0-7.734 1.876 9.142 9.142 0 0 0-3.392 7.146v63.568c0 30.758 16.906 59.058 44.122 73.86a4.996 4.996 0 0 0 6.782-2.004 5 5 0 0 0-2.004-6.782c-23.994-13.048-38.898-37.982-38.898-65.074V143.76c14.45 2.854 58.988 7.878 89.268-29.522 7.514 7.144 24.072 18.788 53.608 21.016a4.994 4.994 0 0 0 5.364-4.61 5.006 5.006 0 0 0-4.612-5.362zm9.416 45.03a5 5 0 0 0-5 5v31.06c0 40.816-33.208 74.024-74.022 74.024a54.19 54.19 0 0 1-1.806-.034 5.024 5.024 0 0 0-5.162 4.834 5.002 5.002 0 0 0 4.834 5.162c.708.024 1.42.038 2.134.038 46.332 0 84.022-37.694 84.022-84.024v-31.06a5 5 0 0 0-5-5z"/>
    <path d="M295.974 45.922a49.68 49.68 0 0 0-21.42 4.886c-9.416-12.776-24.476-20.542-40.348-20.542h-23.18c-47.734 0-86.568 38.834-86.568 86.566v35.7a5 5 0 1 0 10 0v-35.7c0-42.218 34.348-76.566 76.568-76.566h23.18c13.964 0 27.154 7.536 34.42 19.664a5.008 5.008 0 0 0 6.862 1.718 39.874 39.874 0 0 1 20.486-5.724c22.132 0 40.14 18.008 40.14 40.14v4.354a5 5 0 1 0 10 0v-4.354c.002-27.65-22.49-50.142-50.14-50.142zm46.728 155.848a4.998 4.998 0 0 0-7.028-.778 27.63 27.63 0 0 1-17.442 6.14c-.956 0-1.944-.062-3.026-.194-2.72-.314-5.232 1.626-5.56 4.37a5 5 0 0 0 4.37 5.56c1.48.178 2.86.264 4.216.264 8.692 0 16.882-2.882 23.692-8.336a4.998 4.998 0 0 0 .778-7.026z"/>
    <path d="M158.746 211.284a4.994 4.994 0 0 0-5.572-4.356 25.59 25.59 0 0 1-3.13.206c-15.436 0-27.994-12.556-27.994-27.992s12.558-27.994 27.994-27.994c1.008 0 2.062.062 3.136.186a5.012 5.012 0 0 0 5.534-4.402 5.004 5.004 0 0 0-4.402-5.536 38.106 38.106 0 0 0-4.27-.248c-20.95 0-37.994 17.044-37.994 37.994s17.044 37.992 37.994 37.992c1.392 0 2.814-.092 4.348-.28a5 5 0 0 0 4.356-5.57zm133.42 100.782a4.996 4.996 0 0 0-6.774 2.028 57.48 57.48 0 0 1-21.47 22.248 5 5 0 1 0 5.07 8.62 67.482 67.482 0 0 0 25.202-26.124 5 5 0 0 0-2.028-6.772zm-78.796 27.65a57.578 57.578 0 0 1-28.076-25.416 5 5 0 1 0-8.782 4.782 67.626 67.626 0 0 0 32.97 29.85 5.001 5.001 0 0 0 3.888-9.216zM250.214 212H218.36c-8.31 0-15.072 6.762-15.072 15.072V233c0 17.094 13.906 31 31 31s31-13.906 31-31v-5.928c0-8.31-6.762-15.072-15.074-15.072zm5.074 21c0 11.58-9.42 21-21 21s-21-9.42-21-21v-5.928A5.08 5.08 0 0 1 218.36 222h31.854a5.08 5.08 0 0 1 5.074 5.072V233z"/>
    <path d="M259.124 228h-49.708a5 5 0 1 0 0 10h49.708a5 5 0 1 0 0-10zM404.576 81.084a7.074 7.074 0 0 0-5.748-4.848l-6.326-.92-2.83-5.73a7.068 7.068 0 0 0-6.38-3.97h-.004a7.08 7.08 0 0 0-6.386 3.968l-2.828 5.732-6.332.92a7.08 7.08 0 0 0-5.744 4.848 7.078 7.078 0 0 0 1.802 7.296l4.578 4.462-1.08 6.302a7.074 7.074 0 0 0 2.83 6.96 7.068 7.068 0 0 0 7.5.544l5.66-2.974 5.662 2.976a7.09 7.09 0 0 0 7.498-.548 7.07 7.07 0 0 0 2.83-6.96l-1.082-6.302 4.58-4.462a7.07 7.07 0 0 0 1.8-7.294zm-14.454 5.666a7.136 7.136 0 0 0-2.038 6.292l.35 2.042-1.834-.964a7.11 7.11 0 0 0-6.626 0l-1.836.964.348-2.036a7.122 7.122 0 0 0-2.044-6.31l-1.484-1.448 2.044-.296a7.136 7.136 0 0 0 5.37-3.896l.916-1.858.914 1.854a7.108 7.108 0 0 0 5.364 3.898l2.05.298-1.494 1.46zm-8.21-67.404a7.08 7.08 0 0 0-5.748-4.848l-10.014-1.456-4.478-9.072a7.072 7.072 0 0 0-6.38-3.97h-.004a7.08 7.08 0 0 0-6.386 3.968l-4.478 9.074-10.016 1.456a7.074 7.074 0 0 0-5.744 4.848 7.076 7.076 0 0 0 1.8 7.296l7.248 7.064L336 43.68a7.074 7.074 0 0 0 2.83 6.96 7.078 7.078 0 0 0 7.5.544l8.958-4.708 8.958 4.71a7.092 7.092 0 0 0 7.496-.546 7.08 7.08 0 0 0 2.832-6.962v-.002l-1.71-9.972 7.246-7.062a7.078 7.078 0 0 0 1.802-7.296zm-17.118 8.258a7.12 7.12 0 0 0-2.042 6.3l.98 5.714-5.132-2.7a7.116 7.116 0 0 0-6.626 0l-5.132 2.7.982-5.72a7.134 7.134 0 0 0-2.05-6.296l-4.152-4.046 5.746-.834a7.13 7.13 0 0 0 5.354-3.894l2.566-5.2 2.566 5.2a7.126 7.126 0 0 0 5.36 3.894l5.738.834-4.158 4.048zm-81.216 162.502-19.284-19.282a5 5 0 1 0-7.072 7.07l19.284 19.282c.976.976 2.256 1.464 3.536 1.464s2.558-.488 3.536-1.464a4.996 4.996 0 0 0 0-7.07z"/>
    <path d="M283.578 170.824a4.996 4.996 0 0 0-7.07 0l-19.284 19.282a4.996 4.996 0 0 0 3.536 8.534c1.28 0 2.558-.488 3.536-1.464l19.284-19.282a4.998 4.998 0 0 0-.002-7.07zm-73.42 19.282-19.284-19.282a5 5 0 1 0-7.072 7.07l19.284 19.282c.976.976 2.256 1.464 3.536 1.464s2.56-.488 3.536-1.464a5 5 0 0 0 0-7.07z"/>
    <path d="M210.158 170.824a5 5 0 0 0-7.072 0l-19.284 19.282a4.996 4.996 0 0 0 3.536 8.534c1.28 0 2.56-.488 3.536-1.464l19.284-19.282a5 5 0 0 0 0-7.07zm-35.61 297.72-17.806-53.572a8.502 8.502 0 0 0-4.286-4.954c-2.044-1.026-4.362-1.19-6.38-.518l-85.144 25.346a36.526 36.526 0 0 0-21.39 18.484 36.526 36.526 0 0 0-1.954 28.204c5.166 15.322 19.59 25.044 34.906 25.044 3.76 0 7.576-.588 11.32-1.82l85.316-25.4a8.56 8.56 0 0 0 5.418-10.814zm-93.724 26.674c-13.928 4.586-29.07-2.982-33.758-16.878-2.298-6.812-1.792-14.106 1.422-20.536s8.746-11.21 15.436-13.416l83.768-24.936 16.894 50.828-83.762 24.938zM404.71 195.08l-4.944-8.316a31.91 31.91 0 0 1-4.48-16.816l.208-13.574a41.652 41.652 0 0 0-2.842-15.832c-2.084-5.342-5.858-15.456-7.734-23.176a7.626 7.626 0 0 0-7.802-5.804 16.31 16.31 0 0 0-11.666 5.87 16.232 16.232 0 0 0-3.076 5.794l-12.09-20.102a12.934 12.934 0 0 0-7.98-5.962 12.926 12.926 0 0 0-9.856 1.426 13.09 13.09 0 0 0-2.564 1.986 12.926 12.926 0 0 0-6.626-4.086 12.932 12.932 0 0 0-9.858 1.426c-5.492 3.266-7.708 9.968-5.54 15.754a13.056 13.056 0 0 0-2.966 1.294l-.208.124a12.936 12.936 0 0 0-5.962 7.978 12.932 12.932 0 0 0 .39 7.698 12.744 12.744 0 0 0-2.926 1.376c-5.694 3.622-7.446 11.41-3.89 17.394l19.11 31.658a70.172 70.172 0 0 0 16.966 19.342l3.906 3.074a60.14 60.14 0 0 1 14.554 16.592l4.158 6.994a4.996 4.996 0 0 0 6.85 1.742 4.996 4.996 0 0 0 1.742-6.852l-4.156-6.994a70.164 70.164 0 0 0-16.964-19.34l-3.908-3.076a60.142 60.142 0 0 1-14.57-16.622l-19.11-31.658c-.792-1.332-.482-3.08.676-3.816a2.64 2.64 0 0 1 2.018-.342c.4.096 1.148.38 1.64 1.208a5.002 5.002 0 0 0 8.598-5.11l-.006-.008-5.058-8.514a3.014 3.014 0 0 1 1.044-4.126l.208-.124a3.02 3.02 0 0 1 4.128 1.042l.002.006a5.002 5.002 0 0 0 8.598-5.11l-.01-.016-5.258-8.846a3.018 3.018 0 0 1 3.334-4.462c.782.2 1.438.69 1.848 1.382l5.268 8.862a5.002 5.002 0 0 0 8.598-5.11l-.004-.006a2.99 2.99 0 0 1-.326-2.278 3.02 3.02 0 0 1 5.524-.776l24.682 41.038a5 5 0 0 0 9.092-3.952c-1.826-6.378-3.072-12.006-3.706-16.724a6.18 6.18 0 0 1 1.38-4.804 6.246 6.246 0 0 1 2.62-1.874c1.992 7.43 5.156 16.054 7.568 22.238a31.656 31.656 0 0 1 2.158 12.046l-.208 13.574a41.946 41.946 0 0 0 5.882 22.078l4.944 8.316a5.006 5.006 0 0 0 6.854 1.744 4.992 4.992 0 0 0 1.746-6.848z"/>
    <path d="m468.08 285.442-.114-.19-55.712-88.434a8.5 8.5 0 0 0-5.246-3.922 8.524 8.524 0 0 0-6.478.938l-48.534 28.846c-4.052 2.412-5.39 7.672-2.906 11.842l44.678 70.598-66.492 15.516a29.62 29.62 0 0 1-13.896-.122 29.584 29.584 0 0 1-5.84-2.146l-18.41-9.078a22.166 22.166 0 0 1-12.436-20v-12.102a5 5 0 1 0-10 0v12.102c0 12.388 6.902 23.488 18.014 28.968l18.412 9.08a39.696 39.696 0 0 0 7.822 2.876 39.68 39.68 0 0 0 18.608.16l73.342-17.114a5 5 0 0 0 3.088-7.542l-47.592-75.202 46.042-27.366 55.018 87.338c15.732 27.714 3.488 62.84-25.824 74.908-7.692 3.168-11.526 4.338-32.8 10.826-11.286 3.442-27.44 8.368-51.604 15.858a14.032 14.032 0 0 0-9.93 13.46v94.03c0 1.34-1.09 2.43-2.43 2.43H132.714a2.432 2.432 0 0 1-2.428-2.43v-10.82a5 5 0 1 0-10 0v10.82A12.444 12.444 0 0 0 132.714 512h204.142a12.444 12.444 0 0 0 12.43-12.43v-94.03c0-1.774 1.19-3.38 2.892-3.91a10941.494 10941.494 0 0 1 51.556-15.844c21.66-6.606 25.562-7.794 33.694-11.144 35.052-14.43 49.372-56.372 30.652-89.2zm-269.2-8.4a5 5 0 0 0-5 5v7.25a22.16 22.16 0 0 1-12.436 19.998l-21.216 10.46-60.856 15.318C81.048 339.68 69.24 350.42 64.278 366.99a4.102 4.102 0 0 0-.096.374L47.68 443.428a5.002 5.002 0 0 0 9.774 2.122l16.458-75.872c3.964-13.036 13.092-21.186 27.9-24.91l61.372-15.45c.342-.088.674-.208.99-.366l21.692-10.696c11.112-5.478 18.014-16.578 18.014-28.966v-7.25a5 5 0 0 0-5-4.998z"/>
    <path d="m418.448 324.226-12-18a5 5 0 0 0-8.32 5.548l12 18c3.668 5.508 11.988-.044 8.32-5.548zm-133.05 75.262c-2.016-6.062-8.088-9.652-14.208-8.778a12.99 12.99 0 0 0-.632-3.182 12.932 12.932 0 0 0-6.52-7.53 12.92 12.92 0 0 0-9.91-.722L218.53 390.9l-4.074-13.462a5 5 0 0 0-7.28-2.886 300.144 300.144 0 0 1-9.596 5.284 41.66 41.66 0 0 0-12.512 10.11l-8.728 10.398a31.94 31.94 0 0 1-14.394 9.782l-9.924 3.298a5 5 0 1 0 3.154 9.488l9.926-3.298a41.94 41.94 0 0 0 18.9-12.84l8.726-10.398a31.676 31.676 0 0 1 9.518-7.694c1.19-.628 2.712-1.442 4.444-2.388l2.246 7.42c-.492.328-.992.658-1.504.994a5 5 0 0 0 4.282 8.942l45.548-14.874a3.002 3.002 0 0 1 3.81 1.91 3.016 3.016 0 0 1-1.91 3.81 5 5 0 1 0 3.158 9.488l.018-.006 9.762-3.244a3.015 3.015 0 1 1 1.906 5.72l-9.766 3.244-.022.008a5 5 0 0 0 3.154 9.488h.002a3.02 3.02 0 0 1 3.806 1.9l.078.234a3.018 3.018 0 0 1-1.908 3.81l-9.394 3.122a6.483 6.483 0 0 1 6.476 11.234c.394 1.314-.516 2.838-1.956 3.316l-35.236 11.448a60.046 60.046 0 0 1-21.864 3.016l-4.966-.232a69.874 69.874 0 0 0-25.484 3.516l-8.512 2.83a5 5 0 1 0 3.154 9.488l8.512-2.83a59.992 59.992 0 0 1 21.862-3.016l4.966.232a70.17 70.17 0 0 0 25.454-3.504l35.234-11.446c6.576-2.184 10.35-9.222 8.412-15.688a12.684 12.684 0 0 0-1.31-2.958c5.376-2.97 8.056-9.458 6.052-15.484l-.078-.234a13.024 13.024 0 0 0-1.394-2.922 12.94 12.94 0 0 0 5.41-5.604 12.934 12.934 0 0 0 .71-9.934z"/>
    <path d="m303.624 446.41-30.542-100.934a22.758 22.758 0 0 0-16.98-15.652c-4.296-.928-7.798-4.258-9.14-8.692l-16.286-53.818a8.864 8.864 0 0 0-4.33-5.282 8.854 8.854 0 0 0-6.796-.674l-20.698 6.262a8.942 8.942 0 0 0-5.956 11.128l16.288 53.816c1.342 4.432.274 9.144-2.788 12.298a22.764 22.764 0 0 0-5.454 22.44l9.052 29.918a5 5 0 0 0 9.572-2.898l-9.054-29.916a12.758 12.758 0 0 1 3.058-12.578c5.59-5.76 7.578-14.252 5.184-22.162l-15.976-52.788 18.636-5.638 15.972 52.786c2.394 7.912 8.756 13.876 16.604 15.57a12.764 12.764 0 0 1 9.518 8.774l30.542 100.936c.296.978.194 2.014-.29 2.916s-1.29 1.562-2.266 1.86L245.828 467.9a3.838 3.838 0 0 1-4.776-2.556l-1.952-6.452a5 5 0 1 0-9.572 2.894l1.954 6.454c1.806 5.968 7.308 9.824 13.246 9.824 1.324 0 2.668-.192 3.998-.594l45.666-13.818a13.744 13.744 0 0 0 8.186-6.71 13.7 13.7 0 0 0 1.046-10.532z"/>
    <path d="M298.434 433.3a4.994 4.994 0 0 0-6.232-3.338l-21.412 6.478a4.998 4.998 0 0 0-3.338 6.232 4.998 4.998 0 0 0 6.234 3.338l21.412-6.478a4.996 4.996 0 0 0 3.336-6.232zm-23.374-75.41a4.998 4.998 0 0 0-6.232-3.338l-59.154 17.9a5 5 0 1 0 2.896 9.57l59.152-17.9a4.994 4.994 0 0 0 3.338-6.232z"/>
</svg>
