<svg xmlns="http://www.w3.org/2000/svg" viewBox="0 0 512 512">
    <path fill="#db5669" d="M437.333 256v234.667H74.667V256l42.666-128L256 42.667 394.667 128Z"/>
    <path fill="#f26674" d="M437.333 288v181.333h-224a106.667 106.667 0 0 1-106.666-106.666c0-151.894-6.294-109.227 28.586-213.334L256 74.667 394.667 160Z"/>
    <path fill="#dad7e5" d="M501.333 256 480 288l-42.667-21.333-42.666-128L256 53.333l-138.667 85.334-42.666 128L32 288l-21.333-32 32-21.333 42.666-128 170.667-96 170.667 96 42.666 128 32 21.333z"/>
    <path fill="#c6c3d8" d="M234.667 64 96 149.333l-42.667 128 21.334-10.666 42.666-128C250.027 57.067 237.547 65.813 234.667 64Z"/>
    <path fill="#edebf2" d="m469.333 234.667-42.666-128-170.667-96-20.16 11.306 169.493 95.36 42.667 128 32 21.334-10.667 16L480 288l21.333-32-32-21.333z"/>
    <path fill="#df8761" d="M138.667 277.333h234.666v213.334H138.667z"/>
    <path fill="#f29b75" d="M373.333 277.333v192c-128.64 0-202.666-94.506-202.666-192Z"/>
    <path fill="#df8761" d="M213.333 138.667h85.334V224h-85.334z"/>
    <path fill="#edebf2" d="M384 492.16c0-2.667.853-215.253 0-218.667a37.76 37.76 0 0 0-2.027-3.306c-5.653-5.44-250.666-3.52-243.306-3.52a11.52 11.52 0 0 0-7.36 3.2c-.96 1.066 0 0-.96 1.493a6.827 6.827 0 0 0-1.707 4.373c0 2.667-.853 215.254 0 218.667a10.667 10.667 0 0 0 10.027 6.933c243.946 0 243.2 3.52 245.333-9.173ZM149.333 301.44 240.107 384l-90.774 82.56Zm16.96-13.44h179.414L256 369.6ZM256 398.4l89.707 81.6H166.293Zm15.893-14.4 90.774-82.56v165.12Zm37.44-245.333A10.667 10.667 0 0 0 298.667 128h-85.334a10.667 10.667 0 0 0-10.666 10.667c0 89.173-2.56 91.413 6.613 95.146 2.88 1.174-3.733.854 89.387.854a10.667 10.667 0 0 0 9.813-6.614c.853-2.773.853 3.734.853-89.386ZM288 198.293l-21.333-21.333v-27.627H288Zm-32-1.92 16.96 16.96h-33.92Zm-10.667-47.04v27.627L224 198.293v-48.96Z"/>
    <path fill="#374f68" d="M490.667 501.333H21.333a10.667 10.667 0 0 1 0-21.333h469.334a10.667 10.667 0 0 1 0 21.333Z"/>
</svg>
