<svg xmlns="http://www.w3.org/2000/svg" fill="none" viewBox="0 0 512 512">
    <g transform="translate(38.723) scale(1.43417)">
        <mask id="a" fill="#fff">
            <path fill-rule="evenodd" d="M253.307 84.14c25.195 3.24 44.094 20.912 43.026 41.142-1.134 21.509-24.409 37.767-51.985 36.312a64.102 64.102 0 0 1-2.582-.188c-10.01 10.897-27.648 17.62-47.351 16.58-8.122-.428-15.757-2.131-22.543-4.819-10.283 9.525-26.778 15.236-45.048 14.272-14.848-.783-28.065-5.826-37.447-13.352-3.411.058-6.885-.002-10.406-.188-43.295-2.284-77.413-22.689-76.205-45.577.79-14.979 16.513-27.308 39.42-33.401-2.065-5.118-3.052-10.592-2.755-16.237.938-17.769 14.362-32.516 33.218-39.183C75.222 19.414 93.32 4.42 114.389 5.53c12.797.675 23.88 7.144 30.709 16.656 7.99-3.393 17.338-5.109 27.236-4.587 23.959 1.264 43.334 15.225 47.56 32.796 17.704 7.329 30.318 19.682 33.413 33.745Z" clip-rule="evenodd"/>
        </mask>
        <path fill="#D9D9D9" fill-rule="evenodd" d="M253.307 84.14c25.195 3.24 44.094 20.912 43.026 41.142-1.134 21.509-24.409 37.767-51.985 36.312a64.102 64.102 0 0 1-2.582-.188c-10.01 10.897-27.648 17.62-47.351 16.58-8.122-.428-15.757-2.131-22.543-4.819-10.283 9.525-26.778 15.236-45.048 14.272-14.848-.783-28.065-5.826-37.447-13.352-3.411.058-6.885-.002-10.406-.188-43.295-2.284-77.413-22.689-76.205-45.577.79-14.979 16.513-27.308 39.42-33.401-2.065-5.118-3.052-10.592-2.755-16.237.938-17.769 14.362-32.516 33.218-39.183C75.222 19.414 93.32 4.42 114.389 5.53c12.797.675 23.88 7.144 30.709 16.656 7.99-3.393 17.338-5.109 27.236-4.587 23.959 1.264 43.334 15.225 47.56 32.796 17.704 7.329 30.318 19.682 33.413 33.745Z" clip-rule="evenodd"/>
        <path fill="#0F1117" d="m253.307 84.14-2.93.646.454 2.061 2.094.27.382-2.976Zm-11.541 77.266.277-2.987-1.481-.137-1.006 1.095 2.21 2.029Zm-69.894 11.761 1.105-2.789-1.757-.696-1.386 1.284 2.038 2.201Zm-82.495.92 1.877-2.341-.845-.678-1.084.019.052 3ZM42.186 94.921l.77 2.899 3.282-.873-1.27-3.148-2.782 1.122ZM72.649 39.5l1 2.828 1.741-.615.235-1.832-2.976-.381Zm72.449-17.314-2.437 1.75 1.4 1.95 2.21-.939-1.173-2.76Zm74.796 28.208-2.916.702.357 1.486 1.412.584 1.147-2.772Zm33.031 36.721c24.304 3.126 41.366 19.936 40.413 38.008l5.991.316c1.181-22.389-19.553-40.92-45.639-44.275l-.765 5.951Zm40.413 38.008c-1.014 19.204-22.175 34.88-48.832 33.474l-.316 5.992c28.495 1.503 53.883-15.336 55.139-39.15l-5.991-.316Zm-48.832 33.474a60.05 60.05 0 0 1-2.463-.179l-.555 5.975c.895.082 1.795.148 2.702.196l.316-5.992Zm-4.95.779c-9.281 10.103-25.974 16.616-44.983 15.614l-.316 5.991c20.397 1.076 38.979-5.856 49.718-17.546l-4.419-4.059Zm-44.983 15.614c-7.806-.412-15.12-2.048-21.596-4.613l-2.209 5.578c7.095 2.81 15.05 4.581 23.489 5.026l.316-5.991Zm-24.739-4.025c-9.587 8.88-25.241 14.406-42.852 13.477l-.316 5.992c18.93.998 36.265-4.897 47.245-15.067l-4.077-4.402Zm-42.852 13.477c-14.29-.754-26.888-5.605-35.728-12.697l-3.754 4.681c9.923 7.96 23.76 13.195 39.166 14.008l.316-5.992Zm-37.657-13.356c-3.34.057-6.745-.002-10.197-.184l-.316 5.992c3.591.19 7.135.251 10.616.191l-.103-5.999Zm-10.197-.184c-21.258-1.121-40.115-6.69-53.408-14.641-13.424-8.029-20.475-17.997-19.959-27.782l-5.991-.316c-.691 13.102 8.713 24.781 22.87 33.248 14.288 8.545 34.137 14.321 56.172 15.483l.317-5.992ZM5.761 128.48c.339-6.413 3.876-12.524 10.336-17.882 6.468-5.364 15.695-9.808 26.86-12.778l-1.543-5.798c-11.742 3.123-21.83 7.89-29.147 13.958C4.94 112.055.222 119.598-.23 128.164l5.991.316Zm39.207-34.681c-1.91-4.733-2.814-9.77-2.54-14.957l-5.992-.316c-.322 6.103.747 12.013 2.968 17.517l5.564-2.245Zm-2.54-14.957c.856-16.233 13.17-30.13 31.221-36.513l-2-5.657c-19.66 6.952-34.195 22.55-35.214 41.854l5.992.316Zm33.197-38.96C77.992 21.404 94.677 7.496 114.23 8.527l.316-5.992C91.963 1.345 72.452 17.424 69.673 39.12l5.952.762ZM114.23 8.527c11.866.626 22.119 6.62 28.43 15.41l4.874-3.5c-7.347-10.233-19.259-17.177-32.988-17.902l-.316 5.992Zm32.04 16.421c7.555-3.209 16.446-4.85 25.905-4.352l.316-5.991c-10.338-.546-20.143 1.243-28.567 4.82l2.346 5.523Zm25.905-4.352c23.074 1.218 40.979 14.606 44.802 30.501l5.833-1.403c-4.629-19.245-25.476-33.779-50.319-35.09l-.316 5.992Zm46.571 32.571c17.19 7.117 28.823 18.865 31.63 31.619l5.86-1.29c-3.383-15.372-16.979-28.33-35.195-35.872l-2.295 5.543Z" mask="url(#a)"/>
        <path stroke="#5772B7" stroke-linejoin="round" stroke-width="6" d="M200 318v19.05m0 19.95v-19.95m0 0L216.5 327M200 337.05l16.5 9.15m-16.5-9.15-17.4 9.15m17.4-9.15L183.5 327m11.4 27.9 5.1-6 4.8 6m.3-36.3-5.1 6-4.8-6m-8.25 4.8 2.646 7.417-7.596 1.157m36.546 0-7.746-1.417 2.796-7.157M182 340.8l7.746 1.417-2.796 7.157"/>
        <path stroke="#5772B7" stroke-linejoin="round" stroke-width="6" d="m194.9 354.9 5.1-6 4.8 6"/>
        <path stroke="#5772B7" stroke-linejoin="round" stroke-width="6" d="m194.9 354.9 5.1-6 4.8 6m6.996-5.526-2.646-7.417 7.596-1.157"/>
        <path stroke="#263D7A" stroke-linejoin="round" stroke-width="3" d="M248 177v31.75m0 33.25v-33.25m0 0L275.5 192M248 208.75 275.5 224M248 208.75 219 224m29-15.25L220.5 192m19 46.5 8.5-10 8 10m.5-60.5-8.5 10-8-10m-13.75 8 4.41 12.361-12.66 1.928m60.91 0L266 197.928 270.66 186M218 215l12.91 2.361-4.66 11.928"/>
        <path stroke="#263D7A" stroke-linejoin="round" stroke-width="3" d="m239.5 238.5 8.5-10 8 10"/>
        <path stroke="#263D7A" stroke-linejoin="round" stroke-width="3" d="m239.5 238.5 8.5-10 8 10m11.66-9.211-4.41-12.361L275.91 215"/>
        <path stroke="#5772B7" stroke-linejoin="round" stroke-width="6" d="M180.615 206v17.585m0 18.415v-18.415m0 0 15.231-9.277m-15.231 9.277 15.231 8.446m-15.231-8.446-16.061 8.446m16.061-8.446-15.23-9.277m10.523 25.754 4.707-5.539 4.431 5.539m.277-33.508-4.708 5.538-4.43-5.538m-7.616 4.431 2.443 6.846-7.012 1.068m33.735 0-7.15-1.308 2.581-6.606M164 227.046l7.15 1.308-2.581 6.606"/>
        <path stroke="#5772B7" stroke-linejoin="round" stroke-width="6" d="m175.908 240.062 4.707-5.539 4.431 5.539"/>
        <path stroke="#5772B7" stroke-linejoin="round" stroke-width="6" d="m175.908 240.062 4.707-5.539 4.431 5.539m6.458-5.102-2.442-6.846 7.011-1.068"/>
        <path stroke="#263D7A" stroke-linejoin="round" stroke-width="3" d="M145 261v31.75m0 33.25v-33.25m0 0L172.5 276M145 292.75 172.5 308M145 292.75 116 308m29-15.25L117.5 276m19 46.5 8.5-10 8 10m.5-60.5-8.5 10-8-10m-13.75 8 4.41 12.361-12.66 1.928m60.91 0L163 281.928 167.66 270M115 299l12.91 2.361-4.66 11.928"/>
        <path stroke="#263D7A" stroke-linejoin="round" stroke-width="3" d="m136.5 322.5 8.5-10 8 10"/>
        <path stroke="#263D7A" stroke-linejoin="round" stroke-width="3" d="m136.5 322.5 8.5-10 8 10m11.66-9.211-4.41-12.361L172.91 299M76 188v31.75M76 253v-33.25m0 0L103.5 203M76 219.75 103.5 235M76 219.75 47 235m29-15.25L48.5 203m19 46.5 8.5-10 8 10m.5-60.5L76 199l-8-10m-13.75 8 4.41 12.361L46 211.289m60.91 0L94 208.928 98.66 197M46 226l12.91 2.361-4.66 11.928"/>
        <path stroke="#263D7A" stroke-linejoin="round" stroke-width="3" d="m67.5 249.5 8.5-10 8 10"/>
        <path stroke="#263D7A" stroke-linejoin="round" stroke-width="3" d="m67.5 249.5 8.5-10 8 10m11.66-9.211-4.41-12.361L103.91 226"/>
    </g>
</svg>
