<svg xmlns="http://www.w3.org/2000/svg" viewBox="0 0 512 512">
    <g data-name="Stable, treee, fence">
        <path fill="#b5e08c" d="M501.333 122.667c0 78.72-53.333 134.613-103.466 103.36-40.427-64-33.6-54.72-39.147-56.96-21.44-68.907 10.56-158.4 67.947-158.4 41.28 0 74.666 50.133 74.666 112Z"/>
        <path fill="#9dcc6b" d="M413.227 12.587C378.453 22.08 352 67.733 352 122.667c0 91.413 70.507 145.92 120.107 88.746C394.667 232.427 352 83.627 413.227 12.587Z"/>
        <path fill="#df8761" d="M440.427 152.427c-4.16 4.266-3.094 13.013-3.094-45.76a10.667 10.667 0 0 0-21.333 0v27.626l-8.427-8.533a10.71 10.71 0 0 0-15.146 15.147L416 164.373V416a10.667 10.667 0 0 0 21.333 0V185.707l18.24-18.134a10.71 10.71 0 0 0-15.146-15.146Z"/>
        <path fill="#db5669" d="M437.333 288H384v96l-10.667 10.667v106.666H96V394.667L85.333 384v-96H32l74.667-117.333 128-53.334 124.053 51.734c5.973 2.453-5.013-12.374 78.613 118.933Z"/>
        <path fill="#f26674" d="M437.333 288H384v96l-10.667 10.667v106.666h-288V288H32l74.667-117.333 128-53.334 124.053 51.734c5.973 2.453-5.013-12.374 78.613 118.933Z"/>
        <path fill="#db5669" d="M117.333 330.667v-45.12a18.88 18.88 0 0 0-18.88-18.88 18.88 18.88 0 0 1-16-29.014L131.733 160l-25.066 10.667L32 288h53.333v213.333h288V480H266.667a149.333 149.333 0 0 1-149.334-149.333Z"/>
        <path fill="#dad7e5" d="M266.667 213.333a32 32 0 1 1-48.64-27.306 32 32 0 0 1 48.64 27.306Z"/>
        <path fill="#edebf2" d="M261.973 229.973a32 32 0 0 1-43.946-43.946 32 32 0 0 1 43.946 43.946Zm79.36 262.187c0-2.56.854-183.36 0-186.773a11.627 11.627 0 0 0-5.653-5.867c-4.16-.853-211.2-.853-197.013-.853a12.16 12.16 0 0 0-7.574 3.306c-4.266 4.374-2.986-4.8-2.986 188.694a10.667 10.667 0 0 0 10.666 10.666c211.2 0 195.947 1.814 200.534-4.48a7.04 7.04 0 0 0 2.026-4.693Zm-192-158.08 69.76 65.813-69.76 65.707ZM165.547 320h138.666l-69.546 65.28Zm69.12 94.613L303.787 480H165.12Zm15.573-14.72L320 334.08v131.84Z"/>
        <path fill="#edb996" d="M53.333 394.667v106.666H10.667V394.667L32 373.333l21.333 21.334zm42.667 0v106.666H53.333V394.667l21.334-21.334L96 394.667zm320 0v106.666h-42.667V394.667l21.334-21.334L416 394.667zm42.667 106.666H416V394.667l21.333-21.334 21.334 21.334v106.666zm42.666-106.666v106.666h-42.666V394.667L480 373.333l21.333 21.334z"/>
        <path fill="#f6ccaf" d="M501.333 394.667c0 91.2-1.066 85.333 0 85.333A21.333 21.333 0 0 1 480 458.667v-85.334Zm-42.666 0c0 91.2-1.067 85.333 0 85.333a21.333 21.333 0 0 1-21.334-21.333v-85.334Zm-42.667 0c0 91.2-1.067 85.333 0 85.333a21.333 21.333 0 0 1-21.333-21.333v-85.334Zm-320 0c0 91.2-1.067 85.333 0 85.333a21.333 21.333 0 0 1-21.333-21.333v-85.334Zm-42.667 0c0 91.2-1.066 85.333 0 85.333A21.333 21.333 0 0 1 32 458.667v-85.334Z"/>
    </g>
</svg>
