<svg xmlns="http://www.w3.org/2000/svg" viewBox="0 0 512 512">
    <g data-name="Plowing land">
        <path fill="#747575" d="m339.2 206.933-26.453-35.306 14.826-14.72a10.71 10.71 0 0 0-15.146-15.147l-42.667 42.667a10.71 10.71 0 0 0 15.147 15.146l12.586-12.693 24.64 32.853a10.667 10.667 0 0 0 17.067-12.8Z"/>
        <path fill="#dad7e5" d="M149.333 320h-128a10.667 10.667 0 0 1 0-21.333h128a10.667 10.667 0 0 1 0 21.333Z"/>
        <path fill="#dad7e5" d="M53.333 373.333c-4.586 0-6.08-1.813-14.293-8.746a91.84 91.84 0 0 1-28.373-53.12A10.878 10.878 0 0 1 32 307.2a69.333 69.333 0 0 0 28.373 47.253 10.667 10.667 0 0 1-7.04 18.88Zm64 0c-4.586 0-6.08-1.813-14.293-8.746a91.84 91.84 0 0 1-28.373-53.12A10.878 10.878 0 0 1 96 307.2a69.333 69.333 0 0 0 28.373 47.253 10.667 10.667 0 0 1-7.04 18.88Z"/>
        <path fill="#7c7d7d" d="M469.333 330.667A42.667 42.667 0 1 1 426.667 288a42.667 42.667 0 0 1 42.666 42.667Z"/>
        <path fill="#747575" d="M457.92 359.68c-29.12 32-82.027 3.947-73.173-36.693 29.226-31.68 82.026-3.84 73.173 36.693Z"/>
        <path fill="#7c7d7d" d="M246.72 363.84a64 64 0 1 1-26.773-118.507A64 64 0 0 1 246.72 363.84Z"/>
        <path fill="#747575" d="M246.72 363.84c-56.32 35.307-122.987-30.827-88-87.787 56.747-34.986 122.773 31.68 88 87.787Z"/>
        <path fill="#db5669" d="M320 320h-42.667a64 64 0 0 0-56.426-74.667l81.28 4.054c2.133.32 20.693 33.066 17.813 70.613Z"/>
        <path fill="#dad7e5" d="M426.667 288a42.667 42.667 0 0 0-41.28 32H320a106.667 106.667 0 0 0-17.707-70.293L395.2 254.4a33.6 33.6 0 0 1 31.467 33.6Z"/>
        <path fill="#edebf2" d="M426.667 288a41.813 41.813 0 0 0-28.907 11.413 42.667 42.667 0 0 0-20.693 9.92h-27.414a21.333 21.333 0 0 1-21.333-18.56 151.147 151.147 0 0 0-9.28-40.213l75.52 3.84a33.6 33.6 0 0 1 32.107 33.6Z"/>
        <path fill="#dad7e5" d="M389.867 309.333c0 .854-.96 1.707-1.387 2.56a14.293 14.293 0 0 1 1.28-2.56Z"/>
        <path fill="#db5669" d="M501.333 245.333v85.334h-32A42.667 42.667 0 0 0 426.667 288a33.6 33.6 0 0 0-32-33.6c-99.627-5.013-92.16-4.053-93.227-5.12s0 .853 18.56-46.613h138.667a42.667 42.667 0 0 1 42.666 42.666Z"/>
        <path fill="#f26674" d="M501.333 245.333v64h-37.76A42.667 42.667 0 0 0 426.667 288a33.6 33.6 0 0 0-32-33.6c-82.667-4.16-71.894-2.987-71.894-5.12s0 .853 18.56-46.613h117.334a42.667 42.667 0 0 1 42.666 42.666Z"/>
        <path fill="#db5669" d="M301.44 249.173c-90.773-4.586-100.053-8-121.173 5.014L149.333 224a106.667 106.667 0 0 1 152.107 25.173Z"/>
        <path fill="#f26674" d="M309.333 319.04c8.854-97.067-114.346-144.427-172.266-67.307a10.667 10.667 0 0 1-17.067-12.8c70.187-94.293 220.693-36.266 210.667 82.027a10.71 10.71 0 0 1-21.334-1.92Z"/>
        <path fill="#c6c3d8" d="M234.667 309.333a21.333 21.333 0 1 1-40.747-8.746 21.333 21.333 0 0 1 40.747 8.746Z"/>
        <path fill="#dad7e5" d="M222.08 328.747a21.333 21.333 0 0 1-28.16-28.16 21.333 21.333 0 0 1 28.16 28.16Zm215.253 1.92a10.667 10.667 0 0 0-21.333 0 10.667 10.667 0 0 0 21.333 0Z"/>
        <path fill="#9dcc6b" d="M501.333 394.667h-480a10.667 10.667 0 0 1 0-21.334h480a10.667 10.667 0 0 1 0 21.334Z"/>
        <path fill="#ffde76" d="M501.333 256h-32a10.667 10.667 0 0 1 0-21.333h30.614A74.667 74.667 0 0 1 501.333 256Z"/>
    </g>
</svg>
