<svg xmlns="http://www.w3.org/2000/svg" xml:space="preserve" viewBox="0 0 512 512">
    <g transform="scale(2)">
        <path fill="#fcdd86" d="M198.871 59.629c-.684-2.657-3.077-4.562-5.82-4.523-6.587.094-13.135-.545-18.95-3.868l-4.586-2.621a46.224 46.224 0 0 1 5.124 19.055c6.186 2.719 11.911 3.812 17.991 4.193 2.775.174 5.418-1.495 6.167-4.173.645-2.305.671-5.745.074-8.063zM81.899 51.238c-5.815 3.323-12.363 3.962-18.95 3.868-2.744-.039-5.136 1.865-5.82 4.523-.597 2.318-.571 5.758.075 8.064.75 2.677 3.393 4.347 6.167 4.173 6.087-.382 11.818-1.476 18.013-4.203A46.229 46.229 0 0 1 86.516 48.6l-4.617 2.638z"/>
        <path fill="#f9d0b4" d="M164.545 74.078c-.75 0-1.484.063-2.203.175v25.99c0 .774-.035 1.54-.087 2.302.747.12 1.508.2 2.29.2 7.916 0 14.333-6.417 14.333-14.333s-6.417-14.334-14.333-14.334z"/>
        <path fill="#f9d0b4" d="M160.23 69.892c-3.474-.805-7.692-2.817-12.527-7.21-.956-.869-2.431-.797-3.271.184-5.229 6.103-23.769 24.619-50.752 16.932v20.445c0 18.882 15.449 34.331 34.331 34.331 18.882 0 34.331-15.449 34.331-34.331V72.507c0-1.261-.883-2.33-2.112-2.615z"/>
        <path fill="#f9d0b4" d="M93.766 102.545a34.415 34.415 0 0 1-.086-2.302V79.798a55.982 55.982 0 0 1-7.261-2.637 4.366 4.366 0 0 0-4.747.815 14.258 14.258 0 0 0-4.528 10.435c0 7.916 6.417 14.333 14.333 14.333.781.001 1.542-.078 2.289-.199z"/>
        <path fill="#fcdd86" d="M128.011 23.213c-25.676 0-46.684 21.008-46.684 46.684v8.436c.117-.117.224-.243.344-.356a4.368 4.368 0 0 1 4.747-.816 55.982 55.982 0 0 0 7.261 2.637c26.983 7.686 45.524-10.83 50.752-16.932.841-.981 2.315-1.053 3.271-.184 4.835 4.393 9.053 6.405 12.527 7.21 1.229.285 2.112 1.354 2.112 2.615v1.746a14.287 14.287 0 0 1 12.353 4.039v-8.396c.001-25.675-21.007-46.683-46.683-46.683zm121.818 29.25c-10.92-3.14-21.14-2.463-32.458-.732 3.966 4.632 7.135 10.945 8.993 17.914 0 0 .994 1.583 2.607 4.335 9.903 3.588 15.204 9.182 19.312 12.25 1.155.862 2.793.038 2.793-1.403V54.145a1.746 1.746 0 0 0-1.247-1.682zm-243.636 0a1.744 1.744 0 0 0-1.246 1.682v30.682c0 1.441 1.639 2.265 2.793 1.403 4.108-3.068 9.409-8.662 19.312-12.25 1.612-2.752 2.607-4.335 2.607-4.335 1.858-6.969 5.027-13.282 8.993-17.914-11.319-1.732-21.539-2.408-32.459.732z"/>
        <path fill="#f9d0b4" d="M253.162 129.063c-6.937-27.821-26.798-59.419-26.798-59.419-3.954-14.827-13.839-26.689-24.712-25.7-10.305.937-11.761 6.374-10.934 11.16.776.013 1.554.013 2.333.002 2.744-.039 5.136 1.865 5.82 4.523.597 2.318.571 5.758-.075 8.064-.75 2.677-3.393 4.347-6.167 4.173a68.106 68.106 0 0 1-2.583-.214c.411 2.156 1.364 4.287 2.709 5.902 3.429 4.114 9.236 4.899 12.472 4.993a3.78 3.78 0 0 1 3.362 2.306c8.264 19.44 13.476 33.678 15.638 39.797a4.668 4.668 0 0 1-1.679 5.348l-13.173 9.468c-8.899 6.396-19.099 10.7-29.847 12.84a127.231 127.231 0 0 0-13.048 3.355 4.39 4.39 0 0 1-2.396.094 30.199 30.199 0 0 1-5.951-2.191l-6.467-3.189c-4.457 5.219-11.419 11.812-19.777 14.37-1.271.389-1.979 1.567-1.94 2.76h-3.874c.039-1.192-.669-2.37-1.94-2.76-8.358-2.558-15.32-9.151-19.777-14.37l-6.467 3.189a30.176 30.176 0 0 1-5.951 2.191 4.388 4.388 0 0 1-2.396-.094 127.304 127.304 0 0 0-13.048-3.355c-10.748-2.14-20.948-6.444-29.847-12.84l-13.173-9.468a4.668 4.668 0 0 1-1.679-5.348c2.161-6.119 7.374-20.356 15.638-39.797a3.778 3.778 0 0 1 3.361-2.306c3.236-.094 9.043-.879 12.472-4.993 1.346-1.616 2.299-3.747 2.71-5.904-.863.087-1.73.162-2.605.217-2.775.174-5.418-1.495-6.167-4.173-.646-2.306-.671-5.746-.075-8.064.684-2.657 3.077-4.562 5.82-4.523.786.011 1.571.011 2.355-.002.827-4.785-.629-10.223-10.934-11.159-10.873-.988-20.758 10.873-24.712 25.7 0 0-19.906 31.668-26.822 59.512a11.506 11.506 0 0 0 1.394 8.823c4.956 8.031 20.802 25.999 71.384 56.74a16.546 16.546 0 0 1 7.417 9.91l3.147 11.921a83.323 83.323 0 0 1 3.786 24.834v9.469a2.646 2.646 0 0 0 2.646 2.646h70.801a2.646 2.646 0 0 0 2.646-2.646v-9.469a83.323 83.323 0 0 1 3.786-24.834l3.147-11.921a16.542 16.542 0 0 1 7.379-9.885c50.328-30.763 66.294-48.74 71.345-56.77a11.515 11.515 0 0 0 1.446-8.913z"/>
        <path fill="#f9d0b4" d="M149.664 149.387a9.543 9.543 0 0 1-5.323-8.561v-10.411c-9.952 5.424-22.262 5.667-32.659 0v10.411a9.547 9.547 0 0 1-5.323 8.561l-2.001.987c4.457 5.219 11.419 11.812 19.777 14.37 1.271.389 1.979 1.567 1.94 2.76h3.874c-.039-1.192.669-2.37 1.94-2.76 8.358-2.558 15.32-9.151 19.777-14.37l-2.002-.987z"/>
        <path fill="#fc657e" d="M253.162 129.063c-3.907-15.669-11.913-32.534-18.162-44.28-5.331.742-14.258 3.179-21.849 11.013 5.649 13.826 9.344 23.95 11.076 28.852a4.668 4.668 0 0 1-1.679 5.348l-13.173 9.468c-8.899 6.396-19.099 10.7-29.847 12.84a127.231 127.231 0 0 0-13.048 3.355 4.39 4.39 0 0 1-2.396.094 30.199 30.199 0 0 1-5.951-2.191l-6.467-3.189c-4.457 5.219-11.419 11.812-19.777 14.37-1.271.389-1.979 1.567-1.94 2.76h-3.874c.039-1.192-.669-2.37-1.94-2.76-8.358-2.558-15.32-9.151-19.777-14.37l-6.467 3.189a30.176 30.176 0 0 1-5.951 2.191 4.388 4.388 0 0 1-2.396-.094 127.231 127.231 0 0 0-13.048-3.355c-10.748-2.14-20.948-6.444-29.847-12.84l-13.173-9.468a4.668 4.668 0 0 1-1.679-5.348c1.732-4.902 5.427-15.026 11.076-28.852-7.591-7.834-16.519-10.271-21.849-11.013-6.264 11.769-14.289 28.678-18.188 44.374a11.506 11.506 0 0 0 1.394 8.823c4.956 8.031 20.802 25.999 71.384 56.74a16.546 16.546 0 0 1 7.417 9.91l3.147 11.921a83.323 83.323 0 0 1 3.786 24.834v9.469a2.646 2.646 0 0 0 2.646 2.646h70.801a2.646 2.646 0 0 0 2.646-2.646v-9.469a83.323 83.323 0 0 1 3.786-24.834l3.147-11.921a16.542 16.542 0 0 1 7.379-9.885c50.328-30.763 66.294-48.74 71.345-56.77a11.504 11.504 0 0 0 1.448-8.912z"/>
        <path fill="#edf4fc" d="M125.925 166.514a2.704 2.704 0 0 0-1.791-1.77c-8.358-2.558-15.32-9.151-19.777-14.37l-6.467 3.189a30.127 30.127 0 0 1-5.959 2.193 4.187 4.187 0 0 1-1.072.123c13.948 31.751 29.137 18.65 35.216 11.624l-.15-.989zm38.166-10.758a30.253 30.253 0 0 1-5.959-2.193l-6.467-3.189c-4.457 5.219-11.419 11.812-19.777 14.37-1.271.389-1.979 1.567-1.94 2.76 6.079 7.026 21.268 20.126 35.216-11.624-.36.002-.72-.035-1.073-.124z"/>
        <path fill="#fc657e" d="M184.993 119.778c-3.019-.562-5.399-2.894-5.973-5.851a.134.134 0 0 0-.265 0c-.574 2.958-2.954 5.289-5.973 5.851a.131.131 0 0 0 0 .26c3.019.562 5.399 2.894 5.973 5.851a.134.134 0 0 0 .265 0c.574-2.958 2.954-5.289 5.973-5.851a.131.131 0 0 0 0-.26z"/>
        <path fill="#f5c84c" d="M173.983 13.697c-4.498-.838-8.043-4.31-8.898-8.717a.2.2 0 0 0-.395 0c-.855 4.406-4.4 7.879-8.898 8.717a.195.195 0 0 0 0 .387c4.498.838 8.043 4.31 8.898 8.717a.2.2 0 0 0 .395 0c.855-4.406 4.4-7.879 8.898-8.717a.195.195 0 0 0 0-.387z"/>
        <path fill="#70d6f9" d="M63.694 211.302h-2.329v-2.33a3.156 3.156 0 1 0-6.314 0v2.33h-2.33a3.156 3.156 0 1 0 0 6.314h2.33v2.33a3.156 3.156 0 1 0 6.314 0v-2.33h2.329a3.156 3.156 0 1 0 0-6.314z"/>
        <circle cx="136.999" cy="3.377" r="3.377" fill="#87d147"/>
        <circle cx="71.999" cy="238.377" r="3.377" fill="#f5c84c"/>
        <path d="M138.455 110.269a2.5 2.5 0 0 0-3.522.31c-1.521 1.814-4.113 2.898-6.933 2.898s-5.412-1.083-6.933-2.898a2.5 2.5 0 0 0-3.832 3.212c2.459 2.934 6.484 4.686 10.765 4.686s8.305-1.752 10.765-4.686a2.501 2.501 0 0 0-.31-3.522zm26.09-38.69c-.592 0-1.199.034-1.802.1a2.5 2.5 0 1 0 .546 4.97c.423-.046.845-.07 1.256-.07 6.525 0 11.833 5.309 11.833 11.833s-5.309 11.833-11.833 11.833c-.403 0-.821-.026-1.277-.082a2.5 2.5 0 1 0-.595 4.965c.655.079 1.268.117 1.873.117 9.282 0 16.833-7.551 16.833-16.833s-7.552-16.833-16.834-16.833z"/>
        <path d="M160.794 67.457c-3.669-.85-7.508-3.08-11.41-6.625a4.814 4.814 0 0 0-3.536-1.246 4.72 4.72 0 0 0-3.315 1.653c-4.827 5.634-22.569 23.447-48.168 16.154a2.5 2.5 0 0 0-3.185 2.404v20.445c0 20.309 16.522 36.831 36.831 36.831s36.831-16.522 36.831-36.831V72.507c0-2.422-1.665-4.498-4.048-5.05zm-.952 32.786c0 17.552-14.279 31.831-31.831 31.831S96.18 117.795 96.18 100.243V83.004c26.473 5.785 44.677-12.185 49.996-18.333 4.492 4.047 9.03 6.623 13.49 7.656.087.02.176.083.176.18v27.736z"/>
        <path d="M85.409 79.448a58.59 58.59 0 0 0 7.586 2.754 2.5 2.5 0 1 0 1.369-4.809 53.656 53.656 0 0 1-6.936-2.519 6.85 6.85 0 0 0-7.468 1.278 16.87 16.87 0 0 0-5.318 12.259c0 9.282 7.551 16.833 16.833 16.833.593 0 1.193-.037 1.835-.112a2.5 2.5 0 1 0-.584-4.966c-.447.053-.856.078-1.251.078-6.525 0-11.833-5.309-11.833-11.833 0-3.293 1.328-6.352 3.738-8.612a1.866 1.866 0 0 1 2.029-.351z"/>
        <path d="M128.011 20.713c-27.12 0-49.184 22.064-49.184 49.184v7.634a2.5 2.5 0 1 0 5 0v-7.634c0-24.363 19.821-44.184 44.184-44.184s44.184 19.821 44.184 44.184v7.884a2.5 2.5 0 1 0 5 0v-7.884c0-27.12-22.064-49.184-49.184-49.184z"/>
        <path d="M201.292 59.006c-.984-3.824-4.392-6.479-8.277-6.399-5.538.076-11.97-.279-17.674-3.539l-4.586-2.621a2.5 2.5 0 0 0-3.461 3.318 43.509 43.509 0 0 1 4.848 18.026 2.5 2.5 0 0 0 1.491 2.17c5.904 2.596 11.715 3.953 18.84 4.4.185.012.369.018.553.018 3.796 0 7.184-2.458 8.178-6.011.766-2.737.803-6.587.088-9.362zm-4.903 8.013c-.411 1.468-1.939 2.462-3.603 2.352-5.948-.374-10.873-1.431-15.751-3.4a48.311 48.311 0 0 0-2.379-11.623c6.306 3.007 13.09 3.342 18.431 3.258a3.485 3.485 0 0 1 3.364 2.646c.492 1.914.465 4.886-.062 6.767zM250.52 50.06c-11.686-3.36-22.658-2.425-32.774-.914a2.5 2.5 0 0 0 .738 4.946c10.842-1.62 20.136-2.131 30.091.616V83.29c-.474-.381-.968-.79-1.478-1.21-3.698-3.053-8.763-7.234-16.611-10.203a2.501 2.501 0 0 0-1.769 4.677c7.074 2.676 11.578 6.394 15.197 9.382 1.008.832 1.96 1.618 2.872 2.298a4.234 4.234 0 0 0 2.538.849c.648 0 1.3-.15 1.906-.454a4.23 4.23 0 0 0 2.345-3.801V54.145c0-1.888-1.256-3.568-3.055-4.085zm-212.274-.919c-10.104-1.508-21.062-2.44-32.744.918-1.799.518-3.056 2.198-3.056 4.085v30.682c0 1.62.898 3.076 2.345 3.801a4.246 4.246 0 0 0 1.906.454c.896 0 1.786-.287 2.539-.849.911-.68 1.863-1.466 2.871-2.298 3.595-2.968 8.07-6.662 15.072-9.335 1.29-.492 1.937-1.937 1.444-3.227s-1.938-1.939-3.227-1.444c-7.77 2.965-12.8 7.118-16.473 10.15-.509.421-1.003.829-1.477 1.21V54.707c9.951-2.746 19.236-2.236 30.062-.62a2.5 2.5 0 0 0 .738-4.946z"/>
        <path d="M226.584 123.816c-2.36-6.681-7.538-20.754-15.694-39.941a6.298 6.298 0 0 0-5.59-3.828c-2.76-.08-7.811-.719-10.624-4.094-.923-1.108-1.648-2.585-2.041-4.161a2.5 2.5 0 1 0-4.851 1.209c.571 2.292 1.655 4.477 3.051 6.152 4.068 4.882 10.718 5.787 14.319 5.892.492.014.937.323 1.134.786 8.103 19.063 13.24 33.025 15.581 39.651.324.918.01 1.917-.78 2.485l-13.173 9.468c-8.516 6.121-18.231 10.299-28.876 12.419a128.956 128.956 0 0 0-13.314 3.423c-.36.114-.716.133-1.029.053a27.747 27.747 0 0 1-5.458-2.01l-6.467-3.188a2.5 2.5 0 1 0-2.211 4.485l6.467 3.188a32.751 32.751 0 0 0 6.444 2.373c.529.134 1.075.2 1.625.2.713 0 1.435-.112 2.138-.334a124.016 124.016 0 0 1 12.782-3.286c11.35-2.26 21.718-6.722 30.818-13.262l13.174-9.469a7.211 7.211 0 0 0 2.575-8.211z"/>
        <path d="M255.588 128.458c-6.661-26.711-24.679-56.234-26.908-59.823-4.664-17.058-15.83-28.213-27.254-27.181-5.226.475-8.995 2.108-11.204 4.854-1.806 2.245-2.506 5.092-2.081 8.462a2.5 2.5 0 0 0 4.961-.625c-.252-2.001.08-3.54 1.017-4.704 1.326-1.648 3.937-2.66 7.76-3.008 8.9-.808 18.169 9.225 22.07 23.854.064.242.166.474.299.686.196.313 19.731 31.592 26.49 58.693.586 2.352.171 4.894-1.138 6.976-4.906 7.799-20.593 25.442-70.533 55.968-4.22 2.58-7.235 6.621-8.492 11.38l-3.134 11.867a85.77 85.77 0 0 0-3.882 25.526v9.469a.146.146 0 0 1-.146.146H92.61a.146.146 0 0 1-.146-.146v-9.469a85.775 85.775 0 0 0-3.883-25.525l-3.134-11.868a18.96 18.96 0 0 0-8.536-11.408c-50.187-30.502-65.747-48.126-70.555-55.917-1.274-2.064-1.673-4.582-1.095-6.907C12 102.637 31.578 71.289 31.775 70.975c.133-.212.234-.443.299-.686 3.902-14.63 13.171-24.659 22.07-23.854 3.839.349 6.455 1.368 7.775 3.028.943 1.186 1.265 2.756.984 4.803a2.5 2.5 0 1 0 4.954.678c.469-3.424-.212-6.315-2.025-8.594-2.204-2.771-5.984-4.417-11.236-4.895-11.406-1.032-22.59 10.123-27.255 27.181C25.11 72.229 7.051 101.818.41 128.555c-.9 3.623-.283 7.537 1.693 10.738 5.043 8.173 21.132 26.519 72.213 57.563a13.98 13.98 0 0 1 6.298 8.412l3.147 11.92c.009.036.02.071.031.106a80.768 80.768 0 0 1 3.672 24.09v9.469a5.152 5.152 0 0 0 5.146 5.146h70.801a5.152 5.152 0 0 0 5.146-5.146v-9.469a80.759 80.759 0 0 1 3.672-24.09l.031-.106 3.147-11.92a13.978 13.978 0 0 1 6.266-8.39c50.81-31.058 67.019-49.402 72.158-57.572 2.03-3.228 2.67-7.181 1.757-10.848z"/>
        <path d="M106.599 149.268a2.5 2.5 0 0 0-3.348-1.137l-6.467 3.188a27.793 27.793 0 0 1-5.458 2.01c-.313.08-.669.061-1.029-.053a129.327 129.327 0 0 0-13.315-3.423c-10.645-2.12-20.36-6.298-28.876-12.419l-13.173-9.468a2.155 2.155 0 0 1-.781-2.485c2.341-6.626 7.478-20.589 15.581-39.651a1.283 1.283 0 0 1 1.134-.786c3.602-.105 10.251-1.01 14.319-5.892 1.449-1.739 2.553-4.008 3.108-6.392a2.5 2.5 0 1 0-4.869-1.135c-.382 1.639-1.121 3.175-2.08 4.326-2.813 3.375-7.864 4.015-10.624 4.095a6.297 6.297 0 0 0-5.59 3.828c-8.156 19.188-13.334 33.261-15.694 39.942a7.208 7.208 0 0 0 2.577 8.21l13.173 9.468c9.1 6.54 19.468 11.002 30.818 13.262a124.281 124.281 0 0 1 12.782 3.286 7.076 7.076 0 0 0 2.138.334 6.63 6.63 0 0 0 1.626-.2 32.766 32.766 0 0 0 6.443-2.373l6.467-3.188a2.5 2.5 0 0 0 1.138-3.347z"/>
        <path d="M154.114 149.869a2.5 2.5 0 0 0-1.343-1.738l-2.001-.986a7.001 7.001 0 0 1-3.929-6.318v-9.743a2.5 2.5 0 1 0-5 0v9.743c0 4.267 2.195 8.123 5.794 10.297-4.138 4.39-9.878 9.209-16.479 11.229a5.241 5.241 0 0 0-3.135 2.65H128a5.239 5.239 0 0 0-3.134-2.65c-6.601-2.021-12.342-6.839-16.479-11.229 3.599-2.174 5.794-6.031 5.794-10.297v-9.795a2.5 2.5 0 1 0-5 0v9.795a7.001 7.001 0 0 1-3.929 6.318l-2.001.986a2.497 2.497 0 0 0-.795 3.865c4.602 5.389 11.972 12.39 20.947 15.138.115.035.154.132.167.207a2.5 2.5 0 0 0 2.495 2.662h3.883a2.5 2.5 0 0 0 2.498-2.582c-.001-.054.005-.236.173-.287 8.974-2.748 16.344-9.749 20.946-15.138a2.497 2.497 0 0 0 .549-2.127zm-9.707-88.505a2.496 2.496 0 0 0-3.013 1.85c-1.028 4.295-4.83 14.964-17.905 21.246a2.5 2.5 0 1 0 2.165 4.507c15.01-7.211 19.408-19.599 20.602-24.59a2.499 2.499 0 0 0-1.849-3.013zm95.076-23.094c-16.177.794-27.098 7.016-27.555 7.28a2.5 2.5 0 1 0 2.505 4.329c.102-.059 10.317-5.878 25.296-6.614a2.502 2.502 0 0 0 2.375-2.62c-.069-1.38-1.265-2.45-2.621-2.375zM43.165 45.549c-.457-.264-11.378-6.485-27.555-7.28a2.51 2.51 0 0 0-2.62 2.375 2.5 2.5 0 0 0 2.375 2.62c14.904.732 25.197 6.557 25.299 6.615a2.502 2.502 0 0 0 2.501-4.33zm73.544 46.489-5.171-4.082a2.501 2.501 0 0 0-3.097 3.925l2.685 2.12-2.685 2.12a2.5 2.5 0 1 0 3.097 3.924l5.171-4.082a2.498 2.498 0 0 0 0-3.925zm30.851 4.082L144.875 94l2.685-2.12a2.5 2.5 0 0 0-3.097-3.925l-5.171 4.082a2.498 2.498 0 0 0 0 3.924l5.171 4.082a2.496 2.496 0 0 0 3.511-.413 2.499 2.499 0 0 0-.414-3.51zM44.122 93.505c-7.624-7.57-16.339-10.232-22.307-11.133a2.5 2.5 0 0 0-.746 4.944c5.231.789 12.865 3.119 19.53 9.736a2.494 2.494 0 0 0 1.762.726 2.5 2.5 0 0 0 1.761-4.273zm192.313-8.977a2.495 2.495 0 0 0-2.879-2.052c-5.78.97-14.224 3.665-21.626 10.999a2.501 2.501 0 0 0 3.52 3.552c6.47-6.411 13.867-8.77 18.934-9.62a2.5 2.5 0 0 0 2.051-2.879z"/>
        <path d="M127.531 165.843a2.501 2.501 0 0 0-3.528.231c-3.435 3.918-8.723 8.412-14.364 7.556-5.686-.857-11.305-7.155-16.25-18.213a2.5 2.5 0 1 0-4.565 2.041c5.756 12.872 12.508 19.977 20.069 21.117.715.108 1.434.162 2.156.162 5.574 0 11.309-3.202 16.713-9.365a2.502 2.502 0 0 0-.231-3.529z"/>
        <path d="M166.031 153.929a2.5 2.5 0 0 0-3.299 1.27c-4.964 11.179-10.608 17.551-16.323 18.429-5.63.869-10.895-3.588-14.321-7.475a2.5 2.5 0 1 0-3.751 3.305c5.383 6.107 11.09 9.279 16.638 9.279.734 0 1.466-.056 2.193-.167 7.589-1.165 14.363-8.345 20.134-21.341a2.502 2.502 0 0 0-1.271-3.3zM88.247 46.795a2.5 2.5 0 0 0-2.971-.366l-4.617 2.638c-5.704 3.26-12.131 3.623-17.674 3.539l-.121-.001c-3.838 0-7.182 2.617-8.156 6.4-.715 2.775-.678 6.625.088 9.361.995 3.554 4.382 6.012 8.178 6.012.184 0 .368-.006.553-.018 7.135-.448 12.952-1.808 18.863-4.41a2.5 2.5 0 0 0 1.49-2.169 43.535 43.535 0 0 1 4.856-18.034c.51-.983.31-2.185-.489-2.952zm-9.26 19.166c-4.885 1.975-9.817 3.035-15.773 3.409-1.676.113-3.192-.884-3.603-2.352-.527-1.881-.554-4.853-.061-6.767.403-1.564 1.762-2.646 3.316-2.646h.048c5.345.084 12.144-.252 18.457-3.271a48.36 48.36 0 0 0-2.384 11.627z"/>
    </g>
</svg>
