<svg xmlns="http://www.w3.org/2000/svg" xml:space="preserve" viewBox="0 0 512 512">
    <g transform="scale(2)">
        <path fill="#70d6f9" d="m89.029 162.235-30.685 7.723c-6.617 1.666-12.153 7.542-13.762 14.254l-12.48 40.142 36.502-31.491a1.777 1.777 0 0 1 2.506.178l.669.772 4.332-3.757a18.477 18.477 0 0 0 5.519-8.414l2.036-6.476a18.408 18.408 0 0 1 3.38-6.222c1.979-2.389 4.84-5.982 6.922-9.144l-4.939 2.435zm104.009 7.723-30.685-7.723-10.845-5.347a13.65 13.65 0 0 1-7.614-12.243v-6.726a39.17 39.17 0 0 1-18.777 4.779 39.11 39.11 0 0 1-8.677-.983l2.339 2.806.221.242 3.908 3.908a3.625 3.625 0 0 1 1.062 2.564v8.651c-.009.001-.018.005-.026.006a3.99 3.99 0 0 1 3.778 1.538c1.297 1.708.905 4.167-.715 5.572l-3.749 3.252a4.007 4.007 0 0 1 5.653.402l.077.089a4.006 4.006 0 0 1-.401 5.652l-3.745 3.248a3.81 3.81 0 0 1 5.448.471c1.318 1.615.997 4.021-.578 5.387l-14.063 12.031a32.711 32.711 0 0 1-10.306 6.048l-2.338.845a32.667 32.667 0 0 0-10.306 6.047l-3.691 3.201.6.691a1.777 1.777 0 0 1-.178 2.506l-19.237 16.596v15.394a4.637 4.637 0 0 0 4.637 4.637h74.006a3.229 3.229 0 0 1-3.229-3.229v-47.436a3.229 3.229 0 0 1 3.229-3.229h17.912v-14.712a3.229 3.229 0 0 1 3.229-3.229h34.468a15.598 15.598 0 0 0-11.407-11.706z"/>
        <path fill="#70d6f9" d="M89.606 214.367 71.11 193.041a1.777 1.777 0 0 0-2.506-.178l-37.87 32.67c-6.678 5.761-7.387 15.859-1.579 22.497 5.751 6.572 15.727 7.272 22.339 1.568l37.933-32.725a1.776 1.776 0 0 0 .179-2.506z"/>
        <path fill="#f9c1a8" d="M130.288 180.116a3.808 3.808 0 0 0-5.448-.471l3.744-3.248a4.007 4.007 0 0 0 .402-5.653l-.077-.089a4.007 4.007 0 0 0-5.653-.402l3.895-3.378a4.007 4.007 0 0 0-5.251-6.055l-3.894 3.378a4.007 4.007 0 0 0-5.251-6.055l-18.17 15.593c2.048-3.001 3.531-5.533 4.572-7.67 1.438-2.953.043-6.503-3.014-7.702a1.304 1.304 0 0 0-1.584.524c-2.099 3.359-5.342 7.434-7.512 10.054a18.408 18.408 0 0 0-3.38 6.222l-2.036 6.476a18.477 18.477 0 0 1-5.519 8.414l-4.332 3.757 17.227 19.862 3.691-3.201a32.667 32.667 0 0 1 10.306-6.047l2.338-.845a32.67 32.67 0 0 0 10.306-6.048l14.063-12.031c1.575-1.364 1.896-3.769.577-5.385z"/>
        <path fill="#fc657e" d="m122.907 148.671-3.908-3.908a3.653 3.653 0 0 1-.222-.243l-3.894-4.673a3.625 3.625 0 0 0-2.786-1.305h-7.824a3.624 3.624 0 0 0-2.753 1.266l-3.839 4.478a3.627 3.627 0 0 0-.787 3.146l1.388 6.245a3.628 3.628 0 0 1-.207 2.215l-1.211 2.825c2.542 1.44 3.609 4.643 2.29 7.35-1.041 2.137-2.524 4.669-4.572 7.67l18.17-15.593a4.007 4.007 0 0 1 5.251 6.055l3.895-3.378a3.981 3.981 0 0 1 2.069-.935v-8.651a3.617 3.617 0 0 0-1.06-2.564z"/>
        <path fill="#f98fa6" d="M148.834 199.605a3.229 3.229 0 0 0-3.229 3.229v14.712h42.586v-17.941h-39.357z"/>
        <path fill="#fc657e" d="M227.547 199.605h-39.356v17.941h42.586v-14.712a3.23 3.23 0 0 0-3.23-3.229zm-21.444-17.941h-36.127a3.229 3.229 0 0 0-3.229 3.229v14.712h42.586v-14.712a3.23 3.23 0 0 0-3.23-3.229z"/>
        <path fill="#f98fa6" d="M145.605 235.631v14.64a3.229 3.229 0 0 0 3.229 3.229h39.356v-17.869h-42.585z"/>
        <path fill="#fc657e" d="M188.191 235.631V253.5h39.356a3.23 3.23 0 0 0 3.229-3.229v-14.64h-42.585z"/>
        <path fill="#f98fa6" d="M209.333 217.546h21.444v18.085h-21.444z"/>
        <path fill="#fc657e" d="M166.747 217.546h42.586v18.085h-42.586z"/>
        <path fill="#f98fa6" d="M145.605 217.546h21.142v18.085h-21.142z"/>
        <path fill="#f9c1a8" d="M151.507 156.887a13.651 13.651 0 0 1-7.613-12.242v-6.726a39.17 39.17 0 0 1-18.777 4.779 39.11 39.11 0 0 1-8.677-.983l2.338 2.806c.07.084.144.165.222.243l3.908 3.908a3.625 3.625 0 0 1 1.062 2.564v8.651c-.009.001-.018.005-.026.006a3.992 3.992 0 0 1 3.61 1.331 4.007 4.007 0 0 1-.402 5.653l-3.894 3.378a4.007 4.007 0 0 1 5.653.402l.077.089a3.994 3.994 0 0 1 .861 3.555c10.178-1.384 18.822-7.764 23.362-16.573l-1.704-.841z"/>
        <path fill="#f9c1a8" d="M164.621 67.372a2.117 2.117 0 0 0-2.04-2.077c-16.414-.481-25.063-6.987-28.386-10.244a2.126 2.126 0 0 0-3.162.199c-14.431 18.148-35.721 15.587-42.879 14.089-1.301-.272-2.549.708-2.55 2.037v31.811c0 15.431 8.969 28.861 21.948 35.357h4.545c1.076 0 2.097.478 2.786 1.305l1.561 1.873c2.794.632 5.694.977 8.672.977 21.731 0 39.511-17.78 39.511-39.511V67.99c.001-.207-.002-.413-.006-.618z"/>
        <path fill="#414344" d="M156.035 25.461c-4.21 0-8.147 1.19-11.53 3.218-3.951-6.594-11.15-11.047-19.355-11.047h-11.59c-22.431 0-40.784 18.353-40.784 40.784V76.69a16.413 16.413 0 0 1 12.828-3.416v-1.899c.001-1.329 1.249-2.31 2.55-2.037 7.158 1.498 28.447 4.059 42.879-14.089a2.127 2.127 0 0 1 3.162-.199c3.323 3.258 11.972 9.763 28.386 10.244a2.118 2.118 0 0 1 2.04 2.077c.004.206.006.411.006.618v5.285a16.551 16.551 0 0 1 2.536-.201c4.447 0 8.475 1.768 11.442 4.629V48.031c0-12.414-10.157-22.57-22.57-22.57z"/>
        <path fill="#f9c1a8" d="M167.163 73.074c-.863 0-1.709.073-2.536.201v29.912c0 .891-.041 1.773-.099 2.65.86.139 1.736.23 2.635.23 9.111 0 16.496-7.386 16.496-16.496s-7.385-16.497-16.496-16.497zm-81.558 30.113V73.275a16.548 16.548 0 0 0-2.535-.201c-9.111 0-16.496 7.386-16.496 16.496s7.386 16.496 16.496 16.496c.899 0 1.775-.092 2.635-.23v-.001c-.06-.876-.1-1.758-.1-2.648z"/>
        <path d="M167.121 67.324a4.606 4.606 0 0 0-4.466-4.528c-15.805-.463-23.944-6.819-26.71-9.53a4.65 4.65 0 0 0-3.525-1.317 4.651 4.651 0 0 0-3.344 1.745c-13.325 16.756-32.701 14.81-40.409 13.198a4.608 4.608 0 0 0-3.868.938 4.57 4.57 0 0 0-1.694 3.573v31.784c0 15.87 8.847 30.228 23.088 37.47a2.5 2.5 0 1 0 2.265-4.457c-12.555-6.385-20.354-19.035-20.354-33.013V71.88c7.226 1.428 29.495 3.943 44.634-14.761 4.076 3.877 13.099 10.093 29.389 10.663l.001.208v35.197c0 20.408-16.604 37.012-37.012 37.012a36.86 36.86 0 0 1-7.874-.861 2.5 2.5 0 0 0-1.071 4.884c2.957.648 5.966.977 8.944.977 23.165 0 42.012-18.846 42.012-42.012V67.99a24.17 24.17 0 0 0-.006-.666z"/>
        <path d="M156.035 22.961c-3.695 0-7.354.839-10.71 2.443-4.709-6.389-12.239-10.272-20.175-10.272h-11.59c-23.867 0-43.284 19.417-43.284 43.284v17.521a2.5 2.5 0 1 0 5 0v-17.52c0-21.11 17.174-38.284 38.284-38.284h11.59c6.981 0 13.576 3.768 17.211 9.832a2.5 2.5 0 0 0 3.43.859 19.937 19.937 0 0 1 10.244-2.862c11.066 0 20.069 9.003 20.069 20.07v28.761a2.5 2.5 0 1 0 5 0V48.031c0-13.824-11.246-25.07-25.069-25.07z"/>
        <path d="M167.163 70.574c-.703 0-1.424.042-2.14.125a2.5 2.5 0 1 0 .575 4.967 13.66 13.66 0 0 1 1.565-.092c7.718 0 13.996 6.279 13.996 13.996 0 7.718-6.278 13.997-13.996 13.997-.469 0-.954-.03-1.484-.092a2.5 2.5 0 1 0-.582 4.966c.726.085 1.401.126 2.066.126 10.475 0 18.996-8.522 18.996-18.997s-8.521-18.996-18.996-18.996zm-82.807 32.922c-.456.047-.877.071-1.287.071-7.718 0-13.996-6.279-13.996-13.997 0-7.717 6.278-13.996 13.996-13.996.44 0 .894.023 1.347.068a2.497 2.497 0 0 0 2.737-2.238 2.5 2.5 0 0 0-2.237-2.737 18.308 18.308 0 0 0-1.847-.094c-10.475 0-18.996 8.521-18.996 18.996s8.521 18.997 18.996 18.997c.585 0 1.177-.032 1.807-.098a2.5 2.5 0 0 0 2.227-2.747 2.504 2.504 0 0 0-2.747-2.225zm11.266 55.488a2.5 2.5 0 0 0-3.348-1.137l-4.112 2.027-30.429 7.659c-7.437 1.872-13.681 8.301-15.563 16.012l-12.409 39.912a2.5 2.5 0 0 0 4.776 1.484l12.433-39.988c.016-.053.03-.106.044-.16 1.412-5.894 6.322-10.998 11.94-12.412l30.686-7.724a2.49 2.49 0 0 0 .495-.182l4.351-2.145a2.498 2.498 0 0 0 1.136-3.346zM148.834 251H74.828a2.14 2.14 0 0 1-2.138-2.137v-14.644a2.5 2.5 0 1 0-5 0v14.644c0 3.936 3.202 7.137 7.138 7.137h74.006a2.5 2.5 0 1 0 0-5zm57.945-70.321a18.057 18.057 0 0 0-13.131-13.145l-30.429-7.659-10.607-5.23a11.082 11.082 0 0 1-6.219-10v-5.77a2.5 2.5 0 1 0-5 0v5.77c0 6.195 3.451 11.745 9.008 14.485l10.846 5.347c.158.078.324.139.495.182l30.686 7.724a13.067 13.067 0 0 1 9.502 9.511 2.5 2.5 0 1 0 4.849-1.215zM141.191 87.06a4.97 4.97 0 1 0 0 9.94 4.97 4.97 0 0 0 0-9.94z"/>
        <circle cx="110.191" cy="92.03" r="4.97" transform="rotate(-9.213 110.188 92.011)"/>
        <path d="m91.495 212.729-18.497-21.327a4.28 4.28 0 0 0-6.027-.432l-37.869 32.67c-7.736 6.674-8.555 18.347-1.828 26.036 6.646 7.594 18.246 8.378 25.854 1.814l37.938-32.729a4.281 4.281 0 0 0 .429-6.032zm-41.633 34.976c-5.553 4.789-13.996 4.197-18.825-1.321-4.899-5.599-4.301-14.099 1.33-18.958l37.327-32.202 17.548 20.232-37.38 32.249z"/>
        <path d="M132.225 178.535a6.348 6.348 0 0 0-1.171-1.113 6.463 6.463 0 0 0 1.396-3.591 6.467 6.467 0 0 0-1.576-4.725l-.076-.088a6.534 6.534 0 0 0-1.205-1.083 6.464 6.464 0 0 0 1.424-3.625c.123-1.733-.437-3.412-1.575-4.725s-2.721-2.104-4.454-2.227a6.462 6.462 0 0 0-3.79.897 6.494 6.494 0 0 0-.901-1.347c-2.35-2.709-6.469-3.004-9.169-.661l-8.911 7.647a8.14 8.14 0 0 0-.548-3.234 8.167 8.167 0 0 0-4.613-4.621 3.808 3.808 0 0 0-4.616 1.526c-2.107 3.373-5.489 7.578-7.318 9.785a20.808 20.808 0 0 0-3.838 7.067l-2.037 6.476a15.964 15.964 0 0 1-4.771 7.275l-3.862 3.35a2.5 2.5 0 1 0 3.275 3.777l3.862-3.35a20.953 20.953 0 0 0 6.266-9.553l2.037-6.476a15.83 15.83 0 0 1 2.919-5.377c2.116-2.554 4.974-6.149 7.091-9.364.42.338.745.782.948 1.302.319.82.284 1.707-.101 2.497-1.046 2.146-2.522 4.62-4.39 7.354a2.5 2.5 0 0 0 3.692 3.307l18.181-15.602a1.509 1.509 0 0 1 2.126.151 1.51 1.51 0 0 1-.147 2.124l-.003.002a2.5 2.5 0 1 0 3.28 3.773l3.89-3.374a1.509 1.509 0 0 1 2.491 1.245 1.496 1.496 0 0 1-.516 1.032l-3.893 3.375-.002.002a2.5 2.5 0 0 0 3.275 3.777 1.51 1.51 0 0 1 2.127.152l.076.088a1.509 1.509 0 0 1-.15 2.126l-3.741 3.245-.004.003a2.5 2.5 0 0 0 3.276 3.776h.001a1.305 1.305 0 0 1 1.872.164c.434.532.307 1.411-.266 1.907l-14.076 12.042a30.07 30.07 0 0 1-9.519 5.585l-2.338.845a35.055 35.055 0 0 0-11.094 6.51l-3.198 2.774a2.501 2.501 0 0 0 3.276 3.778l3.198-2.774a30.077 30.077 0 0 1 9.518-5.585l2.338-.845a35.025 35.025 0 0 0 11.082-6.499l14.076-12.042c2.616-2.267 3.009-6.24.876-8.855z"/>
        <path d="m124.675 146.904-3.902-3.903-3.969-4.754a6.113 6.113 0 0 0-4.706-2.203h-7.824a6.12 6.12 0 0 0-4.651 2.139l-3.837 4.478a6.159 6.159 0 0 0-1.33 5.316l1.388 6.246c.052.231.029.468-.064.687l-1.037 2.42a2.5 2.5 0 0 0 4.595 1.97l1.036-2.418a6.09 6.09 0 0 0 .351-3.744l-1.388-6.244c-.076-.345.015-.71.245-.979l3.837-4.477c.215-.25.526-.394.855-.394h7.824c.336 0 .651.148.865.405l3.897 4.677c.116.138.238.272.371.405l3.907 3.908c.213.213.33.496.33.797v8.328a2.5 2.5 0 1 0 5 0v-8.328a6.084 6.084 0 0 0-1.793-4.332z"/>
        <path fill="#fc657e" d="M133.654 109.5h-15.927a5.05 5.05 0 0 0-5.036 5.036v2.964c0 7.15 5.85 13 13 13s13-5.85 13-13v-2.964c0-2.77-2.267-5.036-5.037-5.036z"/>
        <path fill="#edf4fc" d="M133.654 109.5h-15.927a5.05 5.05 0 0 0-5.036 5.036v2.964h26v-2.964c0-2.77-2.267-5.036-5.037-5.036z"/>
        <path d="M133.654 107h-15.927c-4.156 0-7.537 3.381-7.537 7.537v2.963c0 8.547 6.953 15.5 15.5 15.5s15.5-6.953 15.5-15.5v-2.963c0-4.156-3.38-7.537-7.536-7.537zm2.536 10.5c0 5.79-4.71 10.5-10.5 10.5s-10.5-4.71-10.5-10.5v-2.963a2.54 2.54 0 0 1 2.537-2.537h15.927a2.54 2.54 0 0 1 2.536 2.537v2.963z"/>
        <path d="M137.875 115h-24.469a2.5 2.5 0 1 0 0 5h24.469a2.5 2.5 0 1 0 0-5zm50.315 82.105h-39.356a5.735 5.735 0 0 0-5.729 5.729v14.711a2.5 2.5 0 0 0 2.5 2.5h42.586a2.5 2.5 0 0 0 2.5-2.5v-17.941a2.5 2.5 0 0 0-2.501-2.499zm-2.5 17.941h-37.586v-12.211a.73.73 0 0 1 .729-.729h36.856v12.94z"/>
        <path d="M227.547 197.105H188.19a2.5 2.5 0 1 0 0 5h39.356a.73.73 0 0 1 .729.729v12.211H188.19a2.5 2.5 0 1 0 0 5h42.586a2.5 2.5 0 0 0 2.5-2.5v-14.711a5.735 5.735 0 0 0-5.729-5.729z"/>
        <path d="M206.103 179.164h-36.126a5.735 5.735 0 0 0-5.729 5.729v13.898a2.5 2.5 0 1 0 5 0v-13.898a.73.73 0 0 1 .729-.729h36.126a.73.73 0 0 1 .729.729v13.982a2.5 2.5 0 1 0 5 0v-13.982a5.735 5.735 0 0 0-5.729-5.729zm-17.913 54.492a2.5 2.5 0 0 0-2.5 2.5V251h-36.856a.73.73 0 0 1-.729-.729v-12.14h18.709a2.5 2.5 0 1 0 0-5h-21.209a2.5 2.5 0 0 0-2.5 2.5v14.64a5.735 5.735 0 0 0 5.729 5.729h39.356a2.5 2.5 0 0 0 2.5-2.5v-17.344a2.5 2.5 0 0 0-2.5-2.5z"/>
        <path d="M230.776 233.131h-21.293a2.5 2.5 0 1 0 0 5h18.793v12.14a.73.73 0 0 1-.729.729H188.19a2.5 2.5 0 1 0 0 5h39.356a5.735 5.735 0 0 0 5.729-5.729v-14.64a2.498 2.498 0 0 0-2.499-2.5z"/>
        <path d="M230.776 215.046a2.5 2.5 0 0 0-2.5 2.5v18.085a2.5 2.5 0 1 0 5 0v-18.085a2.5 2.5 0 0 0-2.5-2.5zm-21.444 0h-42.585a2.5 2.5 0 0 0-2.5 2.5v18.085a2.5 2.5 0 0 0 2.5 2.5h42.585a2.5 2.5 0 0 0 2.5-2.5v-18.085a2.5 2.5 0 0 0-2.5-2.5zm-2.5 18.085h-37.585v-13.085h37.585v13.085zm-61.228-18.085a2.5 2.5 0 0 0-2.5 2.5v18.085a2.5 2.5 0 1 0 5 0v-18.085a2.5 2.5 0 0 0-2.5-2.5zm8.474-58.897a2.503 2.503 0 0 0-3.392 1c-4.227 7.767-11.922 13.22-20.584 14.586a2.5 2.5 0 0 0 .78 4.939c10.187-1.607 19.232-8.012 24.197-17.134a2.501 2.501 0 0 0-1.001-3.391z"/>
        <path fill="#f5c84c" d="M69.983 144.697c-4.498-.838-8.043-4.31-8.898-8.717a.2.2 0 0 0-.395 0c-.855 4.406-4.4 7.879-8.898 8.717a.195.195 0 0 0 0 .387c4.498.838 8.043 4.31 8.898 8.717a.2.2 0 0 0 .395 0c.855-4.406 4.4-7.879 8.898-8.717a.195.195 0 0 0 0-.387z"/>
        <path fill="#fc657e" d="M227.867 170.965c-3.397-.633-6.075-3.256-6.721-6.584-.032-.167-.266-.167-.298 0-.646 3.328-3.323 5.951-6.721 6.584a.147.147 0 0 0 0 .292c3.397.633 6.075 3.256 6.721 6.584.032.167.266.167.298 0 .646-3.328 3.323-5.951 6.721-6.584a.147.147 0 0 0 0-.292z"/>
        <path fill="#70d6f9" d="M180.694 5.487h-2.329v-2.33a3.156 3.156 0 1 0-6.314 0v2.33h-2.33a3.156 3.156 0 1 0 0 6.314h2.33v2.33a3.156 3.156 0 1 0 6.314 0v-2.33h2.329a3.156 3.156 0 1 0 0-6.314z"/>
        <path fill="#87d147" d="M67.999 117.06a3.377 3.377 0 1 0 0 6.754 3.377 3.377 0 0 0 0-6.754z"/>
        <path fill="#f5c84c" d="M191.999 26.06a3.377 3.377 0 1 0 0 6.754 3.377 3.377 0 0 0 0-6.754z"/>
    </g>
</svg>
