<svg xmlns="http://www.w3.org/2000/svg" xml:space="preserve" viewBox="0 0 512 512">
    <path fill="#d68231" d="M283.871 148.631c0-35.691-23.805-.965-23.805-65.962V53.46c0-3.192-2.611-5.803-5.804-5.803H233.83c-3.192 0-5.804 2.611-5.804 5.803v29.21c0 64.997-23.804 30.271-23.804 65.962v92.842c0 4.789 3.916 8.706 8.705 8.706h62.238c4.789 0 8.705-3.917 8.705-8.706v-92.843z"/>
    <path d="M228.027 56.748h32.04v12.574h-32.04z" opacity=".2"/>
    <path fill="#fff" d="M222.184 148.218h43.726v79.555h-43.726z"/>
    <path fill="#a4a9ad" d="M265.153 56.241c0 2.911-2.382 5.292-5.292 5.292h-31.628c-2.911 0-5.292-2.382-5.292-5.292V46.2c0-2.911 2.382-5.292 5.292-5.292h31.628c2.911 0 5.292 2.382 5.292 5.292v10.041z"/>
    <path fill="#d68231" d="M164.987 162.244c0-35.691-23.805-.965-23.805-65.962V67.073c0-3.192-2.611-5.804-5.804-5.804h-20.432c-3.192 0-5.804 2.611-5.804 5.804v29.21c0 64.997-23.804 30.271-23.804 65.962v92.842c0 4.789 3.916 8.706 8.705 8.706h62.238c4.789 0 8.705-3.917 8.705-8.706l.001-92.843z"/>
    <path d="M109.139 70.357h32.04v12.574h-32.04z" opacity=".2"/>
    <path fill="#fff" d="M103.297 161.83h43.726v79.555h-43.726z"/>
    <path fill="#a4a9ad" d="M146.268 69.854c0 2.911-2.382 5.292-5.292 5.292h-31.628c-2.911 0-5.292-2.382-5.292-5.292V59.813c0-2.911 2.382-5.292 5.292-5.292h31.628c2.911 0 5.292 2.382 5.292 5.292v10.041z"/>
    <path fill="#00ad68" d="M33.276 216.31h445.438v240.369H33.276z"/>
    <path d="M33.276 418.838h47.07v22.653h-47.07zm135.805-163.735h47.07v22.653h-47.07zm46.403 140.121h47.07v22.653h-47.07zm107.742-45.811h47.07v22.653h-47.07zm88.499 59.56h47.07v22.653h-47.07zm-71.373-175.484h47.07v22.653h-47.07zm114.824 64.038h23.54v22.653h-23.54zm-421.9 7.769h23.54v22.653h-23.54z" opacity=".1"/>
    <path fill="#a4a9ad" d="M338.161 148.218h102.28v53.389h-102.28z"/>
    <path d="M338.161 148.218h102.28v20.175h-102.28z" opacity=".1"/>
    <path fill="#d1d3d3" d="M447.954 132.718c0-2.987-2.445-5.432-5.432-5.432H336.084c-2.988 0-5.432 2.445-5.432 5.432v14.856c0 2.987 2.445 5.432 5.432 5.432h106.439c2.988 0 5.432-2.445 5.432-5.432v-14.856h-.001z"/>
    <path fill="#333e48" d="M478.716 244.815V199.66c0-5.976-4.889-10.864-10.864-10.864H44.142c-5.975 0-10.864 4.889-10.864 10.864v45.155h445.438z"/>
    <path fill="#ffb819" d="M346.756 287.45h102.28v169.218h-102.28z"/>
    <circle cx="372.509" cy="380.68" r="8.622" fill="#333e48"/>
    <path fill="#fff" d="M77.114 406.552c-5.975 0-10.864-4.889-10.864-10.864V287.455c0-5.976 4.889-10.864 10.864-10.864h221.501c5.975 0 10.864 4.889 10.864 10.864v108.232c0 5.975-4.889 10.864-10.864 10.864H77.114z"/>
    <path fill="#218649" d="M87.978 384.823v-86.505l49.943 86.505zm49.943 0 49.943-86.505 49.943 86.505z"/>
    <path fill="#ffb819" d="m187.864 298.318-49.943 86.505-49.943-86.505zm99.885 0-49.942 86.505-49.943-86.505z"/>
    <path fill="#218649" d="m237.807 384.823 49.942-86.505v86.505z"/>
    <path fill="#333e48" d="M504.061 466.816a4.287 4.287 0 0 1-4.275 4.275H12.214a4.287 4.287 0 0 1-4.275-4.275v-15.302a4.288 4.288 0 0 1 4.275-4.277h487.573a4.287 4.287 0 0 1 4.275 4.277v15.302z"/>
    <path fill="#a4a9ad" d="M335.124 447.237h125.567v23.855H335.124z"/>
    <path fill="#1e252b" d="M499.786 439.299h-13.131V199.66c0-10.368-8.435-18.803-18.803-18.803h-19.469v-21.284c4.439-2.177 7.511-6.73 7.511-11.999v-14.856c0-7.372-5.998-13.371-13.371-13.371h-106.44c-7.372 0-13.371 5.997-13.371 13.371v14.856c0 5.269 3.072 9.823 7.511 11.999v21.284H291.81l-.001-32.225c0-18.334-6.024-23.226-13.302-27.335-4.678-2.642-10.502-5.93-10.502-38.627V66.647c3.091-2.425 5.087-6.183 5.087-10.406V46.2c0-7.296-5.935-13.231-13.231-13.231h-31.628c-7.296 0-13.231 5.935-13.231 13.231v10.041c0 4.223 1.996 7.983 5.088 10.407V82.67c0 32.698-5.823 35.986-10.502 38.627-7.278 4.109-13.302 9.001-13.302 27.335v32.225h-23.357l-.001-18.613c0-18.334-6.024-23.226-13.302-27.335-4.68-2.642-10.502-5.93-10.502-38.627V80.26c3.091-2.425 5.087-6.183 5.087-10.406V59.813c0-7.296-5.935-13.231-13.231-13.231h-31.628c-7.296 0-13.231 5.935-13.231 13.231v10.041c0 4.223 1.996 7.982 5.088 10.406v16.022c0 32.698-5.823 35.985-10.502 38.627-7.277 4.109-13.302 9.001-13.302 27.335v18.613H44.142c-10.368 0-18.803 8.435-18.803 18.803v239.639H12.214C5.479 439.299 0 444.777 0 451.513v15.302c0 6.735 5.479 12.215 12.214 12.215h487.573c6.735 0 12.214-5.48 12.214-12.215v-15.302c-.001-6.736-5.48-12.214-12.215-12.214zM338.589 135.224h101.426v9.843H338.589v-9.843zm93.916 25.72v19.913H346.1v-19.913h86.405zM230.878 48.846h26.336v4.748h-26.336v-4.748zm-18.717 99.785c0-10.556 1.639-11.481 5.23-13.509 10.162-5.737 18.574-13.644 18.574-52.453V69.472h16.162v13.197c0 38.809 8.412 46.716 18.574 52.454 3.591 2.027 5.23 2.952 5.23 13.508l.001 32.225h-63.771v-32.225zM111.995 62.46h26.336v4.748h-26.336V62.46zm-18.717 99.784c0-10.556 1.639-11.481 5.23-13.508 10.162-5.737 18.574-13.644 18.574-52.454V83.085h16.162v13.197c0 38.809 8.412 46.716 18.574 52.454 3.591 2.027 5.23 2.953 5.23 13.508l.001 18.613H93.278v-18.613zM41.215 199.66c0-1.587 1.34-2.926 2.926-2.926h423.711c1.586 0 2.926 1.34 2.926 2.926v37.216H41.215V199.66zm0 53.093h429.563v186.546H456.98V287.455a7.94 7.94 0 0 0-7.939-7.939H346.759a7.94 7.94 0 0 0-7.939 7.939v151.843H41.215V252.753zm399.887 42.641v143.905h-86.404V295.394h86.404zm55.021 167.76H15.877v-7.978h480.246v7.978zm-123.614-73.846a8.622 8.622 0 1 0-.001-17.243 8.622 8.622 0 0 0 .001 17.243zm-73.894-120.656H77.114c-10.368 0-18.803 8.435-18.803 18.803v108.232c0 10.368 8.435 18.803 18.803 18.803h221.501c10.368 0 18.803-8.435 18.803-18.803V287.455c-.001-10.369-8.436-18.803-18.803-18.803zm2.925 127.035c0 1.587-1.34 2.926-2.926 2.926h-221.5c-1.587 0-2.926-1.34-2.926-2.926V287.455c0-1.586 1.34-2.926 2.926-2.926h221.501c1.586 0 2.926 1.34 2.926 2.926l-.001 108.232z"/>
</svg>
